<svg width="61" height="60" viewBox="0 0 61 60" fill="none" xmlns="http://www.w3.org/2000/svg">
<circle cx="30.5" cy="30" r="29" fill="white" stroke="#00758D" stroke-width="2"/>
<path d="M31.25 26.0626V21.6001H24.6875C24.2511 21.6001 23.9 21.9512 23.9 22.3876V37.6126C23.9 38.049 24.2511 38.4001 24.6875 38.4001H35.7125C36.1489 38.4001 36.5 38.049 36.5 37.6126V26.8501H32.0375C31.6044 26.8501 31.25 26.4957 31.25 26.0626ZM29.15 34.8563C29.15 35.2074 28.7267 35.3813 28.4774 35.1353L27.3125 33.9376H26.3938C26.1772 33.9376 26 33.7604 26 33.5438V31.7063C26 31.4898 26.1772 31.3126 26.3938 31.3126H27.3125L28.4774 30.1149C28.7267 29.8656 29.15 30.0428 29.15 30.3938V34.8563ZM30.2394 33.2945C30.538 32.9893 30.538 32.5037 30.2394 32.1985C29.5142 31.4504 30.6397 30.3545 31.3681 31.0993C32.2606 32.0148 32.2606 33.4749 31.3681 34.3937C30.6528 35.1254 29.5011 34.0524 30.2394 33.2945ZM33.0613 29.4521C34.8463 31.2863 34.8463 34.2034 33.0613 36.0409C32.346 36.7759 31.191 35.7029 31.9325 34.9417C33.1203 33.721 33.1236 31.7753 31.9325 30.5513C31.2074 29.8032 32.3361 28.704 33.0613 29.4521ZM36.5 25.5999V25.8001H32.3V21.6001H32.5002C32.7102 21.6001 32.9103 21.6821 33.058 21.8298L36.2703 25.0454C36.418 25.1931 36.5 25.3932 36.5 25.5999Z" fill="#00758D"/>
</svg>
