<svg width="311" height="314" viewBox="0 0 311 314" fill="none" xmlns="http://www.w3.org/2000/svg">
<g clip-path="url(#clip0_32_29)">
<path d="M155.5 314C241.38 314 311 243.709 311 157C311 70.2913 241.38 0 155.5 0C69.6197 0 0 70.2913 0 157C0 243.709 69.6197 314 155.5 314Z" fill="#00788C"/>
<path d="M245.262 115.265C245.262 115.265 235.345 91.345 212.563 85H155.728H98.8974C76.1108 91.349 66.1943 115.265 66.1943 115.265L78.2193 150.398H83.1227C83.1227 143.736 88.3268 138.333 94.7496 138.333C97.2074 138.333 99.4866 139.129 101.364 140.482C102.98 135.834 107.254 132.511 112.288 132.511C117.305 132.511 121.57 135.814 123.195 140.441C125.117 138.987 127.473 138.121 130.033 138.121C132.255 138.121 134.323 138.779 136.086 139.901C137.849 135.566 141.985 132.515 146.807 132.515C150.39 132.515 153.595 134.205 155.728 136.85C157.861 134.205 161.066 132.515 164.653 132.515C169.476 132.515 173.611 135.566 175.37 139.901C177.137 138.783 179.205 138.121 181.427 138.121C183.983 138.121 186.339 138.987 188.261 140.441C189.89 135.814 194.151 132.511 199.168 132.511C204.202 132.511 208.476 135.834 210.093 140.482C211.973 139.129 214.248 138.333 216.71 138.333C223.129 138.333 228.333 143.736 228.333 150.398H233.237L245.262 115.265Z" fill="white"/>
<path d="M168.111 185.64C168.111 180.444 163.894 176.223 158.694 176.223C153.49 176.223 149.273 180.444 149.273 185.64C149.273 189.569 151.678 192.928 155.094 194.346V203.101H162.289V194.346C165.706 192.928 168.111 189.569 168.111 185.64Z" fill="white"/>
<path d="M180.916 212.522C180.916 214.638 178.799 214.638 178.799 214.638H138.58C136.463 214.638 136.463 212.522 136.463 212.522V172.307C136.463 170.19 138.58 170.191 138.58 170.191H178.799C180.915 170.191 180.916 172.307 180.916 172.307V212.522ZM244.628 156.752H159.116H158.271H72.7593L78.8978 214.11C78.8978 214.11 80.803 228.077 96.6752 228.077H158.271H159.116H220.712C236.584 228.077 238.489 214.11 238.489 214.11L244.628 156.752Z" fill="white"/>
<path d="M132.26 97.185C132.2 96.681 131.958 96.29 131.534 96.011C131.11 95.733 130.589 95.594 129.973 95.594C129.522 95.594 129.128 95.667 128.79 95.812C128.455 95.958 128.193 96.159 128.004 96.414C127.819 96.669 127.726 96.959 127.726 97.284C127.726 97.556 127.79 97.79 127.92 97.985C128.052 98.177 128.221 98.338 128.427 98.467C128.632 98.593 128.848 98.698 129.073 98.781C129.299 98.86 129.506 98.925 129.695 98.974L130.729 99.253C130.994 99.322 131.289 99.419 131.614 99.541C131.942 99.664 132.255 99.831 132.553 100.043C132.855 100.252 133.103 100.521 133.299 100.849C133.495 101.177 133.592 101.58 133.592 102.057C133.592 102.607 133.448 103.104 133.16 103.548C132.875 103.992 132.457 104.345 131.907 104.607C131.36 104.869 130.696 105 129.913 105C129.184 105 128.553 104.882 128.019 104.647C127.489 104.412 127.071 104.084 126.766 103.663C126.465 103.242 126.294 102.753 126.254 102.196H127.527C127.56 102.58 127.689 102.899 127.915 103.151C128.143 103.399 128.432 103.585 128.78 103.707C129.131 103.827 129.509 103.886 129.913 103.886C130.384 103.886 130.807 103.81 131.181 103.658C131.556 103.502 131.852 103.286 132.071 103.011C132.29 102.733 132.399 102.408 132.399 102.037C132.399 101.699 132.305 101.424 132.116 101.212C131.927 101 131.678 100.827 131.37 100.695C131.062 100.562 130.729 100.446 130.371 100.347L129.118 99.989C128.322 99.76 127.693 99.433 127.229 99.009C126.765 98.585 126.533 98.03 126.533 97.344C126.533 96.774 126.687 96.276 126.995 95.852C127.307 95.425 127.724 95.093 128.248 94.858C128.775 94.619 129.363 94.5 130.013 94.5C130.669 94.5 131.252 94.618 131.763 94.853C132.273 95.085 132.678 95.403 132.976 95.808C133.277 96.212 133.437 96.671 133.453 97.185H132.26ZM142.301 94.639H143.534V101.381C143.534 102.077 143.37 102.698 143.042 103.245C142.717 103.789 142.258 104.218 141.665 104.533C141.072 104.844 140.376 105 139.577 105C138.778 105 138.082 104.844 137.489 104.533C136.896 104.218 136.435 103.789 136.107 103.245C135.782 102.698 135.619 102.077 135.619 101.381V94.639H136.852V101.281C136.852 101.778 136.962 102.221 137.181 102.609C137.399 102.993 137.711 103.296 138.115 103.518C138.523 103.737 139.01 103.847 139.577 103.847C140.144 103.847 140.631 103.737 141.039 103.518C141.446 103.296 141.758 102.993 141.973 102.609C142.192 102.221 142.301 101.778 142.301 101.281V94.639ZM154.19 97.821H152.957C152.884 97.466 152.756 97.155 152.574 96.886C152.395 96.618 152.176 96.392 151.918 96.21C151.662 96.025 151.379 95.885 151.067 95.793C150.756 95.7 150.431 95.653 150.093 95.653C149.477 95.653 148.918 95.809 148.418 96.121C147.92 96.432 147.524 96.891 147.229 97.498C146.938 98.104 146.792 98.848 146.792 99.73C146.792 100.612 146.938 101.356 147.229 101.962C147.524 102.569 147.92 103.028 148.418 103.339C148.918 103.651 149.477 103.807 150.093 103.807C150.431 103.807 150.756 103.76 151.067 103.668C151.379 103.575 151.662 103.437 151.918 103.255C152.176 103.069 152.395 102.842 152.574 102.574C152.756 102.302 152.884 101.991 152.957 101.639H154.19C154.097 102.16 153.928 102.625 153.683 103.036C153.437 103.447 153.132 103.797 152.768 104.085C152.403 104.37 151.994 104.587 151.54 104.736C151.089 104.886 150.607 104.96 150.093 104.96C149.225 104.96 148.452 104.748 147.776 104.324C147.1 103.9 146.568 103.296 146.18 102.514C145.793 101.732 145.599 100.804 145.599 99.73C145.599 98.656 145.793 97.728 146.18 96.946C146.568 96.164 147.1 95.561 147.776 95.136C148.452 94.712 149.225 94.5 150.093 94.5C150.607 94.5 151.089 94.575 151.54 94.724C151.994 94.873 152.403 95.092 152.768 95.38C153.132 95.665 153.437 96.013 153.683 96.424C153.928 96.832 154.097 97.297 154.19 97.821ZM164.375 97.821H163.142C163.069 97.466 162.942 97.155 162.759 96.886C162.58 96.618 162.362 96.392 162.103 96.21C161.848 96.025 161.565 95.885 161.253 95.793C160.941 95.7 160.617 95.653 160.279 95.653C159.662 95.653 159.104 95.809 158.603 96.121C158.106 96.432 157.71 96.891 157.415 97.498C157.123 98.104 156.977 98.848 156.977 99.73C156.977 100.612 157.123 101.356 157.415 101.962C157.71 102.569 158.106 103.028 158.603 103.339C159.104 103.651 159.662 103.807 160.279 103.807C160.617 103.807 160.941 103.76 161.253 103.668C161.565 103.575 161.848 103.437 162.103 103.255C162.362 103.069 162.58 102.842 162.759 102.574C162.942 102.302 163.069 101.991 163.142 101.639H164.375C164.282 102.16 164.113 102.625 163.868 103.036C163.623 103.447 163.318 103.797 162.953 104.085C162.589 104.37 162.179 104.587 161.725 104.736C161.275 104.886 160.792 104.96 160.279 104.96C159.41 104.96 158.638 104.748 157.962 104.324C157.286 103.9 156.754 103.296 156.366 102.514C155.978 101.732 155.784 100.804 155.784 99.73C155.784 98.656 155.978 97.728 156.366 96.946C156.754 96.164 157.286 95.561 157.962 95.136C158.638 94.712 159.41 94.5 160.279 94.5C160.792 94.5 161.275 94.575 161.725 94.724C162.179 94.873 162.589 95.092 162.953 95.38C163.318 95.665 163.623 96.013 163.868 96.424C164.113 96.832 164.282 97.297 164.375 97.821ZM166.368 104.821V94.639H172.512V95.733H167.6V99.173H172.194V100.267H167.6V103.727H172.592V104.821H166.368ZM180.303 97.185C180.243 96.681 180.001 96.29 179.577 96.011C179.153 95.733 178.632 95.594 178.016 95.594C177.565 95.594 177.171 95.667 176.833 95.812C176.498 95.958 176.236 96.159 176.047 96.414C175.862 96.669 175.769 96.959 175.769 97.284C175.769 97.556 175.833 97.79 175.963 97.985C176.095 98.177 176.264 98.338 176.47 98.467C176.675 98.593 176.891 98.698 177.116 98.781C177.341 98.86 177.549 98.925 177.738 98.974L178.772 99.253C179.037 99.322 179.332 99.419 179.657 99.541C179.985 99.664 180.298 99.831 180.596 100.043C180.898 100.252 181.146 100.521 181.342 100.849C181.537 101.177 181.635 101.58 181.635 102.057C181.635 102.607 181.491 103.104 181.203 103.548C180.918 103.992 180.5 104.345 179.95 104.607C179.403 104.869 178.738 105 177.956 105C177.227 105 176.596 104.882 176.062 104.647C175.532 104.412 175.114 104.084 174.809 103.663C174.508 103.242 174.337 102.753 174.297 102.196H175.57C175.603 102.58 175.732 102.899 175.958 103.151C176.186 103.399 176.475 103.585 176.823 103.707C177.174 103.827 177.552 103.886 177.956 103.886C178.427 103.886 178.85 103.81 179.224 103.658C179.599 103.502 179.895 103.286 180.114 103.011C180.333 102.733 180.442 102.408 180.442 102.037C180.442 101.699 180.348 101.424 180.159 101.212C179.97 101 179.721 100.827 179.413 100.695C179.105 100.562 178.772 100.446 178.414 100.347L177.161 99.989C176.365 99.76 175.736 99.433 175.272 99.009C174.808 98.585 174.576 98.03 174.576 97.344C174.576 96.774 174.73 96.276 175.038 95.852C175.35 95.425 175.767 95.093 176.291 94.858C176.818 94.619 177.406 94.5 178.056 94.5C178.712 94.5 179.295 94.618 179.806 94.853C180.316 95.085 180.721 95.403 181.019 95.808C181.32 96.212 181.479 96.671 181.496 97.185H180.303ZM189.231 97.185C189.171 96.681 188.929 96.29 188.505 96.011C188.081 95.733 187.56 95.594 186.944 95.594C186.493 95.594 186.099 95.667 185.76 95.812C185.426 95.958 185.164 96.159 184.975 96.414C184.789 96.669 184.697 96.959 184.697 97.284C184.697 97.556 184.761 97.79 184.89 97.985C185.023 98.177 185.192 98.338 185.398 98.467C185.603 98.593 185.818 98.698 186.044 98.781C186.269 98.86 186.476 98.925 186.665 98.974L187.699 99.253C187.965 99.322 188.26 99.419 188.584 99.541C188.912 99.664 189.226 99.831 189.524 100.043C189.826 100.252 190.074 100.521 190.27 100.849C190.465 101.177 190.563 101.58 190.563 102.057C190.563 102.607 190.419 103.104 190.13 103.548C189.845 103.992 189.428 104.345 188.878 104.607C188.331 104.869 187.666 105 186.884 105C186.155 105 185.523 104.882 184.99 104.647C184.46 104.412 184.042 104.084 183.737 103.663C183.435 103.242 183.265 102.753 183.225 102.196H184.498C184.531 102.58 184.66 102.899 184.885 103.151C185.114 103.399 185.402 103.585 185.751 103.707C186.102 103.827 186.48 103.886 186.884 103.886C187.355 103.886 187.777 103.81 188.152 103.658C188.526 103.502 188.823 103.286 189.042 103.011C189.26 102.733 189.37 102.408 189.37 102.037C189.37 101.699 189.275 101.424 189.086 101.212C188.898 101 188.649 100.827 188.341 100.695C188.032 100.562 187.699 100.446 187.341 100.347L186.089 99.989C185.293 99.76 184.663 99.433 184.199 99.009C183.735 98.585 183.503 98.03 183.503 97.344C183.503 96.774 183.657 96.276 183.966 95.852C184.277 95.425 184.695 95.093 185.219 94.858C185.746 94.619 186.334 94.5 186.983 94.5C187.64 94.5 188.223 94.618 188.733 94.853C189.244 95.085 189.648 95.403 189.947 95.808C190.248 96.212 190.407 96.671 190.424 97.185H189.231Z" fill="#00788C"/>
<path d="M65 115.818H245.408" stroke="#00788C" stroke-width="0.472"/>
</g>
<defs>
<clipPath id="clip0_32_29">
<rect width="311" height="314" fill="white"/>
</clipPath>
</defs>
</svg>
