<svg width="311" height="314" viewBox="0 0 311 314" fill="none" xmlns="http://www.w3.org/2000/svg">
<path d="M155.5 314C241.38 314 311 243.709 311 157C311 70.2913 241.38 0 155.5 0C69.6197 0 0 70.2913 0 157C0 243.709 69.6197 314 155.5 314Z" fill="white"/>
<path d="M164.352 165.888C164.352 160.692 160.135 156.471 154.935 156.471C149.731 156.471 145.514 160.692 145.514 165.888C145.514 169.817 147.919 173.176 151.335 174.594V183.349H158.53V174.594C161.947 173.176 164.352 169.817 164.352 165.888Z" fill="#6E6E70"/>
<path d="M177.157 192.77C177.157 194.886 175.04 194.886 175.04 194.886H134.821C132.704 194.886 132.704 192.77 132.704 192.77V152.555C132.704 150.438 134.821 150.439 134.821 150.439H175.04C177.156 150.439 177.157 152.555 177.157 152.555V192.77ZM240.869 137H155.357H154.512H69L75.1385 194.358C75.1385 194.358 77.0437 208.325 92.9159 208.325H154.512H155.357H216.953C232.825 208.325 234.73 194.358 234.73 194.358L240.869 137Z" fill="#23899D"/>
<path d="M212.5 105H98C98 105 90.5 106.5 79.5 116C68.5 125.5 66 135 66 135H244.5C244.5 135 240 124 232 116C224 108 212.5 105 212.5 105Z" fill="#00788C"/>
<path d="M129.006 117.685C128.946 117.181 128.704 116.79 128.28 116.511C127.856 116.233 127.335 116.094 126.719 116.094C126.268 116.094 125.874 116.167 125.536 116.312C125.201 116.458 124.939 116.659 124.75 116.914C124.565 117.169 124.472 117.459 124.472 117.784C124.472 118.056 124.536 118.29 124.666 118.485C124.798 118.677 124.967 118.838 125.173 118.967C125.378 119.093 125.594 119.198 125.819 119.281C126.045 119.36 126.252 119.425 126.441 119.474L127.475 119.753C127.74 119.822 128.035 119.919 128.36 120.041C128.688 120.164 129.001 120.331 129.299 120.543C129.601 120.752 129.849 121.021 130.045 121.349C130.241 121.677 130.338 122.08 130.338 122.557C130.338 123.107 130.194 123.604 129.906 124.048C129.621 124.492 129.203 124.845 128.653 125.107C128.106 125.369 127.442 125.5 126.659 125.5C125.93 125.5 125.299 125.382 124.765 125.147C124.235 124.912 123.817 124.584 123.512 124.163C123.211 123.742 123.04 123.253 123 122.696H124.273C124.306 123.08 124.435 123.399 124.661 123.651C124.889 123.899 125.178 124.085 125.526 124.207C125.877 124.327 126.255 124.386 126.659 124.386C127.13 124.386 127.553 124.31 127.927 124.158C128.302 124.002 128.598 123.786 128.817 123.511C129.036 123.233 129.145 122.908 129.145 122.537C129.145 122.199 129.051 121.924 128.862 121.712C128.673 121.5 128.424 121.327 128.116 121.195C127.808 121.062 127.475 120.946 127.117 120.847L125.864 120.489C125.068 120.26 124.439 119.933 123.975 119.509C123.511 119.085 123.279 118.53 123.279 117.844C123.279 117.274 123.433 116.776 123.741 116.352C124.053 115.925 124.47 115.593 124.994 115.358C125.521 115.119 126.109 115 126.759 115C127.415 115 127.998 115.118 128.509 115.353C129.019 115.585 129.424 115.903 129.722 116.308C130.023 116.712 130.183 117.171 130.199 117.685H129.006ZM139.047 115.139H140.28V121.881C140.28 122.577 140.116 123.198 139.788 123.745C139.463 124.289 139.004 124.718 138.411 125.033C137.818 125.344 137.122 125.5 136.323 125.5C135.524 125.5 134.828 125.344 134.235 125.033C133.642 124.718 133.181 124.289 132.853 123.745C132.528 123.198 132.365 122.577 132.365 121.881V115.139H133.598V121.781C133.598 122.278 133.708 122.721 133.927 123.109C134.145 123.493 134.457 123.796 134.861 124.018C135.269 124.237 135.756 124.347 136.323 124.347C136.89 124.347 137.377 124.237 137.785 124.018C138.192 123.796 138.504 123.493 138.719 123.109C138.938 122.721 139.047 122.278 139.047 121.781V115.139ZM150.936 118.321H149.703C149.63 117.966 149.502 117.655 149.32 117.386C149.141 117.118 148.922 116.892 148.664 116.71C148.408 116.525 148.125 116.385 147.813 116.293C147.502 116.2 147.177 116.153 146.839 116.153C146.223 116.153 145.664 116.309 145.164 116.621C144.666 116.932 144.27 117.391 143.975 117.998C143.684 118.604 143.538 119.348 143.538 120.23C143.538 121.112 143.684 121.856 143.975 122.462C144.27 123.069 144.666 123.528 145.164 123.839C145.664 124.151 146.223 124.307 146.839 124.307C147.177 124.307 147.502 124.26 147.813 124.168C148.125 124.075 148.408 123.937 148.664 123.755C148.922 123.569 149.141 123.342 149.32 123.074C149.502 122.802 149.63 122.491 149.703 122.139H150.936C150.843 122.66 150.674 123.125 150.429 123.536C150.183 123.947 149.878 124.297 149.514 124.585C149.149 124.87 148.74 125.087 148.286 125.236C147.835 125.386 147.353 125.46 146.839 125.46C145.971 125.46 145.198 125.248 144.522 124.824C143.846 124.4 143.314 123.796 142.926 123.014C142.539 122.232 142.345 121.304 142.345 120.23C142.345 119.156 142.539 118.228 142.926 117.446C143.314 116.664 143.846 116.061 144.522 115.636C145.198 115.212 145.971 115 146.839 115C147.353 115 147.835 115.075 148.286 115.224C148.74 115.373 149.149 115.592 149.514 115.88C149.878 116.165 150.183 116.513 150.429 116.924C150.674 117.332 150.843 117.797 150.936 118.321ZM161.121 118.321H159.888C159.815 117.966 159.688 117.655 159.505 117.386C159.326 117.118 159.108 116.892 158.849 116.71C158.594 116.525 158.311 116.385 157.999 116.293C157.687 116.2 157.363 116.153 157.025 116.153C156.408 116.153 155.85 116.309 155.349 116.621C154.852 116.932 154.456 117.391 154.161 117.998C153.869 118.604 153.723 119.348 153.723 120.23C153.723 121.112 153.869 121.856 154.161 122.462C154.456 123.069 154.852 123.528 155.349 123.839C155.85 124.151 156.408 124.307 157.025 124.307C157.363 124.307 157.687 124.26 157.999 124.168C158.311 124.075 158.594 123.937 158.849 123.755C159.108 123.569 159.326 123.342 159.505 123.074C159.688 122.802 159.815 122.491 159.888 122.139H161.121C161.028 122.66 160.859 123.125 160.614 123.536C160.369 123.947 160.064 124.297 159.699 124.585C159.335 124.87 158.925 125.087 158.471 125.236C158.021 125.386 157.538 125.46 157.025 125.46C156.156 125.46 155.384 125.248 154.708 124.824C154.032 124.4 153.5 123.796 153.112 123.014C152.724 122.232 152.53 121.304 152.53 120.23C152.53 119.156 152.724 118.228 153.112 117.446C153.5 116.664 154.032 116.061 154.708 115.636C155.384 115.212 156.156 115 157.025 115C157.538 115 158.021 115.075 158.471 115.224C158.925 115.373 159.335 115.592 159.699 115.88C160.064 116.165 160.369 116.513 160.614 116.924C160.859 117.332 161.028 117.797 161.121 118.321ZM163.114 125.321V115.139H169.258V116.233H164.346V119.673H168.94V120.767H164.346V124.227H169.338V125.321H163.114ZM177.049 117.685C176.989 117.181 176.747 116.79 176.323 116.511C175.899 116.233 175.378 116.094 174.762 116.094C174.311 116.094 173.917 116.167 173.579 116.312C173.244 116.458 172.982 116.659 172.793 116.914C172.608 117.169 172.515 117.459 172.515 117.784C172.515 118.056 172.579 118.29 172.709 118.485C172.841 118.677 173.01 118.838 173.216 118.967C173.421 119.093 173.637 119.198 173.862 119.281C174.087 119.36 174.295 119.425 174.484 119.474L175.518 119.753C175.783 119.822 176.078 119.919 176.403 120.041C176.731 120.164 177.044 120.331 177.342 120.543C177.644 120.752 177.892 121.021 178.088 121.349C178.283 121.677 178.381 122.08 178.381 122.557C178.381 123.107 178.237 123.604 177.949 124.048C177.664 124.492 177.246 124.845 176.696 125.107C176.149 125.369 175.484 125.5 174.702 125.5C173.973 125.5 173.342 125.382 172.808 125.147C172.278 124.912 171.86 124.584 171.555 124.163C171.254 123.742 171.083 123.253 171.043 122.696H172.316C172.349 123.08 172.478 123.399 172.704 123.651C172.932 123.899 173.221 124.085 173.569 124.207C173.92 124.327 174.298 124.386 174.702 124.386C175.173 124.386 175.596 124.31 175.97 124.158C176.345 124.002 176.641 123.786 176.86 123.511C177.079 123.233 177.188 122.908 177.188 122.537C177.188 122.199 177.094 121.924 176.905 121.712C176.716 121.5 176.467 121.327 176.159 121.195C175.851 121.062 175.518 120.946 175.16 120.847L173.907 120.489C173.111 120.26 172.482 119.933 172.018 119.509C171.554 119.085 171.322 118.53 171.322 117.844C171.322 117.274 171.476 116.776 171.784 116.352C172.096 115.925 172.513 115.593 173.037 115.358C173.564 115.119 174.152 115 174.802 115C175.458 115 176.041 115.118 176.552 115.353C177.062 115.585 177.467 115.903 177.765 116.308C178.066 116.712 178.225 117.171 178.242 117.685H177.049ZM185.977 117.685C185.917 117.181 185.675 116.79 185.251 116.511C184.827 116.233 184.306 116.094 183.69 116.094C183.239 116.094 182.845 116.167 182.506 116.312C182.172 116.458 181.91 116.659 181.721 116.914C181.535 117.169 181.443 117.459 181.443 117.784C181.443 118.056 181.507 118.29 181.636 118.485C181.769 118.677 181.938 118.838 182.144 118.967C182.349 119.093 182.564 119.198 182.79 119.281C183.015 119.36 183.222 119.425 183.411 119.474L184.445 119.753C184.711 119.822 185.006 119.919 185.33 120.041C185.658 120.164 185.972 120.331 186.27 120.543C186.572 120.752 186.82 121.021 187.016 121.349C187.211 121.677 187.309 122.08 187.309 122.557C187.309 123.107 187.165 123.604 186.876 124.048C186.591 124.492 186.174 124.845 185.624 125.107C185.077 125.369 184.412 125.5 183.63 125.5C182.901 125.5 182.269 125.382 181.736 125.147C181.206 124.912 180.788 124.584 180.483 124.163C180.181 123.742 180.011 123.253 179.971 122.696H181.244C181.277 123.08 181.406 123.399 181.631 123.651C181.86 123.899 182.148 124.085 182.497 124.207C182.848 124.327 183.226 124.386 183.63 124.386C184.101 124.386 184.523 124.31 184.898 124.158C185.272 124.002 185.569 123.786 185.788 123.511C186.006 123.233 186.116 122.908 186.116 122.537C186.116 122.199 186.021 121.924 185.832 121.712C185.644 121.5 185.395 121.327 185.087 121.195C184.778 121.062 184.445 120.946 184.087 120.847L182.835 120.489C182.039 120.26 181.409 119.933 180.945 119.509C180.481 119.085 180.249 118.53 180.249 117.844C180.249 117.274 180.403 116.776 180.712 116.352C181.023 115.925 181.441 115.593 181.965 115.358C182.492 115.119 183.08 115 183.729 115C184.386 115 184.969 115.118 185.479 115.353C185.99 115.585 186.394 115.903 186.693 116.308C186.994 116.712 187.153 117.171 187.17 117.685H185.977Z" fill="white"/>
</svg>
