<?xml version="1.0" encoding="utf-8"?>
<!-- Generator: Adobe Illustrator 16.0.0, SVG Export Plug-In . SVG Version: 6.00 Build 0)  -->
<!DOCTYPE svg PUBLIC "-//W3C//DTD SVG 1.1//EN" "http://www.w3.org/Graphics/SVG/1.1/DTD/svg11.dtd">
<svg version="1.1" id="Layer_1" xmlns="http://www.w3.org/2000/svg" xmlns:xlink="http://www.w3.org/1999/xlink" x="0px" y="0px"
	 width="174px" height="92px" viewBox="0 0 174 92" enable-background="new 0 0 174 92" xml:space="preserve">
<path fill="#FFFFFF" d="M116.048,59.604c-0.002,12.146,9.843,21.994,21.987,21.996s21.994-9.842,21.996-21.988v-0.008
	c0.002-12.146-9.842-21.995-21.988-21.997c-12.146-0.003-21.993,9.84-21.995,21.987V59.604z"/>
<path fill="#FFFFFF" d="M83.727,47.275c0,14.537,11.785,26.322,26.324,26.322c14.537,0,26.322-11.785,26.322-26.322
	c0-14.539-11.785-26.324-26.322-26.324C95.512,20.951,83.727,32.737,83.727,47.275"/>
<path fill="#FFFFFF" d="M60.402,39.611c0,11.595,9.398,20.993,20.992,20.993s20.993-9.397,20.993-20.993
	c0-11.594-9.398-20.992-20.993-20.992C69.8,18.62,60.402,28.018,60.402,39.611"/>
<path fill="#FFFFFF" d="M131.207,41.202c-0.002,9.057,7.34,16.401,16.396,16.403c9.059,0,16.399-7.34,16.401-16.398v-0.005
	c0.002-9.057-7.34-16.401-16.396-16.403c-9.06-0.001-16.402,7.34-16.402,16.398V41.202z"/>
<path fill="#FFFFFF" d="M154.033,60.271c0,5.521,4.475,9.996,9.996,9.996c5.521,0,9.996-4.476,9.996-9.996
	c0-5.521-4.476-9.996-9.996-9.996C158.508,50.275,154.033,54.749,154.033,60.271"/>
<path fill="#FFFFFF" d="M69.731,65.27c-0.004,7.729,6.259,13.998,13.988,14.002c7.729,0.004,13.998-6.26,14.002-13.988V65.27
	c0.004-7.729-6.259-13.998-13.988-14.002s-13.998,6.258-14.002,13.987V65.27z"/>
<path fill="#FFFFFF" d="M18.417,32.991C18.415,51.21,33.183,65.979,51.401,65.98c18.219,0.004,32.99-14.766,32.991-32.982v-0.007
	C84.395,14.772,69.627,0.002,51.408,0C33.189-0.002,18.419,14.766,18.417,32.984V32.991z"/>
<path fill="#FFFFFF" d="M0.424,56.271C0.418,69.338,11.004,79.936,24.07,79.939c13.066,0.009,23.663-10.58,23.67-23.646v-0.022
	c0-13.065-10.592-23.659-23.658-23.659S0.424,43.206,0.424,56.271"/>
<path fill="#FFFFFF" d="M35.744,70.934c-0.001,11.409,9.248,20.659,20.657,20.662c11.41,0,20.66-9.248,20.661-20.658v-0.004
	c0.001-11.41-9.248-20.66-20.657-20.66c-11.41-0.002-20.66,9.248-20.661,20.658V70.934z"/>
<g>
	<path fill="#00778C" d="M24.962,41.047v2.756c-0.749-0.731-1.396-1.055-2.093-1.055c-0.664,0-1.242,0.459-1.242,1.021
		c0,0.562,0.459,0.987,1.361,1.361c1.82,0.749,2.671,1.787,2.671,3.369c0,2.178-1.77,3.896-3.981,3.896
		c-0.953,0-1.974-0.322-2.791-0.782v-2.858c0.902,0.834,1.719,1.242,2.518,1.242c0.817,0,1.48-0.596,1.48-1.344
		c0-0.527-0.272-1.021-1.65-1.65c-1.327-0.613-2.348-1.599-2.348-3.147c0-1.939,1.498-3.42,3.692-3.42
		C23.499,40.435,24.094,40.639,24.962,41.047z"/>
	<path fill="#00778C" d="M32.264,40.622l3.045,11.586h-2.943l-0.408-2.297h-2.212l-0.425,2.297h-2.773l3.028-11.586H32.264z
		 M30.12,47.836h1.463l-0.714-4.05h-0.034L30.12,47.836z"/>
	<path fill="#00778C" d="M39.192,40.622v9.222h3.726v2.364h-6.431V40.622H39.192z"/>
	<path fill="#00778C" d="M50.491,40.622v2.348h-3.896v2.109h3.641v2.263h-3.641v2.519h3.896v2.348H43.89V40.622H50.491z"/>
	<path fill="#00778C" d="M58.049,41.047v2.756c-0.749-0.731-1.396-1.055-2.093-1.055c-0.664,0-1.242,0.459-1.242,1.021
		c0,0.562,0.459,0.987,1.361,1.361c1.82,0.749,2.671,1.787,2.671,3.369c0,2.178-1.77,3.896-3.981,3.896
		c-0.953,0-1.974-0.322-2.791-0.782v-2.858c0.902,0.834,1.719,1.242,2.518,1.242c0.817,0,1.48-0.596,1.48-1.344
		c0-0.527-0.272-1.021-1.65-1.65c-1.327-0.613-2.348-1.599-2.348-3.147c0-1.939,1.498-3.42,3.692-3.42
		C56.586,40.435,57.182,40.639,58.049,41.047z"/>
	<path fill="#00778C" d="M69.793,40.86v2.637c-0.408-0.375-0.851-0.629-1.412-0.629c-1.361,0-2.025,1.548-2.025,3.692
		c0,2.042,0.783,3.352,1.991,3.352c0.596,0,1.055-0.306,1.446-0.612v2.62c-0.919,0.408-1.361,0.476-1.906,0.476
		c-2.637,0-4.27-2.619-4.27-5.937c0-3.488,1.752-6.023,4.406-6.023C68.755,40.435,69.197,40.605,69.793,40.86z"/>
	<path fill="#00778C" d="M76.703,40.622l3.045,11.586h-2.943l-0.408-2.297h-2.212l-0.425,2.297h-2.773l3.028-11.586H76.703z
		 M74.56,47.836h1.463l-0.714-4.05h-0.034L74.56,47.836z"/>
	<path fill="#00778C" d="M83.614,40.622v9.222h3.726v2.364h-6.431V40.622H83.614z"/>
	<path fill="#00778C" d="M94.166,40.86v2.637c-0.408-0.375-0.852-0.629-1.412-0.629c-1.361,0-2.025,1.548-2.025,3.692
		c0,2.042,0.783,3.352,1.99,3.352c0.596,0,1.055-0.306,1.447-0.612v2.62c-0.92,0.408-1.361,0.476-1.906,0.476
		c-2.637,0-4.271-2.619-4.271-5.937c0-3.488,1.753-6.023,4.407-6.023C93.127,40.435,93.57,40.605,94.166,40.86z"/>
	<path fill="#00778C" d="M98.711,40.622v7.742c0,0.885,0.152,1.77,1.004,1.77c0.715,0,1.055-0.698,1.055-1.634v-7.877h2.705v8.031
		c0,2.263-1.327,3.742-3.777,3.742c-2.467,0-3.691-1.514-3.691-3.742v-8.031H98.711z"/>
	<path fill="#00778C" d="M107.986,40.622v9.222h3.727v2.364h-6.432V40.622H107.986z"/>
	<path fill="#00778C" d="M117.705,40.622l3.045,11.586h-2.943l-0.408-2.297h-2.212l-0.425,2.297h-2.773l3.028-11.586H117.705z
		 M115.561,47.836h1.463l-0.714-4.05h-0.034L115.561,47.836z"/>
	<path fill="#00778C" d="M127.779,40.622v2.348h-2.348v9.238h-2.705V42.97h-2.348v-2.348H127.779z"/>
	<path fill="#00778C" d="M132.07,40.622v11.586h-2.723V40.622H132.07z"/>
	<path fill="#00778C" d="M142.246,46.389c0,3.556-1.719,6.005-4.372,6.005c-2.638,0-4.237-2.518-4.237-5.954
		c0-3.59,1.77-6.006,4.118-6.006C140.834,40.435,142.246,43.089,142.246,46.389z M137.925,49.911c1.021,0,1.616-1.515,1.616-3.556
		c0-2.331-0.715-3.488-1.531-3.488c-0.97,0-1.667,1.14-1.667,3.505C136.343,48.602,136.955,49.911,137.925,49.911z"/>
	<path fill="#00778C" d="M146.503,40.622l1.31,3.675c0.357,1.021,0.613,1.752,0.902,2.824h0.153
		c-0.017-0.629-0.068-1.327-0.068-1.889v-4.611h2.587v11.586h-2.74l-1.31-3.642c-0.392-1.071-0.698-2.041-0.919-2.875h-0.136
		c0,0.612,0.067,1.548,0.067,1.922v4.594h-2.586V40.622H146.503z"/>
</g>
<g>
	<path fill="#00778C" d="M14.63,58.307c0.445,0.227,0.787,0.551,1.024,0.971c0.237,0.422,0.356,0.918,0.356,1.488
		c0,0.571-0.119,1.066-0.356,1.484c-0.237,0.419-0.579,0.738-1.024,0.96s-0.972,0.332-1.58,0.332h-1.736v-5.576h1.736
		C13.658,57.966,14.185,58.08,14.63,58.307z M14.698,62.37c0.378-0.382,0.568-0.916,0.568-1.604c0-0.693-0.19-1.234-0.572-1.623
		c-0.381-0.39-0.93-0.584-1.644-0.584h-1.008v4.383h1.008C13.77,62.941,14.319,62.752,14.698,62.37z"/>
	<path fill="#00778C" d="M18.246,59.286c0.237-0.139,0.526-0.208,0.868-0.208v0.752h-0.192c-0.816,0-1.224,0.443-1.224,1.328v2.384
		H16.97v-4.384h0.728v0.712C17.826,59.619,18.009,59.425,18.246,59.286z"/>
	<path fill="#00778C" d="M23.93,61.622h-3.504c0.027,0.433,0.175,0.77,0.444,1.012c0.269,0.243,0.596,0.364,0.98,0.364
		c0.314,0,0.577-0.073,0.788-0.221c0.211-0.146,0.359-0.342,0.444-0.588h0.784c-0.117,0.422-0.352,0.765-0.704,1.028
		c-0.352,0.265-0.79,0.396-1.312,0.396c-0.416,0-0.788-0.093-1.116-0.279s-0.585-0.452-0.772-0.796
		c-0.187-0.345-0.28-0.743-0.28-1.196s0.09-0.851,0.272-1.191c0.181-0.342,0.436-0.604,0.764-0.789
		c0.328-0.184,0.706-0.275,1.132-0.275c0.416,0,0.784,0.091,1.104,0.271c0.32,0.182,0.566,0.432,0.74,0.748
		c0.173,0.318,0.26,0.677,0.26,1.076C23.954,61.32,23.946,61.467,23.93,61.622z M23.018,60.314c-0.123-0.201-0.29-0.353-0.5-0.457
		c-0.211-0.104-0.444-0.155-0.7-0.155c-0.368,0-0.681,0.117-0.94,0.353c-0.259,0.234-0.407,0.559-0.444,0.975h2.768
		C23.202,60.753,23.141,60.514,23.018,60.314z"/>
	<path fill="#00778C" d="M24.914,60.154c0.181-0.339,0.43-0.602,0.748-0.788s0.671-0.28,1.06-0.28c0.384,0,0.717,0.083,1,0.248
		c0.283,0.166,0.494,0.373,0.632,0.624v-0.8h0.736v4.384h-0.736v-0.815c-0.144,0.256-0.359,0.467-0.644,0.635
		c-0.286,0.168-0.618,0.252-0.996,0.252c-0.389,0-0.741-0.096-1.056-0.287c-0.314-0.192-0.563-0.461-0.744-0.809
		c-0.182-0.346-0.272-0.74-0.272-1.184C24.642,60.887,24.732,60.492,24.914,60.154z M28.154,60.479
		c-0.133-0.246-0.313-0.434-0.54-0.564s-0.476-0.196-0.748-0.196s-0.52,0.064-0.744,0.192c-0.224,0.128-0.403,0.314-0.536,0.561
		c-0.133,0.244-0.2,0.533-0.2,0.863c0,0.336,0.067,0.628,0.2,0.876s0.312,0.438,0.536,0.567c0.224,0.131,0.472,0.197,0.744,0.197
		s0.521-0.066,0.748-0.197c0.227-0.13,0.407-0.319,0.54-0.567s0.2-0.537,0.2-0.868C28.354,61.012,28.287,60.723,28.154,60.479z"/>
	<path fill="#00778C" d="M36.506,59.29c0.267,0.142,0.478,0.354,0.632,0.636c0.154,0.283,0.232,0.627,0.232,1.032v2.584h-0.72
		v-2.479c0-0.438-0.108-0.772-0.324-1.004c-0.216-0.232-0.508-0.349-0.876-0.349c-0.379,0-0.68,0.122-0.904,0.364
		c-0.224,0.242-0.336,0.594-0.336,1.052v2.416h-0.72v-2.479c0-0.438-0.108-0.772-0.324-1.004c-0.216-0.232-0.508-0.349-0.876-0.349
		c-0.379,0-0.68,0.122-0.904,0.364c-0.224,0.242-0.336,0.594-0.336,1.052v2.416h-0.728v-4.384h0.728v0.632
		c0.144-0.229,0.337-0.405,0.58-0.528s0.511-0.184,0.804-0.184c0.368,0,0.693,0.082,0.976,0.248
		c0.283,0.165,0.493,0.408,0.632,0.729c0.123-0.311,0.325-0.55,0.608-0.721c0.283-0.17,0.597-0.256,0.944-0.256
		C35.936,59.078,36.239,59.148,36.506,59.29z"/>
	<path fill="#00778C" d="M39.21,63.441c-0.267-0.114-0.478-0.273-0.632-0.479c-0.155-0.205-0.24-0.441-0.256-0.708h0.752
		c0.021,0.219,0.124,0.397,0.308,0.536s0.425,0.208,0.724,0.208c0.277,0,0.496-0.062,0.656-0.184c0.16-0.123,0.24-0.277,0.24-0.465
		c0-0.191-0.085-0.334-0.256-0.428c-0.17-0.094-0.435-0.186-0.792-0.275c-0.325-0.086-0.59-0.172-0.796-0.26
		c-0.205-0.089-0.381-0.219-0.528-0.393c-0.147-0.174-0.22-0.401-0.22-0.684c0-0.225,0.067-0.43,0.2-0.617
		c0.133-0.186,0.323-0.334,0.568-0.443s0.525-0.164,0.84-0.164c0.485,0,0.877,0.123,1.176,0.368c0.298,0.245,0.458,0.581,0.48,1.008
		h-0.728c-0.016-0.229-0.108-0.413-0.276-0.552s-0.394-0.208-0.676-0.208c-0.261,0-0.469,0.056-0.624,0.168s-0.232,0.259-0.232,0.44
		c0,0.144,0.047,0.262,0.14,0.355s0.21,0.168,0.352,0.225c0.141,0.055,0.337,0.118,0.588,0.188c0.314,0.086,0.571,0.17,0.768,0.252
		s0.367,0.207,0.508,0.372c0.142,0.165,0.215,0.382,0.22,0.647c0,0.24-0.067,0.457-0.2,0.648s-0.321,0.343-0.564,0.452
		c-0.243,0.108-0.521,0.163-0.836,0.163C39.778,63.613,39.477,63.557,39.21,63.441z"/>
	<path fill="#00778C" d="M50.714,59.158l-1.368,4.384h-0.752l-1.056-3.479l-1.056,3.479H45.73l-1.376-4.384h0.744l1.008,3.68
		l1.088-3.68h0.744l1.064,3.688l0.992-3.688H50.714z"/>
	<path fill="#00778C" d="M51.458,58.302c-0.096-0.096-0.144-0.213-0.144-0.352s0.048-0.257,0.144-0.353
		c0.096-0.096,0.213-0.144,0.352-0.144c0.133,0,0.247,0.048,0.34,0.144s0.14,0.214,0.14,0.353s-0.047,0.256-0.14,0.352
		c-0.093,0.097-0.207,0.144-0.34,0.144C51.671,58.445,51.554,58.398,51.458,58.302z M52.162,59.158v4.384h-0.728v-4.384H52.162z"/>
	<path fill="#00778C" d="M54.29,59.758v2.584c0,0.213,0.045,0.364,0.136,0.452c0.09,0.088,0.248,0.132,0.472,0.132h0.536v0.616
		h-0.656c-0.406,0-0.709-0.093-0.912-0.28c-0.203-0.187-0.304-0.493-0.304-0.92v-2.584h-0.568v-0.6h0.568v-1.104h0.728v1.104h1.144
		v0.6H54.29z"/>
	<path fill="#00778C" d="M59.386,59.29c0.267,0.142,0.476,0.354,0.628,0.636c0.152,0.283,0.228,0.627,0.228,1.032v2.584h-0.72
		v-2.479c0-0.438-0.109-0.772-0.328-1.004c-0.219-0.232-0.518-0.349-0.896-0.349c-0.384,0-0.689,0.12-0.916,0.36
		c-0.227,0.24-0.34,0.589-0.34,1.048v2.424h-0.728v-5.92h0.728v2.16c0.144-0.224,0.342-0.397,0.596-0.521s0.537-0.184,0.852-0.184
		C58.82,59.078,59.119,59.148,59.386,59.29z"/>
	<path fill="#00778C" d="M62.229,63.334c-0.333-0.187-0.595-0.452-0.784-0.796c-0.189-0.345-0.284-0.743-0.284-1.196
		c0-0.447,0.097-0.844,0.292-1.188c0.194-0.344,0.46-0.608,0.796-0.793c0.336-0.184,0.712-0.275,1.128-0.275
		s0.792,0.092,1.128,0.275c0.336,0.185,0.601,0.447,0.796,0.789c0.195,0.341,0.292,0.738,0.292,1.191s-0.1,0.852-0.3,1.196
		c-0.2,0.344-0.471,0.609-0.812,0.796s-0.72,0.279-1.136,0.279C62.935,63.613,62.563,63.521,62.229,63.334z M64.082,62.79
		c0.229-0.122,0.415-0.307,0.556-0.552c0.142-0.246,0.212-0.545,0.212-0.896s-0.07-0.65-0.208-0.896
		c-0.139-0.244-0.32-0.428-0.544-0.547c-0.224-0.121-0.466-0.181-0.728-0.181c-0.267,0-0.511,0.06-0.732,0.181
		c-0.221,0.119-0.398,0.303-0.532,0.547c-0.133,0.246-0.2,0.545-0.2,0.896c0,0.357,0.065,0.659,0.196,0.904
		c0.13,0.245,0.305,0.428,0.524,0.548s0.458,0.181,0.72,0.181S63.852,62.912,64.082,62.79z"/>
	<path fill="#00778C" d="M70.441,59.158v4.384h-0.728v-0.647c-0.139,0.224-0.332,0.398-0.58,0.523
		c-0.248,0.125-0.521,0.188-0.82,0.188c-0.341,0-0.648-0.07-0.92-0.211c-0.272-0.142-0.487-0.354-0.644-0.637
		c-0.157-0.282-0.236-0.627-0.236-1.031v-2.568h0.72v2.472c0,0.433,0.109,0.765,0.328,0.996s0.517,0.349,0.896,0.349
		c0.389,0,0.696-0.121,0.92-0.361c0.224-0.239,0.336-0.588,0.336-1.047v-2.408H70.441z"/>
	<path fill="#00778C" d="M72.562,59.758v2.584c0,0.213,0.045,0.364,0.136,0.452c0.09,0.088,0.248,0.132,0.472,0.132h0.536v0.616
		H73.05c-0.406,0-0.709-0.093-0.912-0.28c-0.203-0.187-0.304-0.493-0.304-0.92v-2.584h-0.568v-0.6h0.568v-1.104h0.728v1.104h1.144
		v0.6H72.562z"/>
	<path fill="#00778C" d="M79.525,59.334c0.285,0.166,0.498,0.373,0.636,0.624v-0.8h0.736v4.48c0,0.399-0.085,0.756-0.256,1.067
		c-0.171,0.312-0.415,0.556-0.732,0.731c-0.317,0.176-0.687,0.265-1.108,0.265c-0.576,0-1.056-0.136-1.44-0.408
		c-0.384-0.272-0.611-0.643-0.68-1.112h0.72c0.08,0.268,0.245,0.481,0.496,0.645c0.25,0.162,0.552,0.244,0.904,0.244
		c0.4,0,0.727-0.125,0.98-0.377c0.253-0.25,0.38-0.602,0.38-1.055v-0.921c-0.144,0.257-0.357,0.47-0.64,0.64
		c-0.283,0.172-0.613,0.256-0.992,0.256c-0.389,0-0.743-0.096-1.06-0.287c-0.317-0.192-0.566-0.461-0.748-0.809
		c-0.182-0.346-0.272-0.74-0.272-1.184c0-0.447,0.09-0.842,0.272-1.18c0.181-0.339,0.43-0.602,0.748-0.788s0.671-0.28,1.06-0.28
		C78.908,59.086,79.24,59.169,79.525,59.334z M79.961,60.479c-0.133-0.246-0.313-0.434-0.54-0.564s-0.476-0.196-0.748-0.196
		s-0.52,0.064-0.744,0.192c-0.224,0.128-0.403,0.314-0.536,0.561c-0.133,0.244-0.2,0.533-0.2,0.863c0,0.336,0.067,0.628,0.2,0.876
		s0.312,0.438,0.536,0.567c0.224,0.131,0.472,0.197,0.744,0.197s0.521-0.066,0.748-0.197c0.227-0.13,0.407-0.319,0.54-0.567
		s0.2-0.537,0.2-0.868C80.162,61.012,80.095,60.723,79.961,60.479z"/>
	<path fill="#00778C" d="M82.926,63.334c-0.333-0.187-0.595-0.452-0.784-0.796c-0.189-0.345-0.284-0.743-0.284-1.196
		c0-0.447,0.097-0.844,0.292-1.188c0.194-0.344,0.46-0.608,0.796-0.793c0.336-0.184,0.712-0.275,1.128-0.275
		s0.792,0.092,1.128,0.275c0.336,0.185,0.601,0.447,0.796,0.789c0.195,0.341,0.292,0.738,0.292,1.191s-0.1,0.852-0.3,1.196
		c-0.2,0.344-0.471,0.609-0.812,0.796s-0.72,0.279-1.136,0.279C83.631,63.613,83.259,63.521,82.926,63.334z M84.778,62.79
		c0.229-0.122,0.415-0.307,0.556-0.552c0.142-0.246,0.212-0.545,0.212-0.896s-0.07-0.65-0.208-0.896
		c-0.139-0.244-0.32-0.428-0.544-0.547c-0.224-0.121-0.466-0.181-0.728-0.181c-0.267,0-0.511,0.06-0.732,0.181
		c-0.221,0.119-0.398,0.303-0.532,0.547c-0.133,0.246-0.2,0.545-0.2,0.896c0,0.357,0.065,0.659,0.196,0.904
		c0.13,0.245,0.305,0.428,0.524,0.548s0.458,0.181,0.72,0.181S84.548,62.912,84.778,62.79z"/>
	<path fill="#00778C" d="M87.25,60.154c0.181-0.339,0.43-0.602,0.748-0.788c0.316-0.187,0.67-0.28,1.06-0.28
		c0.384,0,0.718,0.083,1,0.248c0.282,0.166,0.493,0.373,0.632,0.624v-0.8h0.736v4.384h-0.736v-0.815
		c-0.144,0.256-0.358,0.467-0.644,0.635c-0.286,0.168-0.618,0.252-0.996,0.252c-0.39,0-0.741-0.096-1.056-0.287
		c-0.314-0.192-0.563-0.461-0.744-0.809c-0.182-0.346-0.272-0.74-0.272-1.184C86.978,60.887,87.068,60.492,87.25,60.154z
		 M90.49,60.479c-0.134-0.246-0.314-0.434-0.541-0.564s-0.476-0.196-0.748-0.196c-0.271,0-0.52,0.064-0.743,0.192
		s-0.403,0.314-0.536,0.561c-0.133,0.244-0.2,0.533-0.2,0.863c0,0.336,0.067,0.628,0.2,0.876s0.313,0.438,0.536,0.567
		c0.224,0.131,0.472,0.197,0.743,0.197c0.272,0,0.521-0.066,0.748-0.197c0.227-0.13,0.407-0.319,0.541-0.567
		c0.133-0.248,0.199-0.537,0.199-0.868C90.689,61.012,90.623,60.723,90.49,60.479z"/>
	<path fill="#00778C" d="M93.386,57.622v5.92h-0.728v-5.92H93.386z"/>
	<path fill="#00778C" d="M95.273,63.441c-0.268-0.114-0.478-0.273-0.633-0.479c-0.154-0.205-0.239-0.441-0.256-0.708h0.752
		c0.021,0.219,0.125,0.397,0.309,0.536s0.426,0.208,0.725,0.208c0.276,0,0.495-0.062,0.655-0.184c0.16-0.123,0.24-0.277,0.24-0.465
		c0-0.191-0.085-0.334-0.257-0.428c-0.17-0.094-0.434-0.186-0.791-0.275c-0.326-0.086-0.591-0.172-0.797-0.26
		c-0.205-0.089-0.381-0.219-0.527-0.393s-0.221-0.401-0.221-0.684c0-0.225,0.067-0.43,0.201-0.617
		c0.133-0.186,0.322-0.334,0.567-0.443s0.525-0.164,0.84-0.164c0.485,0,0.878,0.123,1.177,0.368
		c0.298,0.245,0.458,0.581,0.479,1.008H97.01c-0.017-0.229-0.108-0.413-0.276-0.552s-0.394-0.208-0.677-0.208
		c-0.261,0-0.469,0.056-0.623,0.168c-0.155,0.112-0.232,0.259-0.232,0.44c0,0.144,0.047,0.262,0.141,0.355
		c0.093,0.094,0.21,0.168,0.352,0.225c0.141,0.055,0.338,0.118,0.588,0.188c0.314,0.086,0.57,0.17,0.768,0.252
		s0.367,0.207,0.508,0.372c0.143,0.165,0.215,0.382,0.221,0.647c0,0.24-0.066,0.457-0.2,0.648s-0.321,0.343-0.563,0.452
		c-0.243,0.108-0.521,0.163-0.836,0.163C95.842,63.613,95.54,63.557,95.273,63.441z"/>
	<path fill="#00778C" d="M100.938,60.154c0.182-0.339,0.43-0.602,0.748-0.788c0.316-0.187,0.67-0.28,1.06-0.28
		c0.384,0,0.718,0.083,1,0.248c0.282,0.166,0.493,0.373,0.632,0.624v-0.8h0.736v4.384h-0.736v-0.815
		c-0.144,0.256-0.358,0.467-0.644,0.635c-0.286,0.168-0.618,0.252-0.996,0.252c-0.39,0-0.741-0.096-1.056-0.287
		c-0.314-0.192-0.563-0.461-0.744-0.809c-0.182-0.346-0.271-0.74-0.271-1.184C100.666,60.887,100.756,60.492,100.938,60.154z
		 M104.178,60.479c-0.134-0.246-0.314-0.434-0.541-0.564s-0.476-0.196-0.748-0.196c-0.271,0-0.52,0.064-0.743,0.192
		s-0.403,0.314-0.536,0.561c-0.133,0.244-0.2,0.533-0.2,0.863c0,0.336,0.067,0.628,0.2,0.876s0.313,0.438,0.536,0.567
		c0.224,0.131,0.472,0.197,0.743,0.197c0.272,0,0.521-0.066,0.748-0.197c0.227-0.13,0.407-0.319,0.541-0.567
		c0.133-0.248,0.199-0.537,0.199-0.868C104.377,61.012,104.311,60.723,104.178,60.479z"/>
	<path fill="#00778C" d="M107.621,59.286c0.238-0.139,0.527-0.208,0.868-0.208v0.752h-0.192c-0.815,0-1.223,0.443-1.223,1.328v2.384
		h-0.729v-4.384h0.729v0.712C107.201,59.619,107.385,59.425,107.621,59.286z"/>
	<path fill="#00778C" d="M113.305,61.622h-3.504c0.027,0.433,0.175,0.77,0.444,1.012c0.269,0.243,0.596,0.364,0.979,0.364
		c0.314,0,0.578-0.073,0.788-0.221c0.211-0.146,0.358-0.342,0.444-0.588h0.783c-0.117,0.422-0.352,0.765-0.703,1.028
		c-0.352,0.265-0.789,0.396-1.313,0.396c-0.416,0-0.787-0.093-1.115-0.279s-0.586-0.452-0.772-0.796
		c-0.187-0.345-0.28-0.743-0.28-1.196s0.091-0.851,0.272-1.191c0.181-0.342,0.436-0.604,0.764-0.789
		c0.328-0.184,0.706-0.275,1.132-0.275c0.416,0,0.784,0.091,1.104,0.271c0.319,0.182,0.566,0.432,0.739,0.748
		c0.174,0.318,0.261,0.677,0.261,1.076C113.329,61.32,113.32,61.467,113.305,61.622z M112.393,60.314
		c-0.123-0.201-0.289-0.353-0.5-0.457c-0.211-0.104-0.443-0.155-0.699-0.155c-0.369,0-0.682,0.117-0.94,0.353
		c-0.259,0.234-0.407,0.559-0.444,0.975h2.768C112.576,60.753,112.516,60.514,112.393,60.314z"/>
	<path fill="#00778C" d="M117.178,64.494c0,0.389-0.1,0.674-0.297,0.855s-0.485,0.272-0.863,0.272h-0.424v-0.616h0.303
		c0.203,0,0.346-0.04,0.429-0.119c0.083-0.08,0.124-0.217,0.124-0.408v-5.32h0.729V64.494z M116.469,58.302
		c-0.094-0.096-0.14-0.213-0.14-0.352s0.046-0.257,0.14-0.353s0.209-0.144,0.348-0.144s0.256,0.048,0.349,0.144
		s0.14,0.214,0.14,0.353s-0.047,0.256-0.14,0.352c-0.093,0.097-0.21,0.144-0.349,0.144S116.563,58.398,116.469,58.302z"/>
	<path fill="#00778C" d="M122.297,59.158v4.384h-0.729v-0.647c-0.139,0.224-0.332,0.398-0.58,0.523
		c-0.247,0.125-0.521,0.188-0.819,0.188c-0.341,0-0.647-0.07-0.92-0.211c-0.272-0.142-0.487-0.354-0.644-0.637
		c-0.158-0.282-0.236-0.627-0.236-1.031v-2.568h0.72v2.472c0,0.433,0.109,0.765,0.328,0.996s0.517,0.349,0.896,0.349
		c0.39,0,0.696-0.121,0.92-0.361c0.225-0.239,0.336-0.588,0.336-1.047v-2.408H122.297z"/>
	<path fill="#00778C" d="M124.178,63.441c-0.268-0.114-0.479-0.273-0.633-0.479c-0.154-0.205-0.24-0.441-0.256-0.708h0.752
		c0.021,0.219,0.124,0.397,0.309,0.536c0.184,0.139,0.425,0.208,0.724,0.208c0.276,0,0.495-0.062,0.655-0.184
		c0.16-0.123,0.24-0.277,0.24-0.465c0-0.191-0.085-0.334-0.256-0.428c-0.17-0.094-0.435-0.186-0.792-0.275
		c-0.325-0.086-0.591-0.172-0.796-0.26c-0.205-0.089-0.381-0.219-0.527-0.393c-0.147-0.174-0.221-0.401-0.221-0.684
		c0-0.225,0.066-0.43,0.2-0.617c0.134-0.186,0.323-0.334,0.567-0.443c0.246-0.109,0.525-0.164,0.84-0.164
		c0.486,0,0.878,0.123,1.177,0.368c0.298,0.245,0.458,0.581,0.479,1.008h-0.728c-0.017-0.229-0.108-0.413-0.276-0.552
		s-0.393-0.208-0.676-0.208c-0.262,0-0.469,0.056-0.624,0.168s-0.231,0.259-0.231,0.44c0,0.144,0.047,0.262,0.14,0.355
		s0.21,0.168,0.353,0.225c0.141,0.055,0.337,0.118,0.588,0.188c0.314,0.086,0.57,0.17,0.768,0.252s0.367,0.207,0.508,0.372
		c0.142,0.165,0.215,0.382,0.221,0.647c0,0.24-0.067,0.457-0.201,0.648c-0.133,0.191-0.32,0.343-0.563,0.452
		c-0.243,0.108-0.521,0.163-0.836,0.163C124.745,63.613,124.443,63.557,124.178,63.441z"/>
	<path fill="#00778C" d="M128.593,59.758v2.584c0,0.213,0.046,0.364,0.136,0.452c0.091,0.088,0.248,0.132,0.473,0.132h0.535v0.616
		h-0.655c-0.405,0-0.71-0.093-0.912-0.28c-0.202-0.187-0.304-0.493-0.304-0.92v-2.584h-0.568v-0.6h0.568v-1.104h0.728v1.104h1.144
		v0.6H128.593z"/>
	<path fill="#00778C" d="M132.753,60.154c0.181-0.339,0.431-0.602,0.747-0.788c0.318-0.187,0.674-0.28,1.068-0.28
		c0.342,0,0.659,0.078,0.952,0.236c0.294,0.157,0.518,0.363,0.673,0.619v-2.319h0.735v5.92h-0.735v-0.824
		c-0.145,0.262-0.357,0.476-0.641,0.644s-0.613,0.252-0.992,0.252c-0.389,0-0.742-0.096-1.061-0.287
		c-0.316-0.192-0.566-0.461-0.747-0.809c-0.182-0.346-0.272-0.74-0.272-1.184C132.48,60.887,132.571,60.492,132.753,60.154z
		 M135.992,60.479c-0.133-0.246-0.313-0.434-0.539-0.564s-0.477-0.196-0.748-0.196c-0.272,0-0.521,0.064-0.744,0.192
		c-0.225,0.128-0.402,0.314-0.536,0.561c-0.134,0.244-0.2,0.533-0.2,0.863c0,0.336,0.066,0.628,0.2,0.876s0.312,0.438,0.536,0.567
		c0.224,0.131,0.472,0.197,0.744,0.197c0.271,0,0.521-0.066,0.748-0.197c0.227-0.13,0.406-0.319,0.539-0.567
		c0.134-0.248,0.201-0.537,0.201-0.868C136.193,61.012,136.126,60.723,135.992,60.479z"/>
	<path fill="#00778C" d="M139.438,59.286c0.236-0.139,0.525-0.208,0.867-0.208v0.752h-0.191c-0.816,0-1.225,0.443-1.225,1.328v2.384
		h-0.728v-4.384h0.728v0.712C139.018,59.619,139.199,59.425,139.438,59.286z"/>
	<path fill="#00778C" d="M145.121,61.622h-3.504c0.026,0.433,0.174,0.77,0.443,1.012c0.27,0.243,0.596,0.364,0.98,0.364
		c0.314,0,0.577-0.073,0.787-0.221c0.211-0.146,0.359-0.342,0.445-0.588h0.783c-0.117,0.422-0.352,0.765-0.703,1.028
		c-0.353,0.265-0.79,0.396-1.313,0.396c-0.416,0-0.788-0.093-1.116-0.279s-0.585-0.452-0.772-0.796
		c-0.187-0.345-0.279-0.743-0.279-1.196s0.09-0.851,0.271-1.191c0.182-0.342,0.436-0.604,0.764-0.789
		c0.328-0.184,0.706-0.275,1.133-0.275c0.416,0,0.783,0.091,1.104,0.271c0.32,0.182,0.566,0.432,0.74,0.748
		c0.174,0.318,0.26,0.677,0.26,1.076C145.145,61.32,145.137,61.467,145.121,61.622z M144.209,60.314
		c-0.123-0.201-0.289-0.353-0.5-0.457c-0.211-0.104-0.444-0.155-0.7-0.155c-0.368,0-0.681,0.117-0.94,0.353
		c-0.258,0.234-0.406,0.559-0.443,0.975h2.768C144.393,60.753,144.332,60.514,144.209,60.314z"/>
	<path fill="#00778C" d="M146.105,60.154c0.181-0.339,0.43-0.602,0.747-0.788s0.671-0.28,1.06-0.28c0.385,0,0.718,0.083,1,0.248
		c0.283,0.166,0.494,0.373,0.633,0.624v-0.8h0.736v4.384h-0.736v-0.815c-0.145,0.256-0.359,0.467-0.645,0.635
		s-0.617,0.252-0.996,0.252c-0.389,0-0.74-0.096-1.056-0.287c-0.314-0.192-0.563-0.461-0.743-0.809
		c-0.182-0.346-0.272-0.74-0.272-1.184C145.833,60.887,145.924,60.492,146.105,60.154z M149.345,60.479
		c-0.134-0.246-0.313-0.434-0.54-0.564s-0.477-0.196-0.748-0.196s-0.52,0.064-0.744,0.192c-0.224,0.128-0.402,0.314-0.535,0.561
		c-0.134,0.244-0.201,0.533-0.201,0.863c0,0.336,0.067,0.628,0.201,0.876c0.133,0.248,0.312,0.438,0.535,0.567
		c0.225,0.131,0.473,0.197,0.744,0.197s0.521-0.066,0.748-0.197c0.227-0.13,0.406-0.319,0.54-0.567s0.2-0.537,0.2-0.868
		C149.545,61.012,149.479,60.723,149.345,60.479z"/>
	<path fill="#00778C" d="M157.696,59.29c0.267,0.142,0.478,0.354,0.632,0.636c0.154,0.283,0.232,0.627,0.232,1.032v2.584h-0.721
		v-2.479c0-0.438-0.107-0.772-0.323-1.004c-0.216-0.232-0.509-0.349-0.876-0.349c-0.379,0-0.68,0.122-0.904,0.364
		c-0.224,0.242-0.336,0.594-0.336,1.052v2.416h-0.72v-2.479c0-0.438-0.108-0.772-0.324-1.004c-0.216-0.232-0.508-0.349-0.876-0.349
		c-0.379,0-0.68,0.122-0.904,0.364c-0.224,0.242-0.336,0.594-0.336,1.052v2.416h-0.728v-4.384h0.728v0.632
		c0.145-0.229,0.338-0.405,0.58-0.528s0.511-0.184,0.805-0.184c0.367,0,0.693,0.082,0.976,0.248
		c0.282,0.165,0.493,0.408,0.632,0.729c0.123-0.311,0.325-0.55,0.607-0.721c0.283-0.17,0.598-0.256,0.945-0.256
		C157.126,59.078,157.43,59.148,157.696,59.29z"/>
	<path fill="#00778C" d="M160.4,63.441c-0.267-0.114-0.477-0.273-0.632-0.479c-0.155-0.205-0.239-0.441-0.256-0.708h0.752
		c0.021,0.219,0.124,0.397,0.308,0.536c0.185,0.139,0.426,0.208,0.725,0.208c0.277,0,0.496-0.062,0.656-0.184
		c0.16-0.123,0.24-0.277,0.24-0.465c0-0.191-0.086-0.334-0.257-0.428s-0.435-0.186-0.792-0.275c-0.325-0.086-0.59-0.172-0.796-0.26
		c-0.205-0.089-0.382-0.219-0.528-0.393s-0.22-0.401-0.22-0.684c0-0.225,0.067-0.43,0.2-0.617c0.133-0.186,0.322-0.334,0.568-0.443
		c0.244-0.109,0.525-0.164,0.84-0.164c0.484,0,0.877,0.123,1.176,0.368s0.459,0.581,0.48,1.008h-0.729
		c-0.016-0.229-0.107-0.413-0.275-0.552s-0.395-0.208-0.677-0.208c-0.261,0-0.47,0.056-0.624,0.168s-0.232,0.259-0.232,0.44
		c0,0.144,0.047,0.262,0.141,0.355s0.211,0.168,0.352,0.225c0.142,0.055,0.338,0.118,0.588,0.188
		c0.314,0.086,0.571,0.17,0.769,0.252s0.366,0.207,0.508,0.372s0.215,0.382,0.22,0.647c0,0.24-0.066,0.457-0.199,0.648
		c-0.134,0.191-0.322,0.343-0.564,0.452c-0.242,0.108-0.521,0.163-0.836,0.163C160.969,63.613,160.668,63.557,160.4,63.441z"/>
</g>
</svg>
