<?xml version="1.0" encoding="utf-8"?>
<!-- Generator: Adobe Illustrator 16.0.0, SVG Export Plug-In . SVG Version: 6.00 Build 0)  -->
<!DOCTYPE svg PUBLIC "-//W3C//DTD SVG 1.1//EN" "http://www.w3.org/Graphics/SVG/1.1/DTD/svg11.dtd">
<svg version="1.1" id="Layer_1" xmlns="http://www.w3.org/2000/svg" xmlns:xlink="http://www.w3.org/1999/xlink" x="0px" y="0px"
	 width="174px" height="92px" viewBox="0 0 174 92" enable-background="new 0 0 174 92" xml:space="preserve">
<path fill="#6EB9C4" d="M116.048,59.604c-0.002,12.146,9.842,21.994,21.987,21.996s21.994-9.842,21.996-21.988v-0.008
	c0.002-12.146-9.842-21.995-21.988-21.997c-12.146-0.003-21.993,9.84-21.995,21.987V59.604z"/>
<path fill="#6EB9C4" d="M83.727,47.275c0,14.538,11.785,26.323,26.324,26.323c14.537,0,26.322-11.785,26.322-26.323
	s-11.785-26.324-26.322-26.324C95.512,20.951,83.727,32.737,83.727,47.275"/>
<path fill="#6EB9C4" d="M60.402,39.611c0,11.595,9.398,20.992,20.992,20.992c11.595,0,20.992-9.397,20.992-20.992
	c0-11.594-9.397-20.992-20.992-20.992C69.8,18.62,60.402,28.018,60.402,39.611"/>
<path fill="#6EB9C4" d="M131.207,41.202c-0.002,9.057,7.34,16.401,16.396,16.403c9.059,0.001,16.4-7.34,16.402-16.398v-0.005
	c0.002-9.057-7.34-16.401-16.396-16.403c-9.059-0.001-16.402,7.34-16.402,16.398V41.202z"/>
<path fill="#6EB9C4" d="M154.033,60.271c0,5.521,4.475,9.996,9.996,9.996s9.997-4.475,9.997-9.996s-4.476-9.996-9.997-9.996
	S154.033,54.749,154.033,60.271"/>
<path fill="#6EB9C4" d="M69.731,65.269c-0.004,7.729,6.259,13.998,13.988,14.002c7.729,0.004,13.998-6.259,14.002-13.988v-0.014
	c0.003-7.729-6.259-13.998-13.988-14.002c-7.729-0.004-13.998,6.259-14.002,13.988V65.269z"/>
<path fill="#6EB9C4" d="M18.417,32.991c-0.002,18.219,14.766,32.988,32.984,32.99c18.219,0.003,32.99-14.766,32.991-32.983v-0.007
	C84.395,14.772,69.627,0.002,51.408,0C33.189-0.002,18.419,14.766,18.417,32.984V32.991z"/>
<path fill="#6EB9C4" d="M0.424,56.272C0.418,69.338,11.004,79.935,24.07,79.94c13.066,0.008,23.663-10.58,23.67-23.646v-0.022
	c0-13.066-10.592-23.659-23.658-23.659S0.424,43.206,0.424,56.272"/>
<path fill="#6EB9C4" d="M35.744,70.933c-0.001,11.41,9.248,20.66,20.657,20.662c11.41,0,20.66-9.248,20.661-20.658v-0.004
	c0.001-11.41-9.248-20.66-20.657-20.66c-11.41-0.002-20.66,9.248-20.661,20.658V70.933z"/>
<g>
	<path fill="#FFFFFF" d="M8.358,49.908c0.664,0.426,1.616,0.749,2.637,0.749c1.514,0,2.399-0.782,2.399-1.956
		c0-1.056-0.613-1.686-2.161-2.264c-1.871-0.68-3.028-1.667-3.028-3.267c0-1.786,1.48-3.113,3.709-3.113
		c1.157,0,2.025,0.272,2.518,0.562l-0.408,1.208c-0.357-0.221-1.123-0.544-2.161-0.544c-1.565,0-2.161,0.936-2.161,1.718
		c0,1.072,0.698,1.599,2.28,2.212c1.939,0.766,2.909,1.684,2.909,3.369c0,1.77-1.293,3.316-3.998,3.316
		c-1.106,0-2.314-0.34-2.927-0.748L8.358,49.908z"/>
	<path fill="#FFFFFF" d="M19.114,48.105l-1.191,3.606h-1.531l3.896-11.467h1.787l3.913,11.467h-1.583l-1.225-3.606H19.114z
		 M22.875,46.948l-1.14-3.301c-0.238-0.749-0.408-1.429-0.579-2.093h-0.051c-0.153,0.664-0.34,1.378-0.562,2.076l-1.123,3.318
		H22.875z"/>
	<path fill="#FFFFFF" d="M28,40.245h1.498V50.47h4.9v1.242H28V40.245z"/>
	<path fill="#FFFFFF" d="M42.312,46.335h-4.44v4.134h4.968v1.242h-6.465V40.245h6.21v1.242h-4.712v3.624h4.44V46.335z"/>
	<path fill="#FFFFFF" d="M44.917,49.908c0.664,0.426,1.616,0.749,2.637,0.749c1.514,0,2.399-0.782,2.399-1.956
		c0-1.056-0.613-1.686-2.161-2.264c-1.871-0.68-3.028-1.667-3.028-3.267c0-1.786,1.48-3.113,3.709-3.113
		c1.157,0,2.025,0.272,2.518,0.562l-0.408,1.208c-0.357-0.221-1.123-0.544-2.161-0.544c-1.565,0-2.161,0.936-2.161,1.718
		c0,1.072,0.697,1.599,2.28,2.212c1.939,0.766,2.909,1.684,2.909,3.369c0,1.77-1.293,3.316-3.998,3.316
		c-1.106,0-2.314-0.34-2.927-0.748L44.917,49.908z"/>
	<path fill="#FFFFFF" d="M64.845,51.354c-0.527,0.272-1.633,0.544-3.029,0.544c-3.232,0-5.648-2.041-5.648-5.818
		c0-3.607,2.433-6.023,5.989-6.023c1.412,0,2.331,0.306,2.722,0.51l-0.374,1.208c-0.544-0.272-1.344-0.476-2.297-0.476
		c-2.688,0-4.475,1.718-4.475,4.729c0,2.824,1.616,4.611,4.39,4.611c0.918,0,1.837-0.188,2.433-0.477L64.845,51.354z"/>
	<path fill="#FFFFFF" d="M68.898,48.105l-1.191,3.606h-1.531l3.896-11.467h1.787l3.913,11.467h-1.582l-1.225-3.606H68.898z
		 M72.658,46.948l-1.14-3.301c-0.238-0.749-0.408-1.429-0.579-2.093h-0.051c-0.153,0.664-0.34,1.378-0.562,2.076l-1.123,3.318
		H72.658z"/>
	<path fill="#FFFFFF" d="M77.766,40.245h1.498V50.47h4.9v1.242h-6.397V40.245z"/>
	<path fill="#FFFFFF" d="M94.307,51.354c-0.527,0.272-1.633,0.544-3.028,0.544c-3.232,0-5.648-2.041-5.648-5.818
		c0-3.607,2.433-6.023,5.989-6.023c1.412,0,2.33,0.306,2.722,0.51l-0.374,1.208c-0.545-0.272-1.344-0.476-2.297-0.476
		c-2.688,0-4.475,1.718-4.475,4.729c0,2.824,1.616,4.611,4.39,4.611c0.919,0,1.837-0.188,2.433-0.477L94.307,51.354z"/>
	<path fill="#FFFFFF" d="M97.986,40.245v6.806c0,2.551,1.139,3.641,2.67,3.641c1.686,0,2.791-1.123,2.791-3.641v-6.806h1.497v6.704
		c0,3.521-1.854,4.95-4.339,4.95c-2.348,0-4.117-1.326-4.117-4.899v-6.754H97.986z"/>
	<path fill="#FFFFFF" d="M107.824,40.245h1.497V50.47h4.899v1.242h-6.396V40.245z"/>
	<path fill="#FFFFFF" d="M118.068,48.105l-1.19,3.606h-1.531l3.896-11.467h1.787l3.913,11.467h-1.582l-1.226-3.606H118.068z
		 M121.829,46.948l-1.14-3.301c-0.238-0.749-0.408-1.429-0.579-2.093h-0.051c-0.153,0.664-0.341,1.378-0.562,2.076l-1.123,3.318
		H121.829z"/>
	<path fill="#FFFFFF" d="M128.009,41.504h-3.487v-1.259h8.489v1.259h-3.505v10.208h-1.497V41.504z"/>
	<path fill="#FFFFFF" d="M136.111,40.245v11.467h-1.498V40.245H136.111z"/>
	<path fill="#FFFFFF" d="M143.496,51.898c-3.045,0-5.155-2.348-5.155-5.818c0-3.641,2.246-6.023,5.309-6.023
		c3.147,0,5.172,2.399,5.172,5.802c0,3.93-2.399,6.039-5.308,6.039H143.496z M143.564,50.691c2.348,0,3.675-2.161,3.675-4.764
		c0-2.28-1.19-4.662-3.658-4.662c-2.467,0-3.692,2.297-3.692,4.781c0,2.417,1.328,4.645,3.658,4.645H143.564z"/>
	<path fill="#FFFFFF" d="M151.072,51.712V40.245h1.633l3.658,5.802c0.834,1.344,1.515,2.536,2.042,3.726l0.051-0.017
		c-0.136-1.531-0.17-2.927-0.17-4.696v-4.815h1.396v11.467h-1.498l-3.641-5.819c-0.799-1.276-1.564-2.586-2.127-3.828l-0.051,0.017
		c0.085,1.446,0.102,2.825,0.102,4.73v4.9H151.072z"/>
</g>
<g>
	<path fill="#FFFFFF" d="M11.777,55.183c0.445,0.227,0.787,0.551,1.024,0.972c0.237,0.422,0.356,0.918,0.356,1.488
		s-0.119,1.065-0.356,1.484c-0.237,0.418-0.579,0.738-1.024,0.959c-0.445,0.222-0.972,0.332-1.58,0.332H8.461v-5.576h1.736
		C10.805,54.842,11.332,54.956,11.777,55.183z M11.845,59.246c0.378-0.381,0.568-0.916,0.568-1.604c0-0.693-0.19-1.234-0.572-1.624
		s-0.93-0.584-1.644-0.584H9.189v4.384h1.008C10.917,59.818,11.466,59.628,11.845,59.246z"/>
	<path fill="#FFFFFF" d="M15.393,56.162c0.237-0.139,0.526-0.207,0.868-0.207v0.752h-0.192c-0.816,0-1.224,0.442-1.224,1.328v2.383
		h-0.728v-4.383h0.728v0.711C14.973,56.496,15.155,56.301,15.393,56.162z"/>
	<path fill="#FFFFFF" d="M21.076,58.498h-3.504c0.027,0.433,0.175,0.77,0.444,1.012c0.269,0.244,0.596,0.365,0.98,0.365
		c0.314,0,0.577-0.074,0.788-0.221c0.211-0.146,0.359-0.342,0.444-0.588h0.784c-0.117,0.422-0.352,0.764-0.704,1.027
		c-0.352,0.265-0.79,0.396-1.312,0.396c-0.416,0-0.788-0.094-1.116-0.279c-0.328-0.188-0.585-0.453-0.772-0.797
		c-0.187-0.344-0.28-0.742-0.28-1.195s0.09-0.852,0.272-1.192c0.181-0.341,0.436-0.604,0.764-0.788s0.706-0.275,1.132-0.275
		c0.416,0,0.784,0.09,1.104,0.271c0.32,0.182,0.566,0.431,0.74,0.748s0.26,0.676,0.26,1.076
		C21.101,58.197,21.092,58.344,21.076,58.498z M20.165,57.19c-0.123-0.2-0.29-0.353-0.5-0.456c-0.211-0.104-0.444-0.156-0.7-0.156
		c-0.368,0-0.681,0.117-0.94,0.353c-0.259,0.234-0.407,0.56-0.444,0.976h2.768C20.348,57.629,20.287,57.391,20.165,57.19z"/>
	<path fill="#FFFFFF" d="M22.061,57.03c0.181-0.339,0.43-0.601,0.748-0.788c0.317-0.187,0.671-0.279,1.06-0.279
		c0.384,0,0.717,0.082,1,0.248c0.283,0.165,0.494,0.373,0.632,0.623v-0.799h0.736v4.383H25.5v-0.815
		c-0.144,0.256-0.359,0.468-0.644,0.636c-0.286,0.168-0.618,0.252-0.996,0.252c-0.389,0-0.741-0.096-1.056-0.287
		c-0.314-0.193-0.563-0.462-0.744-0.809c-0.182-0.347-0.272-0.741-0.272-1.184C21.789,57.763,21.879,57.369,22.061,57.03z
		 M25.3,57.354c-0.133-0.245-0.313-0.433-0.54-0.563s-0.476-0.197-0.748-0.197s-0.52,0.064-0.744,0.193
		c-0.224,0.127-0.403,0.314-0.536,0.56s-0.2,0.533-0.2,0.864c0,0.336,0.067,0.627,0.2,0.875s0.312,0.438,0.536,0.568
		c0.224,0.131,0.472,0.196,0.744,0.196s0.521-0.065,0.748-0.196s0.407-0.32,0.54-0.568s0.2-0.537,0.2-0.867
		C25.5,57.888,25.434,57.6,25.3,57.354z"/>
	<path fill="#FFFFFF" d="M33.652,56.166c0.267,0.142,0.478,0.354,0.632,0.637c0.154,0.283,0.232,0.627,0.232,1.031v2.584h-0.72
		v-2.479c0-0.438-0.108-0.772-0.324-1.004c-0.216-0.231-0.508-0.349-0.876-0.349c-0.379,0-0.68,0.122-0.904,0.365
		c-0.224,0.242-0.336,0.593-0.336,1.051v2.416h-0.72v-2.479c0-0.438-0.108-0.772-0.324-1.004s-0.508-0.349-0.876-0.349
		c-0.379,0-0.68,0.122-0.904,0.365c-0.224,0.242-0.336,0.593-0.336,1.051v2.416h-0.728v-4.383h0.728v0.631
		c0.144-0.229,0.337-0.404,0.58-0.527s0.511-0.184,0.804-0.184c0.368,0,0.693,0.082,0.976,0.248
		c0.283,0.164,0.493,0.407,0.632,0.728c0.123-0.31,0.325-0.55,0.608-0.72c0.283-0.171,0.597-0.256,0.944-0.256
		C33.082,55.955,33.386,56.025,33.652,56.166z"/>
	<path fill="#FFFFFF" d="M36.356,60.318c-0.267-0.115-0.478-0.274-0.632-0.48c-0.155-0.205-0.24-0.441-0.256-0.707h0.752
		c0.021,0.219,0.124,0.396,0.308,0.535s0.425,0.209,0.724,0.209c0.277,0,0.496-0.063,0.656-0.185s0.24-0.277,0.24-0.464
		c0-0.191-0.085-0.335-0.256-0.428c-0.17-0.094-0.435-0.186-0.792-0.276c-0.325-0.085-0.59-0.172-0.796-0.26
		c-0.205-0.089-0.381-0.219-0.528-0.392c-0.147-0.174-0.22-0.402-0.22-0.685c0-0.224,0.067-0.429,0.2-0.616
		c0.133-0.187,0.323-0.334,0.568-0.443s0.525-0.164,0.84-0.164c0.485,0,0.877,0.123,1.176,0.367c0.298,0.246,0.458,0.582,0.48,1.008
		h-0.728c-0.016-0.229-0.108-0.412-0.276-0.551s-0.394-0.209-0.676-0.209c-0.261,0-0.469,0.057-0.624,0.168
		c-0.155,0.112-0.232,0.26-0.232,0.44c0,0.144,0.047,0.263,0.14,0.356c0.093,0.093,0.21,0.168,0.352,0.224
		c0.141,0.056,0.337,0.118,0.588,0.188c0.314,0.085,0.571,0.169,0.768,0.252c0.197,0.082,0.367,0.206,0.508,0.371
		c0.142,0.166,0.215,0.382,0.22,0.648c0,0.24-0.067,0.456-0.2,0.648c-0.133,0.191-0.321,0.342-0.564,0.451s-0.521,0.164-0.836,0.164
		C36.924,60.49,36.623,60.434,36.356,60.318z"/>
	<path fill="#FFFFFF" d="M47.86,56.035l-1.368,4.383H45.74l-1.056-3.479l-1.056,3.479h-0.752L41.5,56.035h0.744l1.008,3.68
		l1.088-3.68h0.744l1.064,3.688l0.992-3.688H47.86z"/>
	<path fill="#FFFFFF" d="M48.604,55.178c-0.096-0.096-0.144-0.213-0.144-0.352s0.048-0.256,0.144-0.352
		c0.096-0.096,0.213-0.145,0.352-0.145c0.133,0,0.247,0.049,0.34,0.145s0.14,0.213,0.14,0.352s-0.047,0.256-0.14,0.352
		c-0.093,0.097-0.207,0.145-0.34,0.145C48.817,55.322,48.7,55.274,48.604,55.178z M49.309,56.035v4.383h-0.728v-4.383H49.309z"/>
	<path fill="#FFFFFF" d="M51.436,56.635v2.584c0,0.213,0.045,0.363,0.136,0.451c0.09,0.088,0.248,0.133,0.472,0.133h0.536v0.615
		h-0.656c-0.406,0-0.709-0.093-0.912-0.279c-0.203-0.188-0.304-0.494-0.304-0.92v-2.584H50.14v-0.6h0.568v-1.104h0.728v1.104h1.144
		v0.6H51.436z"/>
	<path fill="#FFFFFF" d="M56.532,56.166c0.267,0.142,0.476,0.354,0.628,0.637s0.228,0.627,0.228,1.031v2.584h-0.72v-2.479
		c0-0.438-0.109-0.772-0.328-1.004s-0.518-0.349-0.896-0.349c-0.384,0-0.689,0.121-0.916,0.36c-0.227,0.24-0.34,0.589-0.34,1.048
		v2.424H53.46v-5.92h0.728v2.16c0.144-0.224,0.342-0.396,0.596-0.52s0.537-0.184,0.852-0.184
		C55.967,55.955,56.266,56.025,56.532,56.166z"/>
	<path fill="#FFFFFF" d="M59.376,60.211c-0.333-0.188-0.595-0.453-0.784-0.797s-0.284-0.742-0.284-1.195
		c0-0.448,0.097-0.844,0.292-1.188c0.194-0.344,0.46-0.608,0.796-0.792s0.712-0.275,1.128-0.275s0.792,0.092,1.128,0.275
		s0.601,0.447,0.796,0.788s0.292,0.739,0.292,1.192s-0.1,0.852-0.3,1.195c-0.2,0.344-0.471,0.609-0.812,0.797
		c-0.341,0.186-0.72,0.279-1.136,0.279C60.081,60.49,59.709,60.396,59.376,60.211z M61.228,59.666
		c0.229-0.122,0.415-0.307,0.556-0.552c0.142-0.245,0.212-0.544,0.212-0.896s-0.07-0.65-0.208-0.896
		c-0.139-0.245-0.32-0.428-0.544-0.548c-0.224-0.12-0.466-0.181-0.728-0.181c-0.267,0-0.511,0.061-0.732,0.181
		s-0.398,0.303-0.532,0.548c-0.133,0.246-0.2,0.545-0.2,0.896c0,0.357,0.065,0.658,0.196,0.904c0.13,0.244,0.305,0.428,0.524,0.547
		c0.219,0.121,0.458,0.181,0.72,0.181S60.999,59.789,61.228,59.666z"/>
	<path fill="#FFFFFF" d="M67.588,56.035v4.383H66.86v-0.647c-0.139,0.224-0.332,0.399-0.58,0.524
		c-0.248,0.125-0.521,0.188-0.82,0.188c-0.341,0-0.648-0.07-0.92-0.212s-0.487-0.354-0.644-0.636
		c-0.157-0.283-0.236-0.627-0.236-1.032v-2.567h0.72v2.471c0,0.433,0.109,0.765,0.328,0.996c0.219,0.232,0.517,0.349,0.896,0.349
		c0.389,0,0.696-0.12,0.92-0.36s0.336-0.589,0.336-1.048v-2.407H67.588z"/>
	<path fill="#FFFFFF" d="M69.708,56.635v2.584c0,0.213,0.045,0.363,0.136,0.451c0.09,0.088,0.248,0.133,0.472,0.133h0.536v0.615
		h-0.656c-0.406,0-0.709-0.093-0.912-0.279c-0.203-0.188-0.304-0.494-0.304-0.92v-2.584h-0.568v-0.6h0.568v-1.104h0.728v1.104h1.144
		v0.6H69.708z"/>
	<path fill="#FFFFFF" d="M76.672,56.211c0.285,0.165,0.498,0.373,0.636,0.623v-0.799h0.736v4.479c0,0.399-0.085,0.756-0.256,1.067
		c-0.171,0.313-0.415,0.557-0.732,0.732c-0.317,0.176-0.687,0.264-1.108,0.264c-0.576,0-1.056-0.136-1.44-0.408
		c-0.384-0.271-0.611-0.643-0.68-1.111h0.72c0.08,0.267,0.245,0.48,0.496,0.645c0.25,0.162,0.552,0.243,0.904,0.243
		c0.4,0,0.727-0.125,0.98-0.376c0.253-0.25,0.38-0.603,0.38-1.056v-0.921c-0.144,0.257-0.357,0.471-0.64,0.641
		c-0.283,0.171-0.613,0.256-0.992,0.256c-0.389,0-0.743-0.096-1.06-0.287c-0.317-0.193-0.566-0.462-0.748-0.809
		c-0.182-0.347-0.272-0.741-0.272-1.184c0-0.448,0.09-0.842,0.272-1.181c0.181-0.339,0.43-0.601,0.748-0.788
		c0.317-0.187,0.671-0.279,1.06-0.279C76.055,55.963,76.387,56.045,76.672,56.211z M77.108,57.354
		c-0.133-0.245-0.313-0.433-0.54-0.563s-0.476-0.197-0.748-0.197s-0.52,0.064-0.744,0.193c-0.224,0.127-0.403,0.314-0.536,0.56
		s-0.2,0.533-0.2,0.864c0,0.336,0.067,0.627,0.2,0.875s0.312,0.438,0.536,0.568c0.224,0.131,0.472,0.196,0.744,0.196
		s0.521-0.065,0.748-0.196s0.407-0.32,0.54-0.568s0.2-0.537,0.2-0.867C77.308,57.888,77.241,57.6,77.108,57.354z"/>
	<path fill="#FFFFFF" d="M80.072,60.211c-0.333-0.188-0.595-0.453-0.784-0.797s-0.284-0.742-0.284-1.195
		c0-0.448,0.097-0.844,0.292-1.188c0.194-0.344,0.46-0.608,0.796-0.792s0.712-0.275,1.128-0.275s0.792,0.092,1.128,0.275
		s0.601,0.447,0.796,0.788s0.292,0.739,0.292,1.192s-0.1,0.852-0.3,1.195c-0.2,0.344-0.471,0.609-0.812,0.797
		c-0.341,0.186-0.72,0.279-1.136,0.279C80.777,60.49,80.405,60.396,80.072,60.211z M81.924,59.666
		c0.229-0.122,0.415-0.307,0.556-0.552c0.142-0.245,0.212-0.544,0.212-0.896s-0.07-0.65-0.208-0.896
		c-0.139-0.245-0.32-0.428-0.544-0.548c-0.224-0.12-0.466-0.181-0.728-0.181c-0.267,0-0.511,0.061-0.732,0.181
		s-0.398,0.303-0.532,0.548c-0.133,0.246-0.2,0.545-0.2,0.896c0,0.357,0.065,0.658,0.196,0.904c0.13,0.244,0.305,0.428,0.524,0.547
		c0.219,0.121,0.458,0.181,0.72,0.181S81.695,59.789,81.924,59.666z"/>
	<path fill="#FFFFFF" d="M84.396,57.03c0.181-0.339,0.43-0.601,0.748-0.788c0.317-0.187,0.671-0.279,1.06-0.279
		c0.384,0,0.717,0.082,1,0.248c0.283,0.165,0.494,0.373,0.632,0.623v-0.799h0.736v4.383h-0.736v-0.815
		c-0.144,0.256-0.359,0.468-0.644,0.636c-0.286,0.168-0.618,0.252-0.996,0.252c-0.389,0-0.741-0.096-1.056-0.287
		c-0.314-0.193-0.563-0.462-0.744-0.809c-0.182-0.347-0.272-0.741-0.272-1.184C84.125,57.763,84.215,57.369,84.396,57.03z
		 M87.636,57.354c-0.133-0.245-0.313-0.433-0.54-0.563s-0.476-0.197-0.748-0.197s-0.52,0.064-0.744,0.193
		c-0.224,0.127-0.403,0.314-0.536,0.56s-0.2,0.533-0.2,0.864c0,0.336,0.067,0.627,0.2,0.875s0.312,0.438,0.536,0.568
		c0.224,0.131,0.472,0.196,0.744,0.196s0.521-0.065,0.748-0.196s0.407-0.32,0.54-0.568s0.2-0.537,0.2-0.867
		C87.836,57.888,87.77,57.6,87.636,57.354z"/>
	<path fill="#FFFFFF" d="M90.532,54.498v5.92h-0.728v-5.92H90.532z"/>
	<path fill="#FFFFFF" d="M92.42,60.318c-0.268-0.115-0.478-0.274-0.633-0.48c-0.154-0.205-0.239-0.441-0.256-0.707h0.752
		c0.021,0.219,0.125,0.396,0.309,0.535s0.426,0.209,0.725,0.209c0.276,0,0.495-0.063,0.655-0.185s0.24-0.277,0.24-0.464
		c0-0.191-0.085-0.335-0.257-0.428c-0.17-0.094-0.434-0.186-0.791-0.276c-0.326-0.085-0.591-0.172-0.797-0.26
		c-0.205-0.089-0.381-0.219-0.527-0.392c-0.146-0.174-0.221-0.402-0.221-0.685c0-0.224,0.067-0.429,0.201-0.616
		c0.133-0.187,0.322-0.334,0.567-0.443s0.525-0.164,0.84-0.164c0.485,0,0.878,0.123,1.177,0.367
		c0.298,0.246,0.458,0.582,0.479,1.008h-0.728c-0.017-0.229-0.108-0.412-0.276-0.551s-0.394-0.209-0.677-0.209
		c-0.261,0-0.469,0.057-0.623,0.168c-0.155,0.112-0.232,0.26-0.232,0.44c0,0.144,0.047,0.263,0.141,0.356
		c0.093,0.093,0.21,0.168,0.352,0.224c0.141,0.056,0.338,0.118,0.588,0.188c0.314,0.085,0.57,0.169,0.768,0.252
		c0.197,0.082,0.367,0.206,0.508,0.371c0.143,0.166,0.215,0.382,0.221,0.648c0,0.24-0.066,0.456-0.2,0.648
		c-0.134,0.191-0.321,0.342-0.563,0.451c-0.243,0.109-0.521,0.164-0.836,0.164C92.988,60.49,92.687,60.434,92.42,60.318z"/>
	<path fill="#FFFFFF" d="M98.084,57.03c0.182-0.339,0.43-0.601,0.748-0.788c0.316-0.187,0.67-0.279,1.06-0.279
		c0.384,0,0.718,0.082,1,0.248c0.282,0.165,0.493,0.373,0.632,0.623v-0.799h0.736v4.383h-0.736v-0.815
		c-0.144,0.256-0.358,0.468-0.644,0.636c-0.286,0.168-0.618,0.252-0.996,0.252c-0.39,0-0.741-0.096-1.056-0.287
		c-0.314-0.193-0.563-0.462-0.744-0.809s-0.271-0.741-0.271-1.184C97.813,57.763,97.902,57.369,98.084,57.03z M101.324,57.354
		c-0.134-0.245-0.314-0.433-0.541-0.563s-0.476-0.197-0.748-0.197c-0.271,0-0.52,0.064-0.743,0.193
		c-0.224,0.127-0.403,0.314-0.536,0.56s-0.2,0.533-0.2,0.864c0,0.336,0.067,0.627,0.2,0.875s0.313,0.438,0.536,0.568
		s0.472,0.196,0.743,0.196c0.272,0,0.521-0.065,0.748-0.196s0.407-0.32,0.541-0.568c0.133-0.248,0.199-0.537,0.199-0.867
		C101.523,57.888,101.457,57.6,101.324,57.354z"/>
	<path fill="#FFFFFF" d="M104.768,56.162c0.238-0.139,0.527-0.207,0.868-0.207v0.752h-0.192c-0.815,0-1.223,0.442-1.223,1.328v2.383
		h-0.729v-4.383h0.729v0.711C104.348,56.496,104.531,56.301,104.768,56.162z"/>
	<path fill="#FFFFFF" d="M110.451,58.498h-3.504c0.027,0.433,0.175,0.77,0.444,1.012c0.269,0.244,0.596,0.365,0.979,0.365
		c0.314,0,0.578-0.074,0.788-0.221c0.211-0.146,0.358-0.342,0.444-0.588h0.783c-0.117,0.422-0.352,0.764-0.703,1.027
		c-0.352,0.265-0.789,0.396-1.313,0.396c-0.416,0-0.787-0.094-1.115-0.279c-0.328-0.188-0.586-0.453-0.772-0.797
		s-0.28-0.742-0.28-1.195s0.091-0.852,0.272-1.192c0.181-0.341,0.436-0.604,0.764-0.788s0.706-0.275,1.132-0.275
		c0.416,0,0.784,0.09,1.104,0.271c0.319,0.182,0.566,0.431,0.739,0.748c0.174,0.317,0.261,0.676,0.261,1.076
		C110.476,58.197,110.467,58.344,110.451,58.498z M109.539,57.19c-0.123-0.2-0.289-0.353-0.5-0.456s-0.443-0.156-0.699-0.156
		c-0.369,0-0.682,0.117-0.94,0.353c-0.259,0.234-0.407,0.56-0.444,0.976h2.768C109.723,57.629,109.662,57.391,109.539,57.19z"/>
	<path fill="#FFFFFF" d="M114.324,61.371c0,0.389-0.1,0.674-0.297,0.855s-0.485,0.271-0.863,0.271h-0.424v-0.615h0.303
		c0.203,0,0.346-0.041,0.429-0.12c0.083-0.08,0.124-0.216,0.124-0.408v-5.319h0.729V61.371z M113.615,55.178
		c-0.094-0.096-0.14-0.213-0.14-0.352s0.046-0.256,0.14-0.352s0.209-0.145,0.348-0.145s0.256,0.049,0.349,0.145
		s0.14,0.213,0.14,0.352s-0.047,0.256-0.14,0.352c-0.093,0.097-0.21,0.145-0.349,0.145S113.709,55.274,113.615,55.178z"/>
	<path fill="#FFFFFF" d="M119.443,56.035v4.383h-0.729v-0.647c-0.139,0.224-0.332,0.399-0.58,0.524
		c-0.247,0.125-0.521,0.188-0.819,0.188c-0.341,0-0.647-0.07-0.92-0.212s-0.487-0.354-0.644-0.636
		c-0.158-0.283-0.236-0.627-0.236-1.032v-2.567h0.72v2.471c0,0.433,0.109,0.765,0.328,0.996c0.219,0.232,0.517,0.349,0.896,0.349
		c0.39,0,0.696-0.12,0.92-0.36c0.225-0.24,0.336-0.589,0.336-1.048v-2.407H119.443z"/>
	<path fill="#FFFFFF" d="M121.324,60.318c-0.268-0.115-0.479-0.274-0.633-0.48c-0.154-0.205-0.24-0.441-0.256-0.707h0.752
		c0.021,0.219,0.124,0.396,0.309,0.535c0.184,0.139,0.425,0.209,0.724,0.209c0.276,0,0.495-0.063,0.655-0.185s0.24-0.277,0.24-0.464
		c0-0.191-0.085-0.335-0.256-0.428c-0.17-0.094-0.435-0.186-0.792-0.276c-0.325-0.085-0.591-0.172-0.796-0.26
		c-0.205-0.089-0.381-0.219-0.527-0.392c-0.147-0.174-0.221-0.402-0.221-0.685c0-0.224,0.066-0.429,0.2-0.616
		c0.134-0.187,0.323-0.334,0.567-0.443c0.246-0.109,0.525-0.164,0.84-0.164c0.486,0,0.878,0.123,1.177,0.367
		c0.298,0.246,0.458,0.582,0.479,1.008h-0.728c-0.017-0.229-0.108-0.412-0.276-0.551s-0.393-0.209-0.676-0.209
		c-0.262,0-0.469,0.057-0.624,0.168c-0.155,0.112-0.231,0.26-0.231,0.44c0,0.144,0.047,0.263,0.14,0.356
		c0.093,0.093,0.21,0.168,0.353,0.224c0.141,0.056,0.337,0.118,0.588,0.188c0.314,0.085,0.57,0.169,0.768,0.252
		c0.197,0.082,0.367,0.206,0.508,0.371c0.142,0.166,0.215,0.382,0.221,0.648c0,0.24-0.067,0.456-0.201,0.648
		c-0.133,0.191-0.32,0.342-0.563,0.451s-0.521,0.164-0.836,0.164C121.892,60.49,121.59,60.434,121.324,60.318z"/>
	<path fill="#FFFFFF" d="M125.739,56.635v2.584c0,0.213,0.046,0.363,0.136,0.451c0.091,0.088,0.248,0.133,0.473,0.133h0.535v0.615
		h-0.655c-0.405,0-0.71-0.093-0.912-0.279c-0.202-0.188-0.304-0.494-0.304-0.92v-2.584h-0.568v-0.6h0.568v-1.104h0.728v1.104h1.144
		v0.6H125.739z"/>
	<path fill="#FFFFFF" d="M129.899,57.03c0.181-0.339,0.431-0.601,0.747-0.788c0.318-0.187,0.674-0.279,1.068-0.279
		c0.342,0,0.659,0.078,0.952,0.235c0.294,0.157,0.518,0.364,0.673,0.62v-2.32h0.735v5.92h-0.735v-0.824
		c-0.145,0.262-0.357,0.477-0.641,0.645s-0.613,0.252-0.992,0.252c-0.389,0-0.742-0.096-1.061-0.287
		c-0.316-0.193-0.566-0.462-0.747-0.809c-0.182-0.347-0.272-0.741-0.272-1.184C129.627,57.763,129.718,57.369,129.899,57.03z
		 M133.139,57.354c-0.133-0.245-0.313-0.433-0.539-0.563s-0.477-0.197-0.748-0.197c-0.272,0-0.521,0.064-0.744,0.193
		c-0.225,0.127-0.402,0.314-0.536,0.56s-0.2,0.533-0.2,0.864c0,0.336,0.066,0.627,0.2,0.875s0.312,0.438,0.536,0.568
		c0.224,0.131,0.472,0.196,0.744,0.196c0.271,0,0.521-0.065,0.748-0.196s0.406-0.32,0.539-0.568
		c0.134-0.248,0.201-0.537,0.201-0.867C133.34,57.888,133.272,57.6,133.139,57.354z"/>
	<path fill="#FFFFFF" d="M136.584,56.162c0.236-0.139,0.525-0.207,0.867-0.207v0.752h-0.191c-0.816,0-1.225,0.442-1.225,1.328v2.383
		h-0.728v-4.383h0.728v0.711C136.164,56.496,136.346,56.301,136.584,56.162z"/>
	<path fill="#FFFFFF" d="M142.268,58.498h-3.504c0.026,0.433,0.174,0.77,0.443,1.012c0.27,0.244,0.596,0.365,0.98,0.365
		c0.314,0,0.577-0.074,0.787-0.221c0.211-0.146,0.359-0.342,0.445-0.588h0.783c-0.117,0.422-0.352,0.764-0.703,1.027
		c-0.353,0.265-0.79,0.396-1.313,0.396c-0.416,0-0.788-0.094-1.116-0.279c-0.328-0.188-0.585-0.453-0.772-0.797
		c-0.187-0.344-0.279-0.742-0.279-1.195s0.09-0.852,0.271-1.192s0.436-0.604,0.764-0.788s0.706-0.275,1.133-0.275
		c0.416,0,0.783,0.09,1.104,0.271s0.566,0.431,0.74,0.748s0.26,0.676,0.26,1.076C142.291,58.197,142.283,58.344,142.268,58.498z
		 M141.355,57.19c-0.123-0.2-0.289-0.353-0.5-0.456s-0.444-0.156-0.7-0.156c-0.368,0-0.681,0.117-0.94,0.353
		c-0.258,0.234-0.406,0.56-0.443,0.976h2.768C141.539,57.629,141.479,57.391,141.355,57.19z"/>
	<path fill="#FFFFFF" d="M143.252,57.03c0.181-0.339,0.43-0.601,0.747-0.788c0.317-0.187,0.671-0.279,1.06-0.279
		c0.385,0,0.718,0.082,1,0.248c0.283,0.165,0.494,0.373,0.633,0.623v-0.799h0.736v4.383h-0.736v-0.815
		c-0.145,0.256-0.359,0.468-0.645,0.636s-0.617,0.252-0.996,0.252c-0.389,0-0.74-0.096-1.056-0.287
		c-0.314-0.193-0.563-0.462-0.743-0.809c-0.182-0.347-0.272-0.741-0.272-1.184C142.979,57.763,143.07,57.369,143.252,57.03z
		 M146.491,57.354c-0.134-0.245-0.313-0.433-0.54-0.563s-0.477-0.197-0.748-0.197s-0.52,0.064-0.744,0.193
		c-0.224,0.127-0.402,0.314-0.535,0.56c-0.134,0.245-0.201,0.533-0.201,0.864c0,0.336,0.067,0.627,0.201,0.875
		c0.133,0.248,0.312,0.438,0.535,0.568c0.225,0.131,0.473,0.196,0.744,0.196s0.521-0.065,0.748-0.196s0.406-0.32,0.54-0.568
		s0.2-0.537,0.2-0.867C146.691,57.888,146.625,57.6,146.491,57.354z"/>
	<path fill="#FFFFFF" d="M154.843,56.166c0.267,0.142,0.478,0.354,0.632,0.637s0.232,0.627,0.232,1.031v2.584h-0.721v-2.479
		c0-0.438-0.107-0.772-0.323-1.004s-0.509-0.349-0.876-0.349c-0.379,0-0.68,0.122-0.904,0.365c-0.224,0.242-0.336,0.593-0.336,1.051
		v2.416h-0.72v-2.479c0-0.438-0.108-0.772-0.324-1.004s-0.508-0.349-0.876-0.349c-0.379,0-0.68,0.122-0.904,0.365
		c-0.224,0.242-0.336,0.593-0.336,1.051v2.416h-0.728v-4.383h0.728v0.631c0.145-0.229,0.338-0.404,0.58-0.527
		s0.511-0.184,0.805-0.184c0.367,0,0.693,0.082,0.976,0.248c0.282,0.164,0.493,0.407,0.632,0.728c0.123-0.31,0.325-0.55,0.607-0.72
		c0.283-0.171,0.598-0.256,0.945-0.256C154.272,55.955,154.576,56.025,154.843,56.166z"/>
	<path fill="#FFFFFF" d="M157.547,60.318c-0.267-0.115-0.477-0.274-0.632-0.48c-0.155-0.205-0.239-0.441-0.256-0.707h0.752
		c0.021,0.219,0.124,0.396,0.308,0.535c0.185,0.139,0.426,0.209,0.725,0.209c0.277,0,0.496-0.063,0.656-0.185s0.24-0.277,0.24-0.464
		c0-0.191-0.086-0.335-0.257-0.428c-0.171-0.094-0.435-0.186-0.792-0.276c-0.325-0.085-0.59-0.172-0.796-0.26
		c-0.205-0.089-0.382-0.219-0.528-0.392c-0.146-0.174-0.22-0.402-0.22-0.685c0-0.224,0.067-0.429,0.2-0.616
		c0.133-0.187,0.322-0.334,0.568-0.443c0.244-0.109,0.525-0.164,0.84-0.164c0.484,0,0.877,0.123,1.176,0.367
		c0.299,0.246,0.459,0.582,0.48,1.008h-0.729c-0.016-0.229-0.107-0.412-0.275-0.551s-0.395-0.209-0.677-0.209
		c-0.261,0-0.47,0.057-0.624,0.168c-0.154,0.112-0.232,0.26-0.232,0.44c0,0.144,0.047,0.263,0.141,0.356
		c0.094,0.093,0.211,0.168,0.352,0.224c0.142,0.056,0.338,0.118,0.588,0.188c0.314,0.085,0.571,0.169,0.769,0.252
		c0.197,0.082,0.366,0.206,0.508,0.371c0.142,0.166,0.215,0.382,0.22,0.648c0,0.24-0.066,0.456-0.199,0.648
		c-0.134,0.191-0.322,0.342-0.564,0.451s-0.521,0.164-0.836,0.164C158.115,60.49,157.814,60.434,157.547,60.318z"/>
</g>
</svg>
