<?xml version="1.0" encoding="utf-8"?>
<!-- Generator: Adobe Illustrator 16.0.0, SVG Export Plug-In . SVG Version: 6.00 Build 0)  -->
<!DOCTYPE svg PUBLIC "-//W3C//DTD SVG 1.1//EN" "http://www.w3.org/Graphics/SVG/1.1/DTD/svg11.dtd">
<svg version="1.1" id="Layer_1" xmlns="http://www.w3.org/2000/svg" xmlns:xlink="http://www.w3.org/1999/xlink" x="0px" y="0px"
	 width="107.69px" height="22.09px" viewBox="0 0 107.69 22.09" enable-background="new 0 0 107.69 22.09" xml:space="preserve">
<path fill="#7F715F" d="M107.683,20.875L107.683,20.875l-0.037-0.027v-0.717h-0.274l-0.001-0.007l0.275,0.007l-0.009-0.097
	l-0.672-0.38l-0.739-0.018l0.007,0.121l-0.023,0.01l-0.053,0.008l-0.072,0.004l-0.093,0.002l-0.096-0.001v-0.108l0.05-6.718
	l0.018-0.001l0.071-0.01l0.038-0.012l0.003-0.014l0.003-0.363l-0.031-0.016l-0.066-0.014l-0.096-0.014l-0.117-0.012l-0.085-0.005
	l0.01-1.138l-0.108-1.167l-0.111,1.159l-0.012,1.14h-0.095l-0.116,0.005l-0.097,0.008l-0.065,0.012l-0.035,0.014l-0.004,0.357V12.9
	l0.035,0.014l0.066,0.014l0.014,0.002c0.006,0,0.004,0.746-0.008,1.662l-0.054,4.748l-0.479-0.359
	c-0.267-0.197-0.93-0.365-1.481-0.375l-4.246-0.073l-0.052-1.989l0.125-0.01l-0.002-0.055h-0.719l-0.019-0.795l0.138-0.006
	l-0.001-0.057l-0.215-0.006l0.022-0.033l0.037-0.096l0.012-0.105l-0.016-0.104l-0.041-0.096L98.101,15.1l-0.084-0.062l-0.097-0.039
	l-0.006-0.001l-0.097-0.012l-0.095,0.012L97.717,15l-0.096,0.039l-0.08,0.064l-0.061,0.082l-0.037,0.096l-0.001,0.004l-0.013,0.104
	l0.016,0.103l0.041,0.095l0.023,0.029h-0.002l-0.209,0.013v0.056l0.136,0.004l0.016,0.789h-0.38L96.93,16.48H95.69v-0.006
	l-0.113-0.004h-0.575L95,16.143l0.098-0.006v-0.063l-2.047-0.002l-0.021-0.167l-0.05-0.196l-0.075-0.187l-0.097-0.176l-0.119-0.16
	l-0.138-0.144l-0.156-0.126l-0.17-0.104l-0.023-0.01l-0.177-0.08l-0.162-0.047v-0.021l-0.013-0.008l-0.01-0.002l-0.191-0.029
	l-0.02-0.002l-0.033-0.004l-0.041-0.002h-0.02l0.014-1.053l-0.158-0.002l-0.014,1.053l-0.023,0.002l-0.041,0.002l-0.032,0.002
	l-0.174,0.023l-0.039,0.006l-0.009,0.004l-0.012,0.006l-0.002,0.021l-0.166,0.048l-0.182,0.076l-0.02,0.012l-0.174,0.103
	l-0.16,0.125l-0.145,0.144l-0.126,0.162l-0.103,0.176l-0.082,0.188L89.832,15.9l-0.025,0.168l-2.192-0.002l-0.003,0.064l0.105,0.008
	l-0.012,0.336l-0.121,0.002c-0.068,0.002-0.123-0.74-0.123-1.658v-4.75h-0.535V9.667h-1.092v0.401H85.26V12.2h-0.404v0.308h-0.109
	c-0.06,0-0.109-0.447-0.109-1l-0.004-3.212l-0.004-2.431l0.515-0.004h0.001h0.128V5.724h0.056l0.004-0.072V5.549h-0.061V5.33h0.033
	V5.315V5.107h0.011l0.001-0.016l-0.002-1.305h-0.02l-0.002-0.71l-0.051,0.001v0.008v0.286h-0.008l-0.001,0.008l0.002,0.408h-0.011
	l-0.002,0.019v0.058l-1.049,0.007l-0.002-0.484V3.379h-0.026V3.093l-0.001-0.008h-0.051v0.71h-0.02v0.077l-1.01,0.006V3.396
	l-0.002-0.009l-0.049,0.001v0.415H83V3.102l-0.002-0.009l-0.052,0.001l0.001,0.709h-0.021V3.88l-0.969,0.006V3.403l-0.003-0.007
	h-0.049v0.491h-0.026V3.83L81.87,3.81l-0.015,0.001V3.11l-0.002-0.008h-0.053v0.709h-0.02v0.077l-0.929,0.006l0.001-0.483
	L80.85,3.404h-0.049v0.49l-0.064,0.001V3.838l-0.009-0.019h-0.011l0.002-1.861l-0.004-0.01l-0.049,0.001l-0.002,1.162h-0.005v0.708
	h-0.021v0.528l-0.114,0.005l-0.004,0.001l-0.025,0.002l-0.138,0.006l-0.114,0.007H80.24L80.215,4.37l-0.131,0.007l-0.111,0.009l0,0
	l-0.023,0.002h-0.001l-0.124,0.01l-0.105,0.01l0,0l-0.021,0.001L79.58,4.42l-0.098,0.012l-0.012,0.005l-0.008,0.01L79.455,4.46
	l-0.003,0.017L79.45,4.495l0.002,0.019l0.003,0.017l0.008,0.016l0.008,0.013l0.012,0.008l0.009,0.004l-0.01-0.004L79.471,4.56
	l-0.008-0.013l-0.008-0.016l-0.003-0.017L79.45,4.495l0.002-0.018l0.003-0.017l0.008-0.013l0.008-0.01l0.012-0.005l-0.02,0.002
	l-0.108,0.012l-0.091,0.012l-0.012,0.006l-0.01,0.009l-0.008,0.014L79.23,4.504l-0.001,0.018L79.23,4.54l-0.001-0.018l0.001-0.018
	l0.004-0.017l0.008-0.014l0.01-0.009l0.012-0.006l-0.018,0.003l-0.1,0.014l-0.08,0.013l-0.018,0.003l-0.088,0.015l-0.08,0.016
	h-0.004l-0.078,0.016l-0.14,0.034l-0.116,0.036l-0.041,0.017l-0.004,0.002l-0.002,0.001l-0.003,0.001l-0.04,0.017l-0.015,0.006
	L78.41,4.668l-0.006,0.004l-0.031,0.017L78.36,4.7l-0.017,0.016l-0.002,0.001l-0.01,0.014l-0.006,0.016l-0.002,0.018l0.002,0.018
	l0.006,0.016l0.01,0.015l0.015,0.011l0.014,0.007l0.017,0.003l0.098,0.024l-0.098-0.024L78.37,4.832l-0.015-0.007l-0.014-0.011
	l-0.01-0.015l-0.006-0.016l-0.002-0.018l0.002-0.018l0.006-0.016l0.01-0.014L78.34,4.72l-0.019,0.018l-0.011,0.015l-0.006,0.016
	L78.301,4.78l-0.002,0.006l-0.004,0.017l0.004,0.018l0.006,0.016l0.01,0.015l0.014,0.011l0.014,0.007l0.018,0.002l0.23,0.054
	l-0.23-0.054L78.342,4.87l-0.014-0.007l-0.014-0.011l-0.01-0.015l-0.006-0.016l-0.004-0.018l0.004-0.017l-0.002,0.003V4.79
	l-0.006,0.017l-0.002,0.018l0.002,0.017l0.004,0.016V4.86l0.002,0.002l0.002,0.005l0.004,0.014l0.006,0.016l0.01,0.014l0.014,0.015
	l0.002,0.002l0.004,0.003l0.002,0.002l0.015,0.016l0.013,0.01l0.024,0.015l0.003,0.001l0.005,0.003L78.4,4.98l0.027,0.016
	l0.015,0.006l0.021,0.01l0.016,0.006l0.007,0.003l0.001,0.001l0.039,0.016l0.045,0.014l0.001,0.001l0.009,0.003h0.002l0.049,0.016
	l0.054,0.014h0.002l0.011,0.003l0.002,0.001l0.059,0.015l0.063,0.013l0.001,0.001l0.013,0.002l0.004,0.001l0.066,0.014l0.071,0.013
	l0.002,0.001l0.014,0.002h0.004l0.074,0.014l0.019,0.002l0.789,0.143l-0.002,0.488l-0.301,0.034l-0.273,0.049l-0.17,0.054
	L79.07,5.993l-0.001,0.271l0.047,0.054l0.011,0.004v0.372L79.068,6.74v0.027l0.047,0.05l0.01,0.003v0.244l-0.058,0.043v0.136
	l0.047,0.045l0.005,0.002c0.004,0.001,0.004,0.745,0.002,1.663L79.1,18.086l-0.145-0.001c-0.08-0.001-0.146-0.745-0.147-1.663
	l-0.015-9.168h-0.791V6.868h-2.877l-0.184,0.386L74.5,7.255l-0.16,0.382c-0.09,0.211-0.16,1.126-0.16,2.043l0.006,7.96H74.09v-0.037
	l-0.065-0.03H73.9l0.005-0.237h-0.03l-0.009-0.003v0.003h-0.024l-0.004,0.237l-0.151,0.001l0.003-0.165l-0.049-0.022h-0.111
	l0.003-0.207h-0.028L73.5,17.178v0.002h-0.021l-0.003,0.207h-0.253l0.021-1.531l-0.196-0.027l-0.318-0.014l-0.107-0.045v-0.012
	h-0.023l-0.047-0.021v-0.061l-0.168-0.029l-0.066-0.004L72.2,15.421l-0.173-0.211l-0.211-0.168l-0.239-0.122l-0.257-0.068
	l-0.001-0.334l0.032-0.006l0.003-0.035v-0.012l-0.035-0.023l-0.024-0.047l-0.033-0.041l-0.041-0.032l-0.047-0.022l-0.049-0.013
	v-0.188h-0.05l-0.001-0.01v0.01h-0.048l0.001,0.188h-0.001l-0.05,0.012L70.93,14.32l-0.043,0.031l-0.032,0.041l-0.024,0.047
	l-0.035,0.022v0.013l0.01,0.035l0.025,0.004l0.004,0.336l-0.262,0.066l-0.242,0.121l-0.214,0.168l-0.175,0.211l-0.118,0.221
	l-0.077,0.006l-0.154,0.027l0.002,0.063l-0.051,0.021h-0.096l0.001,0.04l-0.034,0.015l-0.354,0.016l-0.178,0.027l0.033,1.551h-0.228
	l-0.005-0.209h-0.022v-0.002l-0.006,0.002h-0.028l0.006,0.209h-0.112l-0.056,0.025l0.004,0.166h-0.002l-0.194,0.002l-0.006-0.242
	h-0.023l-0.001-0.002l-0.008,0.002h-0.033l0.006,0.242h-0.125l-0.074,0.033v0.012h-0.025c-0.014,0-0.023-0.744-0.023-1.662
	l0.004-7.959L67.6,7.255h-0.414l-0.206-0.386h-2.875l-0.001,0.386h-0.398c-0.221,0-0.4,0.744-0.402,1.662l-0.014,8.897l-0.087-0.086
	l-0.001-0.168l-0.053-1.147l-0.001-0.092h-0.062l-0.008,0.002l0.001,0.092l-0.005,0.153h-0.311v-0.027l-0.08-0.143l-0.006-0.672
	l-0.09-0.229l-0.004-0.681l-0.178-0.774h0.034l-0.001-0.167h-0.066v-0.006l-0.003,0.006h-0.069v0.092h-0.043v0.162h0.035
	l-0.121,0.547l-0.174-1.645l0.067-0.008L62.072,13v-0.02l-0.001-0.114l-0.087-0.009l-0.102-1.223h0.063l-0.002-0.339l-0.002-0.489
	h-0.269l0.002,0.489l0.002,0.339h0.064l-0.002,0.004l-0.091,1.219l-0.082,0.01l-0.005,0.023l0.001,0.113v0.02l0.075,0.008
	l-0.158,1.63l-0.123-0.541l-0.001-0.078h0.019l-0.002-0.167h-0.068v-0.006v0.006l-0.07,0.001l0.001,0.091h-0.015v0.162h0.029
	l-0.152,0.688v0.023l-0.01,0.043v0.643l-0.074,0.201v0.004v0.002v0.018l-0.006,0.018v0.002l-0.002,0.004v0.64l-0.076,0.128v0.01
	l-0.004,0.008v0.01h-0.125v-0.111h-0.09v-0.492v-0.019h-0.08l-0.164-1.753v-0.004h0.09V13.75h-0.238l-0.001,0.439h0.089
	l-0.167,1.754h-0.015v0.003h-0.067l-0.001,0.511h-0.093v0.111h-0.192v-0.008l-0.08-0.137l0.004-0.752h-0.006v-0.007l-0.023-0.001
	v-0.036h-0.004v-0.007l-0.032-0.001l0.003-0.865l-0.005-0.001v-0.011l-0.011-0.003l-0.015-0.001v-0.056l-0.006-0.002v-0.01
	l-0.011-0.004l-0.01-0.001l-0.117-0.534h0.021v-0.162h-0.034v-0.095h-0.069l-0.003-0.006v0.006h-0.066l-0.001,0.168h0.021
	l-0.118,0.53l-0.154-1.602l0.076-0.008l0.001-0.019v-0.114l-0.008-0.023l-0.081-0.01l-0.091-1.221v-0.004h0.063l0.002-0.338
	l0.003-0.491h-0.269l-0.003,0.491l-0.002,0.338h0.063l-0.104,1.223l-0.09,0.012v0.113v0.02l0.013,0.023l0.063,0.006l-0.175,1.608
	l-0.095-0.449h0.02l0.002-0.161h-0.064l0.001-0.092H58.41l-0.005-0.007v0.007H58.34v0.167h0.02l-0.141,0.621h-0.016l-0.025,0.004
	l-0.008,0.003l-0.006,0.947l-0.066,0.002l-0.002,0.212l-0.004,0.565l-0.08,0.143v0.027h-0.213l-0.004-0.152v-0.092l-0.01-0.003
	h-0.061l-0.002,0.092l-0.065,1.147l-0.001,0.168l-0.013,0.012c-0.007,0.007-0.005-0.73,0.006-1.648l0.052-4.564l0.008-0.764
	l-0.564-0.082l-0.247,0.025l0.001-0.041l-0.363-0.051l0.004-0.231l-0.309-0.046l0.001-0.236l-0.306-0.05l0.002-0.231l-0.305-0.052
	l0.002-0.227l-0.396-0.07l-0.631-0.003l-0.475,0.067l-0.04,0.093V9.78l-0.246,0.033l-0.046,0.122v0.127l-0.24,0.03l-0.05,0.146
	v0.107l-0.239,0.029l-0.049,0.164v0.084l-0.291,0.032l-0.01,0.047l-0.261-0.033l-0.691,0.078l0.001,0.768v0.002l0.008,3.629h-0.974
	l-0.016-3.543l-0.004-0.744l-0.697-0.078l-0.244,0.029l-0.025-0.045l-0.23-0.024v-0.094l-0.097-0.155l-0.189-0.022l-0.001-0.116
	l-0.089-0.138l-0.199-0.024l-0.001-0.134l-0.077-0.115l-0.213-0.029l-0.002-0.155l-0.061-0.088l-0.48-0.067l-0.618-0.003
	L47.38,9.662l0.003,0.222l-0.303,0.049l0.003,0.225l-0.304,0.047l0.003,0.23l-0.307,0.045l0.003,0.224l-0.36,0.049v0.037
	l-0.028-0.003V8.1h-0.765V7.401H44.57V6.887h-0.785V8.1h-0.302V7.188l0.04-0.031V7.132l-0.04-0.003V6.687l0.04-0.036V6.626
	l-0.04-0.003l0.001-0.437l0.039-0.04V6.121l-0.039-0.004V5.358l-0.806-0.073L41.75,5.229l-0.181-0.005V4.545V4.301v-0.05V4.02V3.968
	V3.904l-1.484,0.003V3.754v-0.09l0.001-0.218V3.395l-1.461,0.002l-0.001-1.76l-0.011-0.598h-0.104v0.143h-0.104V0.154V0h-0.039
	l-0.001,1.182l-0.103,0.001V0.154h0.001l-0.001-0.153h-0.04v1.182h-0.103V0.155h0.001l-0.001-0.154H38.08l-0.001,1.182l-0.103,0.001
	V0.155h0.001l-0.001-0.153h-0.039l-0.001,1.182h-0.103V0.155h0.001l-0.001-0.153h-0.039l-0.001,1.182h-0.088l-0.016-0.143
	l-0.104,0.001l-0.001,2.21v0.052v0.221v0.091v0.296h-0.359v0.064v0.051v0.231v0.051v0.243v0.637h-0.028v0.099h-0.242
	c-0.133,0-0.241,0.448-0.241,1l0.001,3.181h-1.525V6.612h-0.879V4.958h-0.33v1.654h-1.418V4.958h-0.673v1.654h-0.275
	c-0.152,0-0.275,0.744-0.275,1.662v7.059l-0.49,0.022l-0.233,0.017l-0.314,0.034l-0.003,0.001l-0.134-0.177l-0.125-0.086
	l-0.509,0.24l-0.007,0.102l-0.001,0.021h-0.001l0.001-0.021l0.001-0.102l-0.509-0.238l-0.117,0.084l-0.13,0.179l-0.016-0.002
	l-0.315-0.033l-0.234-0.017l-1.397-0.063l-0.253,0.006l-1.53,0.156l-1.517,0.376l-1.048,0.422h-0.483v-2.858h-1.652v-0.719h-0.524
	v-0.721h-1.415v0.721h-0.891v0.719h-0.546v2.479l-0.141-0.021l-0.546,0.084l-0.508,0.244l-0.436,0.39l-0.332,0.504l-0.154,0.433
	l-2.429-0.002l-0.173,0.055l0.003,0.301l-0.355-0.025c-0.197-0.013-0.361-0.768-0.368-1.686l-0.063-8.771L11.44,7.375L11.417,7.37
	l-0.043-0.004l-0.058-0.002h-0.021l-0.002-0.109L11.261,7.24l-0.094-0.013l-0.149-0.012l-0.194-0.008l-0.115-0.001V7.14l0.1-0.002
	l0.256-0.012l0.211-0.016l0.149-0.018l0.078-0.02l0.001-0.021l-0.001-0.053l-0.079-0.019l-0.153-0.017l-0.22-0.013l-0.269-0.008
	L10.708,6.94V6.906l0.036-0.003l0.053-0.008l0.023-0.009V6.854l-0.001-0.125V6.6l-0.002-0.128l-0.001-0.107V6.258l-0.001-0.025
	l-0.009-0.009l-0.04-0.01l-0.07-0.008h-0.005V6.202l0.01-0.001l0.071-0.003h0.001l0.112-0.007l0.062-0.005h0.001h0.002l0.086-0.01
	l0.048-0.005l0.002-0.001l0.056-0.011l0.031-0.007h0.002l0.004-0.002l0.125-0.061l0.038-0.01l0.003-0.011l0.004-0.012V6.008h0.001
	l-0.002-0.02V5.985l-0.156-0.08l-0.059-0.019l-0.112-0.015l-0.158-0.013l-0.037-0.001l-0.045-0.023l-0.049-0.033l-0.046-0.039
	l-0.04-0.043L10.61,5.672l-0.03-0.051l-0.024-0.054L10.539,5.51l-0.014-0.004L10.5,5.502h-0.006l-0.01-1.644l-0.003-0.005
	L10.47,3.85l-0.019-0.004l-0.008-0.001l-0.007-1.243l-0.002-0.003l-0.008-0.004l-0.014-0.003L10.396,2.59L10.39,1.55l-0.003-0.003
	L10.38,1.546l-0.01-0.002l-0.01-0.001l-0.004-0.805l-0.002-0.001l-0.003-0.001l-0.004-0.001l-0.005-0.002h-0.006h-0.006
	l-0.006,0.002h-0.005l-0.004,0.001l-0.004,0.001L10.31,0.738V0.74l0.005,0.804l-0.009,0.001l-0.01,0.002l-0.007,0.002l-0.003,0.003
	l-0.001,0.002l0.006,1.038l-0.009,0.001l-0.016,0.003l-0.01,0.003l-0.004,0.005l0.007,1.244L10.24,3.851l-0.016,0.004l-0.006,0.004
	l0.01,1.646l-0.012,0.001L10.193,5.51l-0.01,0.005l-0.018,0.056l-0.024,0.055l-0.029,0.052l-0.036,0.048l-0.04,0.045L9.991,5.81
	L9.942,5.843L9.901,5.866L9.833,5.87l-0.15,0.015L9.582,5.904l-0.049,0.02L9.377,6.007l0.008,0.015v0.05l0.001,0.011l0.001,0.011
	l0.034,0.01l0.132,0.061l0.001,0.001h0.001l0.053,0.01l0.029,0.006h0.001h0.001L9.723,6.19l0.047,0.005h0.003l0.108,0.006
	l0.06,0.004h0.002h0.002l0.06,0.002v0.005L9.953,6.218l-0.052,0.01l-0.02,0.01v0.024l0.001,0.107v0.107l0.001,0.128v0.129
	l0.001,0.124V6.89l0.012,0.008l0.042,0.008l0.07,0.006h0.003v0.033L9.879,6.948L9.618,6.961L9.409,6.978L9.269,6.997L9.202,7.018
	v0.053l0.013,0.02l0.09,0.018l0.159,0.016l0.217,0.012l0.261,0.008h0.071v0.066L9.893,7.215l-0.187,0.01L9.564,7.239L9.48,7.254
	L9.458,7.269l0.001,0.107L9.43,7.377L9.371,7.38L9.323,7.384l-0.03,0.004L9.288,7.391C9.284,7.392,9.285,8.137,9.29,9.055
	l0.041,8.728l-0.626,0.021l0.001,0.232L7.903,18.1l0.001,0.174h-0.1v-0.021l-0.001-0.066v-0.063l-0.532-0.056L7.25,18.059
	l-0.034-0.006l-0.043-0.007l-0.052-0.003l-0.024-0.001v-0.024H7.096l-0.004-0.002l-0.005-0.002H7.083v-0.057v-0.001L7.08,17.955
	H7.077l-0.003-0.001v-0.062H7.073H7.072H7.07l-0.002-0.002v-0.082l0,0H7.067H7.066H7.065H7.063H7.063H7.061H7.06H7.059H7.058H7.056
	H7.055l0.001,0.082l-0.002,0.002H7.052H7.05v0.062l-0.002,0.001H7.045l-0.003,0.001H7.042l0.001,0.058H7.039l-0.005,0.002H7.029
	l-0.001,0.002v0.024H7.011l-0.052,0.002l-0.045,0.005l-0.036,0.006l-0.022,0.008l-0.009,0.009v0.019l0.006,0.01l0.021,0.008
	l0.033,0.006l0.012,0.002l-0.133,0.044l0.001,0.063v0.024c0,0.013-0.448,0.022-1,0.022l-4.7-0.008l-0.172,0.023h-0.966v3.857h0.469
	H3.58h104.066v-1.17l0.045,0.002L107.683,20.875z"/>
</svg>
