<?xml version="1.0" encoding="utf-8"?>
<!-- Generator: Adobe Illustrator 16.0.0, SVG Export Plug-In . SVG Version: 6.00 Build 0)  -->
<!DOCTYPE svg PUBLIC "-//W3C//DTD SVG 1.1//EN" "http://www.w3.org/Graphics/SVG/1.1/DTD/svg11.dtd">
<svg version="1.1" id="Layer_1" xmlns="http://www.w3.org/2000/svg" xmlns:xlink="http://www.w3.org/1999/xlink" x="0px" y="0px"
	 width="108.959px" height="135.43px" viewBox="0 0 108.959 135.43" enable-background="new 0 0 108.959 135.43"
	 xml:space="preserve">
<path fill="#7F715F" d="M107.276,135.504c0.929,0,1.684-0.456,1.684-1.021v-82.56c0-0.563-0.755-1.02-1.684-1.02H1.424
	c-0.93,0-1.685,0.456-1.685,1.02v82.56c0,0.564,0.754,1.021,1.685,1.021H107.276L107.276,135.504z"/>
<g>
	<path fill="#FFFFFF" d="M13.297,85.526c0-0.069-0.001-0.126-0.006-0.182h0.108l0.007,0.11h0.003
		c0.033-0.063,0.111-0.126,0.222-0.126c0.093,0,0.237,0.056,0.237,0.286v0.401h-0.122v-0.388c0-0.107-0.041-0.198-0.156-0.198
		c-0.08,0-0.143,0.058-0.164,0.125c-0.005,0.015-0.008,0.036-0.008,0.057v0.404h-0.122V85.526z"/>
	<path fill="#FFFFFF" d="M26.612,85.526c0-0.069-0.001-0.126-0.006-0.182h0.107l0.006,0.108h0.004
		c0.038-0.064,0.1-0.124,0.211-0.124c0.092,0,0.161,0.056,0.19,0.135h0.003c0.021-0.038,0.047-0.066,0.075-0.087
		c0.041-0.031,0.085-0.048,0.148-0.048c0.089,0,0.221,0.059,0.221,0.292v0.396h-0.12v-0.38c0-0.13-0.047-0.207-0.146-0.207
		c-0.069,0-0.124,0.051-0.144,0.111c-0.006,0.016-0.01,0.038-0.01,0.061v0.415h-0.12v-0.403c0-0.106-0.047-0.184-0.14-0.184
		c-0.076,0-0.132,0.061-0.151,0.121c-0.007,0.019-0.01,0.039-0.01,0.061v0.405h-0.119V85.526z"/>
</g>
<g>
	<path fill="#FFFFFF" d="M28.114,86.016l-0.01-0.085H28.1c-0.038,0.053-0.109,0.1-0.206,0.1c-0.136,0-0.205-0.096-0.205-0.192
		c0-0.163,0.144-0.251,0.404-0.25v-0.014c0-0.056-0.015-0.155-0.153-0.155c-0.063,0-0.127,0.02-0.175,0.05l-0.028-0.081
		c0.056-0.035,0.136-0.06,0.221-0.06c0.206,0,0.255,0.141,0.255,0.274v0.252c0,0.059,0.003,0.115,0.011,0.161H28.114z
		 M28.096,85.673c-0.133-0.003-0.285,0.021-0.285,0.151c0,0.079,0.053,0.116,0.115,0.116c0.087,0,0.143-0.055,0.163-0.112
		c0.004-0.013,0.007-0.026,0.007-0.039V85.673z"/>
	<path fill="#FFFFFF" d="M28.467,85.344l0.096,0.144c0.025,0.038,0.046,0.072,0.068,0.11h0.004c0.022-0.04,0.044-0.075,0.067-0.11
		l0.094-0.144h0.132l-0.229,0.325l0.236,0.347h-0.139l-0.099-0.151c-0.026-0.039-0.048-0.076-0.072-0.117h-0.002
		c-0.022,0.041-0.046,0.077-0.071,0.117l-0.097,0.151H28.32l0.239-0.343l-0.228-0.329H28.467z"/>
</g>
<g>
	<defs>
		<polygon id="SVGID_1_" points="8.001,66.534 8.001,84.396 21.067,84.396 21.067,66.534 8.001,66.534 		"/>
	</defs>
	<clipPath id="SVGID_2_">
		<use xlink:href="#SVGID_1_"  overflow="visible"/>
	</clipPath>
	
		<path clip-path="url(#SVGID_2_)" fill="none" stroke="#FFFFFF" stroke-width="0.8067" stroke-linecap="round" stroke-linejoin="round" stroke-dasharray="0,1.6576" d="
		M22.029,88.72c4.776-0.752,8.488-4.705,8.868-9.596 M30.8,76.646c-0.75-4.775-4.705-8.488-9.594-8.868 M18.727,67.875
		c-4.776,0.75-8.489,4.705-8.868,9.594 M9.955,79.948c0.751,4.776,4.705,8.489,9.595,8.868"/>
	
		<path clip-path="url(#SVGID_2_)" fill="none" stroke="#FFFFFF" stroke-width="0.8067" stroke-linecap="round" stroke-linejoin="round" d="
		M30.929,78.296L30.929,78.296 M20.378,67.746L20.378,67.746 M9.827,78.296L9.827,78.296 M20.378,88.848L20.378,88.848"/>
</g>
<g>
	<defs>
		<polygon id="SVGID_3_" points="32.696,66.534 32.696,84.396 20.741,84.396 20.741,66.534 32.696,66.534 		"/>
	</defs>
	<clipPath id="SVGID_4_">
		<use xlink:href="#SVGID_3_"  overflow="visible"/>
	</clipPath>
	
		<path clip-path="url(#SVGID_4_)" fill="none" stroke="#53AEBB" stroke-width="0.8067" stroke-linecap="round" stroke-linejoin="round" stroke-dasharray="0,1.6576" d="
		M9.897,76.646c0.751-4.775,4.705-8.488,9.595-8.868 M21.971,67.875c4.776,0.75,8.488,4.705,8.868,9.594 M30.742,79.948
		c-0.75,4.776-4.705,8.489-9.594,8.868"/>
	
		<path clip-path="url(#SVGID_4_)" fill="none" stroke="#53AEBB" stroke-width="0.8067" stroke-linecap="round" stroke-linejoin="round" d="
		M9.769,78.296L9.769,78.296 M20.32,67.746L20.32,67.746 M30.871,78.296L30.871,78.296 M20.32,88.848L20.32,88.848"/>
</g>
<g>
	<defs>
		<path id="SVGID_5_" d="M20.638,70.266c-4.557,0-8.25,3.517-8.25,7.856s3.693,7.856,8.25,7.856c4.556,0,8.25-3.517,8.25-7.856
			S25.194,70.266,20.638,70.266L20.638,70.266z"/>
	</defs>
	<clipPath id="SVGID_6_">
		<use xlink:href="#SVGID_5_"  overflow="visible"/>
	</clipPath>
	<g clip-path="url(#SVGID_6_)">
		<defs>
			<rect id="SVGID_7_" x="12.388" y="70.266" width="16.5" height="15.713"/>
		</defs>
		<clipPath id="SVGID_8_">
			<use xlink:href="#SVGID_7_"  overflow="visible"/>
		</clipPath>
		<g clip-path="url(#SVGID_8_)">
			
				<image overflow="visible" width="40" height="37" xlink:href="F4F0357.jpg"  transform="matrix(0.48 0 0 -0.48 11.4092 87.1909)">
			</image>
		</g>
	</g>
</g>
<path fill="#00758D" d="M20.858,72.358c0.281,0,0.509-0.217,0.509-0.485c0-0.268-0.228-0.484-0.509-0.484
	c-0.281,0-0.509,0.217-0.509,0.484C20.349,72.141,20.577,72.358,20.858,72.358L20.858,72.358z"/>
<g>
	<path fill="#FFFFFF" d="M18.359,88.485l0.132,0.378c0.022,0.061,0.041,0.116,0.054,0.172h0.004
		c0.015-0.056,0.035-0.111,0.057-0.172l0.131-0.378h0.127l-0.264,0.672h-0.117l-0.255-0.672H18.359z"/>
	<path fill="#FFFFFF" d="M19.587,88.815c0,0.249-0.172,0.356-0.334,0.356c-0.182,0-0.322-0.133-0.322-0.346
		c0-0.225,0.147-0.356,0.333-0.356C19.457,88.469,19.587,88.61,19.587,88.815z M19.054,88.822c0,0.147,0.085,0.259,0.204,0.259
		c0.117,0,0.204-0.11,0.204-0.261c0-0.114-0.057-0.259-0.201-0.259S19.054,88.695,19.054,88.822z"/>
	<path fill="#FFFFFF" d="M19.74,88.171h0.122v0.985H19.74V88.171z"/>
	<path fill="#FFFFFF" d="M20.629,88.974c0,0.068,0.001,0.13,0.006,0.183h-0.108l-0.007-0.11h-0.003
		c-0.032,0.055-0.103,0.125-0.222,0.125c-0.105,0-0.232-0.058-0.232-0.294v-0.393h0.122v0.372c0,0.127,0.039,0.214,0.15,0.214
		c0.082,0,0.139-0.058,0.161-0.111c0.007-0.019,0.011-0.04,0.011-0.063v-0.412h0.122V88.974z"/>
	<path fill="#FFFFFF" d="M20.831,88.667c0-0.069-0.001-0.126-0.006-0.182h0.107l0.006,0.108h0.004
		c0.038-0.064,0.1-0.124,0.211-0.124c0.092,0,0.161,0.056,0.19,0.135h0.003c0.021-0.038,0.047-0.066,0.075-0.087
		c0.041-0.031,0.085-0.048,0.148-0.048c0.089,0,0.221,0.059,0.221,0.292v0.396h-0.12v-0.38c0-0.13-0.047-0.207-0.146-0.207
		c-0.069,0-0.124,0.051-0.144,0.111c-0.006,0.016-0.01,0.038-0.01,0.061v0.415h-0.12v-0.403c0-0.106-0.047-0.184-0.14-0.184
		c-0.076,0-0.132,0.061-0.151,0.121c-0.007,0.019-0.01,0.039-0.01,0.061v0.405h-0.119V88.667z"/>
	<path fill="#FFFFFF" d="M22.053,88.843c0.003,0.165,0.108,0.232,0.23,0.232c0.087,0,0.14-0.015,0.186-0.034l0.021,0.087
		c-0.043,0.02-0.117,0.042-0.224,0.042c-0.207,0-0.331-0.136-0.331-0.339s0.12-0.362,0.315-0.362c0.219,0,0.277,0.193,0.277,0.317
		c0,0.024-0.002,0.044-0.004,0.057H22.053z M22.412,88.755c0.001-0.078-0.032-0.198-0.169-0.198c-0.124,0-0.178,0.114-0.188,0.198
		H22.412z"/>
</g>
<path fill="#FFFFFF" d="M95.917,122.183L95.917,122.183c0.037,0.013,0.811,0.36,1.131,0.54l0,0c0,0.124-0.039,0.283-0.061,0.348
	c-0.082,0.205-0.277,0.314-0.449,0.438c-0.49,0.354-0.988,0.697-1.484,1.045c-1.063,0.744-2.115,1.506-3.188,2.238
	c-0.395,0.271-0.85,0.012-1.24-0.146c-0.635-0.261-9.275-4.091-9.236-4.312c0.041-0.199,0.166-0.205,0.334-0.322
	c0.197-0.109,0.416-0.184,0.623-0.271c1.25-0.533,2.525-1.023,3.756-1.602l0,0c-0.156-0.152-0.359-0.063-0.395-0.379
	c-0.029-0.272,0.043-0.551,0.08-0.817c0.113-0.795,0.236-1.589,0.354-2.382c0.119-0.796,0.232-1.592,0.35-2.389
	c0.064-0.443,0.131-0.887,0.197-1.33c0.045-0.311,0.031-0.766,0.246-1.016c0.232-0.264,3.066,0.16,3.971,0.247
	c1.865,0.181,3.729,0.361,5.594,0.541c0.553,0.054,1.303,0.063,1.143,0.871c-0.104,0.526-0.207,1.054-0.313,1.578
	C96.911,117.181,95.854,122.038,95.917,122.183L95.917,122.183z M97.011,113.56c-3.129-0.36-6.26-0.72-9.391-1.078
	c-0.396-0.046-0.443-0.151-0.506,0.243c-0.135,0.832-1.193,6.382-0.959,6.453c3.061,0.933,6.119,1.865,7.648,2.332
	c0,0,1.531,0.466,1.811-0.938C95.892,119.17,96.452,116.365,97.011,113.56"/>
<path fill="#FFFFFF" d="M74.679,124.223c0.213,0.246,0.268,0.521,0.197,0.668c-0.039,0.08-0.072,0.132-0.072,0.115
	c0-0.031,0-0.096,0-0.127c0-0.017-0.061,0.16-0.137,0.396c-0.137,0.428-0.941,0.184-1.1-0.122c-0.09-0.169-0.162-0.301-0.162-0.296
	c-0.002,0.01,0.045,0.137,0.002,0.137c-0.387,0-0.031-1.072,0.006-1.037c0.02,0.021,0.1-0.025,0.18-0.104
	c-0.209-0.196-0.516-0.391-0.686-0.434c-0.195-0.056-0.6-0.168-0.898-0.252c-0.115-0.32-0.455-0.269-0.76,0.117
	c-0.33,0.422-0.873-0.005-0.91-0.201c-0.02-0.107-0.074-0.147-0.117-0.088c-0.088,0.133-0.131,0.021-0.098-0.25
	c-0.693-0.232-1.463-0.477-1.721-0.546c-0.484-0.12-1.652-0.747-1.838-0.52c-0.102,0.126-0.184,0.378-0.184,0.562
	c0,0.256,0.018,1.006,0.039,1.674c0.004,0.158-0.02,0.266-0.217,0.266c-0.207-0.124-0.408,0.09-0.447,0.48
	c0.029,0.127,0.42,0.533,0.875,0.906c0.053,0.042,0.328,0.887,0.195,0.887c-0.074,0-0.119-0.045-0.102-0.098
	c0.031-0.096-0.072,0.007-0.072-0.053c0-0.032-0.037,0.14-0.084,0.385c-0.086,0.443-1.111,0.438-1.191-0.003
	c-0.043-0.244-0.078-0.445-0.076-0.45c0.006-0.009-0.123,0.219-0.105,0.219c0.01,0-0.057,0-0.145,0
	c-0.164,0-0.049-1.014,0.088-1.061c0.076-0.025,0.016-0.223-0.135-0.438c1.459-2.146,1.322-3.55-0.309-3.136
	c-1.359-0.067-2.426,0.318-2.379,0.859c-0.047,0.194-0.287,0.469-0.541,0.612c-0.398,0.226-0.797-0.203-0.838-0.345
	c-0.021-0.079-0.17-0.108-0.328-0.067c-1.074-0.119-2.111,0.23-2.318,0.779c0.008,0.064,0.055,0.213,0.105,0.334
	c0.094,0.238,0.084,0.561,0.084,0.687c0,0.069-0.016,0.155-0.031,0.188c-0.031,0.063-0.238-0.02-0.271,0.012
	c-0.016,0.017-0.059,0.031-0.094,0.031c-0.055,0.229-0.344,0.416-0.646,0.416c-0.232-0.06-0.605-0.428-0.605-0.563
	c0-0.431,0.336-0.714,0.512-0.806c0.098-0.051,0.197-0.093,0.223-0.095c0.043-0.003,0.135-0.01,0.18-0.013
	c0.025-0.002,0.061-0.053,0.082-0.111c-0.068-0.09-0.055-0.345,0.025-0.57c1.023-0.463,2.232-0.998,2.695-1.192
	c1.525-0.64,3.133-1.581,3.951-1.763c0.451-0.102,0.818-0.232,0.816-0.293c-0.213-0.666-0.18-1.282,0.074-1.379
	c0.295-0.115,0.244-0.828,0.072-1.117c0,0,0,0-0.082,0c-0.047,0-0.076,0.059-0.066,0.131c-0.227,0.736-0.551,0.936-0.727,0.443
	c-0.182-0.502-0.223-1.049-0.549-0.998c-0.182,0.027-0.385,0.09-0.455,0.138c-0.252,0.005-0.742,0.001-1.096-0.011
	c-0.574-0.313-1.348-1.222-1.727-2.026c-0.662-0.656-0.936-2.193-0.609-3.435c0.117-0.543,0.326-1.519,0.467-2.179
	c0.17-0.8,0.488-1.749,0.488-2.569c-0.059-0.65-0.189-1.954-0.293-2.913c-0.092-0.405-0.227-1.254-0.305-1.893
	c0.279-0.021,0.352-0.283,0.158-0.584c-0.045-0.293-0.109-0.714-0.146-0.941c-0.432-0.76-0.594-2.069-0.361-2.926
	c0.334-0.279,0.781-0.316,0.998-0.082c0.166,0.18,0.373,0.621,0.461,0.986c0.115,0.071,0.281,0.311,0.373,0.534
	c0.125,0.392,0.355,1.192,0.516,1.791c0.215,0.792,0.662,2.409,1,3.612c0.266,0.943,0.645,1.967,0.645,2.956
	c-0.08,0.686-0.375,1.974-0.66,2.877c-0.355,1.129-0.969,2.293-1.646,2.064c-0.375-0.127-0.752-0.063-0.844,0.143
	c0.188,1.101,0.795,2.404,1.355,2.912c0.49,0.075,1.154,0.099,1.48,0.051c0.045,0-0.033,0.229,0.145,0.229
	c0.143,0,0.281-0.22,0.336-0.354c0,0,0,0-0.137-0.01c-0.074-0.006-0.109-0.154-0.078-0.334c0.057-0.324-2.121-0.217-2.121-0.969
	c-0.703-0.57-0.525-1.298,0.396-1.626c0.477-0.01,1.518,0.134,2.324,0.322c0.801,0.043,2.4,0.014,3.572-0.065
	c0.977-0.408,2.695-0.297,3.84,0.248c1.252,0.379,1.936,1.272,1.531,1.997c-0.492,0.877-1.1,0.166-1.699,0.166
	c-0.363,0-0.381,0.313-0.703,0.313c-0.33,0-0.656,0-0.82,0c-0.092,0-0.203,0.195-0.252,0.438c-0.086,0.439,1.379,0.044,1.379,0.541
	c0,0.233-1.195,0.135-1.266-0.025c-0.037-0.09-0.045-0.158-0.014-0.155c0.055,0.006,0.162-0.015,0.211-0.042
	c0.025-0.014,0.047-0.045,0.047-0.068c0-0.041-0.342-0.217-0.379-0.234c-0.021-0.008-0.039,0.056-0.043,0.144
	c-0.191,0.183-0.123,0.424,0.154,0.539c0.428,0.177,0.287,0.629,0.287,0.948c0.135,0.422-0.111,0.673-0.549,0.561
	c-0.633-0.163-0.055-0.686-0.826-0.686c-0.426-0.004-1.301,0.005-1.959,0.021c-0.588-0.433-1.049-0.106-1.031,0.732
	c0.01,0.376,0.26,0.299,0.26,0.53c0,0.293,0,0.584,0,0.875c-0.191,0.164,0.055,0.44,0.549,0.619c0.521,0.17,1.572,0.545,2.35,0.84
	c0.381,0.146,1.313,0.25,1.313,0.719c0.766,0.359,1.617,0.744,1.902,0.861c0.66,0.053,1.246,0.349,1.309,0.66
	c0.047,0.241,0.063,0.506,0.063,0.629c0,0.067,0.068,0.129,0.152,0.135C74.233,124.018,74.458,123.977,74.679,124.223
	 M64.63,115.572v-0.03c0-0.019-0.051-0.027-0.113-0.021c0,0,0.113-0.012,0,0c-0.063,0.006-0.104,0.021-0.09,0.036
	C64.454,115.581,64.544,115.592,64.63,115.572"/>
<path fill="#FFFFFF" d="M90.741,98.371c0.227,0.432,0.119,0.879-0.244,1c-0.137,0.014-0.404,0.147-0.594,0.299
	c-0.17,0.019-0.512,0.108-0.762,0.203c-0.813,0.307-2.508,0.848-3.783,1.207c-0.379,0.104-1.15,0.319-1.725,0.479
	c-0.094,0.092-0.359,0.229-0.596,0.308c-0.16,0.022-0.502,0.01-0.764-0.027c-0.307-0.158-0.814-0.619-1.133-1.03
	c-0.422-0.544-0.855-1.078-1.07-1.347c-0.119-0.147-0.215-0.162-0.215-0.033c0.107,0.135,0.383,0.546,0.613,0.919
	c0.373,0.385,0.387,1.116,0.027,1.635c-0.102,0.156-0.26,0.403-0.361,0.429c-0.055,0.014-0.107,0.047-0.119,0.075
	c-0.004,0.048-0.09,0.116-0.189,0.153c-0.068,0.007-0.139,0.014-0.174,0.017c-0.02,0.002-0.035,0.023-0.035,0.048
	c0.012,0.037-0.039,0.112-0.113,0.166c-0.182-0.076-0.363,0-0.404,0.168c-0.098,0.291-0.424,0.107-0.477,0.019
	c-0.031-0.05-0.08,0.116-0.113,0.37c-0.057,0.459-0.34-0.538-0.439-0.568c-0.057-0.018-0.1,0.009-0.098,0.059
	c0.051,0.084,0.053,0.295,0.008,0.469c-0.111,0.356-0.357-0.088-0.359-0.176c-0.002-0.05-0.002-0.029-0.002,0.045
	c0.051,0.136-0.113,0.261-0.371,0.278c-0.078,0-0.137-0.034-0.156-0.069c-0.01-0.02-0.039-0.022-0.066-0.006
	c-0.033,0.035-0.15,0.047-0.26,0.026c-0.262-0.089-0.801-0.246-1.199-0.349c-0.791-0.195-1.457-1.459-1.023-1.729
	c0.24-0.149,0.434-0.346,0.434-0.44c0.285-0.09,0.631-0.313,0.77-0.5c0.102-0.154,0.754-0.625,0.846-0.641
	c0.049-0.009,0.146-0.057,0.217-0.107c0.148-0.022,0.428-0.25,0.621-0.51c0.496-0.668-0.203-0.209-0.344-0.426
	c-0.076-0.119-0.139-0.166-0.139-0.104c0,0.113-0.238,0.125-0.266,0.013c-0.016-0.062-0.041-0.067-0.059-0.013
	c-0.029,0.101-0.176,0.189-0.225,0.088c-0.029-0.057-0.053-0.057-0.053,0.001c-0.371,0.192-0.805,0.465-0.971,0.608
	c-0.213,0.254-0.668,0.758-1.014,1.127c-0.236,0.252-0.762,0.785-0.953,0.765c-0.107-0.011-0.217,0.024-0.25,0.077
	c-0.057,0.097-0.242,0.121-0.344,0.104c-0.057-0.01-0.133,0.049-0.174,0.129c-0.07,0.146-0.271,0.026-0.336-0.089
	c-0.037-0.063-0.057-0.069-0.047-0.013c0.084,0.16-0.041,0.266-0.279,0.234c-0.15-0.021-0.188-0.36-0.229-0.418
	c-0.025-0.031-0.037,0.008-0.029,0.086c0.016,0.145-0.15,0.814-0.264,0.518c-0.063-0.164-0.125-0.238-0.137-0.166
	c-0.023,0.132-0.338,0.15-0.408,0.037c-0.039-0.063-0.113-0.078-0.164-0.035c-0.289,0.035-0.635-0.086-0.77-0.27
	c-0.268-0.364-0.859-0.799-0.727-1.106c0.074-0.171,0.143-0.386,0.152-0.481c-0.012-0.203,0.1-0.615,0.248-0.918
	c0.008-0.072,0.068-0.216,0.133-0.32c0.072-0.152,0.166-0.305,0.213-0.342c-0.027,0,0.059-0.136,0.193-0.302
	c0.088-0.106,0.246,0.025,0.287-0.015c0.023-0.023,0.025-0.027,0.008-0.01c-0.078-0.131-0.139-0.245-0.135-0.254
	c0.092-0.232,0.396,0.115,0.457,0.086c0.033-0.018-0.014-0.09-0.107-0.161c-0.176,0.071-0.229-0.231-0.113-0.673
	c0.193-0.709,0.947-0.51,1.104-0.272c0.086,0.131,0.311,0.058,0.502-0.163c0.352-0.083,0.898-0.982,1.219-2.011
	c0.016-0.261,0.18-0.761,0.363-1.118c0.074-0.143,0.176-0.262,0.24-0.309c0.037-0.026,0.063-0.055,0.059-0.063
	c-0.01-0.016-0.029-0.049-0.039-0.065c-0.004-0.008,0.01-0.037,0.033-0.063c-0.037-0.014,0.049-0.09,0.188-0.17
	c0.221-0.125,0.734-0.262,0.805-0.365c0.039-0.057,0.07-0.177,0.07-0.268c-0.037-0.408,0.182-0.879,0.488-1.051
	c0.639-0.355,1.963-0.895,2.955-1.205c1.484-0.608,4.508-0.938,6.75-0.736c0.354,0.02,1.072,0.119,1.602,0.223
	c0.24,0.331,0.525,0.875,0.635,1.215c0.205,0.289,0.289,0.979,0.189,1.537c-0.078,0.43-0.367,0.344-0.553,0.368
	c-0.105,0.013-0.006,0.189,0.219,0.394c0.328,0.291,1.084,1.271,1.684,2.188c0.217,0.33,0.623,1.021,0.91,1.547
	C90.286,97.085,90.741,97.783,90.741,98.371 M77.228,97.686c0.318-0.027,0.787,0.085,1.049,0.251
	c0.084,0.042,0.209,0.161,0.279,0.266c0.033,0.051,0.34-0.068,0.4-0.063c0.033,0.004-0.004-0.088-0.086-0.205
	c-0.111-0.16-0.441-0.633-0.734-1.057c-0.322-0.242-0.643-0.73-0.713-1.094c-0.084-0.42-0.098-0.859-0.117-1.072
	c-0.012-0.117-0.119-0.174-0.24-0.125c-0.166,0.137-0.688,0.248-1.164,0.248c-0.17-0.039-0.422-0.242-0.566-0.455
	c-0.324-0.489-0.26-0.832-0.26-1.125c0-0.162-0.057-0.276-0.125-0.256c-0.127,0.037-0.537,0.442-0.639,0.35
	c-0.057-0.051-0.182-0.023-0.277,0.063c-0.105,0.202-0.27,0.719-0.367,1.154c-0.014,0.395-0.342,1.102-0.732,1.576
	c-0.195,0.206-0.596,0.625-0.895,0.936c-0.133,0.139-0.42,0.963-0.494,0.926c-0.041-0.021-0.078,0.01-0.082,0.068
	c-0.055,0.026-0.143,0.176-0.197,0.333c-0.049,0.161-0.139,0.339-0.201,0.399c-0.191,0.187-0.322,0.525-0.357,0.675
	c-0.018,0.082-0.004,0.267,0.033,0.412c0.064,0.263-0.367,0.506,0.02,0.616c0.215,0.063,0.42,0.103,0.457,0.09
	c0.07-0.023,0.525-0.033,0.578,0.023c0.029,0.03,0.051,0,0.051-0.07c0-0.125,0.279-0.104,0.336-0.023
	c0.031,0.044,0.057,0.025,0.057-0.043c0-0.123,0.182-0.182,0.266-0.1c0.045,0.046,0.078,0.027,0.072-0.039
	c-0.012-0.123,0.209-0.194,0.27-0.092c0.035,0.056,0.051,0.033,0.033-0.053c-0.031-0.152,0.486-0.312,0.578-0.4
	c0.053-0.049,0.094-0.129,0.094-0.18c0.209-0.201,0.473-0.461,0.588-0.58c0.422-0.439,1.521-1.584,1.732-1.219
	c0.115,0.203,0.172,0.262,0.125,0.133c-0.084-0.236,0.27-0.261,0.303-0.006c0.02,0.141,0.039,0.253,0.045,0.252
	c0.014-0.003,0.035-0.008,0.047-0.01c0.008-0.001,0.008-0.05,0-0.109c-0.012-0.105,0.213-0.768,0.293-0.525
	c0.047,0.133,0.111,0.191,0.146,0.129C76.894,97.573,77.021,97.582,77.228,97.686 M71.065,97.015
	C70.642,97.266,71.974,97.468,71.065,97.015 M71.456,96.833c-0.115-0.078-0.268-0.1-0.336-0.092
	c-0.037,0.004-0.016,0.018,0.047,0.031c0.117,0.023,0.314,0.188,0.379,0.285c0.035,0.053,0.074,0.066,0.086,0.027
	C71.653,97.017,71.573,96.936,71.456,96.833 M79.589,101.082c-0.217-0.218-0.447-0.567-0.516-0.783
	c-0.027-0.176-0.172-0.383-0.322-0.461c-0.193-0.096-0.346,0.237-0.426,0.237c-0.043,0-0.104,0.054-0.137,0.12
	c-0.244,0.155-0.635,0.398-0.869,0.544c-0.172,0.146-0.541,0.412-0.824,0.595c-0.641,0.017-0.813,0.311-0.385,0.656
	c0.139,0.09,0.496,0.168,0.686,0.168c0.287,0.208,0.76,0.219,1.055,0.02c0.104-0.069,0.219,0.101,0.26,0.062
	c0.021-0.022,0.051-0.141,0.064-0.267c0.027-0.229,0.264,0.263,0.314,0.218c0.029-0.026,0.039-0.085,0.02-0.132
	c-0.031-0.086,0.078-0.18,0.152-0.18c0.043,0,0.113,0.012,0.158,0.026c0.082,0.028,0.055-0.276,0.176-0.228
	c0.066,0.025,0.131-0.008,0.145-0.077C79.163,101.477,79.528,101.378,79.589,101.082 M82.399,90.643c0,0,0,0-0.797,0.153
	c-0.439,0.084-0.797,0.267-0.795,0.406c0.129,0.014,0.502-0.027,0.838-0.092C81.985,91.044,82.526,91.119,82.399,90.643"/>
<path fill="#FFFFFF" d="M52.174,104.739c0.109,0.109,0.407,0.623,0.272,0.629c-0.075,0.004-0.112,0.07-0.082,0.149
	c0.052,0.142-1.294,1.286-1.303,1.276c-0.005-0.006,0.04,0.129,0.101,0.299c0.238,0.38,0.074,1.105-0.366,1.623
	c-0.133,0.197-0.492,0.4-0.803,0.453c-0.055-0.051-0.158-0.027-0.229,0.053c-0.183,0.205-0.558,0.623-0.837,0.935
	c-0.724,0.81-2.205,2.464-3.307,3.695c-0.403,0.438-1.213,1.344-1.809,2.024c-0.321,0.364-0.976,1.112-1.464,1.67
	c-0.086,0.144-0.322,0.346-0.526,0.451c-0.2,0.116-0.604,0.148-0.901,0.071c-0.204-0.053-0.351-0.135-0.453-0.073
	c-0.057,0.033-0.052,0.018,0.009-0.033c-0.158-0.063-0.101-0.311,0.126-0.554c0.211-0.237,0.642-0.721,0.962-1.082
	c0.69-0.78,1.388-1.556,1.734-1.946c0.191-0.215,0.25-0.439,0.132-0.502c-0.162-0.088-0.641-0.343-1.069-0.57
	c-0.254,0.369-0.516,0.765-0.585,0.882c-0.172,0.291-0.522,0.888-0.783,1.331c-0.341,0.581-0.944,0.999-1.166,1.25
	c-0.123,0.138-0.189,0.121-0.148-0.04c-0.067-0.399,0.125-1.14,0.429-1.651c0.377-0.633,0.753-1.265,0.941-1.582
	c0.104-0.175,0.109-0.363,0.011-0.42c-0.187-0.039-0.599-0.277-0.92-0.531c-0.172-0.021-0.281-0.268-0.243-0.551
	c-0.054-0.016-0.145-0.197-0.202-0.404c-0.033-0.239,0.1-0.553,0.296-0.698c0.017,0.143,0.202,0.116,0.413-0.06
	c0.105-0.197,0.363-0.279,0.575-0.185c0.2,0.088,1.294,0.403,1.294,0.533c0,0.071,0.147-0.123,0.328-0.433
	c0.251-0.428,0.987-1.685,1.645-2.809c0.082-0.141,0.25-0.428,0.375-0.641c0.098-0.108,0.359-0.086,0.582,0.052
	c-0.029,0.507-0.257,1.259-0.51,1.679c-0.431,0.715-0.867,1.436-1.045,1.814c-0.099,0.209,0.142,0.078,0.538-0.291
	c0.545-0.508,2.149-2.004,3.582-3.34c-0.074-0.361,0.295-0.932,0.824-1.273c0.271-0.218,0.839-0.311,1.268-0.208
	c0.132,0.033,0.259,0.08,0.32,0.11c0.034,0.017,0.065,0.021,0.069,0.012c0.008-0.018,0.025-0.057,0.033-0.074
	c0.005-0.011,0.03-0.027,0.057-0.037c-0.018-0.072,0.061-0.139,0.176-0.15c0.285-0.256,0.586-0.531,0.673-0.616
	C51.437,104.731,51.716,104.281,52.174,104.739 M48.657,108.465c-0.968,0.838-1.933,1.689-2.156,1.902
	c-0.786,0.75-1.572,1.5-1.965,1.876c-0.217,0.207-0.286,0.438-0.155,0.513c-0.042,0.287,0.201,0.216,0.542-0.162
	c0.301-0.332,0.916-1.012,1.374-1.519C47.084,110.206,47.87,109.336,48.657,108.465"/>
<path fill="#FFFFFF" d="M42.569,100.743c0.589,1.14,0.384,1.88-0.457,1.652c-0.463-0.038-1.078-0.009-1.373,0.065
	c-0.727-0.006-2.016-0.026-2.879-0.047c-2.943-0.065-5.887-0.132-7.356-0.164c-0.812-0.02-1.442,0.131-1.407,0.336
	c0.063,0.367-1.079,0.41-1.079,0.379c0-0.017-0.018,0.283-0.042,0.67c-0.228,0.602-0.327,2.222-0.219,3.616
	c-0.52,0.09-0.302,0.485,0.488,0.883c1.08,0.613,0.632,2.186,0.04,2.222c-0.327,0.021-0.595,0.067-0.598,0.104
	c-0.006,0.07-0.114,1.174,0.021,1.174c0.033,0,0.114-0.521,0.114-0.522c0-0.001,0.056-0.001,0.124-0.001
	c0.124,0-0.119,1.122-0.154,1.166c-0.02,0.023,0.029,0.057,0.108,0.071c0.143,0.026,0.448,0.104,0.593,0.104
	c0.081,0,0.214,0.034,0.298,0.076c-0.123,0.084-0.103,0.284,0.044,0.447c0.524,0.661,1.727,2.452,2.566,2.452
	c0.233,0,0.384,0.382,0.3,0.469c-0.046,0.048-0.084,0.117-0.084,0.152c-0.561,0.106-1.192,0.209-1.409,0.229
	c-0.988,0.09-2.503,0.708-2.985,0.55c-0.266-0.087-0.669-0.158-0.9-0.158c-0.418,0-1.255-0.457-2.1-0.457
	c0.438-0.641,0.835-1.211,0.886-1.275c0.331-0.443,1.471-1.526,1.471-2.077c0-0.75,0.562-0.539,0.82-0.539
	c0.143,0,0.186-0.114,0.095-0.256c-0.163-0.256,0.034-0.937,0.034-1.256c0-0.177-0.031-0.397-0.069-0.493
	c-0.418,0.236-0.883-0.111-1.04-0.779c-0.193-0.82,0.311-1.484,0.726-1.523c0.229-0.023,0.439-0.09,0.469-0.151
	c-0.089-0.646-0.177-1.396-0.196-1.678c-0.074-1.017-0.147-2.035-0.183-2.543c-0.02-0.281-0.154-0.448-0.3-0.373
	c-0.264,0.136-0.653-0.404-0.653-0.889c-0.009-0.18-0.364-0.346-0.794-0.369c-1.098-0.063-2.195-0.125-2.744-0.155
	c-0.303-0.017-0.67,0.239-0.819,0.571c0.087,1.043,0.152,2.982,0.145,4.331c-0.01,1.994-0.002,3.986-0.002,5.98
	c0,2.842,0,5.682,0,8.523c0.149,0.648,0.359,2.084,0.467,3.209c-0.189,0.334-0.111,0.642,0.175,0.686
	c1.027,0.629,2.496,0.827,3.281,0.442c1.952,0.636,2.68,1.577,1.624,2.104c-0.755,0.379-4.652,3.086-5.051,2.648
	c-0.221-0.241-0.399-0.166-0.399,0.167c-0.828,0.809-1.964,0.774-2.539-0.076c0.4-0.449-0.044-0.985-0.993-1.198
	c-0.635-0.146-1.937-0.427-2.908-0.624c0.023,0.066-0.554,0.409-1.29,0.767c-0.328,0.397-1.04,0.312-1.591-0.191
	c-0.304-0.279-0.655-1.252-0.475-1.427c0.099-0.097,0.108-0.354,0.019-0.577c-0.162-0.402,1.198-0.729,1.465-0.818
	c0.147-0.049,0.002-0.115-0.324-0.148c-0.591-0.061-1.533-0.651-0.766-0.949c0.424-0.165,0.817-0.369,0.878-0.457
	c0.111-0.158-0.121-1.54-0.148-1.639c-0.015-0.055-0.221-0.1-0.461-0.1c-0.434,0,0.158-1.635,0.541-1.635
	c0.211,0,0.552-0.135,0.762-0.3c0.379-0.3,0.947-1.14,1.542-1.14c0.329,0,0.472-0.86,0.32-1.922
	c-0.209-1.463-0.825-5.765-1.376-9.608c-0.204-1.416-0.619-4.314-0.927-6.473c0.39-0.455,0.082-0.9-0.69-0.996
	c-0.451,0.139-0.78-0.506-0.736-1.438c0.017-0.474-0.103-1.094,0.104-1.202c0.114-0.059,0.177-0.318,0.14-0.58
	c0.24,0.217,0.772,0.135,1.188-0.181c0.461-0.351,1.409-1.067,2.116-1.601c0.706-0.537,1.416-1.071,1.771-1.338
	c0.197-0.146,0.402-0.344,0.458-0.439c-0.445-0.414-0.351-0.918,0.211-1.126c0.352,0.164,1.031,0.182,1.517,0.041
	c0.545-0.327,1.116-0.13,1.275,0.44c-0.06,0.252,0.552,0.674,1.368,0.941c0.664,0.219,2.022,0.665,3.033,0.998
	c1.33,0.439,4.053,1.328,6.082,1.984c1.336,0.449,4.073,1.357,6.113,2.028C39.357,100.034,40.949,100.743,42.569,100.743
	 M17.357,119.547c0.692-0.274,0.816-0.185,0.816-0.517c0-0.183,0-0.491-0.001-0.687c0.001-0.271-0.001-1.065-0.003-1.774
	c-0.003-1.532-0.007-4.668-0.01-7.002c-0.004-2.265-0.007-4.528-0.01-5.659c-0.001-0.625-0.002-1.271-0.002-1.442
	c0-0.312-0.003-0.934-0.003-1.555c0-0.604-0.839-0.38-1.092-0.404c-0.139-0.015-0.239,0.229-0.221,0.541
	c0.031,0.564-2.263,0.146-2.634,0.102c-0.204-0.025-0.262,0.711-0.128,1.645c0.183,1.287,0.727,5.07,1.214,8.452
	c0.207,1.457,0.635,4.438,0.956,6.657c0.055,0.397,0.171,1.209,0.259,1.812C16.591,120.361,16.997,119.77,17.357,119.547
	 M13.957,97.636c0,0,0,0,2.076,0.214c1.147,0.116,2.079-0.056,2.082-0.388c0.005-0.599,0.017-1.799,0.023-2.397
	c0.004-0.331-0.306-0.363-0.692-0.071C16.748,95.523,15.351,96.58,13.957,97.636 M19.58,103.294
	c-0.913,0.416-1.117,1.088-0.454,1.504C19.842,105.532,19.58,103.625,19.58,103.294 M18.763,107.153
	c0,0.525,0.221,0.963,0.503,1.005c0.156,0.023,0.282-0.06,0.28-0.186c-0.018-0.179-0.009-0.691,0.02-1.146
	C19.613,106.008,18.763,106.553,18.763,107.153 M19.221,109.605c-0.949,0.166-0.35,1.677,0.005,1.722
	c0.195,0.025,0.354-0.053,0.354-0.174C19.58,110.935,19.904,109.605,19.221,109.605 M19.58,112.941
	c-0.96-0.635-1.088,1.42-0.544,1.495c0.301,0.041,0.544-0.042,0.544-0.188C19.58,113.987,19.58,113.465,19.58,112.941
	 M21.02,104.766c0.841-0.269,0.396-1.679,0.035-1.738c-0.2-0.032-0.368,0.027-0.376,0.134
	C20.664,103.357,20.385,104.766,21.02,104.766 M21.087,111.043c0.745-0.371,0.311-1.658-0.058-1.711
	c-0.204-0.029-0.369,0.057-0.369,0.192C20.66,109.772,20.351,111.043,21.087,111.043 M21.087,114.086
	c0.783-0.313,0.186-1.598-0.121-1.649c-0.169-0.028-0.306,0.026-0.306,0.124C20.66,112.737,20.371,114.321,21.087,114.086
	 M21.087,107.906c0.81-0.276,0.231-1.651-0.081-1.709c-0.173-0.032-0.312-0.012-0.312,0.045
	C20.694,106.344,20.503,108.283,21.087,107.906 M40.641,100.548c0,0,0,0-17.116-5.638c-1.186-0.391-2.103-0.489-2.049-0.223
	c-0.394,1.995,0.108,3.708,1.121,3.823c1.105,0.129,2.351,0.457,2.905,0.43c0.306-0.016,0.613-0.15,0.686-0.303
	c0.133-0.275,0.862,0.187,1.035,0.182c0.096-0.003,0.227-0.115,0.292-0.253c0.119-0.247,1.222-0.134,1.222,0.171
	c0,0.169,0.252,0.443,0.563,0.611c0.562,0.305,3.232-0.373,3.738,0.068c0.279,0.246,0.734,0.424,1.015,0.4
	c0.37,0.014,1.497,0.12,2.517,0.236c0.892,0.101,2.914-0.027,3.182,0.283c0.148,0.17,0.312,0.289,0.366,0.266
	C40.215,100.559,40.428,100.526,40.641,100.548 M26.252,101.987c0.174-0.946-3.373-0.81-3.764-0.846
	c-0.215-0.021-0.45,0.227-0.525,0.551C21.828,102.28,25.469,101.935,26.252,101.987 M27.2,115.231c0-0.614,0.277-1.321,0.335-1.626
	c0.031-0.168,0.043-0.306,0.027-0.308c-0.542-0.084-0.982-0.17-0.982-0.192c0,0.618-1.453,1.942-1.642,2.181
	c-0.104,0.133-0.006,0.217,0.22,0.19C25.567,115.426,26.384,115.329,27.2,115.231 M30.405,129.456
	c0.334,0.319,0.407,0.875,0.164,1.242c-0.21,0.406,0.064,1.24-0.05,1.405c-0.063,0.091-0.114,0.304-0.114,0.476
	c-0.909,0.111-1.866,0.182-2.135,0.157c-1.074-0.094-1.101-0.625-1.101-1.103c0-0.264-0.019-0.646-0.042-0.854
	c-0.041-0.377-0.511-1.067-0.251-1.343c0.143-0.152,0.259-0.423,0.259-0.605C27.135,128.5,30.43,128.303,30.405,129.456
	 M27.169,129.456c-0.222,0.209-0.414,0.519-0.207,0.618c0.114,0.056,0.207,0.05,0.207-0.015
	C27.169,129.943,27.203,129.684,27.169,129.456 M27.92,102.902c-1.067-0.396-0.379,3.599-0.354,3.957
	c0.014,0.198,0.146,0.14,0.295-0.133C28.131,106.234,27.856,104.109,27.92,102.902 M27.722,113.334
	c-0.245,0.599-0.196,1.252-0.293,1.559c-0.053,0.168-0.024,0.295,0.066,0.283c0.164-0.022,0.491-0.066,0.655-0.088
	c0.09-0.012,0.12-0.129,0.066-0.263C28.119,114.586,28.177,113.557,27.722,113.334 M27.659,107.415c0,0,0,0,0-0.033
	c0-0.018-0.003-0.024-0.007-0.015c-0.006,0.017-0.224,0.146-0.142,0.228c0.045,0.046,0.082,0.078,0.082,0.074
	C27.592,107.66,27.654,107.424,27.659,107.415 M27.722,111.863c-0.021,0.024-0.139-0.071-0.15-0.069
	c-0.007,0.002-0.002,0.035,0.011,0.074c0.022,0.072-0.027,0.207,0.056,0.248c0.045,0.022,0.122,0.014,0.17-0.02
	c0.087-0.061,0.022-0.158,0.034-0.229c0.006-0.038,0.004-0.061-0.005-0.05C27.822,111.838,27.778,111.86,27.722,111.863
	 M28.052,113.4c0.116,0.558,0.269,1.258,0.343,1.563c0.049,0.203,2.155,0.336,2.279,0.351c0.068,0.008-0.017-0.151-0.19-0.358
	c-0.313-0.373-0.947-1.14-1.298-1.479c-0.194-0.188-0.38-0.279-0.417-0.204C28.703,113.409,28.39,113.476,28.052,113.4
	 M39.07,102.347c0,0,0,0-7.851-0.534c-1.245-0.085-2.303,0.058-2.363,0.317c1.829,0.045,3.842,0.092,4.495,0.104
	C35.257,102.272,37.162,102.309,39.07,102.347 M30.405,130.698c0.262,0,0.307-1.111,0.154-1.111c-0.085,0-0.154,0.082-0.154,0.185
	C30.405,129.958,30.405,130.327,30.405,130.698 M36.062,126.447c1.24,0.304,0.687,2.951,0.687,3.947
	c-1.09,0.394-2.344,0.678-2.801,0.635c-1.38-0.13,0.582-1.179,0.384-1.392c-0.109-0.118-0.304-0.235-0.434-0.262
	c-0.206,0-0.76,0.035-1.236,0.08c-0.253,0.051-0.747,0.426-0.948,0.426c-0.217-0.728-0.408-1.744-0.425-2.273
	c-0.047-1.423,0.288-1.717,1.863-1.717C34.227,125.891,35.053,126.245,36.062,126.447"/>
<path fill="#7F715F" d="M108.985,51.304L108.985,51.304l-0.037-0.026l0,0v-0.717l0,0h-0.275l0,0v-0.007l0,0l0.275,0.007l0,0
	l-0.008-0.098l0,0l-0.674-0.38l0,0l-0.738-0.017l0,0l0.006,0.122l0,0l-0.023,0.009l-0.053,0.007l-0.072,0.005l-0.092,0.002
	l-0.096-0.001l0,0v-0.108l0.049-6.719l0,0l0.018-0.001l0.07-0.01l0.039-0.011l0,0l0.004-0.014l0.002-0.363l0,0l-0.031-0.015
	l-0.066-0.015l-0.096-0.014l-0.117-0.011l-0.084-0.005l0,0l0.01-1.138l-0.109-1.166l0,0l-0.111,1.159l-0.012,1.139l0,0l-0.094,0.001
	l-0.117,0.004l-0.096,0.009l-0.066,0.011l-0.035,0.014l0,0l-0.004,0.358v0.014l0,0l0.035,0.014l0.066,0.014l0.014,0.001
	c0.006,0.001,0.004,0.746-0.008,1.664l-0.053,4.746l0,0l-0.48-0.358c-0.266-0.198-0.93-0.366-1.48-0.375l-4.246-0.074l0,0
	l-0.051-1.989l0,0l0.123-0.01l0,0v-0.054l0,0H99.55l0,0l-0.018-0.795l0,0l0.137-0.007l0,0V46.05l0,0l-0.215-0.006l0,0l0.021-0.032
	l0.037-0.097l0,0l0.012-0.104l-0.016-0.104l0,0l-0.041-0.095l-0.064-0.083l0,0l-0.084-0.062l-0.098-0.039l-0.006-0.001l-0.096-0.012
	l-0.094,0.013l-0.008,0.001l-0.096,0.04l0,0l-0.08,0.063l0,0l-0.061,0.082l0,0l-0.037,0.096v0.005l-0.012,0.102l0.014,0.103l0,0
	l0.041,0.096l0.021,0.028l0,0l0,0l-0.209,0.013l0,0v0.055l0,0l0.137,0.005l0,0l0.016,0.79l0,0h-0.381l-0.139,0.004l-1.24-0.001l0,0
	v-0.007l0,0L96.88,46.9h-0.576l0,0l-0.002-0.328l0,0l0.1-0.007l0,0v-0.063l0,0l-2.049-0.001l0,0l-0.021-0.168l-0.049-0.195
	l-0.076-0.188l-0.096-0.175l-0.119-0.16l-0.139-0.145l-0.156-0.125l-0.17-0.103l-0.023-0.011l-0.176-0.079l-0.162-0.048l0,0v-0.022
	l0,0l-0.014-0.007l-0.01-0.002l-0.191-0.029l-0.02-0.003l-0.031-0.003l-0.043-0.002h-0.02l0,0l0.014-1.053l0,0l-0.158-0.002l0,0
	l-0.016,1.054l0,0h-0.021l-0.041,0.002l-0.031,0.002l-0.174,0.024l-0.039,0.007l-0.01,0.002l-0.012,0.007l0,0l-0.002,0.021l0,0
	l-0.166,0.047l-0.182,0.077l-0.018,0.011l-0.176,0.102l-0.16,0.125l-0.145,0.144l-0.125,0.162l-0.104,0.176l-0.08,0.188
	l-0.059,0.196l-0.025,0.168l0,0l-2.191-0.001l0,0l-0.004,0.065l0,0l0.105,0.006l0,0l-0.012,0.337l0,0l-0.121,0.003
	c-0.068,0.001-0.123-0.741-0.123-1.659v-4.751l0,0h-0.533l0,0v-0.401l0,0h-1.094l0,0v0.401l0,0h-0.572l0,0v2.133l0,0h-0.406l0,0
	v0.307l0,0h-0.109c-0.059,0-0.107-0.448-0.109-1l-0.004-3.211l-0.004-2.432l0,0l0.516-0.003l0,0l0.129-0.001l0,0v-0.137l0,0h0.055
	l0,0l0.004-0.072l0,0v-0.103l0,0h-0.061l0,0v-0.219l0,0h0.035l0,0v-0.015l0,0v-0.207l0,0h0.01l0,0v-0.016l-0.002-1.306l0,0h-0.02
	l0,0l-0.002-0.71l0,0l-0.051,0.001l0,0v0.008l0,0V33.8l0,0l-0.008,0.001l0,0v0.008l0.002,0.408l0,0h-0.012l0,0v0.019l0,0v0.057l0,0
	L85.476,34.3l0,0l-0.002-0.483l0,0v-0.008l0,0h-0.025l0,0v-0.287l0,0l-0.002-0.008l0,0l-0.051,0.001l0,0l0.002,0.71l0,0h-0.021l0,0
	v0.076l0,0l-1.01,0.007l0,0v-0.483l0,0l-0.002-0.008l0,0h-0.049l0,0v0.416l0,0h-0.014l0,0v-0.702l0,0L84.3,33.523l0,0h-0.051l0,0
	v0.71l0,0h-0.02l0,0v0.076l0,0l-0.971,0.006l0,0v-0.482l0,0l-0.002-0.007l0,0h-0.049l0,0v0.49l0,0h-0.027l0,0v-0.057l0,0
	l-0.008-0.019l0,0l-0.016,0.001l0,0V33.54l0,0l-0.002-0.009l0,0l-0.051,0.001l0,0v0.709l0,0h-0.021l0,0v0.076l0,0l-0.928,0.006l0,0
	v-0.482l0,0l-0.004-0.007l0,0h-0.049l0,0v0.49l0,0h-0.064l0,0v-0.057l0,0l-0.008-0.019l0,0h-0.012l0,0l0.004-1.861l0,0l-0.006-0.01
	l0,0l-0.049,0.001l0,0l-0.002,1.162l0,0h-0.004l0,0v0.708l0,0l-0.021,0.001l0,0v0.528l0,0l-0.113,0.005l-0.004,0.001l-0.025,0.001
	l-0.139,0.006l-0.113,0.007h-0.004l-0.025,0.002l-0.131,0.008l-0.109,0.008h-0.002l-0.023,0.002l0,0l-0.125,0.01l-0.104,0.01h-0.002
	l-0.021,0.002l-0.117,0.011l-0.098,0.011l0,0l0,0l-0.01,0.006l0,0l-0.01,0.01l-0.008,0.013l0,0l-0.002,0.016l-0.004,0.018
	l0.004,0.019l0.002,0.018l0.008,0.016l0.01,0.012l0,0l0.01,0.009l0.01,0.004l0,0l-0.01-0.004l0,0l-0.01-0.009l0,0l-0.01-0.012
	l-0.008-0.017l-0.002-0.017l-0.004-0.019l0.004-0.018l0.002-0.016l0,0l0.008-0.013l0.01-0.01l0,0l0.01-0.006l0,0l-0.02,0.002
	l-0.109,0.013l-0.088,0.012l0,0l-0.014,0.006l-0.01,0.009l0,0l-0.008,0.014l-0.004,0.016v0.018v0.018l0,0v-0.018v-0.018l0.004-0.016
	l0.008-0.014l0,0l0.01-0.009l0.014-0.006l0,0l-0.02,0.003l-0.1,0.013l-0.08,0.014l-0.018,0.002l-0.088,0.015l-0.08,0.016
	l-0.004,0.001l-0.078,0.015l-0.139,0.035l-0.117,0.035l-0.041,0.017L79.8,35.056l-0.002,0.001l-0.002,0.001l-0.041,0.017
	l-0.014,0.006l-0.029,0.016l-0.006,0.004l-0.031,0.017l-0.012,0.011l-0.018,0.017l0,0v0.001l-0.012,0.013l0,0l-0.006,0.017l0,0
	l-0.002,0.017l0.002,0.018l0,0l0.006,0.016l0.012,0.015l0,0l0.014,0.011l0.014,0.007l0.018,0.004l0.096,0.023l0,0l-0.096-0.023
	l-0.018-0.004l-0.016-0.007l0,0l-0.012-0.011l0,0l-0.012-0.015l-0.006-0.016l0,0l-0.002-0.018l0.002-0.017l0,0l0.006-0.017l0,0
	l0.012-0.013l0,0l-0.004,0.003l0,0l0,0l0,0l-0.02,0.017l-0.01,0.015l-0.006,0.016l-0.004,0.012l-0.002,0.005l-0.004,0.017l0,0
	l0.004,0.019l0.006,0.016l0,0l0.01,0.014l0,0l0.014,0.011l0.016,0.007l0,0l0.016,0.003l0.23,0.053l0,0l-0.23-0.053l-0.016-0.003l0,0
	l-0.016-0.007l-0.014-0.011l0,0l-0.01-0.014l0,0l-0.006-0.016l-0.004-0.019l0,0l0.004-0.017l0,0l-0.002,0.003l0,0v0.001l0,0
	l-0.006,0.018l-0.002,0.017l0,0l0.002,0.018l0.004,0.015l0,0v0.002l0,0l0.002,0.003l0.002,0.004l0.004,0.014l0.006,0.016l0.01,0.014
	l0.014,0.016l0.002,0.001l0.004,0.003l0.002,0.002l0.016,0.016l0.012,0.011l0.025,0.015l0.002,0.001l0.006,0.003l0,0v0.001
	l0.027,0.016l0.016,0.006l0.02,0.01l0.016,0.006l0.008,0.003l0,0v0.001l0,0l0.039,0.016l0.045,0.014l0,0l0.002,0.001l0,0
	l0.008,0.003l0,0h0.002l0,0l0.049,0.016l0.055,0.015l0,0h0.002l0.01,0.003h0.002l0.059,0.015l0.063,0.014l0,0h0.002l0,0l0.012,0.003
	h0.004l0.066,0.014l0.072,0.013l0,0l0.002,0.001l0,0l0.014,0.002l0.004,0.001l0.074,0.013l0.018,0.002l0.789,0.143l0,0l-0.002,0.488
	l0,0l-0.301,0.034l-0.273,0.049l-0.17,0.054l0,0l-0.061,0.057l0,0v0.272l0,0l0.047,0.054l0,0l0.01,0.003l0,0v0.372l0,0l-0.059,0.046
	l0,0v0.028l0,0l0.047,0.049l0,0l0.01,0.003l0,0v0.244l0,0l-0.057,0.044l0,0v0.136l0,0l0.047,0.045l0,0l0.004,0.001
	c0.004,0.001,0.004,0.746,0.002,1.663l-0.021,9.133l0,0l-0.145-0.001c-0.08-0.001-0.145-0.745-0.146-1.662l-0.016-9.168l0,0h-0.791
	l0,0v-0.387l0,0h-2.877l0,0l-0.184,0.387l0,0h-0.441l0,0l-0.16,0.382c-0.09,0.211-0.16,1.126-0.158,2.044l0.004,7.959l0,0h-0.096
	l0,0v-0.036l0,0l-0.064-0.031l0,0h-0.125l0,0l0.006-0.237l0,0h-0.033l0,0l-0.006-0.003l0,0v0.003l0,0h-0.025l0,0l-0.004,0.238l0,0
	h-0.15l0,0l0.002-0.164l0,0l-0.049-0.023l0,0h-0.111l0,0l0.004-0.207l0,0h-0.029l0,0l-0.004-0.002l0,0v0.002l0,0H74.78l0,0
	l-0.002,0.207l0,0l-0.252,0.001l0,0l0.02-1.531l0,0l-0.197-0.028l-0.318-0.015l0,0l-0.107-0.045l0,0v-0.011l0,0h-0.021l0,0
	l-0.049-0.021l0,0v-0.062l0,0l-0.168-0.028l-0.066-0.004l0,0l-0.115-0.221l-0.174-0.211l-0.211-0.169L72.88,45.35l-0.258-0.069l0,0
	v-0.335l0,0l0.031-0.005l0,0l0.004-0.035l0,0v-0.012l0,0l-0.035-0.023l0,0l-0.025-0.048l-0.031-0.04l-0.041-0.032l-0.049-0.023
	l-0.049-0.013l0,0l-0.002-0.187l0,0l-0.047-0.001l0,0l-0.002-0.009l0,0v0.009l0,0h-0.047l0,0v0.188l0,0l0,0l-0.051,0.011
	l-0.047,0.024l-0.041,0.031l-0.033,0.041l-0.025,0.046l0,0l-0.035,0.023l0,0v0.012l0,0l0.01,0.036l0,0l0.025,0.004l0,0l0.002,0.336
	l0,0l-0.26,0.067l-0.242,0.121l-0.213,0.167l-0.176,0.211l-0.117,0.222l0,0l-0.078,0.005l-0.154,0.027l0,0l0.002,0.063l0,0
	l-0.051,0.021l0,0h-0.096l0,0l0.002,0.04l0,0l-0.035,0.015l0,0l-0.354,0.015l-0.178,0.029l0,0l0.033,1.55l0,0h-0.227l0,0
	l-0.006-0.209l0,0h-0.021l0,0v-0.002l0,0l-0.006,0.002l0,0h-0.029l0,0l0.006,0.21l0,0h-0.111l0,0l-0.057,0.024l0,0l0.006,0.166l0,0
	h-0.004l-0.193,0.001l0,0l-0.008-0.241l0,0h-0.021l0,0l-0.002-0.003l0,0l-0.008,0.003l0,0h-0.033l0,0l0.006,0.242l0,0h-0.125l0,0
	l-0.074,0.033l0,0v0.011l0,0h-0.025c-0.014,0-0.023-0.744-0.023-1.661l0.004-7.96l0,0l-0.363-0.764l0,0h-0.414l0,0l-0.205-0.386l0,0
	h-2.875l0,0l-0.002,0.387l0,0h-0.398c-0.221,0-0.398,0.744-0.4,1.661l-0.016,8.897l0,0l-0.086-0.086l0,0l-0.002-0.166l-0.053-1.149
	V46.75l0,0h-0.063l-0.008,0.002l0,0l0.002,0.093l-0.006,0.152l0,0h-0.309l0,0v-0.026l0,0l-0.082-0.143l0,0l-0.004-0.672l0,0
	l-0.092-0.229l0,0l-0.004-0.68l-0.178-0.775l0,0h0.035l0,0l-0.002-0.167l0,0h-0.066l0,0v-0.007l0,0l-0.002,0.007l0,0h-0.068l0,0
	v0.091l0,0H63.56l0,0v0.162l0,0h0.035l0,0l-0.121,0.546l0,0L63.3,43.46l0,0l0.068-0.007l0,0l0.006-0.023l0,0v-0.02v-0.115l0,0
	l-0.088-0.01l0,0l-0.102-1.222l0,0h0.064l0,0l-0.002-0.338l-0.002-0.491l0,0l-0.27,0.001l0,0l0.002,0.49l0.002,0.338l0,0h0.064l0,0
	l-0.002,0.004l0,0l-0.09,1.219l0,0l-0.082,0.01l0,0l-0.006,0.023l0.002,0.114l0,0v0.019l0,0l0.074,0.008l0,0l-0.158,1.629l0,0
	l-0.123-0.541v-0.077l0,0h0.018l0,0l-0.002-0.167l0,0h-0.066l0,0v-0.007l0,0l-0.002,0.007l0,0l-0.07,0.001l0,0l0.002,0.09l0,0
	h-0.016l0,0l0.002,0.163l0,0h0.027l0,0l-0.152,0.688l0,0v0.022l0,0l-0.01,0.043v0.642l0,0l-0.072,0.202l0,0v0.003l0,0l-0.002,0.003
	l0,0v0.017l0,0l-0.006,0.017l0,0V46.2l0,0l-0.002,0.003l0,0v0.639l0,0l-0.074,0.129l0,0v0.009l0,0l-0.006,0.008l0,0v0.009l0,0
	h-0.123l0,0v-0.111l0,0h-0.092l0,0v-0.492l0,0v-0.018l0,0h-0.08l0,0l-0.162-1.753V44.62l0,0h0.088l0,0v-0.44l0,0H61.62l0,0v0.44l0,0
	h0.088l0,0l-0.166,1.752l0,0h-0.016l0,0v0.004l0,0H61.46l0,0l-0.002,0.51l0,0h-0.092l0,0v0.111l0,0h-0.193l0,0v-0.008l0,0
	l-0.08-0.136l0,0l0.002-0.752l0,0h-0.004l0,0v-0.007l0,0h-0.023l0,0v-0.037l0,0h-0.004l0,0V46.05l0,0l-0.031-0.001l0,0l0.002-0.864
	l0,0l-0.004-0.002l0,0v-0.01l0,0l-0.012-0.004l-0.016-0.001l0,0l0.002-0.054l0,0l-0.006-0.002l0,0v-0.011l0,0l-0.012-0.003
	l-0.012-0.001l0,0l-0.115-0.535l0,0h0.021l0,0V44.4l0,0h-0.035l0,0v-0.094l0,0h-0.068l0,0L60.776,44.3l0,0v0.006l0,0h-0.068l0,0
	v0.167l0,0h0.02l0,0l-0.117,0.53l0,0l-0.154-1.601l0,0l0.076-0.008l0,0v-0.019l0,0v-0.114l0,0l-0.008-0.024l0,0l-0.08-0.009l0,0
	l-0.092-1.22l0,0v-0.004l0,0h0.064l0,0l0.002-0.339l0.002-0.491l0,0l-0.268,0.001l0,0l-0.004,0.49v0.339l0,0h0.061l0,0l-0.104,1.222
	l0,0l-0.09,0.011l0,0v0.114l0,0v0.019l0,0l0.014,0.025l0,0l0.063,0.006l0,0l-0.174,1.607l0,0l-0.096-0.448l0,0h0.02l0,0l0.002-0.163
	l0,0H59.78l0,0l0.002-0.091l0,0h-0.07l0,0L59.708,44.3l0,0v0.006l0,0h-0.066l0,0v0.167l0,0h0.02l0,0l-0.139,0.622l0,0h-0.018
	l-0.025,0.003l0,0l-0.008,0.004l0,0l-0.006,0.946l0,0l-0.064,0.002l0,0l-0.002,0.212l-0.006,0.566l0,0l-0.078,0.143l0,0v0.026l0,0
	h-0.215l0,0l-0.006-0.152l0.002-0.092l0,0l-0.01-0.003l0,0h-0.061l0,0v0.093L58.96,47.99l-0.002,0.167l0,0l-0.012,0.013
	c-0.008,0.007-0.004-0.731,0.006-1.649l0.051-4.565l0.008-0.764l0,0l-0.564-0.08L58.2,41.136l0,0v-0.04l0,0l-0.363-0.052l0,0
	l0.004-0.231l0,0l-0.309-0.046l0,0l0.002-0.236l0,0l-0.307-0.049l0,0l0.002-0.232l0,0l-0.305-0.051l0,0l0.002-0.228l0,0
	l-0.395-0.069l-0.633-0.004l-0.475,0.067l0,0l-0.04,0.094l0,0v0.151l0,0l-0.246,0.033l0,0l-0.046,0.121l0,0l-0.001,0.127l0,0
	l-0.239,0.03l0,0l-0.05,0.146l0,0v0.107l0,0l-0.239,0.029l0,0l-0.049,0.165l0,0v0.083l0,0l-0.291,0.032l0,0l-0.01,0.047l0,0
	l-0.261-0.032l-0.691,0.077l0,0l0.001,0.768l0,0v0.002l0,0l0.008,3.629l0,0h-0.974l0,0l-0.016-3.544l-0.004-0.744l0,0l-0.697-0.078
	l-0.244,0.03l0,0l-0.025-0.044l0,0l-0.23-0.025l0,0v-0.094l0,0l-0.097-0.156l0,0l-0.189-0.022l0,0l-0.001-0.116l0,0l-0.089-0.137
	l0,0l-0.199-0.025l0,0l-0.001-0.134l0,0l-0.077-0.115l0,0l-0.213-0.028l0,0l-0.002-0.156l0,0l-0.061-0.088l0,0l-0.48-0.066
	l-0.618-0.004l-0.372,0.064l0,0l0.003,0.222l0,0l-0.303,0.048l0,0l0.003,0.226l0,0l-0.304,0.047l0,0l0.003,0.229l0,0l-0.307,0.045
	l0,0l0.003,0.224l0,0l-0.361,0.049l0,0l0.001,0.037l0,0l-0.028-0.002l0,0v-2.688l0,0h-0.765l0,0v-0.698l0,0h-0.755l0,0v-0.515l0,0
	h-0.785l0,0v1.213l0,0h-0.302l0,0v-0.911l0,0l0.04-0.032l0,0v-0.025l0,0l-0.04-0.003l0,0v-0.441l0,0l0.04-0.036l0,0v-0.025l0,0
	l-0.04-0.004l0,0l0.001-0.437l0,0l0.039-0.04l0,0V36.55l0,0l-0.039-0.003l0,0v-0.759l0,0l-0.806-0.074l-0.929-0.055l-0.182-0.006
	l0,0l0.001-0.679l0,0v-0.243V34.68v-0.231v-0.051v-0.064l0,0l-1.484,0.003l0,0v-0.154v-0.089l0,0l0.001-0.219l0,0v-0.051l0,0
	l-1.461,0.003l0,0l-0.001-1.761l-0.011-0.598l0,0H39.81l0,0v0.144l0,0h-0.104l0,0v-1.029l0,0l0,0l0,0V30.43l0,0h-0.039l0,0
	l-0.001,1.182l0,0h-0.103l0,0v-1.029l0,0l0,0l0,0V30.43l0,0h-0.04l0,0v1.182l0,0H39.42l0,0v-1.028l0,0h0.001l0,0L39.42,30.43l0,0
	h-0.039l0,0l-0.001,1.182l0,0l-0.103,0.001l0,0v-1.029l0,0h0.001l0,0l-0.002-0.153l0,0h-0.038l0,0l-0.001,1.182l0,0h-0.103l0,0
	v-1.029l0,0h0.001l0,0l-0.001-0.153l0,0h-0.039l0,0l-0.001,1.182l0,0h-0.088l0,0L38.99,31.47l0,0l-0.104,0.001l0,0l-0.001,2.211
	v0.051l0,0v0.221v0.092v0.295l0,0l-0.359,0.001l0,0v0.064v0.051v0.23v0.051v0.244v0.636l0,0h-0.028l0,0v0.099l0,0h-0.242
	c-0.133,0.001-0.241,0.448-0.241,1.001l0.001,3.18l0,0h-1.525l0,0v-2.857l0,0h-0.879l0,0v-1.653l0,0h-0.33l0,0v1.653l0,0h-1.418l0,0
	v-1.653l0,0h-0.673l0,0v1.653l0,0h-0.275c-0.152,0-0.275,0.744-0.275,1.662v7.059l0,0l-0.49,0.023l-0.233,0.016l-0.314,0.034
	l-0.003,0.001l0,0l-0.134-0.177l0,0l-0.125-0.085l0,0l-0.509,0.241l0,0l-0.007,0.1l-0.001,0.022l0,0h-0.001l0,0l0.001-0.022
	l0.001-0.1l0,0l-0.509-0.24l0,0L30.2,45.66l0,0l-0.13,0.179l0,0l-0.016-0.002l-0.315-0.034l-0.234-0.016l-1.397-0.062l-0.253,0.005
	l-1.53,0.157l-1.518,0.376l-1.047,0.421l0,0h-0.483l0,0v-2.858l0,0h-1.652l0,0v-0.72l0,0h-0.524l0,0v-0.719l0,0h-1.415l0,0v0.719
	l0,0h-0.891l0,0v0.72l0,0h-0.546l0,0v2.478l0,0l-0.141-0.022l0,0l-0.546,0.084l0,0l-0.508,0.245l0,0L16.618,47l-0.332,0.504
	l-0.154,0.434l0,0l-2.429-0.002l0,0l-0.173,0.055l0,0l0.003,0.299l0,0l-0.355-0.024c-0.197-0.014-0.361-0.769-0.368-1.687
	l-0.063-8.771l0,0l-0.005-0.004l0,0L12.718,37.8l-0.043-0.004l-0.058-0.002l-0.021-0.001l0,0l-0.002-0.109l0,0l-0.031-0.015l0,0
	l-0.094-0.013l-0.149-0.012l-0.194-0.008l-0.115-0.001l0,0v-0.066l0,0l0.1-0.002l0.256-0.012l0.211-0.016l0.149-0.018l0.078-0.02
	l0,0l0.001-0.02l-0.001-0.053l0,0l-0.079-0.02l-0.153-0.017l-0.22-0.012l-0.269-0.009l-0.074-0.001l0,0v-0.033l0,0l0.036-0.004
	l0.053-0.008l0.023-0.008l0,0v-0.033l0,0l-0.001-0.124L12.12,37.03l-0.001-0.129l-0.001-0.107v-0.106l-0.001-0.026l0,0l-0.009-0.009
	l0,0l-0.04-0.01l-0.07-0.007l-0.005-0.001l0,0v-0.004l0,0h0.01l0.071-0.003h0.001l0.112-0.008l0.062-0.005h0.001h0.002l0.086-0.01
	l0.048-0.005l0,0h0.002l0.056-0.011l0.031-0.007l0,0h0.001l0,0l0.005-0.003l0.125-0.06l0.038-0.011l0,0l0.003-0.011l0.004-0.011l0,0
	v-0.048l0,0l0.001-0.001l0,0l-0.002-0.019l0,0v-0.004l0,0l-0.156-0.08l-0.059-0.018L12.323,36.3l-0.158-0.012l-0.037-0.001l0,0
	l-0.045-0.024l-0.049-0.033l-0.046-0.038l-0.04-0.044l-0.036-0.047l-0.03-0.051l-0.024-0.054L11.84,35.94l0,0l-0.014-0.004
	l-0.024-0.004l-0.006-0.001l0,0l-0.01-1.644l0,0l-0.003-0.005l0,0l-0.011-0.003l-0.019-0.004h-0.008l0,0l-0.007-1.244l0,0
	l-0.002-0.003l0,0l-0.008-0.004l-0.014-0.003l-0.016-0.001l0,0l-0.006-1.041l0,0l-0.004-0.002l0,0l-0.006-0.002l-0.01-0.002
	l-0.01-0.001l0,0l-0.004-0.805l0,0l-0.002-0.001l0,0l-0.003-0.001l-0.004-0.001l-0.005-0.001h-0.006h-0.006l-0.006,0.001
	l-0.005,0.001h-0.004l0,0l-0.004,0.001l-0.002,0.001l0,0v0.002l0,0l0.005,0.804l0,0l-0.009,0.001l-0.01,0.002l-0.007,0.002l0,0
	l-0.003,0.003l0,0l-0.001,0.002l0,0l0.006,1.038l0,0l-0.009,0.001l-0.016,0.003l-0.01,0.004l0,0l-0.005,0.004l0,0l0.008,1.244l0,0
	l-0.018,0.003l-0.016,0.004l0,0l-0.007,0.004l0,0l0.011,1.646l0,0l-0.012,0.002l-0.023,0.003l-0.01,0.005l0,0l-0.018,0.057
	l-0.024,0.055l-0.029,0.051l-0.036,0.049l-0.04,0.044l-0.045,0.039l-0.049,0.033l-0.041,0.023l0,0L11.135,36.3l-0.15,0.015
	l-0.103,0.018l-0.048,0.02l-0.155,0.084l0,0l0.008,0.015l0,0v0.049l0.001,0.011l0.001,0.011l0,0l0.034,0.01l0.132,0.061l0.001,0.001
	l0,0l0,0l0.054,0.01l0.029,0.006h0.001h0.001l0.084,0.008l0.046,0.005h0.004l0.108,0.007l0.06,0.003h0.002h0.002l0.06,0.002l0,0
	v0.005l0,0l-0.052,0.006l-0.052,0.01l0,0l-0.02,0.01l0,0v0.025l0.001,0.106v0.107l0.001,0.128v0.129l0.001,0.125l0,0v0.032l0,0
	l0.012,0.009l0,0l0.042,0.007l0.07,0.007h0.003l0,0v0.032l0,0l-0.133,0.003l-0.26,0.014l-0.209,0.016l-0.141,0.019l-0.066,0.022l0,0
	V37.5l0,0l0.013,0.02l0,0l0.09,0.018l0.159,0.016l0.217,0.013l0.261,0.007h0.071l0,0v0.066l0,0l-0.121,0.004l-0.187,0.011
	l-0.141,0.013l-0.084,0.015l0,0l-0.022,0.015l0,0l0.001,0.108l0,0h-0.029l-0.06,0.003l-0.047,0.004l-0.03,0.004l0,0l-0.006,0.003
	c-0.003,0.001-0.002,0.746,0.002,1.664l0.041,8.728l0,0l-0.626,0.022l0,0l0.001,0.233l0,0L9.205,48.53l0,0l0.001,0.172l0,0h-0.1l0,0
	v-0.021l0,0l-0.001-0.065l0,0v-0.065l0,0l-0.532-0.055l-0.021-0.008l-0.034-0.007l-0.043-0.005l-0.052-0.003l-0.024-0.001l0,0
	v-0.025l0,0l-0.001-0.001l0,0l-0.004-0.001l-0.005-0.002H8.384l0,0v-0.057l0,0v-0.001l0,0l-0.003-0.001H8.379l-0.004-0.001l0,0
	v-0.061l0,0l0,0l0,0H8.374l0,0H8.372l0,0L8.37,48.321l0,0v-0.083l0,0v-0.001l0,0H8.369l0,0H8.368l0,0H8.367H8.365H8.364H8.362H8.361
	H8.359l0,0l0,0l0,0H8.358l0,0l-0.001,0.001l0,0l0.001,0.083l0,0l-0.002,0.001l0,0H8.354l0,0H8.352l0,0l0,0l0,0v0.061l0,0
	L8.35,48.384l0,0H8.347l0,0l-0.003,0.001H8.343l0,0l0.001,0.057l0,0L8.34,48.443l-0.005,0.002l-0.004,0.001l0,0L8.33,48.447l0,0
	v0.024l0,0H8.313l-0.052,0.003l-0.045,0.005L8.18,48.485l-0.022,0.007l0,0l-0.009,0.009l0,0v0.018l0,0l0.006,0.009l0,0l0.021,0.008
	l0.033,0.006l0.012,0.002l0,0l-0.133,0.044l0,0l0.001,0.064l0,0v0.024c0,0.014-0.448,0.024-1,0.023l-4.7-0.008l-0.172,0.024H1.251
	l0,0v3.856l0,0H1.72h3.161h104.067l0,0v-1.17l0,0l0.045,0.002l0,0L108.985,51.304L108.985,51.304z M80.579,35.029l-0.012-0.004l0,0
	l-0.014-0.009l0,0l-0.01-0.012l0,0l0.01,0.012l0.014,0.009l0,0L80.579,35.029l0.082,0.035l0,0L80.579,35.029L80.579,35.029z
	 M12.276,36.514L12.276,36.514l0.046,0.005l0,0L12.276,36.514L12.276,36.514L12.276,36.514L12.276,36.514z M12.102,36.504
	l0.061,0.003l0,0L12.1,36.504l0,0H12.102L12.102,36.504z M11.315,37.545L11.315,37.545l-0.036-0.001l-0.033-0.002l-0.034-0.001
	L11.18,37.54l-0.031-0.002l0,0l0.031,0.002l0.032,0.001l0.034,0.001l0.034,0.002L11.315,37.545L11.315,37.545z M12.218,46.37
	L12.218,46.37l-0.019-0.003l-0.182-0.01l0,0l-0.007-1.144l0,0l0.147-0.002l0.053-0.003l0,0L12.218,46.37L12.218,46.37z
	 M12.208,44.896L12.208,44.896l-0.099-0.006l-0.101-0.005l0,0l-0.009-1.451l0,0l0.147-0.002h0.053l0,0L12.208,44.896L12.208,44.896z
	 M12.197,43.17L12.197,43.17l-0.099-0.003l-0.101-0.002l0,0l-0.01-1.569l0,0l0.147-0.001h0.053l0,0L12.197,43.17L12.197,43.17z
	 M12.185,41.386L12.185,41.386l-0.098-0.001h-0.101l0,0l-0.01-1.597l0,0l0.101-0.001l0.098-0.002l0,0L12.185,41.386L12.185,41.386z
	 M12.079,38.44l0.087-0.005l0,0l0.008,1.12l0,0h-0.053l-0.147-0.001l0,0l-0.006-1.11l0,0L12.079,38.44L12.079,38.44z M11.464,46.351
	L11.464,46.351l-0.178,0.005l-0.088,0.006l0,0l-0.007-1.17l0,0l0.071,0.006l0.139,0.006l0.057,0.002l0,0L11.464,46.351
	L11.464,46.351z M11.456,44.887L11.456,44.887l-0.04,0.002l-0.12,0.005l-0.106,0.007l0,0l-0.008-1.479l0,0l0.07,0.003l0.139,0.004
	l0.057,0.001l0,0L11.456,44.887L11.456,44.887z M11.446,43.165L11.446,43.165l-0.04,0.001l-0.119,0.003l-0.107,0.004l0,0
	l-0.008-1.58l0,0h0.07l0.139,0.002h0.056l0,0L11.446,43.165L11.446,43.165z M11.436,41.385L11.436,41.385h-0.04l-0.119,0.001
	l-0.106,0.001l0,0l-0.009-1.604l0,0l0.106,0.003l0.119,0.001l0.04,0.001l0,0L11.436,41.385L11.436,41.385z M11.215,38.441
	l0.12,0.004l0.085,0.002l0,0l0.006,1.109l0,0l-0.057,0.001l-0.138,0.002l-0.07,0.002l0,0l-0.006-1.124l0,0L11.215,38.441
	L11.215,38.441z"/>
<g>
	<path fill="#555759" d="M0.22,1.103h1.5L2.948,6.52l1.419-5.417h1.559l1.339,5.387l1.239-5.387h1.509L8.065,8.079H6.417
		L5.107,3.111l-1.37,4.967l-1.639,0.01L0.22,1.103z"/>
	<path fill="#555759" d="M10.779,1.063c0-0.46,0.36-0.82,0.86-0.82c0.49,0,0.859,0.36,0.859,0.82c0,0.459-0.37,0.819-0.859,0.819
		C11.139,1.882,10.779,1.522,10.779,1.063z M10.929,2.542h1.399v5.537h-1.399V2.542z"/>
	<path fill="#555759" d="M13.93,3.691h-0.66V2.542h0.66V1.172h1.409v1.369h1.239v1.149h-1.239V6.37c0,0.37,0.15,0.53,0.589,0.53
		h0.65v1.179h-0.879c-1.06,0-1.769-0.45-1.769-1.719V3.691z"/>
	<path fill="#555759" d="M17.589,0.683h1.399v2.549c0.36-0.47,0.979-0.77,1.719-0.77c1.249,0,2.159,0.839,2.159,2.369v3.248h-1.399
		V5.021c0-0.89-0.49-1.37-1.229-1.37c-0.76,0-1.25,0.48-1.25,1.37v3.058h-1.399V0.683z"/>
	<path fill="#555759" d="M26.658,8.168c-1.599,0-2.809-1.119-2.809-2.858c0-1.749,1.25-2.858,2.849-2.858s2.848,1.109,2.848,2.858
		C29.546,7.049,28.267,8.168,26.658,8.168z M26.658,6.949c0.739,0,1.449-0.54,1.449-1.639c0-1.109-0.69-1.639-1.429-1.639
		c-0.74,0-1.41,0.53-1.41,1.639C25.269,6.41,25.908,6.949,26.658,6.949z"/>
	<path fill="#555759" d="M35.807,8.079h-1.41v-0.7c-0.35,0.47-0.959,0.77-1.649,0.77c-1.289,0-2.219-0.839-2.219-2.358V2.542h1.399
		V5.59c0,0.89,0.49,1.37,1.229,1.37c0.76,0,1.239-0.48,1.239-1.37V2.542h1.41V8.079z"/>
	<path fill="#555759" d="M37.409,3.691h-0.66V2.542h0.66V1.172h1.409v1.369h1.239v1.149h-1.239V6.37c0,0.37,0.15,0.53,0.589,0.53
		h0.65v1.179h-0.879c-1.06,0-1.769-0.45-1.769-1.719V3.691z"/>
	<path fill="#555759" d="M45.828,2.452c1.379,0,2.309,0.72,2.608,1.959h-1.509c-0.16-0.47-0.529-0.77-1.109-0.77
		c-0.779,0-1.299,0.59-1.299,1.669c0,1.08,0.52,1.659,1.299,1.659c0.58,0,0.939-0.26,1.109-0.76h1.509
		c-0.3,1.18-1.229,1.959-2.608,1.959c-1.599,0-2.739-1.119-2.739-2.858C43.089,3.571,44.229,2.452,45.828,2.452z"/>
	<path fill="#555759" d="M51.928,8.168c-1.599,0-2.809-1.119-2.809-2.858c0-1.749,1.25-2.858,2.849-2.858s2.848,1.109,2.848,2.858
		C54.816,7.049,53.537,8.168,51.928,8.168z M51.928,6.949c0.739,0,1.449-0.54,1.449-1.639c0-1.109-0.69-1.639-1.429-1.639
		c-0.74,0-1.41,0.53-1.41,1.639C50.538,6.41,51.178,6.949,51.928,6.949z"/>
	<path fill="#555759" d="M59.727,5.021c0-0.89-0.489-1.37-1.229-1.37c-0.76,0-1.249,0.48-1.249,1.37v3.058h-1.399V2.542h1.399v0.69
		c0.359-0.47,0.959-0.77,1.669-0.77c1.289,0,2.209,0.839,2.209,2.369v3.248h-1.399V5.021z"/>
	<path fill="#555759" d="M64.577,8.168c-1.39,0-2.358-0.81-2.419-1.839h1.409c0.05,0.42,0.44,0.74,1,0.74
		c0.55,0,0.85-0.25,0.85-0.57c0-0.989-3.129-0.36-3.129-2.389c0-0.919,0.819-1.659,2.189-1.659c1.339,0,2.148,0.729,2.229,1.829
		h-1.34c-0.04-0.43-0.38-0.72-0.929-0.72c-0.521,0-0.79,0.21-0.79,0.53c0,1.009,3.068,0.38,3.108,2.409
		C66.756,7.449,65.926,8.168,64.577,8.168z"/>
	<path fill="#555759" d="M67.759,1.063c0-0.46,0.359-0.82,0.859-0.82c0.489,0,0.859,0.36,0.859,0.82c0,0.459-0.37,0.819-0.859,0.819
		C68.118,1.882,67.759,1.522,67.759,1.063z M67.908,2.542h1.399v5.537h-1.399V2.542z"/>
	<path fill="#555759" d="M72.808,8.168c-1.39,0-2.358-0.81-2.419-1.839h1.409c0.05,0.42,0.44,0.74,1,0.74
		c0.55,0,0.85-0.25,0.85-0.57c0-0.989-3.129-0.36-3.129-2.389c0-0.919,0.819-1.659,2.189-1.659c1.339,0,2.148,0.729,2.229,1.829
		h-1.34c-0.04-0.43-0.38-0.72-0.929-0.72c-0.521,0-0.79,0.21-0.79,0.53c0,1.009,3.068,0.38,3.108,2.409
		C74.986,7.449,74.156,8.168,72.808,8.168z"/>
	<path fill="#555759" d="M76.358,3.691h-0.659V2.542h0.659V1.172h1.409v1.369h1.239v1.149h-1.239V6.37c0,0.37,0.15,0.53,0.59,0.53
		h0.649v1.179h-0.879c-1.06,0-1.77-0.45-1.77-1.719V3.691z"/>
	<path fill="#555759" d="M82.438,8.168c-1.609,0-2.778-1.119-2.778-2.858c0-1.749,1.139-2.858,2.778-2.858
		c1.599,0,2.729,1.089,2.729,2.739c0,0.18-0.01,0.359-0.04,0.54h-4.048c0.07,0.819,0.63,1.279,1.329,1.279
		c0.6,0,0.93-0.3,1.109-0.67h1.51C84.727,7.359,83.807,8.168,82.438,8.168z M81.088,4.791h2.629c-0.021-0.729-0.6-1.189-1.319-1.189
		C81.728,3.601,81.198,4.031,81.088,4.791z"/>
	<path fill="#555759" d="M90.066,5.021c0-0.89-0.489-1.37-1.229-1.37c-0.76,0-1.249,0.48-1.249,1.37v3.058h-1.399V2.542h1.399v0.69
		c0.359-0.47,0.959-0.77,1.669-0.77c1.289,0,2.209,0.839,2.209,2.369v3.248h-1.399V5.021z"/>
	<path fill="#555759" d="M95.177,2.452c1.379,0,2.309,0.72,2.608,1.959h-1.509c-0.16-0.47-0.53-0.77-1.109-0.77
		c-0.78,0-1.3,0.59-1.3,1.669c0,1.08,0.52,1.659,1.3,1.659c0.579,0,0.939-0.26,1.109-0.76h1.509c-0.3,1.18-1.229,1.959-2.608,1.959
		c-1.6,0-2.738-1.119-2.738-2.858C92.438,3.571,93.577,2.452,95.177,2.452z"/>
	<path fill="#555759" d="M102.626,2.542h1.489l-3.428,8.156h-1.489l1.199-2.759l-2.219-5.397h1.569l1.429,3.868L102.626,2.542z"/>
	<path fill="#555759" d="M104.969,6.54h1.479l-1.239,2.979h-0.909L104.969,6.54z"/>
</g>
<g>
	<path fill="#555759" d="M13.833,14.549h1.489l-3.428,8.156h-1.489l1.199-2.759l-2.219-5.397h1.569l1.429,3.868L13.833,14.549z"/>
	<path fill="#555759" d="M18.534,20.176c-1.599,0-2.809-1.119-2.809-2.858c0-1.749,1.25-2.858,2.849-2.858s2.848,1.109,2.848,2.858
		C21.422,19.057,20.143,20.176,18.534,20.176z M18.534,18.957c0.739,0,1.449-0.54,1.449-1.639c0-1.109-0.69-1.639-1.429-1.639
		c-0.74,0-1.41,0.53-1.41,1.639C17.145,18.417,17.784,18.957,18.534,18.957z"/>
	<path fill="#555759" d="M27.683,20.086h-1.41v-0.7c-0.35,0.47-0.959,0.77-1.649,0.77c-1.289,0-2.219-0.839-2.219-2.358v-3.249
		h1.399v3.048c0,0.89,0.49,1.37,1.229,1.37c0.76,0,1.239-0.48,1.239-1.37v-3.048h1.41V20.086z"/>
	<path fill="#555759" d="M28.775,15.629l0.569-2.519h1.469l-1.079,2.519H28.775z"/>
	<path fill="#555759" d="M31.815,12.69h1.399v7.396h-1.399V12.69z"/>
	<path fill="#555759" d="M34.595,12.69h1.399v7.396h-1.399V12.69z"/>
	<path fill="#555759" d="M43.633,17.028c0-0.89-0.49-1.37-1.229-1.37c-0.76,0-1.25,0.48-1.25,1.37v3.058h-1.399v-5.537h1.399v0.69
		c0.36-0.47,0.959-0.77,1.669-0.77c1.29,0,2.209,0.839,2.209,2.369v3.248h-1.399V17.028z"/>
	<path fill="#555759" d="M48.784,20.176c-1.609,0-2.779-1.119-2.779-2.858c0-1.749,1.14-2.858,2.779-2.858
		c1.599,0,2.729,1.089,2.729,2.739c0,0.18-0.01,0.359-0.04,0.54h-4.048c0.07,0.819,0.63,1.279,1.329,1.279
		c0.6,0,0.93-0.3,1.109-0.67h1.509C51.072,19.367,50.153,20.176,48.784,20.176z M47.435,16.798h2.628
		c-0.02-0.729-0.6-1.189-1.319-1.189C48.074,15.609,47.544,16.039,47.435,16.798z"/>
	<path fill="#555759" d="M53.444,14.549l1.399,4.248l1.399-4.248h1.489l-2.049,5.537h-1.7l-2.039-5.537H53.444z"/>
	<path fill="#555759" d="M60.943,20.176c-1.609,0-2.778-1.119-2.778-2.858c0-1.749,1.139-2.858,2.778-2.858
		c1.599,0,2.729,1.089,2.729,2.739c0,0.18-0.01,0.359-0.04,0.54h-4.048c0.07,0.819,0.63,1.279,1.329,1.279
		c0.6,0,0.93-0.3,1.109-0.67h1.51C63.232,19.367,62.313,20.176,60.943,20.176z M59.594,16.798h2.629
		c-0.021-0.729-0.6-1.189-1.319-1.189C60.233,15.609,59.704,16.039,59.594,16.798z"/>
	<path fill="#555759" d="M66.094,20.086h-1.399v-5.537h1.399v0.86c0.35-0.57,0.93-0.939,1.699-0.939v1.469h-0.37
		c-0.829,0-1.329,0.32-1.329,1.39V20.086z"/>
</g>
<g>
	<path fill="#555759" d="M70.449,15.699h-0.63v-1.149h0.63v-0.28c0-1.359,0.76-1.989,2.288-1.949V13.5
		c-0.649-0.02-0.869,0.2-0.869,0.82v0.229h3.229v5.537h-1.399v-4.388h-1.829v4.388h-1.419V15.699z M73.547,13.13
		c0-0.46,0.36-0.81,0.85-0.81c0.51,0,0.87,0.35,0.87,0.81c0,0.459-0.36,0.81-0.87,0.81C73.907,13.94,73.547,13.59,73.547,13.13z"/>
</g>
<g>
	<path fill="#555759" d="M80.411,17.028c0-0.89-0.489-1.37-1.229-1.37c-0.76,0-1.249,0.48-1.249,1.37v3.058h-1.399v-5.537h1.399
		v0.69c0.359-0.47,0.959-0.77,1.669-0.77c1.289,0,2.209,0.839,2.209,2.369v3.248h-1.399V17.028z"/>
	<path fill="#555759" d="M82.994,13.07c0-0.46,0.359-0.82,0.859-0.82c0.489,0,0.859,0.36,0.859,0.82c0,0.459-0.37,0.819-0.859,0.819
		C83.354,13.89,82.994,13.53,82.994,13.07z M83.144,14.549h1.399v5.537h-1.399V14.549z"/>
	<path fill="#555759" d="M88.042,20.176c-1.39,0-2.358-0.81-2.419-1.839h1.409c0.05,0.42,0.44,0.74,1,0.74
		c0.55,0,0.85-0.25,0.85-0.57c0-0.989-3.129-0.36-3.129-2.389c0-0.919,0.819-1.659,2.189-1.659c1.339,0,2.148,0.729,2.229,1.829
		h-1.34c-0.04-0.43-0.38-0.72-0.929-0.72c-0.521,0-0.79,0.21-0.79,0.53c0,1.009,3.068,0.38,3.108,2.409
		C90.221,19.457,89.391,20.176,88.042,20.176z"/>
	<path fill="#555759" d="M91.373,12.69h1.399v2.549c0.359-0.47,0.979-0.77,1.719-0.77c1.25,0,2.159,0.839,2.159,2.369v3.248h-1.399
		v-3.058c0-0.89-0.489-1.37-1.229-1.37c-0.76,0-1.249,0.48-1.249,1.37v3.058h-1.399V12.69z"/>
</g>
<g>
	<path fill="#FFFFFF" d="M26.341,64.169c-0.512,0.241-0.999,0.362-1.46,0.362c-0.995,0-1.786-0.434-2.374-1.301
		s-0.882-1.947-0.882-3.237c0-0.795,0.126-1.549,0.377-2.26c0.252-0.711,0.643-1.279,1.171-1.705
		c0.529-0.425,1.134-0.638,1.815-0.638c0.419,0,0.87,0.108,1.352,0.324v2.025c-0.334-0.33-0.694-0.495-1.079-0.495
		c-0.478,0-0.856,0.241-1.133,0.724c-0.277,0.482-0.416,1.181-0.416,2.095c0,0.783,0.139,1.41,0.416,1.882
		c0.277,0.472,0.644,0.708,1.101,0.708c0.334,0,0.705-0.159,1.111-0.476V64.169z"/>
	<path fill="#FFFFFF" d="M30.226,55.39c1.071,0,1.915,0.404,2.533,1.212s0.927,1.913,0.927,3.313c0,1.405-0.311,2.525-0.933,3.361
		c-0.622,0.836-1.428,1.254-2.418,1.254c-1.028,0-1.824-0.434-2.387-1.301s-0.844-1.949-0.844-3.244
		c0-0.897,0.138-1.702,0.413-2.415c0.275-0.713,0.66-1.255,1.155-1.625C29.166,55.575,29.684,55.39,30.226,55.39z M30.448,57.256
		c-0.415,0-0.732,0.239-0.952,0.717s-0.33,1.132-0.33,1.961c0,0.842,0.107,1.503,0.32,1.983c0.214,0.48,0.509,0.721,0.886,0.721
		c0.373,0,0.671-0.248,0.895-0.743s0.336-1.155,0.336-1.98c0-0.855-0.113-1.512-0.34-1.971
		C31.037,57.486,30.765,57.256,30.448,57.256z"/>
	<path fill="#FFFFFF" d="M34.612,55.536h2.26l1.238,3.39l1.238-3.39h2.266v8.855h-2.019v-3.313c0-0.838,0.034-1.688,0.102-2.552
		h-0.152c-0.089,0.427-0.265,1.016-0.527,1.765l-0.908,2.583l-0.901-2.583c-0.262-0.753-0.438-1.341-0.527-1.765h-0.159
		c0.072,0.8,0.108,1.65,0.108,2.552v3.313h-2.019V55.536z"/>
	<path fill="#FFFFFF" d="M42.807,55.536h3.155c0.817,0,1.449,0.219,1.898,0.657c0.449,0.438,0.673,1.059,0.673,1.863
		c0,0.419-0.074,0.839-0.222,1.26c-0.148,0.421-0.459,0.787-0.935,1.099c-0.476,0.311-1.072,0.466-1.79,0.466h-0.697v3.51h-2.082
		V55.536z M44.889,57.244v1.898h0.455c0.337,0,0.606-0.088,0.806-0.263c0.2-0.176,0.3-0.422,0.3-0.74c0-0.3-0.077-0.525-0.231-0.673
		s-0.384-0.222-0.692-0.222H44.889z"/>
	<path fill="#FFFFFF" d="M49.383,55.536h5.046v1.784h-2.983v1.631h2.78v1.727h-2.78v1.904h2.983v1.809h-5.046V55.536z"/>
	<path fill="#FFFFFF" d="M55.153,55.536h5.593v1.796h-1.797v7.059h-2.063v-7.059h-1.734V55.536z"/>
	<path fill="#FFFFFF" d="M61.717,55.536h2.082v8.855h-2.082V55.536z"/>
	<path fill="#FFFFFF" d="M64.763,55.536h5.593v1.796h-1.797v7.059h-2.063v-7.059h-1.733V55.536z"/>
	<path fill="#FFFFFF" d="M71.327,55.536h2.082v8.855h-2.082V55.536z"/>
	<path fill="#FFFFFF" d="M77.479,55.39c1.07,0,1.914,0.404,2.532,1.212s0.927,1.913,0.927,3.313c0,1.405-0.311,2.525-0.934,3.361
		c-0.621,0.836-1.428,1.254-2.418,1.254c-1.028,0-1.824-0.434-2.387-1.301s-0.844-1.949-0.844-3.244
		c0-0.897,0.137-1.702,0.412-2.415c0.275-0.713,0.66-1.255,1.155-1.625C76.418,55.575,76.937,55.39,77.479,55.39z M77.7,57.256
		c-0.415,0-0.732,0.239-0.952,0.717s-0.33,1.132-0.33,1.961c0,0.842,0.106,1.503,0.32,1.983c0.214,0.48,0.509,0.721,0.886,0.721
		c0.372,0,0.671-0.248,0.896-0.743c0.224-0.495,0.336-1.155,0.336-1.98c0-0.855-0.113-1.512-0.34-1.971
		C78.289,57.486,78.018,57.256,77.7,57.256z"/>
	<path fill="#FFFFFF" d="M81.832,55.536h2.101l1.01,2.806c0.301,0.833,0.531,1.555,0.691,2.165h0.108l-0.051-1.498v-3.472h1.98
		v8.855h-2.095l-1.01-2.806c-0.3-0.833-0.53-1.557-0.691-2.171h-0.114l0.051,1.498v3.479h-1.98V55.536z"/>
</g>
</svg>
