<?xml version="1.0" encoding="utf-8"?>
<!-- Generator: Adobe Illustrator 16.0.0, SVG Export Plug-In . SVG Version: 6.00 Build 0)  -->
<!DOCTYPE svg PUBLIC "-//W3C//DTD SVG 1.1//EN" "http://www.w3.org/Graphics/SVG/1.1/DTD/svg11.dtd">
<svg version="1.1" id="Layer_1" xmlns="http://www.w3.org/2000/svg" xmlns:xlink="http://www.w3.org/1999/xlink" x="0px" y="0px"
	 width="73px" height="73px" viewBox="0 0 73 73" enable-background="new 0 0 73 73" xml:space="preserve">
<circle fill="#FFFFFF" stroke="#00758D" stroke-width="0.484" cx="36.638" cy="37.231" r="36.037"/>
<g>
	<g>
		<defs>
			<path id="SVGID_1_" d="M0.885,37.23c0,19.903,16.135,36.037,36.037,36.037c19.903,0,36.037-16.134,36.037-36.037
				c0-19.902-16.134-36.037-36.037-36.037C17.02,1.194,0.885,17.328,0.885,37.23"/>
		</defs>
		<clipPath id="SVGID_2_">
			<use xlink:href="#SVGID_1_"  overflow="visible"/>
		</clipPath>
		<path clip-path="url(#SVGID_2_)" fill="none" stroke="#747677" stroke-width="0.414" d="M28.911,50.846
			c0,0-0.154,8.928-5.475,10.541"/>
	</g>
	<g>
		<defs>
			<path id="SVGID_3_" d="M0.885,37.23c0,19.903,16.135,36.037,36.037,36.037c19.903,0,36.037-16.134,36.037-36.037
				c0-19.902-16.134-36.037-36.037-36.037C17.02,1.194,0.885,17.328,0.885,37.23"/>
		</defs>
		<clipPath id="SVGID_4_">
			<use xlink:href="#SVGID_3_"  overflow="visible"/>
		</clipPath>
		<path clip-path="url(#SVGID_4_)" fill="none" stroke="#747677" stroke-width="0.414" d="M44.743,50.846
			c0,0,0.345,9.291,5.665,10.904"/>
	</g>
	<g>
		<defs>
			<path id="SVGID_5_" d="M0.885,37.23c0,19.903,16.135,36.037,36.037,36.037c19.903,0,36.037-16.134,36.037-36.037
				c0-19.902-16.134-36.037-36.037-36.037C17.02,1.194,0.885,17.328,0.885,37.23"/>
		</defs>
		<clipPath id="SVGID_6_">
			<use xlink:href="#SVGID_5_"  overflow="visible"/>
		</clipPath>
		<path clip-path="url(#SVGID_6_)" fill="#00758D" d="M21.104,31.067c-0.428,0-0.774,0.347-0.774,0.773v13.1
			c0,0.428,0.346,0.774,0.774,0.774h1.226c0.428,0,0.774-0.348,0.774-0.774v-13.1c0-0.427-0.346-0.773-0.774-0.773H21.104z"/>
	</g>
	<g>
		<defs>
			<path id="SVGID_7_" d="M0.885,37.23c0,19.903,16.135,36.037,36.037,36.037c19.903,0,36.037-16.134,36.037-36.037
				c0-19.902-16.134-36.037-36.037-36.037C17.02,1.194,0.885,17.328,0.885,37.23"/>
		</defs>
		<clipPath id="SVGID_8_">
			<use xlink:href="#SVGID_7_"  overflow="visible"/>
		</clipPath>
		<path clip-path="url(#SVGID_8_)" fill="#00758D" d="M19.994,33.002c-0.428,0-0.774,0.347-0.774,0.774v9.085
			c0,0.427,0.346,0.773,0.774,0.773h0.619c0.428,0,0.775-0.348,0.775-0.773v-9.085c0-0.428-0.347-0.774-0.775-0.774H19.994z"/>
	</g>
	<g>
		<defs>
			<path id="SVGID_9_" d="M0.885,37.23c0,19.903,16.135,36.037,36.037,36.037c19.903,0,36.037-16.134,36.037-36.037
				c0-19.902-16.134-36.037-36.037-36.037C17.02,1.194,0.885,17.328,0.885,37.23"/>
		</defs>
		<clipPath id="SVGID_10_">
			<use xlink:href="#SVGID_9_"  overflow="visible"/>
		</clipPath>
		<path clip-path="url(#SVGID_10_)" fill="#00758D" d="M19.426,34.99c-0.428,0-0.774,0.348-0.774,0.774v5.24
			c0,0.428,0.346,0.773,0.774,0.773h0.619c0.428,0,0.775-0.346,0.775-0.773v-5.24c0-0.427-0.347-0.774-0.775-0.774H19.426z"/>
	</g>
	<g>
		<defs>
			<path id="SVGID_11_" d="M0.885,37.23c0,19.903,16.135,36.037,36.037,36.037c19.903,0,36.037-16.134,36.037-36.037
				c0-19.902-16.134-36.037-36.037-36.037C17.02,1.194,0.885,17.328,0.885,37.23"/>
		</defs>
		<clipPath id="SVGID_12_">
			<use xlink:href="#SVGID_11_"  overflow="visible"/>
		</clipPath>
		<rect x="18.265" y="31.144" clip-path="url(#SVGID_12_)" fill="#00758D" width="0.413" height="6.788"/>
	</g>
	<g>
		<defs>
			<path id="SVGID_13_" d="M0.885,37.23c0,19.903,16.135,36.037,36.037,36.037c19.903,0,36.037-16.134,36.037-36.037
				c0-19.902-16.134-36.037-36.037-36.037C17.02,1.194,0.885,17.328,0.885,37.23"/>
		</defs>
		<clipPath id="SVGID_14_">
			<use xlink:href="#SVGID_13_"  overflow="visible"/>
		</clipPath>
		<path clip-path="url(#SVGID_14_)" fill="#00758D" d="M53.518,30.679c0.002-0.141,0.004-0.281,0.004-0.423
			c0-9.275-7.418-16.793-16.568-16.793c-9.152,0-16.571,7.518-16.571,16.793c0,0.142,0.002,0.282,0.006,0.423
			c0.221-8.407,7.553-15.159,16.565-15.159C45.964,15.521,53.295,22.272,53.518,30.679"/>
	</g>
	<g>
		<defs>
			<path id="SVGID_15_" d="M0.885,37.23c0,19.903,16.135,36.037,36.037,36.037c19.903,0,36.037-16.134,36.037-36.037
				c0-19.902-16.134-36.037-36.037-36.037C17.02,1.194,0.885,17.328,0.885,37.23"/>
		</defs>
		<clipPath id="SVGID_16_">
			<use xlink:href="#SVGID_15_"  overflow="visible"/>
		</clipPath>
		<path clip-path="url(#SVGID_16_)" fill="#747677" d="M37.662,17.778v-0.004c-0.051,0-0.098,0.002-0.146,0.002
			c-0.05,0-0.098-0.002-0.147-0.002v0.004c-13.273,0.17-14.263,11.74-14.263,11.74s0.334-0.052,1.096,0.517
			c0.761,0.567,0.841,1.936,0.841,1.936v12.417c0.2,2.543,2.07,6.618,4.407,8.489c2.338,1.871,1.269,1.228,3.54,4.192
			c1.939,2.535,3.974,2.576,4.527,2.533c0.555,0.043,2.59,0.002,4.528-2.533c2.271-2.967,1.201-2.321,3.539-4.192
			c2.337-1.871,4.207-5.946,4.405-8.489V31.97c0,0,0.08-1.368,0.843-1.936c0.762-0.568,1.096-0.517,1.096-0.517
			S50.936,17.948,37.662,17.778"/>
	</g>
	<g>
		<defs>
			<path id="SVGID_17_" d="M0.885,37.23c0,19.903,16.135,36.037,36.037,36.037c19.903,0,36.037-16.134,36.037-36.037
				c0-19.902-16.134-36.037-36.037-36.037C17.02,1.194,0.885,17.328,0.885,37.23"/>
		</defs>
		<clipPath id="SVGID_18_">
			<use xlink:href="#SVGID_17_"  overflow="visible"/>
		</clipPath>
		<path clip-path="url(#SVGID_18_)" fill="#FFFFFF" d="M52.49,31.067c0.428,0,0.773,0.347,0.773,0.773v13.1
			c0,0.428-0.347,0.774-0.773,0.774h-1.227c-0.429,0-0.773-0.348-0.773-0.774v-13.1c0-0.427,0.346-0.773,0.773-0.773H52.49z"/>
	</g>
	<g>
		<defs>
			<path id="SVGID_19_" d="M0.885,37.23c0,19.903,16.135,36.037,36.037,36.037c19.903,0,36.037-16.134,36.037-36.037
				c0-19.902-16.134-36.037-36.037-36.037C17.02,1.194,0.885,17.328,0.885,37.23"/>
		</defs>
		<clipPath id="SVGID_20_">
			<use xlink:href="#SVGID_19_"  overflow="visible"/>
		</clipPath>
		<path clip-path="url(#SVGID_20_)" fill="none" stroke="#FFFFFF" stroke-width="3.187" d="M52.49,31.067
			c0.428,0,0.773,0.347,0.773,0.773v13.1c0,0.428-0.347,0.774-0.773,0.774h-1.227c-0.429,0-0.773-0.348-0.773-0.774v-13.1
			c0-0.427,0.346-0.773,0.773-0.773H52.49z"/>
	</g>
	<g>
		<defs>
			<path id="SVGID_21_" d="M0.885,37.23c0,19.903,16.135,36.037,36.037,36.037c19.903,0,36.037-16.134,36.037-36.037
				c0-19.902-16.134-36.037-36.037-36.037C17.02,1.194,0.885,17.328,0.885,37.23"/>
		</defs>
		<clipPath id="SVGID_22_">
			<use xlink:href="#SVGID_21_"  overflow="visible"/>
		</clipPath>
		<path clip-path="url(#SVGID_22_)" fill="#FFFFFF" d="M53.6,33.002c0.428,0,0.773,0.347,0.773,0.774v9.085
			c0,0.427-0.346,0.773-0.773,0.773H52.98c-0.429,0-0.775-0.348-0.775-0.773v-9.085c0-0.428,0.348-0.774,0.775-0.774H53.6z"/>
	</g>
	<g>
		<defs>
			<path id="SVGID_23_" d="M0.885,37.23c0,19.903,16.135,36.037,36.037,36.037c19.903,0,36.037-16.134,36.037-36.037
				c0-19.902-16.134-36.037-36.037-36.037C17.02,1.194,0.885,17.328,0.885,37.23"/>
		</defs>
		<clipPath id="SVGID_24_">
			<use xlink:href="#SVGID_23_"  overflow="visible"/>
		</clipPath>
		<path clip-path="url(#SVGID_24_)" fill="none" stroke="#FFFFFF" stroke-width="3.187" d="M53.6,33.002
			c0.428,0,0.773,0.347,0.773,0.774v9.085c0,0.427-0.346,0.773-0.773,0.773H52.98c-0.429,0-0.775-0.348-0.775-0.773v-9.085
			c0-0.428,0.348-0.774,0.775-0.774H53.6z"/>
	</g>
	<g>
		<defs>
			<path id="SVGID_25_" d="M0.885,37.23c0,19.903,16.135,36.037,36.037,36.037c19.903,0,36.037-16.134,36.037-36.037
				c0-19.902-16.134-36.037-36.037-36.037C17.02,1.194,0.885,17.328,0.885,37.23"/>
		</defs>
		<clipPath id="SVGID_26_">
			<use xlink:href="#SVGID_25_"  overflow="visible"/>
		</clipPath>
		<path clip-path="url(#SVGID_26_)" fill="#FFFFFF" d="M54.168,34.99c0.428,0,0.773,0.348,0.773,0.774v5.24
			c0,0.428-0.346,0.773-0.773,0.773h-0.619c-0.428,0-0.775-0.346-0.775-0.773v-5.24c0-0.427,0.349-0.774,0.775-0.774H54.168z"/>
	</g>
	<g>
		<defs>
			<path id="SVGID_27_" d="M0.885,37.23c0,19.903,16.135,36.037,36.037,36.037c19.903,0,36.037-16.134,36.037-36.037
				c0-19.902-16.134-36.037-36.037-36.037C17.02,1.194,0.885,17.328,0.885,37.23"/>
		</defs>
		<clipPath id="SVGID_28_">
			<use xlink:href="#SVGID_27_"  overflow="visible"/>
		</clipPath>
		<path clip-path="url(#SVGID_28_)" fill="none" stroke="#FFFFFF" stroke-width="3.187" d="M54.168,34.99
			c0.428,0,0.773,0.348,0.773,0.774v5.24c0,0.428-0.346,0.773-0.773,0.773h-0.619c-0.428,0-0.775-0.346-0.775-0.773v-5.24
			c0-0.427,0.349-0.774,0.775-0.774H54.168z"/>
	</g>
	<g>
		<defs>
			<path id="SVGID_29_" d="M0.885,37.23c0,19.903,16.135,36.037,36.037,36.037c19.903,0,36.037-16.134,36.037-36.037
				c0-19.902-16.134-36.037-36.037-36.037C17.02,1.194,0.885,17.328,0.885,37.23"/>
		</defs>
		<clipPath id="SVGID_30_">
			<use xlink:href="#SVGID_29_"  overflow="visible"/>
		</clipPath>
		<rect x="54.916" y="31.144" clip-path="url(#SVGID_30_)" fill="#FFFFFF" width="0.413" height="6.788"/>
	</g>
	<g>
		<defs>
			<path id="SVGID_31_" d="M0.885,37.23c0,19.903,16.135,36.037,36.037,36.037c19.903,0,36.037-16.134,36.037-36.037
				c0-19.902-16.134-36.037-36.037-36.037C17.02,1.194,0.885,17.328,0.885,37.23"/>
		</defs>
		<clipPath id="SVGID_32_">
			<use xlink:href="#SVGID_31_"  overflow="visible"/>
		</clipPath>
		
			<rect x="54.916" y="31.144" clip-path="url(#SVGID_32_)" fill="none" stroke="#FFFFFF" stroke-width="3.187" width="0.413" height="6.788"/>
	</g>
	<g>
		<defs>
			<path id="SVGID_33_" d="M0.885,37.23c0,19.903,16.135,36.037,36.037,36.037c19.903,0,36.037-16.134,36.037-36.037
				c0-19.902-16.134-36.037-36.037-36.037C17.02,1.194,0.885,17.328,0.885,37.23"/>
		</defs>
		<clipPath id="SVGID_34_">
			<use xlink:href="#SVGID_33_"  overflow="visible"/>
		</clipPath>
		<path clip-path="url(#SVGID_34_)" fill="#FFFFFF" d="M38.552,53.779c1.226,0,2.22-0.682,2.22-1.521
			c0-0.842-0.994-1.523-2.22-1.523s-2.22,0.683-2.22,1.523C36.332,53.098,37.326,53.779,38.552,53.779"/>
	</g>
	<g>
		<defs>
			<path id="SVGID_35_" d="M0.885,37.23c0,19.903,16.135,36.037,36.037,36.037c19.903,0,36.037-16.134,36.037-36.037
				c0-19.902-16.134-36.037-36.037-36.037C17.02,1.194,0.885,17.328,0.885,37.23"/>
		</defs>
		<clipPath id="SVGID_36_">
			<use xlink:href="#SVGID_35_"  overflow="visible"/>
		</clipPath>
		
			<ellipse clip-path="url(#SVGID_36_)" fill="none" stroke="#FFFFFF" stroke-width="3.187" cx="38.552" cy="52.257" rx="2.22" ry="1.522"/>
	</g>
	<g>
		<defs>
			<path id="SVGID_37_" d="M0.885,37.23c0,19.903,16.135,36.037,36.037,36.037c19.903,0,36.037-16.134,36.037-36.037
				c0-19.902-16.134-36.037-36.037-36.037C17.02,1.194,0.885,17.328,0.885,37.23"/>
		</defs>
		<clipPath id="SVGID_38_">
			<use xlink:href="#SVGID_37_"  overflow="visible"/>
		</clipPath>
		<path clip-path="url(#SVGID_38_)" fill="none" stroke="#FFFFFF" stroke-width="3.187" d="M51.131,44.66
			c0,0-3.527,6.074-10.928,7.598"/>
	</g>
	<g>
		<defs>
			<path id="SVGID_39_" d="M0.885,37.23c0,19.903,16.135,36.037,36.037,36.037c19.903,0,36.037-16.134,36.037-36.037
				c0-19.902-16.134-36.037-36.037-36.037C17.02,1.194,0.885,17.328,0.885,37.23"/>
		</defs>
		<clipPath id="SVGID_40_">
			<use xlink:href="#SVGID_39_"  overflow="visible"/>
		</clipPath>
		<path clip-path="url(#SVGID_40_)" fill="#00758D" d="M52.49,31.067c0.428,0,0.773,0.347,0.773,0.773v13.1
			c0,0.428-0.347,0.774-0.773,0.774h-1.227c-0.429,0-0.773-0.348-0.773-0.774v-13.1c0-0.427,0.346-0.773,0.773-0.773H52.49z"/>
	</g>
	<g>
		<defs>
			<path id="SVGID_41_" d="M0.885,37.23c0,19.903,16.135,36.037,36.037,36.037c19.903,0,36.037-16.134,36.037-36.037
				c0-19.902-16.134-36.037-36.037-36.037C17.02,1.194,0.885,17.328,0.885,37.23"/>
		</defs>
		<clipPath id="SVGID_42_">
			<use xlink:href="#SVGID_41_"  overflow="visible"/>
		</clipPath>
		<path clip-path="url(#SVGID_42_)" fill="#00758D" d="M53.6,33.002c0.428,0,0.773,0.347,0.773,0.774v9.085
			c0,0.427-0.346,0.773-0.773,0.773H52.98c-0.429,0-0.775-0.348-0.775-0.773v-9.085c0-0.428,0.348-0.774,0.775-0.774H53.6z"/>
	</g>
	<g>
		<defs>
			<path id="SVGID_43_" d="M0.885,37.23c0,19.903,16.135,36.037,36.037,36.037c19.903,0,36.037-16.134,36.037-36.037
				c0-19.902-16.134-36.037-36.037-36.037C17.02,1.194,0.885,17.328,0.885,37.23"/>
		</defs>
		<clipPath id="SVGID_44_">
			<use xlink:href="#SVGID_43_"  overflow="visible"/>
		</clipPath>
		<path clip-path="url(#SVGID_44_)" fill="#00758D" d="M54.168,34.99c0.428,0,0.773,0.348,0.773,0.774v5.24
			c0,0.428-0.346,0.773-0.773,0.773h-0.619c-0.428,0-0.775-0.346-0.775-0.773v-5.24c0-0.427,0.349-0.774,0.775-0.774H54.168z"/>
	</g>
	<g>
		<defs>
			<path id="SVGID_45_" d="M0.885,37.23c0,19.903,16.135,36.037,36.037,36.037c19.903,0,36.037-16.134,36.037-36.037
				c0-19.902-16.134-36.037-36.037-36.037C17.02,1.194,0.885,17.328,0.885,37.23"/>
		</defs>
		<clipPath id="SVGID_46_">
			<use xlink:href="#SVGID_45_"  overflow="visible"/>
		</clipPath>
		<rect x="54.916" y="31.144" clip-path="url(#SVGID_46_)" fill="#00758D" width="0.413" height="6.788"/>
	</g>
	<g>
		<defs>
			<path id="SVGID_47_" d="M0.885,37.23c0,19.903,16.135,36.037,36.037,36.037c19.903,0,36.037-16.134,36.037-36.037
				c0-19.902-16.134-36.037-36.037-36.037C17.02,1.194,0.885,17.328,0.885,37.23"/>
		</defs>
		<clipPath id="SVGID_48_">
			<use xlink:href="#SVGID_47_"  overflow="visible"/>
		</clipPath>
		<path clip-path="url(#SVGID_48_)" fill="#00758D" d="M38.552,53.779c1.226,0,2.22-0.682,2.22-1.521
			c0-0.842-0.994-1.523-2.22-1.523s-2.22,0.683-2.22,1.523C36.332,53.098,37.326,53.779,38.552,53.779"/>
	</g>
	<g>
		<defs>
			<path id="SVGID_49_" d="M0.885,37.23c0,19.903,16.135,36.037,36.037,36.037c19.903,0,36.037-16.134,36.037-36.037
				c0-19.902-16.134-36.037-36.037-36.037C17.02,1.194,0.885,17.328,0.885,37.23"/>
		</defs>
		<clipPath id="SVGID_50_">
			<use xlink:href="#SVGID_49_"  overflow="visible"/>
		</clipPath>
		<path clip-path="url(#SVGID_50_)" fill="none" stroke="#00758D" stroke-width="1.093" d="M51.131,44.66
			c0,0-3.527,6.074-10.928,7.598"/>
	</g>
</g>
</svg>
