<?xml version="1.0" encoding="utf-8"?>
<!-- Generator: Adobe Illustrator 16.0.0, SVG Export Plug-In . SVG Version: 6.00 Build 0)  -->
<!DOCTYPE svg PUBLIC "-//W3C//DTD SVG 1.1//EN" "http://www.w3.org/Graphics/SVG/1.1/DTD/svg11.dtd">
<svg version="1.1" id="Layer_1" xmlns="http://www.w3.org/2000/svg" xmlns:xlink="http://www.w3.org/1999/xlink" x="0px" y="0px"
	 width="72.074px" height="105.201px" viewBox="0 0 72.074 105.201" enable-background="new 0 0 72.074 105.201"
	 xml:space="preserve">
<path fill="#FFFFFF" d="M36.037,84.691c19.903,0,36.037-16.135,36.037-36.037c0-19.903-16.134-36.037-36.037-36.037
	C16.136,12.617,0,28.751,0,48.654C0,68.556,16.136,84.691,36.037,84.691L36.037,84.691z"/>
<g>
	<defs>
		<path id="SVGID_1_" d="M36.037,84.691c19.903,0,36.037-16.135,36.037-36.037c0-19.903-16.134-36.037-36.037-36.037
			C16.136,12.617,0,28.751,0,48.654C0,68.556,16.136,84.691,36.037,84.691L36.037,84.691z"/>
	</defs>
	<clipPath id="SVGID_2_">
		<use xlink:href="#SVGID_1_"  overflow="visible"/>
	</clipPath>
	<path clip-path="url(#SVGID_2_)" fill="none" stroke="#747677" stroke-width="0.4139" d="M28.026,62.268
		c0,0-0.154,8.928-5.475,10.541 M43.858,62.268c0,0,0.345,9.291,5.666,10.903"/>
	<path clip-path="url(#SVGID_2_)" fill="#00758D" d="M20.22,42.489c-0.429,0-0.774,0.347-0.774,0.775v13.099
		c0,0.427,0.346,0.774,0.774,0.774h1.226c0.428,0,0.774-0.348,0.774-0.774V43.264c0-0.429-0.347-0.775-0.774-0.775H20.22
		L20.22,42.489z"/>
	<path clip-path="url(#SVGID_2_)" fill="#00758D" d="M19.109,44.425c-0.428,0-0.774,0.347-0.774,0.774v9.085
		c0,0.428,0.347,0.774,0.774,0.774h0.62c0.427,0,0.773-0.347,0.773-0.774V45.2c0-0.428-0.347-0.774-0.773-0.774H19.109
		L19.109,44.425z"/>
	<path clip-path="url(#SVGID_2_)" fill="#00758D" d="M18.541,46.413c-0.427,0-0.773,0.346-0.773,0.774v5.24
		c0,0.427,0.347,0.773,0.773,0.773h0.62c0.427,0,0.774-0.347,0.774-0.773v-5.24c0-0.429-0.348-0.774-0.774-0.774H18.541
		L18.541,46.413z"/>
	<polygon clip-path="url(#SVGID_2_)" fill="#00758D" points="17.38,42.567 17.38,49.355 17.793,49.355 17.793,42.567 17.38,42.567 	
		"/>
	<path clip-path="url(#SVGID_2_)" fill="#00758D" d="M52.633,42.102c0.003-0.141,0.005-0.282,0.005-0.423
		c0-9.274-7.419-16.793-16.57-16.793c-9.152,0-16.571,7.519-16.571,16.793c0,0.141,0.002,0.282,0.006,0.423
		c0.222-8.407,7.554-15.159,16.565-15.159S52.41,33.695,52.633,42.102L52.633,42.102z"/>
	<path clip-path="url(#SVGID_2_)" fill="#747677" d="M36.777,29.201v-0.004c-0.05,0-0.098,0.002-0.147,0.002
		c-0.049,0-0.097-0.002-0.146-0.002v0.004c-13.274,0.17-14.264,11.74-14.264,11.74s0.334-0.052,1.095,0.516
		c0.762,0.568,0.842,1.937,0.842,1.937v12.416c0.2,2.543,2.07,6.619,4.407,8.49s1.269,1.227,3.539,4.194
		c1.939,2.535,3.975,2.575,4.527,2.533c0.554,0.042,2.589,0.002,4.527-2.533c2.271-2.968,1.202-2.323,3.54-4.194
		c2.337-1.871,4.207-5.947,4.407-8.49V43.393c0,0,0.08-1.368,0.841-1.937c0.762-0.567,1.095-0.516,1.095-0.516
		S50.052,29.371,36.777,29.201L36.777,29.201z"/>
	<path clip-path="url(#SVGID_2_)" fill="#FFFFFF" d="M51.605,42.489c0.427,0,0.773,0.347,0.773,0.775v13.099
		c0,0.427-0.347,0.774-0.773,0.774h-1.227c-0.428,0-0.773-0.348-0.773-0.774V43.264c0-0.429,0.346-0.775,0.773-0.775H51.605
		L51.605,42.489z"/>
	<path clip-path="url(#SVGID_2_)" fill="none" stroke="#FFFFFF" stroke-width="3.1869" d="M51.605,42.489
		c0.427,0,0.773,0.347,0.773,0.775v13.099c0,0.427-0.347,0.774-0.773,0.774h-1.227c-0.428,0-0.773-0.348-0.773-0.774V43.264
		c0-0.429,0.346-0.775,0.773-0.775H51.605L51.605,42.489z"/>
	<path clip-path="url(#SVGID_2_)" fill="#FFFFFF" d="M52.716,44.425c0.427,0,0.773,0.347,0.773,0.774v9.085
		c0,0.428-0.347,0.774-0.773,0.774h-0.62c-0.428,0-0.774-0.347-0.774-0.774V45.2c0-0.428,0.347-0.774,0.774-0.774H52.716
		L52.716,44.425z"/>
	<path clip-path="url(#SVGID_2_)" fill="none" stroke="#FFFFFF" stroke-width="3.1869" d="M52.716,44.425
		c0.427,0,0.773,0.347,0.773,0.774v9.085c0,0.428-0.347,0.774-0.773,0.774h-0.62c-0.428,0-0.774-0.347-0.774-0.774V45.2
		c0-0.428,0.347-0.774,0.774-0.774H52.716L52.716,44.425z"/>
	<path clip-path="url(#SVGID_2_)" fill="#FFFFFF" d="M53.283,46.413c0.427,0,0.774,0.346,0.774,0.774v5.24
		c0,0.427-0.348,0.773-0.774,0.773h-0.62c-0.428,0-0.773-0.347-0.773-0.773v-5.24c0-0.429,0.346-0.774,0.773-0.774H53.283
		L53.283,46.413z"/>
	<path clip-path="url(#SVGID_2_)" fill="none" stroke="#FFFFFF" stroke-width="3.1869" d="M53.283,46.413
		c0.427,0,0.774,0.346,0.774,0.774v5.24c0,0.427-0.348,0.773-0.774,0.773h-0.62c-0.428,0-0.773-0.347-0.773-0.773v-5.24
		c0-0.429,0.346-0.774,0.773-0.774H53.283L53.283,46.413z"/>
	<polygon clip-path="url(#SVGID_2_)" fill="#FFFFFF" points="54.444,42.567 54.444,49.355 54.031,49.355 54.031,42.567 
		54.444,42.567 	"/>
	<polygon clip-path="url(#SVGID_2_)" fill="none" stroke="#FFFFFF" stroke-width="3.1869" points="54.444,42.567 54.444,49.355 
		54.031,49.355 54.031,42.567 54.444,42.567 	"/>
	<path clip-path="url(#SVGID_2_)" fill="#FFFFFF" d="M37.667,65.203c1.227,0,2.221-0.682,2.221-1.522
		c0-0.842-0.994-1.523-2.221-1.523c-1.226,0-2.22,0.682-2.22,1.523C35.447,64.521,36.441,65.203,37.667,65.203L37.667,65.203z"/>
	<path clip-path="url(#SVGID_2_)" fill="none" stroke="#FFFFFF" stroke-width="3.1869" d="M37.667,65.203
		c1.227,0,2.221-0.682,2.221-1.522c0-0.842-0.994-1.523-2.221-1.523c-1.226,0-2.22,0.682-2.22,1.523
		C35.447,64.521,36.441,65.203,37.667,65.203L37.667,65.203z M50.245,56.083c0,0-3.526,6.074-10.926,7.598"/>
	<path clip-path="url(#SVGID_2_)" fill="#00758D" d="M51.605,42.489c0.427,0,0.773,0.347,0.773,0.775v13.099
		c0,0.427-0.347,0.774-0.773,0.774h-1.227c-0.428,0-0.773-0.348-0.773-0.774V43.264c0-0.429,0.346-0.775,0.773-0.775H51.605
		L51.605,42.489z"/>
	<path clip-path="url(#SVGID_2_)" fill="#00758D" d="M52.716,44.425c0.427,0,0.773,0.347,0.773,0.774v9.085
		c0,0.428-0.347,0.774-0.773,0.774h-0.62c-0.428,0-0.774-0.347-0.774-0.774V45.2c0-0.428,0.347-0.774,0.774-0.774H52.716
		L52.716,44.425z"/>
	<path clip-path="url(#SVGID_2_)" fill="#00758D" d="M53.283,46.413c0.427,0,0.774,0.346,0.774,0.774v5.24
		c0,0.427-0.348,0.773-0.774,0.773h-0.62c-0.428,0-0.773-0.347-0.773-0.773v-5.24c0-0.429,0.346-0.774,0.773-0.774H53.283
		L53.283,46.413z"/>
	<polygon clip-path="url(#SVGID_2_)" fill="#00758D" points="54.444,42.567 54.444,49.355 54.031,49.355 54.031,42.567 
		54.444,42.567 	"/>
	<path clip-path="url(#SVGID_2_)" fill="#00758D" d="M37.667,65.203c1.227,0,2.221-0.682,2.221-1.522
		c0-0.842-0.994-1.523-2.221-1.523c-1.226,0-2.22,0.682-2.22,1.523C35.447,64.521,36.441,65.203,37.667,65.203L37.667,65.203z"/>
	<path clip-path="url(#SVGID_2_)" fill="none" stroke="#00758D" stroke-width="1.0927" d="M50.245,56.083
		c0,0-3.526,6.074-10.926,7.598"/>
</g>
<g>
	<path fill="#FFFFFF" d="M21.981,1.336c0.366,0.276,0.618,0.654,0.758,1.133h-0.627c-0.118-0.305-0.307-0.548-0.568-0.729
		c-0.261-0.181-0.581-0.271-0.96-0.271c-0.3,0-0.569,0.073-0.807,0.219s-0.425,0.355-0.562,0.627
		c-0.137,0.272-0.206,0.591-0.206,0.957c0,0.361,0.068,0.677,0.206,0.947s0.325,0.478,0.562,0.624
		c0.237,0.146,0.506,0.219,0.807,0.219c0.379,0,0.699-0.09,0.96-0.271c0.262-0.181,0.451-0.423,0.568-0.728h0.627
		c-0.14,0.479-0.392,0.857-0.758,1.133s-0.83,0.415-1.392,0.415c-0.431,0-0.812-0.099-1.143-0.297s-0.589-0.475-0.774-0.83
		s-0.278-0.759-0.278-1.212c0-0.457,0.093-0.864,0.278-1.221c0.185-0.357,0.443-0.635,0.774-0.833s0.712-0.297,1.143-0.297
		C21.151,0.921,21.615,1.059,21.981,1.336z"/>
	<path fill="#FFFFFF" d="M26.086,2.162c0.272,0.148,0.486,0.361,0.64,0.64c0.155,0.279,0.232,0.605,0.232,0.98
		s-0.077,0.7-0.232,0.977c-0.154,0.276-0.368,0.489-0.64,0.637c-0.272,0.148-0.58,0.222-0.924,0.222
		c-0.344,0-0.652-0.074-0.924-0.222c-0.272-0.148-0.487-0.36-0.644-0.637c-0.157-0.277-0.235-0.602-0.235-0.977
		s0.079-0.701,0.235-0.98s0.371-0.492,0.644-0.64c0.272-0.148,0.58-0.222,0.924-0.222C25.506,1.94,25.814,2.014,26.086,2.162z
		 M24.571,2.606c-0.181,0.096-0.327,0.243-0.438,0.441c-0.111,0.198-0.167,0.443-0.167,0.735c0,0.287,0.056,0.53,0.167,0.728
		c0.111,0.198,0.257,0.345,0.438,0.441s0.377,0.144,0.591,0.144c0.213,0,0.41-0.048,0.591-0.144S26.08,4.708,26.19,4.51
		c0.111-0.198,0.167-0.441,0.167-0.728c0-0.292-0.056-0.537-0.167-0.735c-0.111-0.198-0.257-0.345-0.438-0.441
		s-0.378-0.144-0.591-0.144C24.948,2.462,24.751,2.511,24.571,2.606z"/>
	<path fill="#FFFFFF" d="M30.635,2.329c0.257,0.268,0.385,0.654,0.385,1.16v2.083h-0.594V3.541c0-0.357-0.091-0.631-0.274-0.823
		c-0.183-0.191-0.431-0.288-0.745-0.288c-0.327,0-0.588,0.106-0.784,0.317c-0.196,0.211-0.294,0.52-0.294,0.924v1.901h-0.594V1.986
		h0.594v0.849c0.091-0.292,0.253-0.516,0.487-0.673c0.233-0.157,0.501-0.235,0.807-0.235C30.041,1.927,30.378,2.061,30.635,2.329z"
		/>
	<path fill="#FFFFFF" d="M34.035,2.257c0.246,0.211,0.396,0.496,0.448,0.853h-0.568C33.888,2.896,33.8,2.721,33.65,2.583
		s-0.352-0.206-0.604-0.206c-0.213,0-0.38,0.051-0.5,0.154c-0.12,0.102-0.18,0.241-0.18,0.415c0,0.131,0.041,0.236,0.121,0.317
		s0.181,0.142,0.3,0.183c0.12,0.041,0.284,0.086,0.493,0.134c0.266,0.061,0.48,0.123,0.644,0.186
		c0.163,0.063,0.303,0.165,0.418,0.304c0.115,0.14,0.173,0.327,0.173,0.562c0,0.292-0.11,0.529-0.33,0.712
		c-0.22,0.183-0.513,0.274-0.878,0.274c-0.427,0-0.775-0.103-1.045-0.307s-0.429-0.49-0.477-0.856h0.575
		c0.022,0.218,0.117,0.395,0.284,0.529c0.167,0.135,0.389,0.203,0.663,0.203c0.205,0,0.365-0.052,0.48-0.157
		s0.173-0.242,0.173-0.412c0-0.139-0.042-0.25-0.125-0.333c-0.083-0.083-0.185-0.146-0.307-0.189
		c-0.122-0.043-0.29-0.089-0.503-0.137c-0.266-0.061-0.478-0.122-0.637-0.183c-0.159-0.061-0.294-0.158-0.405-0.291
		c-0.111-0.133-0.167-0.313-0.167-0.539c0-0.3,0.111-0.543,0.333-0.728s0.525-0.278,0.908-0.278
		C33.464,1.94,33.789,2.045,34.035,2.257z"/>
	<path fill="#FFFFFF" d="M38.5,1.986v3.586h-0.595V4.729c-0.091,0.292-0.253,0.515-0.486,0.669
		c-0.233,0.155-0.504,0.232-0.813,0.232c-0.414,0-0.749-0.134-1.006-0.401c-0.257-0.268-0.385-0.652-0.385-1.153v-2.09h0.594v2.031
		c0,0.357,0.092,0.633,0.274,0.826c0.183,0.194,0.431,0.291,0.745,0.291c0.327,0,0.588-0.105,0.784-0.317
		c0.196-0.211,0.294-0.52,0.294-0.924V1.986H38.5z"/>
	<path fill="#FFFFFF" d="M40.048,0.738v4.833h-0.595V0.738H40.048z"/>
	<path fill="#FFFFFF" d="M42.713,5.049v0.522H42.27c-0.366,0-0.64-0.087-0.82-0.261s-0.271-0.466-0.271-0.875V2.502h-0.535V1.986
		h0.535V1.091h0.602v0.895h0.928v0.516h-0.928v1.946c0,0.231,0.042,0.389,0.127,0.474s0.232,0.127,0.441,0.127H42.713z"/>
	<path fill="#FFFFFF" d="M45.793,2.201c0.241,0.174,0.41,0.407,0.506,0.699V1.986h0.594v3.586h-0.594V4.657
		c-0.096,0.292-0.265,0.525-0.506,0.699c-0.242,0.174-0.537,0.261-0.886,0.261c-0.317,0-0.601-0.074-0.849-0.222
		s-0.443-0.36-0.585-0.637c-0.142-0.277-0.212-0.602-0.212-0.977s0.07-0.701,0.212-0.98s0.337-0.492,0.585-0.64
		S44.59,1.94,44.907,1.94C45.256,1.94,45.551,2.027,45.793,2.201z M44.199,2.818c-0.221,0.233-0.33,0.554-0.33,0.964
		c0,0.409,0.109,0.73,0.33,0.963c0.219,0.233,0.512,0.349,0.878,0.349c0.235,0,0.445-0.054,0.63-0.163
		c0.186-0.109,0.33-0.262,0.436-0.46c0.104-0.198,0.156-0.428,0.156-0.689c0-0.262-0.053-0.492-0.156-0.692
		c-0.105-0.201-0.25-0.354-0.436-0.461c-0.185-0.106-0.395-0.16-0.63-0.16C44.711,2.469,44.418,2.585,44.199,2.818z"/>
	<path fill="#FFFFFF" d="M50.74,2.329c0.258,0.268,0.386,0.654,0.386,1.16v2.083h-0.595V3.541c0-0.357-0.091-0.631-0.273-0.823
		c-0.184-0.191-0.432-0.288-0.745-0.288c-0.327,0-0.588,0.106-0.784,0.317c-0.195,0.211-0.293,0.52-0.293,0.924v1.901h-0.595V1.986
		h0.595v0.849c0.091-0.292,0.253-0.516,0.486-0.673c0.232-0.157,0.502-0.235,0.807-0.235C50.146,1.927,50.484,2.061,50.74,2.329z"/>
	<path fill="#FFFFFF" d="M53.752,5.049v0.522h-0.444c-0.366,0-0.64-0.087-0.819-0.261c-0.182-0.174-0.271-0.466-0.271-0.875V2.502
		h-0.535V1.986h0.535V1.091h0.601v0.895h0.928v0.516h-0.928v1.946c0,0.231,0.042,0.389,0.128,0.474
		c0.084,0.085,0.231,0.127,0.44,0.127H53.752z"/>
</g>
<line fill="none" stroke="#FFFFFF" stroke-width="0.5" x1="36.037" y1="91.36" x2="36.037" y2="105.201"/>
<path fill="#FFFFFF" d="M36.037,92.36c0.552,0,1-0.447,1-1c0-0.552-0.448-1-1-1s-1,0.448-1,1
	C35.037,91.913,35.485,92.36,36.037,92.36L36.037,92.36z"/>
</svg>
