<?xml version="1.0" encoding="utf-8"?>
<!-- Generator: Adobe Illustrator 16.0.0, SVG Export Plug-In . SVG Version: 6.00 Build 0)  -->
<!DOCTYPE svg PUBLIC "-//W3C//DTD SVG 1.1//EN" "http://www.w3.org/Graphics/SVG/1.1/DTD/svg11.dtd">
<svg version="1.1" id="Layer_1" xmlns="http://www.w3.org/2000/svg" xmlns:xlink="http://www.w3.org/1999/xlink" x="0px" y="0px"
	 width="73px" height="73px" viewBox="0 0 73 73" enable-background="new 0 0 73 73" xml:space="preserve">
<circle fill="#FFFFFF" stroke="#00758D" stroke-width="0.484" cx="36.638" cy="37.231" r="36.037"/>
<g>
	<defs>
		<path id="SVGID_1_" d="M0.316,37.23c0,19.904,16.134,36.037,36.038,36.037c19.902,0,36.037-16.133,36.037-36.037
			c0-19.902-16.135-36.036-36.037-36.036C16.45,1.194,0.316,17.328,0.316,37.23"/>
	</defs>
	<clipPath id="SVGID_2_">
		<use xlink:href="#SVGID_1_"  overflow="visible"/>
	</clipPath>
	<path clip-path="url(#SVGID_2_)" fill="#6EB9C4" d="M33.601,23.73c-0.197-0.04-0.416-0.088-0.631,0.284
		c-0.014-1.045-0.11-2.016-0.284-2.877c-0.147-1.119-1.347-7.698-9.175-7.804l0-0.003c-0.032,0.001-0.063,0.002-0.094,0.001
		c-0.033,0-0.063,0-0.095-0.001l0,0.003c-7.829,0.105-9.029,6.685-9.176,7.803c-0.167,0.832-0.262,1.766-0.281,2.768
		c-0.193-0.3-0.387-0.21-0.563-0.173c-0.56,0.116-0.733,1.856-0.385,4.185s1.083,3.93,1.643,3.813
		c0.178-0.037,0.317-0.068,0.412-0.433c0.36,1.131,0.79,2.157,1.265,3.046c0.51,1.101,1.205,2.151,1.981,2.804
		c1.506,1.27,1.705,1.104,2.282,1.795c1.25,1.721,2.562,1.748,2.917,1.719c0.357,0.029,1.668,0.002,2.918-1.719
		c0.607-0.762,0.775-0.525,2.282-1.795c0.775-0.654,1.47-1.704,1.981-2.805c0.492-0.921,0.936-1.992,1.304-3.172
		c0.095,0.438,0.244,0.518,0.442,0.56c0.56,0.115,1.296-1.484,1.644-3.813C34.333,25.586,34.161,23.846,33.601,23.73"/>
	<path clip-path="url(#SVGID_2_)" fill="none" stroke="#6EB9C4" stroke-width="0.322" d="M18.462,37.244
		c0,0-0.101,5.904-3.601,6.971"/>
	<path clip-path="url(#SVGID_2_)" fill="none" stroke="#555759" stroke-width="0.322" d="M28.73,36.819c0,0,0.382,6.33,3.884,7.396"
		/>
	<path clip-path="url(#SVGID_2_)" fill="#C8E3E7" d="M60.213,28.383c-0.186-0.038-0.393-0.083-0.595,0.267
		c-0.013-0.982-0.104-1.893-0.268-2.702c-0.139-1.051-1.27-7.227-8.643-7.326l-0.001-0.002c-0.029,0-0.059,0.001-0.088,0.001
		c-0.031,0-0.059-0.002-0.09-0.002v0.003c-7.373,0.099-8.504,6.276-8.643,7.326c-0.156,0.78-0.248,1.656-0.265,2.598
		c-0.183-0.281-0.365-0.196-0.531-0.162c-0.527,0.108-0.689,1.742-0.362,3.928c0.327,2.188,1.02,3.689,1.547,3.58
		c0.168-0.034,0.299-0.063,0.389-0.405c0.34,1.061,0.744,2.026,1.191,2.858c0.48,1.033,1.135,2.02,1.866,2.635
		c1.419,1.191,1.604,1.035,2.147,1.684c1.178,1.615,2.413,1.643,2.75,1.615c0.336,0.025,1.571,0,2.748-1.615
		c0.572-0.715,0.73-0.492,2.149-1.684c0.73-0.613,1.386-1.602,1.866-2.635c0.463-0.863,0.881-1.87,1.228-2.977
		c0.09,0.411,0.231,0.486,0.417,0.524c0.527,0.109,1.22-1.393,1.547-3.579C60.902,30.125,60.74,28.493,60.213,28.383"/>
	<path clip-path="url(#SVGID_2_)" fill="none" stroke="#555759" stroke-width="0.366" d="M45.922,41.07c0,0-0.094,5.516-3.352,6.512
		"/>
	<path clip-path="url(#SVGID_2_)" fill="none" stroke="#C8E3E7" stroke-width="0.366" d="M55.656,40.672c0,0,0.355,5.914,3.618,6.91
		"/>
	<path clip-path="url(#SVGID_2_)" fill="#747677" d="M47.344,41.037c-0.232-0.049-0.49-0.104-0.745,0.334
		c-0.017-1.232-0.131-2.379-0.335-3.396c-0.174-1.321-1.59-9.087-10.832-9.212l0-0.003c-0.039,0-0.074,0.001-0.112,0.001
		c-0.038,0.001-0.074-0.001-0.112-0.001l0,0.003c-9.242,0.125-10.657,7.892-10.831,9.212c-0.197,0.98-0.31,2.082-0.332,3.266
		c-0.229-0.352-0.458-0.246-0.666-0.203c-0.661,0.137-0.864,2.189-0.454,4.939c0.409,2.75,1.278,4.639,1.939,4.502
		c0.21-0.043,0.374-0.08,0.486-0.51c0.426,1.334,0.933,2.545,1.493,3.594c0.603,1.301,1.423,2.539,2.339,3.313
		c1.778,1.498,2.013,1.301,2.693,2.119c1.476,2.029,3.024,2.063,3.444,2.027c0.42,0.035,1.97,0.002,3.445-2.027
		c0.717-0.9,0.914-0.621,2.693-2.119c0.915-0.773,1.736-2.012,2.338-3.313c0.582-1.086,1.105-2.352,1.54-3.744
		c0.112,0.518,0.288,0.611,0.521,0.66c0.661,0.137,1.529-1.752,1.939-4.502C48.209,43.227,48.005,41.174,47.344,41.037"/>
	<path clip-path="url(#SVGID_2_)" fill="none" stroke="#747677" stroke-width="0.324" d="M29.501,56.99c0,0-0.121,6.992-4.288,8.254
		"/>
	<path clip-path="url(#SVGID_2_)" fill="none" stroke="#747677" stroke-width="0.324" d="M41.566,56.486
		c0,0,0.455,7.494,4.622,8.758"/>
</g>
</svg>
