<?xml version="1.0" encoding="utf-8"?>
<!-- Generator: Adobe Illustrator 16.0.0, SVG Export Plug-In . SVG Version: 6.00 Build 0)  -->
<!DOCTYPE svg PUBLIC "-//W3C//DTD SVG 1.1//EN" "http://www.w3.org/Graphics/SVG/1.1/DTD/svg11.dtd">
<svg version="1.1" id="Layer_1" xmlns="http://www.w3.org/2000/svg" xmlns:xlink="http://www.w3.org/1999/xlink" x="0px" y="0px"
	 width="760px" height="760px" viewBox="0 0 760 760" enable-background="new 0 0 760 760" xml:space="preserve">
<g>
	<path fill="#A7A9AC" d="M454.786,92.147c-31.865,4.479-54.066,33.939-49.588,65.803l17.752,126.312
		c4.479,31.863,33.939,54.064,65.805,49.586c0,0,31.902-32.281,58.91-36.076c27.006-3.795,67.4,18.324,67.4,18.324
		c31.863-4.479,54.064-33.939,49.586-65.803l-17.752-126.313c-4.479-31.864-33.939-54.064-65.803-49.586L454.786,92.147z"/>
	<path fill="#939598" d="M635.497,208.423c-25.006-20.25-61.693-16.394-81.943,8.613l-80.271,99.127
		c-20.25,25.006-16.393,61.693,8.613,81.941c0,0,45.367,1.318,66.561,18.482c21.193,17.162,32.566,61.789,32.566,61.789
		c25.006,20.25,61.693,16.395,81.943-8.611l80.271-99.127c20.25-25.006,16.393-61.693-8.613-81.943L635.497,208.423z"/>
	<path fill="#6D6E71" d="M689.89,395.208c-8.869-30.93-41.133-48.813-72.064-39.943l-122.611,35.156
		c-30.93,8.869-48.814,41.135-39.945,72.064c0,0,36.406,27.102,43.924,53.316c7.516,26.215-8.766,69.295-8.766,69.295
		c8.869,30.93,41.133,48.814,72.064,39.945l122.609-35.158c30.934-8.869,48.816-41.133,39.947-72.064L689.89,395.208z"/>
	<path fill="#4D4D4F" d="M638.366,568.382c10.475-30.424-5.695-63.58-36.119-74.057l-120.604-41.527
		c-30.424-10.477-63.58,5.695-74.057,36.119c0,0,14.277,43.084,5.398,68.867c-8.879,25.787-46.925,51.736-46.925,51.736
		c-10.477,30.424,5.695,63.58,36.121,74.057l120.602,41.527c30.424,10.475,63.58-5.695,74.057-36.121L638.366,568.382z"/>
	<path d="M492.036,662.024c24.285-21.109,26.859-57.908,5.748-82.193l-83.682-96.266c-21.109-24.285-57.91-26.857-82.195-5.748
		c0,0-9.178,44.449-29.76,62.342c-20.58,17.891-66.506,21.342-66.506,21.342c-24.284,21.109-26.856,57.91-5.748,82.193
		l83.684,96.266c21.109,24.285,57.91,26.857,82.195,5.748L492.036,662.024z"/>
	<path fill="#808285" d="M311.701,677.519c31.938-3.922,54.65-32.99,50.729-64.928l-15.545-126.602
		c-3.922-31.938-32.99-54.648-64.928-50.727c0,0-32.463,31.717-59.531,35.041c-27.068,3.322-67.07-19.496-67.07-19.496
		c-31.937,3.92-54.649,32.99-50.728,64.928l15.546,126.602c3.921,31.938,32.989,54.648,64.928,50.727L311.701,677.519z"/>
	<path fill="#A7A9AC" d="M119.524,550.53c24.649,20.684,61.398,17.469,82.081-7.18l81.99-97.713
		c20.682-24.648,17.467-61.396-7.184-82.078c0,0-45.336-2.111-66.227-19.641c-20.892-17.531-31.483-62.35-31.483-62.35
		c-24.648-20.684-61.397-17.467-82.08,7.182l-81.989,97.711c-20.684,24.648-17.468,61.396,7.181,82.08L119.524,550.53z"/>
	<path fill="#E6E7E8" d="M68.691,384.669c9.407,30.771,41.979,48.09,72.75,38.682l121.979-37.291
		c30.771-9.408,48.09-41.979,38.682-72.75c0,0-36.873-26.463-44.848-52.543c-7.973-26.08,7.555-69.436,7.555-69.436
		c-9.406-30.771-41.979-48.09-72.749-38.682L70.08,189.941c-30.771,9.408-48.089,41.98-38.683,72.75L68.691,384.669z"/>
	<path fill="#DCDDDE" d="M128.007,221.118c-7.784,31.221,11.215,62.842,42.437,70.627l123.763,30.857
		c31.221,7.783,62.842-11.215,70.627-42.438c0,0-17.979-41.674-11.381-68.135s42.238-55.628,42.238-55.628
		c7.785-31.222-11.215-62.842-42.435-70.626L229.49,54.918c-31.221-7.784-62.841,11.215-70.624,42.436L128.007,221.118z"/>
	<path fill="#6EB9C4" d="M280.324,95.382c-25.006,20.25-28.861,56.937-8.613,81.943l80.271,99.127
		c20.25,25.006,56.939,28.863,81.945,8.613c0,0,10.723-44.102,31.916-61.266c21.193-17.162,67.211-19.006,67.211-19.006
		c25.006-20.25,28.861-56.938,8.613-81.944l-80.273-99.127c-20.248-25.006-56.936-28.862-81.941-8.612L280.324,95.382z"/>
</g>
</svg>
