<svg width="533" height="1022" viewBox="0 0 533 1022" fill="none" xmlns="http://www.w3.org/2000/svg">
<ellipse cx="266.5" cy="177" rx="155.5" ry="157" fill="white"/>
<path d="M221.679 89.3697C221.679 98.0634 228.728 105.108 237.417 105.108C246.111 105.108 253.156 98.0634 253.156 89.3697C253.156 80.6759 246.111 73.6314 237.417 73.6314C228.728 73.6314 221.679 80.6759 221.679 89.3697ZM205.685 89.3697C205.685 71.844 219.892 57.6333 237.417 57.6333C251.835 57.6333 263.986 67.2534 267.85 80.42H283.669V70.6009H295.337V80.42H300.46V70.6009H312.127V80.42H316.539C318.976 80.42 320.951 84.5596 320.951 89.6702C320.951 94.7768 318.976 98.9165 316.539 98.9165H267.683C263.629 111.77 251.616 121.098 237.417 121.098C219.892 121.102 205.685 106.891 205.685 89.3697Z" fill="#6E6E70"/>
<path d="M352.854 164.444C352.854 164.444 342.937 140.524 320.155 134.179H263.32H206.49C183.703 140.528 173.786 164.444 173.786 164.444L185.811 199.577H190.715C190.715 192.915 195.919 187.512 202.342 187.512C204.8 187.512 207.079 188.308 208.956 189.661C210.572 185.013 214.846 181.69 219.88 181.69C224.897 181.69 229.162 184.993 230.787 189.62C232.709 188.166 235.065 187.3 237.625 187.3C239.847 187.3 241.915 187.958 243.678 189.08C245.441 184.745 249.577 181.694 254.399 181.694C257.982 181.694 261.187 183.384 263.32 186.029C265.453 183.384 268.658 181.694 272.245 181.694C277.068 181.694 281.203 184.745 282.962 189.08C284.729 187.962 286.797 187.3 289.019 187.3C291.575 187.3 293.931 188.166 295.853 189.62C297.482 184.993 301.743 181.69 306.76 181.69C311.794 181.69 316.068 185.013 317.685 189.661C319.565 188.308 321.84 187.512 324.302 187.512C330.721 187.512 335.925 192.915 335.925 199.577H340.829L352.854 164.444Z" fill="#00788C"/>
<path d="M275.703 234.819C275.703 229.623 271.486 225.402 266.286 225.402C261.082 225.402 256.865 229.623 256.865 234.819C256.865 238.748 259.27 242.107 262.686 243.525V252.28H269.881V243.525C273.298 242.107 275.703 238.748 275.703 234.819Z" fill="#6E6E70"/>
<path d="M288.508 261.701C288.508 263.817 286.391 263.817 286.391 263.817H246.172C244.055 263.817 244.055 261.701 244.055 261.701V221.486C244.055 219.369 246.172 219.37 246.172 219.37H286.391C288.507 219.37 288.508 221.486 288.508 221.486V261.701ZM352.22 205.931H266.708H265.863H180.351L186.49 263.289C186.49 263.289 188.395 277.256 204.267 277.256H265.863H266.708H328.304C344.176 277.256 346.081 263.289 346.081 263.289L352.22 205.931Z" fill="#23899D"/>
<path d="M239.852 146.364C239.792 145.86 239.55 145.469 239.126 145.19C238.702 144.912 238.181 144.773 237.565 144.773C237.114 144.773 236.72 144.846 236.382 144.991C236.047 145.137 235.785 145.338 235.596 145.593C235.411 145.848 235.318 146.138 235.318 146.463C235.318 146.735 235.382 146.969 235.512 147.164C235.644 147.356 235.813 147.517 236.019 147.646C236.224 147.772 236.44 147.877 236.665 147.96C236.891 148.039 237.098 148.104 237.287 148.153L238.321 148.432C238.586 148.501 238.881 148.598 239.206 148.72C239.534 148.843 239.847 149.01 240.145 149.222C240.447 149.431 240.695 149.7 240.891 150.028C241.087 150.356 241.184 150.759 241.184 151.236C241.184 151.786 241.04 152.283 240.752 152.727C240.467 153.171 240.049 153.524 239.499 153.786C238.952 154.048 238.288 154.179 237.505 154.179C236.776 154.179 236.145 154.061 235.611 153.826C235.081 153.591 234.663 153.263 234.358 152.842C234.057 152.421 233.886 151.932 233.846 151.375H235.119C235.152 151.759 235.281 152.078 235.507 152.33C235.735 152.578 236.024 152.764 236.372 152.886C236.723 153.006 237.101 153.065 237.505 153.065C237.976 153.065 238.399 152.989 238.773 152.837C239.148 152.681 239.444 152.465 239.663 152.19C239.882 151.912 239.991 151.587 239.991 151.216C239.991 150.878 239.897 150.603 239.708 150.391C239.519 150.179 239.27 150.006 238.962 149.874C238.654 149.741 238.321 149.625 237.963 149.526L236.71 149.168C235.914 148.939 235.285 148.612 234.821 148.188C234.357 147.764 234.125 147.209 234.125 146.523C234.125 145.953 234.279 145.455 234.587 145.031C234.899 144.604 235.316 144.272 235.84 144.037C236.367 143.798 236.955 143.679 237.605 143.679C238.261 143.679 238.844 143.797 239.355 144.032C239.865 144.264 240.27 144.582 240.568 144.987C240.869 145.391 241.029 145.85 241.045 146.364H239.852ZM249.893 143.818H251.126V150.56C251.126 151.256 250.962 151.877 250.634 152.424C250.309 152.968 249.85 153.397 249.257 153.712C248.664 154.023 247.968 154.179 247.169 154.179C246.37 154.179 245.674 154.023 245.081 153.712C244.488 153.397 244.027 152.968 243.699 152.424C243.374 151.877 243.211 151.256 243.211 150.56V143.818H244.444V150.46C244.444 150.957 244.554 151.4 244.773 151.788C244.991 152.172 245.303 152.475 245.707 152.697C246.115 152.916 246.602 153.026 247.169 153.026C247.736 153.026 248.223 152.916 248.631 152.697C249.038 152.475 249.35 152.172 249.565 151.788C249.784 151.4 249.893 150.957 249.893 150.46V143.818ZM261.782 147H260.549C260.476 146.645 260.348 146.334 260.166 146.065C259.987 145.797 259.768 145.571 259.51 145.389C259.254 145.204 258.971 145.064 258.659 144.972C258.348 144.879 258.023 144.832 257.685 144.832C257.069 144.832 256.51 144.988 256.01 145.3C255.512 145.611 255.116 146.07 254.821 146.677C254.53 147.283 254.384 148.027 254.384 148.909C254.384 149.791 254.53 150.535 254.821 151.141C255.116 151.748 255.512 152.207 256.01 152.518C256.51 152.83 257.069 152.986 257.685 152.986C258.023 152.986 258.348 152.939 258.659 152.847C258.971 152.754 259.254 152.616 259.51 152.434C259.768 152.248 259.987 152.021 260.166 151.753C260.348 151.481 260.476 151.17 260.549 150.818H261.782C261.689 151.339 261.52 151.804 261.275 152.215C261.029 152.626 260.724 152.976 260.36 153.264C259.995 153.549 259.586 153.766 259.132 153.915C258.681 154.065 258.199 154.139 257.685 154.139C256.817 154.139 256.044 153.927 255.368 153.503C254.692 153.079 254.16 152.475 253.772 151.693C253.385 150.911 253.191 149.983 253.191 148.909C253.191 147.835 253.385 146.907 253.772 146.125C254.16 145.343 254.692 144.74 255.368 144.315C256.044 143.891 256.817 143.679 257.685 143.679C258.199 143.679 258.681 143.754 259.132 143.903C259.586 144.052 259.995 144.271 260.36 144.559C260.724 144.844 261.029 145.192 261.275 145.603C261.52 146.011 261.689 146.476 261.782 147ZM271.967 147H270.734C270.661 146.645 270.534 146.334 270.351 146.065C270.172 145.797 269.954 145.571 269.695 145.389C269.44 145.204 269.157 145.064 268.845 144.972C268.533 144.879 268.209 144.832 267.871 144.832C267.254 144.832 266.696 144.988 266.195 145.3C265.698 145.611 265.302 146.07 265.007 146.677C264.715 147.283 264.569 148.027 264.569 148.909C264.569 149.791 264.715 150.535 265.007 151.141C265.302 151.748 265.698 152.207 266.195 152.518C266.696 152.83 267.254 152.986 267.871 152.986C268.209 152.986 268.533 152.939 268.845 152.847C269.157 152.754 269.44 152.616 269.695 152.434C269.954 152.248 270.172 152.021 270.351 151.753C270.534 151.481 270.661 151.17 270.734 150.818H271.967C271.874 151.339 271.705 151.804 271.46 152.215C271.215 152.626 270.91 152.976 270.545 153.264C270.181 153.549 269.771 153.766 269.317 153.915C268.867 154.065 268.384 154.139 267.871 154.139C267.002 154.139 266.23 153.927 265.554 153.503C264.878 153.079 264.346 152.475 263.958 151.693C263.57 150.911 263.376 149.983 263.376 148.909C263.376 147.835 263.57 146.907 263.958 146.125C264.346 145.343 264.878 144.74 265.554 144.315C266.23 143.891 267.002 143.679 267.871 143.679C268.384 143.679 268.867 143.754 269.317 143.903C269.771 144.052 270.181 144.271 270.545 144.559C270.91 144.844 271.215 145.192 271.46 145.603C271.705 146.011 271.874 146.476 271.967 147ZM273.96 154V143.818H280.104V144.912H275.192V148.352H279.786V149.446H275.192V152.906H280.184V154H273.96ZM287.895 146.364C287.835 145.86 287.593 145.469 287.169 145.19C286.745 144.912 286.224 144.773 285.608 144.773C285.157 144.773 284.763 144.846 284.425 144.991C284.09 145.137 283.828 145.338 283.639 145.593C283.454 145.848 283.361 146.138 283.361 146.463C283.361 146.735 283.425 146.969 283.555 147.164C283.687 147.356 283.856 147.517 284.062 147.646C284.267 147.772 284.483 147.877 284.708 147.96C284.933 148.039 285.141 148.104 285.33 148.153L286.364 148.432C286.629 148.501 286.924 148.598 287.249 148.72C287.577 148.843 287.89 149.01 288.188 149.222C288.49 149.431 288.738 149.7 288.934 150.028C289.129 150.356 289.227 150.759 289.227 151.236C289.227 151.786 289.083 152.283 288.795 152.727C288.51 153.171 288.092 153.524 287.542 153.786C286.995 154.048 286.33 154.179 285.548 154.179C284.819 154.179 284.188 154.061 283.654 153.826C283.124 153.591 282.706 153.263 282.401 152.842C282.1 152.421 281.929 151.932 281.889 151.375H283.162C283.195 151.759 283.324 152.078 283.55 152.33C283.778 152.578 284.067 152.764 284.415 152.886C284.766 153.006 285.144 153.065 285.548 153.065C286.019 153.065 286.442 152.989 286.816 152.837C287.191 152.681 287.487 152.465 287.706 152.19C287.925 151.912 288.034 151.587 288.034 151.216C288.034 150.878 287.94 150.603 287.751 150.391C287.562 150.179 287.313 150.006 287.005 149.874C286.697 149.741 286.364 149.625 286.006 149.526L284.753 149.168C283.957 148.939 283.328 148.612 282.864 148.188C282.4 147.764 282.168 147.209 282.168 146.523C282.168 145.953 282.322 145.455 282.63 145.031C282.942 144.604 283.359 144.272 283.883 144.037C284.41 143.798 284.998 143.679 285.648 143.679C286.304 143.679 286.887 143.797 287.398 144.032C287.908 144.264 288.313 144.582 288.611 144.987C288.912 145.391 289.071 145.85 289.088 146.364H287.895ZM296.823 146.364C296.763 145.86 296.521 145.469 296.097 145.19C295.673 144.912 295.152 144.773 294.536 144.773C294.085 144.773 293.691 144.846 293.352 144.991C293.018 145.137 292.756 145.338 292.567 145.593C292.381 145.848 292.289 146.138 292.289 146.463C292.289 146.735 292.353 146.969 292.482 147.164C292.615 147.356 292.784 147.517 292.99 147.646C293.195 147.772 293.41 147.877 293.636 147.96C293.861 148.039 294.068 148.104 294.257 148.153L295.291 148.432C295.557 148.501 295.852 148.598 296.176 148.72C296.504 148.843 296.818 149.01 297.116 149.222C297.418 149.431 297.666 149.7 297.862 150.028C298.057 150.356 298.155 150.759 298.155 151.236C298.155 151.786 298.011 152.283 297.722 152.727C297.437 153.171 297.02 153.524 296.47 153.786C295.923 154.048 295.258 154.179 294.476 154.179C293.747 154.179 293.115 154.061 292.582 153.826C292.052 153.591 291.634 153.263 291.329 152.842C291.027 152.421 290.857 151.932 290.817 151.375H292.09C292.123 151.759 292.252 152.078 292.477 152.33C292.706 152.578 292.994 152.764 293.343 152.886C293.694 153.006 294.072 153.065 294.476 153.065C294.947 153.065 295.369 152.989 295.744 152.837C296.118 152.681 296.415 152.465 296.634 152.19C296.852 151.912 296.962 151.587 296.962 151.216C296.962 150.878 296.867 150.603 296.678 150.391C296.49 150.179 296.241 150.006 295.933 149.874C295.624 149.741 295.291 149.625 294.933 149.526L293.681 149.168C292.885 148.939 292.255 148.612 291.791 148.188C291.327 147.764 291.095 147.209 291.095 146.523C291.095 145.953 291.249 145.455 291.558 145.031C291.869 144.604 292.287 144.272 292.811 144.037C293.338 143.798 293.926 143.679 294.575 143.679C295.232 143.679 295.815 143.797 296.325 144.032C296.836 144.264 297.24 144.582 297.539 144.987C297.84 145.391 297.999 145.85 298.016 146.364H296.823Z" fill="white"/>
<path d="M276.705 92V86.1818H278.67C279.125 86.1818 279.498 86.2595 279.79 86.4148C280.081 86.5682 280.297 86.7794 280.438 87.0483C280.578 87.3172 280.648 87.6231 280.648 87.9659C280.648 88.3087 280.578 88.6127 280.438 88.8778C280.297 89.143 280.082 89.3513 279.793 89.5028C279.503 89.6525 279.133 89.7273 278.682 89.7273H277.091V89.0909H278.659C278.97 89.0909 279.22 89.0455 279.409 88.9545C279.6 88.8636 279.739 88.7348 279.824 88.5682C279.911 88.3996 279.955 88.1989 279.955 87.9659C279.955 87.733 279.911 87.5294 279.824 87.3551C279.737 87.1809 279.598 87.0464 279.406 86.9517C279.215 86.8551 278.962 86.8068 278.648 86.8068H277.409V92H276.705ZM279.443 89.3864L280.875 92H280.057L278.648 89.3864H279.443ZM281.822 92V86.1818H285.333V86.8068H282.526V88.7727H285.151V89.3977H282.526V91.375H285.379V92H281.822ZM289.785 87.6364C289.751 87.3485 289.612 87.125 289.37 86.9659C289.128 86.8068 288.83 86.7273 288.478 86.7273C288.22 86.7273 287.995 86.7689 287.802 86.8523C287.611 86.9356 287.461 87.0502 287.353 87.196C287.247 87.3419 287.194 87.5076 287.194 87.6932C287.194 87.8485 287.231 87.982 287.305 88.0938C287.38 88.2036 287.477 88.2955 287.594 88.3693C287.712 88.4413 287.835 88.5009 287.964 88.5483C288.093 88.5937 288.211 88.6307 288.319 88.6591L288.91 88.8182C289.061 88.858 289.23 88.9129 289.415 88.983C289.603 89.053 289.782 89.1487 289.952 89.2699C290.125 89.3892 290.267 89.5426 290.379 89.7301C290.49 89.9176 290.546 90.1477 290.546 90.4205C290.546 90.7348 290.464 91.0189 290.299 91.2727C290.136 91.5265 289.897 91.7282 289.583 91.8778C289.271 92.0275 288.891 92.1023 288.444 92.1023C288.027 92.1023 287.666 92.035 287.362 91.9006C287.058 91.7661 286.82 91.5786 286.646 91.3381C286.473 91.0975 286.376 90.8182 286.353 90.5H287.08C287.099 90.7197 287.173 90.9015 287.302 91.0455C287.433 91.1875 287.597 91.2936 287.796 91.3636C287.997 91.4318 288.213 91.4659 288.444 91.4659C288.713 91.4659 288.954 91.4223 289.168 91.3352C289.382 91.2462 289.552 91.1231 289.677 90.9659C289.802 90.8068 289.864 90.6212 289.864 90.4091C289.864 90.2159 289.81 90.0587 289.702 89.9375C289.594 89.8163 289.452 89.7178 289.276 89.642C289.1 89.5663 288.91 89.5 288.705 89.4432L287.989 89.2386C287.535 89.108 287.175 88.9214 286.91 88.679C286.645 88.4366 286.512 88.1193 286.512 87.7273C286.512 87.4015 286.6 87.1174 286.776 86.875C286.954 86.6307 287.193 86.4413 287.492 86.3068C287.793 86.1705 288.129 86.1023 288.501 86.1023C288.876 86.1023 289.209 86.1695 289.501 86.304C289.792 86.4366 290.023 86.6184 290.194 86.8494C290.366 87.0805 290.457 87.3428 290.467 87.6364H289.785ZM295.523 86.1818H296.227V90.0341C296.227 90.4318 296.134 90.7869 295.946 91.0994C295.76 91.41 295.498 91.6553 295.159 91.8352C294.82 92.0133 294.422 92.1023 293.966 92.1023C293.509 92.1023 293.112 92.0133 292.773 91.8352C292.434 91.6553 292.17 91.41 291.983 91.0994C291.797 90.7869 291.705 90.4318 291.705 90.0341V86.1818H292.409V89.9773C292.409 90.2614 292.472 90.5142 292.597 90.7358C292.722 90.9555 292.9 91.1288 293.131 91.2557C293.364 91.3807 293.642 91.4432 293.966 91.4432C294.29 91.4432 294.568 91.3807 294.801 91.2557C295.034 91.1288 295.212 90.9555 295.335 90.7358C295.46 90.5142 295.523 90.2614 295.523 89.9773V86.1818ZM297.634 92V86.1818H298.339V91.375H301.043V92H297.634ZM301.043 86.8068V86.1818H305.406V86.8068H303.577V92H302.872V86.8068H301.043ZM306.053 92H305.314L307.45 86.1818H308.178L310.314 92H309.575L307.837 87.1023H307.791L306.053 92ZM306.325 89.7273H309.303V90.3523H306.325V89.7273ZM310.222 86.8068V86.1818H314.586V86.8068H312.756V92H312.052V86.8068H310.222Z" fill="white"/>
<path d="M172.592 164.997H353" stroke="white" stroke-width="0.472"/>
<ellipse cx="266.5" cy="628" rx="155.5" ry="157" fill="#00788C"/>
<path d="M221.679 540.37C221.679 549.063 228.728 556.108 237.417 556.108C246.111 556.108 253.156 549.063 253.156 540.37C253.156 531.676 246.111 524.631 237.417 524.631C228.728 524.631 221.679 531.676 221.679 540.37ZM205.685 540.37C205.685 522.844 219.892 508.633 237.417 508.633C251.835 508.633 263.986 518.253 267.85 531.42H283.669V521.601H295.337V531.42H300.46V521.601H312.127V531.42H316.539C318.976 531.42 320.951 535.56 320.951 540.67C320.951 545.777 318.976 549.916 316.539 549.916H267.683C263.629 562.77 251.616 572.098 237.417 572.098C219.892 572.102 205.685 557.891 205.685 540.37Z" fill="white"/>
<path d="M352.854 615.444C352.854 615.444 342.937 591.524 320.155 585.179H263.32H206.49C183.703 591.528 173.786 615.444 173.786 615.444L185.811 650.577H190.715C190.715 643.915 195.919 638.512 202.342 638.512C204.8 638.512 207.079 639.308 208.956 640.661C210.572 636.013 214.846 632.69 219.88 632.69C224.897 632.69 229.162 635.993 230.787 640.62C232.709 639.166 235.065 638.3 237.625 638.3C239.847 638.3 241.915 638.958 243.678 640.08C245.441 635.745 249.577 632.694 254.399 632.694C257.982 632.694 261.187 634.384 263.32 637.029C265.453 634.384 268.658 632.694 272.245 632.694C277.068 632.694 281.203 635.745 282.962 640.08C284.729 638.962 286.797 638.3 289.019 638.3C291.575 638.3 293.931 639.166 295.853 640.62C297.482 635.993 301.743 632.69 306.76 632.69C311.794 632.69 316.068 636.013 317.685 640.661C319.565 639.308 321.84 638.512 324.302 638.512C330.721 638.512 335.925 643.915 335.925 650.577H340.829L352.854 615.444Z" fill="white"/>
<path d="M275.703 685.819C275.703 680.623 271.486 676.402 266.286 676.402C261.082 676.402 256.865 680.623 256.865 685.819C256.865 689.748 259.27 693.107 262.686 694.525V703.28H269.881V694.525C273.298 693.107 275.703 689.748 275.703 685.819Z" fill="white"/>
<path d="M288.508 712.701C288.508 714.817 286.391 714.817 286.391 714.817H246.172C244.055 714.817 244.055 712.701 244.055 712.701V672.486C244.055 670.369 246.172 670.37 246.172 670.37H286.391C288.507 670.37 288.508 672.486 288.508 672.486V712.701ZM352.22 656.931H266.708H265.863H180.351L186.49 714.289C186.49 714.289 188.395 728.256 204.267 728.256H265.863H266.708H328.304C344.176 728.256 346.081 714.289 346.081 714.289L352.22 656.931Z" fill="white"/>
<path d="M239.852 597.364C239.792 596.86 239.55 596.469 239.126 596.19C238.702 595.912 238.181 595.773 237.565 595.773C237.114 595.773 236.72 595.846 236.382 595.991C236.047 596.137 235.785 596.338 235.596 596.593C235.411 596.848 235.318 597.138 235.318 597.463C235.318 597.735 235.382 597.969 235.512 598.164C235.644 598.356 235.813 598.517 236.019 598.646C236.224 598.772 236.44 598.877 236.665 598.96C236.891 599.039 237.098 599.104 237.287 599.153L238.321 599.432C238.586 599.501 238.881 599.598 239.206 599.72C239.534 599.843 239.847 600.01 240.145 600.222C240.447 600.431 240.695 600.7 240.891 601.028C241.087 601.356 241.184 601.759 241.184 602.236C241.184 602.786 241.04 603.283 240.752 603.727C240.467 604.171 240.049 604.524 239.499 604.786C238.952 605.048 238.288 605.179 237.505 605.179C236.776 605.179 236.145 605.061 235.611 604.826C235.081 604.591 234.663 604.263 234.358 603.842C234.057 603.421 233.886 602.932 233.846 602.375H235.119C235.152 602.759 235.281 603.078 235.507 603.33C235.735 603.578 236.024 603.764 236.372 603.886C236.723 604.006 237.101 604.065 237.505 604.065C237.976 604.065 238.399 603.989 238.773 603.837C239.148 603.681 239.444 603.465 239.663 603.19C239.882 602.912 239.991 602.587 239.991 602.216C239.991 601.878 239.897 601.603 239.708 601.391C239.519 601.179 239.27 601.006 238.962 600.874C238.654 600.741 238.321 600.625 237.963 600.526L236.71 600.168C235.914 599.939 235.285 599.612 234.821 599.188C234.357 598.764 234.125 598.209 234.125 597.523C234.125 596.953 234.279 596.455 234.587 596.031C234.899 595.604 235.316 595.272 235.84 595.037C236.367 594.798 236.955 594.679 237.605 594.679C238.261 594.679 238.844 594.797 239.355 595.032C239.865 595.264 240.27 595.582 240.568 595.987C240.869 596.391 241.029 596.85 241.045 597.364H239.852ZM249.893 594.818H251.126V601.56C251.126 602.256 250.962 602.877 250.634 603.424C250.309 603.968 249.85 604.397 249.257 604.712C248.664 605.023 247.968 605.179 247.169 605.179C246.37 605.179 245.674 605.023 245.081 604.712C244.488 604.397 244.027 603.968 243.699 603.424C243.374 602.877 243.211 602.256 243.211 601.56V594.818H244.444V601.46C244.444 601.957 244.554 602.4 244.773 602.788C244.991 603.172 245.303 603.475 245.707 603.697C246.115 603.916 246.602 604.026 247.169 604.026C247.736 604.026 248.223 603.916 248.631 603.697C249.038 603.475 249.35 603.172 249.565 602.788C249.784 602.4 249.893 601.957 249.893 601.46V594.818ZM261.782 598H260.549C260.476 597.645 260.348 597.334 260.166 597.065C259.987 596.797 259.768 596.571 259.51 596.389C259.254 596.204 258.971 596.064 258.659 595.972C258.348 595.879 258.023 595.832 257.685 595.832C257.069 595.832 256.51 595.988 256.01 596.3C255.512 596.611 255.116 597.07 254.821 597.677C254.53 598.283 254.384 599.027 254.384 599.909C254.384 600.791 254.53 601.535 254.821 602.141C255.116 602.748 255.512 603.207 256.01 603.518C256.51 603.83 257.069 603.986 257.685 603.986C258.023 603.986 258.348 603.939 258.659 603.847C258.971 603.754 259.254 603.616 259.51 603.434C259.768 603.248 259.987 603.021 260.166 602.753C260.348 602.481 260.476 602.17 260.549 601.818H261.782C261.689 602.339 261.52 602.804 261.275 603.215C261.029 603.626 260.724 603.976 260.36 604.264C259.995 604.549 259.586 604.766 259.132 604.915C258.681 605.065 258.199 605.139 257.685 605.139C256.817 605.139 256.044 604.927 255.368 604.503C254.692 604.079 254.16 603.475 253.772 602.693C253.385 601.911 253.191 600.983 253.191 599.909C253.191 598.835 253.385 597.907 253.772 597.125C254.16 596.343 254.692 595.74 255.368 595.315C256.044 594.891 256.817 594.679 257.685 594.679C258.199 594.679 258.681 594.754 259.132 594.903C259.586 595.052 259.995 595.271 260.36 595.559C260.724 595.844 261.029 596.192 261.275 596.603C261.52 597.011 261.689 597.476 261.782 598ZM271.967 598H270.734C270.661 597.645 270.534 597.334 270.351 597.065C270.172 596.797 269.954 596.571 269.695 596.389C269.44 596.204 269.157 596.064 268.845 595.972C268.533 595.879 268.209 595.832 267.871 595.832C267.254 595.832 266.696 595.988 266.195 596.3C265.698 596.611 265.302 597.07 265.007 597.677C264.715 598.283 264.569 599.027 264.569 599.909C264.569 600.791 264.715 601.535 265.007 602.141C265.302 602.748 265.698 603.207 266.195 603.518C266.696 603.83 267.254 603.986 267.871 603.986C268.209 603.986 268.533 603.939 268.845 603.847C269.157 603.754 269.44 603.616 269.695 603.434C269.954 603.248 270.172 603.021 270.351 602.753C270.534 602.481 270.661 602.17 270.734 601.818H271.967C271.874 602.339 271.705 602.804 271.46 603.215C271.215 603.626 270.91 603.976 270.545 604.264C270.181 604.549 269.771 604.766 269.317 604.915C268.867 605.065 268.384 605.139 267.871 605.139C267.002 605.139 266.23 604.927 265.554 604.503C264.878 604.079 264.346 603.475 263.958 602.693C263.57 601.911 263.376 600.983 263.376 599.909C263.376 598.835 263.57 597.907 263.958 597.125C264.346 596.343 264.878 595.74 265.554 595.315C266.23 594.891 267.002 594.679 267.871 594.679C268.384 594.679 268.867 594.754 269.317 594.903C269.771 595.052 270.181 595.271 270.545 595.559C270.91 595.844 271.215 596.192 271.46 596.603C271.705 597.011 271.874 597.476 271.967 598ZM273.96 605V594.818H280.104V595.912H275.192V599.352H279.786V600.446H275.192V603.906H280.184V605H273.96ZM287.895 597.364C287.835 596.86 287.593 596.469 287.169 596.19C286.745 595.912 286.224 595.773 285.608 595.773C285.157 595.773 284.763 595.846 284.425 595.991C284.09 596.137 283.828 596.338 283.639 596.593C283.454 596.848 283.361 597.138 283.361 597.463C283.361 597.735 283.425 597.969 283.555 598.164C283.687 598.356 283.856 598.517 284.062 598.646C284.267 598.772 284.483 598.877 284.708 598.96C284.933 599.039 285.141 599.104 285.33 599.153L286.364 599.432C286.629 599.501 286.924 599.598 287.249 599.72C287.577 599.843 287.89 600.01 288.188 600.222C288.49 600.431 288.738 600.7 288.934 601.028C289.129 601.356 289.227 601.759 289.227 602.236C289.227 602.786 289.083 603.283 288.795 603.727C288.51 604.171 288.092 604.524 287.542 604.786C286.995 605.048 286.33 605.179 285.548 605.179C284.819 605.179 284.188 605.061 283.654 604.826C283.124 604.591 282.706 604.263 282.401 603.842C282.1 603.421 281.929 602.932 281.889 602.375H283.162C283.195 602.759 283.324 603.078 283.55 603.33C283.778 603.578 284.067 603.764 284.415 603.886C284.766 604.006 285.144 604.065 285.548 604.065C286.019 604.065 286.442 603.989 286.816 603.837C287.191 603.681 287.487 603.465 287.706 603.19C287.925 602.912 288.034 602.587 288.034 602.216C288.034 601.878 287.94 601.603 287.751 601.391C287.562 601.179 287.313 601.006 287.005 600.874C286.697 600.741 286.364 600.625 286.006 600.526L284.753 600.168C283.957 599.939 283.328 599.612 282.864 599.188C282.4 598.764 282.168 598.209 282.168 597.523C282.168 596.953 282.322 596.455 282.63 596.031C282.942 595.604 283.359 595.272 283.883 595.037C284.41 594.798 284.998 594.679 285.648 594.679C286.304 594.679 286.887 594.797 287.398 595.032C287.908 595.264 288.313 595.582 288.611 595.987C288.912 596.391 289.071 596.85 289.088 597.364H287.895ZM296.823 597.364C296.763 596.86 296.521 596.469 296.097 596.19C295.673 595.912 295.152 595.773 294.536 595.773C294.085 595.773 293.691 595.846 293.352 595.991C293.018 596.137 292.756 596.338 292.567 596.593C292.381 596.848 292.289 597.138 292.289 597.463C292.289 597.735 292.353 597.969 292.482 598.164C292.615 598.356 292.784 598.517 292.99 598.646C293.195 598.772 293.41 598.877 293.636 598.96C293.861 599.039 294.068 599.104 294.257 599.153L295.291 599.432C295.557 599.501 295.852 599.598 296.176 599.72C296.504 599.843 296.818 600.01 297.116 600.222C297.418 600.431 297.666 600.7 297.862 601.028C298.057 601.356 298.155 601.759 298.155 602.236C298.155 602.786 298.011 603.283 297.722 603.727C297.437 604.171 297.02 604.524 296.47 604.786C295.923 605.048 295.258 605.179 294.476 605.179C293.747 605.179 293.115 605.061 292.582 604.826C292.052 604.591 291.634 604.263 291.329 603.842C291.027 603.421 290.857 602.932 290.817 602.375H292.09C292.123 602.759 292.252 603.078 292.477 603.33C292.706 603.578 292.994 603.764 293.343 603.886C293.694 604.006 294.072 604.065 294.476 604.065C294.947 604.065 295.369 603.989 295.744 603.837C296.118 603.681 296.415 603.465 296.634 603.19C296.852 602.912 296.962 602.587 296.962 602.216C296.962 601.878 296.867 601.603 296.678 601.391C296.49 601.179 296.241 601.006 295.933 600.874C295.624 600.741 295.291 600.625 294.933 600.526L293.681 600.168C292.885 599.939 292.255 599.612 291.791 599.188C291.327 598.764 291.095 598.209 291.095 597.523C291.095 596.953 291.249 596.455 291.558 596.031C291.869 595.604 292.287 595.272 292.811 595.037C293.338 594.798 293.926 594.679 294.575 594.679C295.232 594.679 295.815 594.797 296.325 595.032C296.836 595.264 297.24 595.582 297.539 595.987C297.84 596.391 297.999 596.85 298.016 597.364H296.823Z" fill="#00788C"/>
<path d="M276.705 543V537.182H278.67C279.125 537.182 279.498 537.259 279.79 537.415C280.081 537.568 280.297 537.779 280.438 538.048C280.578 538.317 280.648 538.623 280.648 538.966C280.648 539.309 280.578 539.613 280.438 539.878C280.297 540.143 280.082 540.351 279.793 540.503C279.503 540.652 279.133 540.727 278.682 540.727H277.091V540.091H278.659C278.97 540.091 279.22 540.045 279.409 539.955C279.6 539.864 279.739 539.735 279.824 539.568C279.911 539.4 279.955 539.199 279.955 538.966C279.955 538.733 279.911 538.529 279.824 538.355C279.737 538.181 279.598 538.046 279.406 537.952C279.215 537.855 278.962 537.807 278.648 537.807H277.409V543H276.705ZM279.443 540.386L280.875 543H280.057L278.648 540.386H279.443ZM281.822 543V537.182H285.333V537.807H282.526V539.773H285.151V540.398H282.526V542.375H285.379V543H281.822ZM289.785 538.636C289.751 538.348 289.612 538.125 289.37 537.966C289.128 537.807 288.83 537.727 288.478 537.727C288.22 537.727 287.995 537.769 287.802 537.852C287.611 537.936 287.461 538.05 287.353 538.196C287.247 538.342 287.194 538.508 287.194 538.693C287.194 538.848 287.231 538.982 287.305 539.094C287.38 539.204 287.477 539.295 287.594 539.369C287.712 539.441 287.835 539.501 287.964 539.548C288.093 539.594 288.211 539.631 288.319 539.659L288.91 539.818C289.061 539.858 289.23 539.913 289.415 539.983C289.603 540.053 289.782 540.149 289.952 540.27C290.125 540.389 290.267 540.543 290.379 540.73C290.49 540.918 290.546 541.148 290.546 541.42C290.546 541.735 290.464 542.019 290.299 542.273C290.136 542.527 289.897 542.728 289.583 542.878C289.271 543.027 288.891 543.102 288.444 543.102C288.027 543.102 287.666 543.035 287.362 542.901C287.058 542.766 286.82 542.579 286.646 542.338C286.473 542.098 286.376 541.818 286.353 541.5H287.08C287.099 541.72 287.173 541.902 287.302 542.045C287.433 542.187 287.597 542.294 287.796 542.364C287.997 542.432 288.213 542.466 288.444 542.466C288.713 542.466 288.954 542.422 289.168 542.335C289.382 542.246 289.552 542.123 289.677 541.966C289.802 541.807 289.864 541.621 289.864 541.409C289.864 541.216 289.81 541.059 289.702 540.938C289.594 540.816 289.452 540.718 289.276 540.642C289.1 540.566 288.91 540.5 288.705 540.443L287.989 540.239C287.535 540.108 287.175 539.921 286.91 539.679C286.645 539.437 286.512 539.119 286.512 538.727C286.512 538.402 286.6 538.117 286.776 537.875C286.954 537.631 287.193 537.441 287.492 537.307C287.793 537.17 288.129 537.102 288.501 537.102C288.876 537.102 289.209 537.17 289.501 537.304C289.792 537.437 290.023 537.618 290.194 537.849C290.366 538.08 290.457 538.343 290.467 538.636H289.785ZM295.523 537.182H296.227V541.034C296.227 541.432 296.134 541.787 295.946 542.099C295.76 542.41 295.498 542.655 295.159 542.835C294.82 543.013 294.422 543.102 293.966 543.102C293.509 543.102 293.112 543.013 292.773 542.835C292.434 542.655 292.17 542.41 291.983 542.099C291.797 541.787 291.705 541.432 291.705 541.034V537.182H292.409V540.977C292.409 541.261 292.472 541.514 292.597 541.736C292.722 541.955 292.9 542.129 293.131 542.256C293.364 542.381 293.642 542.443 293.966 542.443C294.29 542.443 294.568 542.381 294.801 542.256C295.034 542.129 295.212 541.955 295.335 541.736C295.46 541.514 295.523 541.261 295.523 540.977V537.182ZM297.634 543V537.182H298.339V542.375H301.043V543H297.634ZM301.043 537.807V537.182H305.406V537.807H303.577V543H302.872V537.807H301.043ZM306.053 543H305.314L307.45 537.182H308.178L310.314 543H309.575L307.837 538.102H307.791L306.053 543ZM306.325 540.727H309.303V541.352H306.325V540.727ZM310.222 537.807V537.182H314.586V537.807H312.756V543H312.052V537.807H310.222Z" fill="#00788C"/>
<path d="M172.592 615.997H353" stroke="#00788C" stroke-width="0.472"/>
<rect x="0.5" y="0.5" width="532" height="1021" rx="4.5" stroke="#9747FF" stroke-dasharray="10 5"/>
</svg>
