<?xml version="1.0" encoding="utf-8"?>
<!-- Generator: Adobe Illustrator 16.0.0, SVG Export Plug-In . SVG Version: 6.00 Build 0)  -->
<!DOCTYPE svg PUBLIC "-//W3C//DTD SVG 1.1//EN" "http://www.w3.org/Graphics/SVG/1.1/DTD/svg11.dtd">
<svg version="1.1" id="Layer_1" xmlns="http://www.w3.org/2000/svg" xmlns:xlink="http://www.w3.org/1999/xlink" x="0px" y="0px"
	 width="50px" height="27.529px" viewBox="0 0 50 27.529" enable-background="new 0 0 50 27.529" xml:space="preserve">
<path fill="#FFFFFF" d="M6.938,13.767c0,3.771,3.058,6.827,6.827,6.827c3.771,0,6.828-3.057,6.828-6.827
	c0-3.771-3.056-6.827-6.828-6.827C9.995,6.939,6.938,9.995,6.938,13.767z M0,13.767C0,6.164,6.163,0,13.764,0
	c6.254,0,11.525,4.173,13.202,9.884h6.861V5.625h5.062v4.259h2.223V5.625h5.061v4.259h1.914c1.058,0,1.914,1.796,1.914,4.013
	c0,2.215-0.856,4.01-1.914,4.01H26.894c-1.759,5.576-6.97,9.622-13.129,9.622C6.163,27.531,0,21.367,0,13.767z"/>
</svg>
