<?xml version="1.0" encoding="utf-8"?>
<!-- Generator: Adobe Illustrator 16.0.0, SVG Export Plug-In . SVG Version: 6.00 Build 0)  -->
<!DOCTYPE svg PUBLIC "-//W3C//DTD SVG 1.1//EN" "http://www.w3.org/Graphics/SVG/1.1/DTD/svg11.dtd">
<svg version="1.1" id="Layer_1" xmlns="http://www.w3.org/2000/svg" xmlns:xlink="http://www.w3.org/1999/xlink" x="0px" y="0px"
	 width="50px" height="27.529px" viewBox="0 0 50 27.529" enable-background="new 0 0 50 27.529" xml:space="preserve">
<path fill="#FFFFFF" d="M43.063,13.729c-0.006-3.771-3.07-6.821-6.839-6.814c-3.771,0.007-6.822,3.069-6.815,6.838
	c0.007,3.771,3.068,6.821,6.84,6.814C40.019,20.562,43.069,17.502,43.063,13.729z M50.001,13.717
	c0.014,7.604-6.139,13.778-13.739,13.792c-6.254,0.012-11.533-4.151-13.22-9.859l-6.861,0.012l0.008,4.259l-5.062,0.01l-0.008-4.259
	l-2.223,0.004l0.008,4.259l-5.062,0.009l-0.008-4.259l-1.914,0.003C0.863,17.688,0.004,15.893,0,13.677
	c-0.004-2.215,0.849-4.011,1.907-4.013l21.192-0.038c1.75-5.579,6.954-9.635,13.112-9.646C43.813-0.036,49.987,6.117,50.001,13.717z
	"/>
</svg>
