<?xml version="1.0" encoding="utf-8"?>
<!-- Generator: Adobe Illustrator 16.0.0, SVG Export Plug-In . SVG Version: 6.00 Build 0)  -->
<!DOCTYPE svg PUBLIC "-//W3C//DTD SVG 1.1//EN" "http://www.w3.org/Graphics/SVG/1.1/DTD/svg11.dtd">
<svg version="1.1" id="Layer_1" xmlns="http://www.w3.org/2000/svg" xmlns:xlink="http://www.w3.org/1999/xlink" x="0px" y="0px"
	 width="73px" height="73px" viewBox="0 0 73 73" enable-background="new 0 0 73 73" xml:space="preserve">
<circle fill="#FFFFFF" stroke="#00758D" stroke-width="0.484" cx="36.638" cy="37.231" r="36.037"/>
<g>
	<path fill="#B0AEAF" d="M15.733,39.455c-0.139,0.186-0.102,0.449,0.082,0.588l9.597,7.23c0.185,0.141,0.448,0.104,0.587-0.082
		l7.232-9.599c0.139-0.184,0.102-0.446-0.083-0.586l-9.596-7.232c-0.185-0.14-0.448-0.103-0.587,0.082L15.733,39.455z"/>
	<path fill="#D2D0D0" d="M17.77,26.796c-0.22,0.072-0.341,0.309-0.269,0.528l3.713,11.427c0.072,0.224,0.308,0.342,0.528,0.271
		l11.429-3.713c0.22-0.071,0.34-0.309,0.269-0.528l-3.714-11.428c-0.071-0.22-0.308-0.341-0.528-0.269L17.77,26.796z"/>
	<path fill="#C8E3E7" d="M34.537,33.48c0.224,0.06,0.453-0.073,0.513-0.297l3.11-11.606c0.061-0.224-0.072-0.454-0.297-0.514
		l-11.606-3.11c-0.223-0.06-0.453,0.073-0.513,0.297l-3.11,11.607c-0.06,0.223,0.072,0.452,0.296,0.513L34.537,33.48z"/>
	<path fill="#8EC7CF" d="M37.611,15.341c0.172-0.155,0.438-0.141,0.592,0.031l8.041,8.93c0.154,0.172,0.143,0.438-0.03,0.592
		l-8.931,8.04c-0.172,0.155-0.438,0.141-0.591-0.031l-8.041-8.929c-0.155-0.173-0.141-0.438,0.031-0.592L37.611,15.341z"/>
	<path fill="#929091" d="M23.683,53.225c-0.23,0.027-0.439-0.135-0.467-0.365l-1.465-11.928c-0.028-0.229,0.136-0.438,0.365-0.467
		l11.927-1.463c0.23-0.029,0.439,0.135,0.467,0.365l1.465,11.926c0.028,0.229-0.135,0.438-0.365,0.467L23.683,53.225z"/>
	<path fill="#787678" d="M35.664,57.791c-0.172,0.154-0.437,0.141-0.592-0.031l-8.041-8.932c-0.154-0.172-0.141-0.436,0.031-0.592
		l8.93-8.039c0.172-0.154,0.438-0.141,0.592,0.031l8.041,8.928c0.154,0.174,0.141,0.439-0.031,0.594L35.664,57.791z"/>
	<path fill="#4BACB9" d="M49.592,19.907c0.23-0.028,0.439,0.135,0.469,0.365l1.465,11.927c0.027,0.23-0.137,0.439-0.364,0.467
		L39.232,34.13c-0.229,0.029-0.438-0.135-0.467-0.364L37.301,21.84c-0.027-0.23,0.135-0.439,0.365-0.468L49.592,19.907z"/>
	<path fill="#0090A3" d="M57.542,33.676c0.14-0.186,0.103-0.448-0.082-0.587l-9.597-7.232c-0.187-0.139-0.448-0.103-0.588,0.083
		l-7.231,9.597c-0.14,0.185-0.103,0.447,0.083,0.587l9.596,7.231c0.187,0.14,0.448,0.103,0.588-0.082L57.542,33.676z"/>
	<path fill="#00758D" d="M55.506,46.334c0.221-0.072,0.342-0.307,0.27-0.527l-3.713-11.428c-0.071-0.221-0.309-0.341-0.528-0.27
		l-11.429,3.713c-0.221,0.07-0.34,0.309-0.27,0.527l3.714,11.43c0.071,0.219,0.308,0.34,0.528,0.268L55.506,46.334z"/>
	<path fill="#5F6163" d="M38.738,39.652c-0.225-0.062-0.453,0.072-0.514,0.295l-3.109,11.607c-0.06,0.225,0.072,0.452,0.296,0.514
		l11.606,3.108c0.225,0.062,0.453-0.071,0.514-0.297l3.109-11.604c0.061-0.226-0.072-0.453-0.295-0.515L38.738,39.652z"/>
</g>
</svg>
