<?xml version="1.0" encoding="utf-8"?>
<!-- Generator: Adobe Illustrator 16.0.0, SVG Export Plug-In . SVG Version: 6.00 Build 0)  -->
<!DOCTYPE svg PUBLIC "-//W3C//DTD SVG 1.1//EN" "http://www.w3.org/Graphics/SVG/1.1/DTD/svg11.dtd">
<svg version="1.1" id="Layer_1" xmlns="http://www.w3.org/2000/svg" xmlns:xlink="http://www.w3.org/1999/xlink" x="0px" y="0px"
	 width="72.074px" height="105.201px" viewBox="0 0 72.074 105.201" enable-background="new 0 0 72.074 105.201"
	 xml:space="preserve">
<path fill="#FFFFFF" d="M35.522,84.766c19.902,0,36.037-16.135,36.037-36.037c0-19.903-16.135-36.037-36.037-36.037
	c-19.903,0-36.037,16.134-36.037,36.037C-0.514,68.631,15.62,84.766,35.522,84.766L35.522,84.766z"/>
<line fill="none" stroke="#FFFFFF" stroke-width="0.5" x1="35.523" y1="91.435" x2="35.523" y2="105.201"/>
<path fill="#FFFFFF" d="M35.523,92.435c0.552,0,1-0.447,1-1c0-0.552-0.448-1-1-1c-0.553,0-1,0.448-1,1
	C34.523,91.988,34.97,92.435,35.523,92.435L35.523,92.435z"/>
<g>
	<path fill="#FFFFFF" d="M30.614,1.12v4.527H30.02V2.035l-1.444,3.612h-0.529l-1.45-3.599v3.599h-0.594V1.12h0.712l1.607,3.802
		l1.581-3.802H30.614z"/>
	<path fill="#FFFFFF" d="M34.84,3.981h-2.868c0.013,0.409,0.129,0.716,0.35,0.921c0.22,0.205,0.489,0.307,0.807,0.307
		c0.287,0,0.528-0.073,0.722-0.219c0.194-0.146,0.313-0.341,0.356-0.585h0.634c-0.044,0.249-0.141,0.47-0.291,0.667
		c-0.15,0.196-0.345,0.348-0.584,0.457s-0.509,0.164-0.81,0.164c-0.344,0-0.649-0.074-0.915-0.222s-0.473-0.36-0.624-0.637
		c-0.15-0.277-0.226-0.602-0.226-0.977s0.075-0.701,0.226-0.98s0.358-0.492,0.624-0.64s0.571-0.222,0.915-0.222
		c0.349,0,0.652,0.074,0.911,0.222c0.259,0.148,0.458,0.346,0.595,0.594c0.137,0.249,0.206,0.523,0.206,0.823
		C34.866,3.781,34.857,3.89,34.84,3.981z M34.134,3.028c-0.1-0.179-0.237-0.312-0.412-0.398c-0.174-0.087-0.364-0.131-0.568-0.131
		c-0.327,0-0.601,0.101-0.823,0.304s-0.342,0.5-0.359,0.892h2.292C34.278,3.428,34.234,3.206,34.134,3.028z"/>
	<path fill="#FFFFFF" d="M37.998,2.276c0.242,0.174,0.41,0.407,0.506,0.699V0.813H39.1v4.833h-0.596V4.732
		c-0.096,0.292-0.264,0.525-0.506,0.699c-0.242,0.174-0.537,0.261-0.885,0.261c-0.318,0-0.602-0.074-0.85-0.222
		s-0.443-0.36-0.584-0.637c-0.142-0.277-0.212-0.602-0.212-0.977s0.071-0.701,0.212-0.98s0.336-0.492,0.584-0.64
		s0.531-0.222,0.85-0.222C37.461,2.015,37.756,2.103,37.998,2.276z M36.404,2.894c-0.221,0.233-0.33,0.554-0.33,0.964
		c0,0.409,0.109,0.73,0.33,0.963s0.514,0.349,0.879,0.349c0.234,0,0.445-0.054,0.631-0.163c0.184-0.109,0.328-0.262,0.434-0.46
		c0.104-0.198,0.156-0.428,0.156-0.689c0-0.262-0.053-0.492-0.156-0.692c-0.105-0.201-0.25-0.354-0.434-0.461
		c-0.186-0.106-0.396-0.16-0.631-0.16C36.918,2.544,36.625,2.661,36.404,2.894z"/>
	<path fill="#FFFFFF" d="M40.053,0.745c0.074-0.067,0.172-0.101,0.294-0.101s0.22,0.034,0.294,0.101
		c0.074,0.068,0.111,0.156,0.111,0.265s-0.037,0.197-0.111,0.265s-0.172,0.101-0.294,0.101s-0.22-0.034-0.294-0.101
		s-0.111-0.156-0.111-0.265S39.979,0.813,40.053,0.745z M40.641,2.061v3.586h-0.595V2.061H40.641z"/>
	<path fill="#FFFFFF" d="M43.949,2.276c0.241,0.174,0.41,0.407,0.506,0.699V2.061h0.595v3.586h-0.595V4.732
		c-0.096,0.292-0.265,0.525-0.506,0.699c-0.242,0.174-0.537,0.261-0.886,0.261c-0.317,0-0.601-0.074-0.849-0.222
		s-0.443-0.36-0.585-0.637c-0.142-0.277-0.212-0.602-0.212-0.977s0.07-0.701,0.212-0.98s0.337-0.492,0.585-0.64
		s0.531-0.222,0.849-0.222C43.412,2.015,43.707,2.103,43.949,2.276z M42.355,2.894c-0.221,0.233-0.33,0.554-0.33,0.964
		c0,0.409,0.109,0.73,0.33,0.963c0.22,0.233,0.513,0.349,0.878,0.349c0.235,0,0.445-0.054,0.631-0.163
		c0.185-0.109,0.329-0.262,0.434-0.46s0.157-0.428,0.157-0.689c0-0.262-0.053-0.492-0.157-0.692
		c-0.104-0.201-0.249-0.354-0.434-0.461c-0.186-0.106-0.396-0.16-0.631-0.16C42.868,2.544,42.575,2.661,42.355,2.894z"/>
</g>
<g>
	<path fill="#A6A8AC" d="M39.757,31.154C37.985,31.403,36.75,33.04,37,34.811l0.986,7.021c0.249,1.771,1.887,3.004,3.657,2.756
		c0,0,1.772-1.795,3.274-2.006c1.5-0.211,3.746,1.02,3.746,1.02c1.771-0.249,3.006-1.887,2.756-3.658l-0.986-7.021
		c-0.249-1.771-1.886-3.004-3.657-2.755L39.757,31.154z"/>
	<path fill="#929497" d="M49.801,37.618c-1.391-1.125-3.43-0.912-4.555,0.479l-4.463,5.51c-1.125,1.391-0.91,3.43,0.479,4.555
		c0,0,2.521,0.074,3.698,1.027c1.179,0.955,1.812,3.436,1.812,3.436c1.39,1.125,3.429,0.91,4.556-0.479l4.461-5.512
		c1.125-1.389,0.912-3.428-0.479-4.555L49.801,37.618z"/>
	<path fill="#6E6F71" d="M52.824,47.999c-0.492-1.719-2.285-2.713-4.006-2.22l-6.814,1.954c-1.719,0.494-2.713,2.287-2.221,4.006
		c0,0,2.023,1.506,2.441,2.963s-0.486,3.854-0.486,3.854c0.492,1.719,2.285,2.713,4.006,2.221l6.814-1.955
		c1.719-0.494,2.713-2.287,2.221-4.006L52.824,47.999z"/>
	<path fill="#4E4E50" d="M49.961,57.625c0.582-1.691-0.317-3.535-2.008-4.117L41.248,51.2c-1.689-0.582-3.532,0.316-4.115,2.008
		c0,0,0.793,2.396,0.299,3.828c-0.493,1.434-2.606,2.875-2.606,2.875c-0.583,1.691,0.316,3.535,2.008,4.117l6.703,2.309
		c1.689,0.582,3.533-0.316,4.115-2.008L49.961,57.625z"/>
	<path fill="#231F20" d="M41.828,62.831c1.35-1.174,1.492-3.219,0.318-4.568l-4.65-5.352c-1.174-1.35-3.219-1.492-4.568-0.32
		c0,0-0.51,2.473-1.655,3.467s-3.697,1.186-3.697,1.186c-1.35,1.174-1.493,3.219-0.319,4.57l4.651,5.35
		c1.174,1.352,3.219,1.492,4.568,0.32L41.828,62.831z"/>
	<path fill="#808184" d="M31.804,63.692c1.776-0.219,3.038-1.834,2.82-3.609l-0.865-7.037c-0.218-1.773-1.834-3.037-3.61-2.818
		c0,0-1.804,1.762-3.309,1.947c-1.504,0.186-3.728-1.084-3.728-1.084c-1.775,0.219-3.038,1.834-2.819,3.607l0.864,7.037
		c0.218,1.775,1.833,3.039,3.609,2.82L31.804,63.692z"/>
	<path fill="#A6A8AC" d="M21.122,56.633c1.37,1.148,3.413,0.971,4.562-0.398l4.558-5.432c1.149-1.369,0.971-3.412-0.399-4.563
		c0,0-2.52-0.117-3.681-1.093s-1.75-3.465-1.75-3.465c-1.37-1.149-3.413-0.972-4.562,0.399l-4.558,5.432
		c-1.149,1.369-0.971,3.412,0.399,4.563L21.122,56.633z"/>
	<path fill="#E7E7E7" d="M18.296,47.413c0.523,1.711,2.333,2.674,4.044,2.15l6.78-2.072c1.71-0.523,2.672-2.332,2.149-4.044
		c0,0-2.05-1.471-2.493-2.921c-0.442-1.449,0.42-3.859,0.42-3.859c-0.522-1.709-2.333-2.672-4.043-2.149l-6.78,2.073
		c-1.71,0.522-2.673,2.332-2.15,4.043L18.296,47.413z"/>
	<path fill="#DBDCDD" d="M21.593,38.323c-0.433,1.735,0.624,3.493,2.359,3.926l6.879,1.715c1.736,0.434,3.493-0.623,3.926-2.358
		c0,0-1-2.315-0.633-3.787c0.367-1.471,2.348-3.092,2.348-3.092c0.433-1.735-0.623-3.493-2.358-3.926l-6.88-1.715
		c-1.735-0.433-3.493,0.623-3.926,2.358L21.593,38.323z"/>
	<path fill="#6FB9C4" d="M30.059,31.334c-1.391,1.125-1.604,3.165-0.479,4.555l4.461,5.51c1.126,1.391,3.165,1.604,4.555,0.479
		c0,0,0.597-2.451,1.773-3.404c1.179-0.954,3.735-1.057,3.735-1.057c1.392-1.125,1.604-3.164,0.479-4.555l-4.463-5.51
		c-1.125-1.39-3.164-1.604-4.554-0.479L30.059,31.334z"/>
</g>
</svg>
