<?xml version="1.0" encoding="utf-8"?>
<!-- Generator: Adobe Illustrator 16.0.0, SVG Export Plug-In . SVG Version: 6.00 Build 0)  -->
<!DOCTYPE svg PUBLIC "-//W3C//DTD SVG 1.1//EN" "http://www.w3.org/Graphics/SVG/1.1/DTD/svg11.dtd">
<svg version="1.1" id="Layer_1" xmlns="http://www.w3.org/2000/svg" xmlns:xlink="http://www.w3.org/1999/xlink" x="0px" y="0px"
	 width="73px" height="73px" viewBox="0 0 73 73" enable-background="new 0 0 73 73" xml:space="preserve">
<circle fill="#FFFFFF" stroke="#00758D" stroke-width="0.484" cx="36.964" cy="36.963" r="36.037"/>
<g>
	<path fill="#A6A8AB" d="M40.198,20.904c-1.771,0.249-3.006,1.886-2.757,3.657l0.987,7.021c0.249,1.771,1.886,3.005,3.657,2.756
		c0,0,1.773-1.794,3.274-2.005s3.746,1.019,3.746,1.019c1.771-0.249,3.006-1.887,2.757-3.658l-0.987-7.021
		c-0.249-1.771-1.886-3.005-3.657-2.756L40.198,20.904z"/>
	<path fill="#929497" d="M50.242,27.367c-1.39-1.125-3.429-0.911-4.555,0.479l-4.462,5.51c-1.125,1.39-0.911,3.43,0.479,4.555
		c0,0,2.521,0.073,3.699,1.027s1.811,3.435,1.811,3.435c1.39,1.126,3.429,0.911,4.555-0.479l4.462-5.51
		c1.125-1.39,0.911-3.429-0.479-4.555L50.242,27.367z"/>
	<path fill="#6D6E70" d="M53.266,37.749c-0.493-1.719-2.286-2.713-4.006-2.22l-6.814,1.954c-1.72,0.493-2.714,2.286-2.221,4.006
		c0,0,2.023,1.506,2.441,2.963s-0.487,3.852-0.487,3.852c0.493,1.72,2.286,2.714,4.006,2.221L53,48.57
		c1.719-0.493,2.713-2.286,2.22-4.006L53.266,37.749z"/>
	<path fill="#4D4D4F" d="M50.402,47.375c0.582-1.691-0.317-3.534-2.008-4.116L41.69,40.95c-1.69-0.582-3.533,0.316-4.116,2.008
		c0,0,0.794,2.395,0.3,3.828c-0.493,1.433-2.607,2.875-2.607,2.875c-0.583,1.691,0.316,3.534,2.008,4.117l6.703,2.308
		c1.69,0.582,3.534-0.316,4.116-2.008L50.402,47.375z"/>
	<path fill="#231F20" d="M42.269,52.58c1.35-1.174,1.493-3.219,0.319-4.568l-4.651-5.352c-1.174-1.35-3.219-1.492-4.568-0.319
		c0,0-0.51,2.471-1.655,3.466c-1.145,0.994-3.697,1.186-3.697,1.186c-1.35,1.174-1.493,3.219-0.319,4.569l4.651,5.351
		c1.174,1.35,3.219,1.492,4.568,0.319L42.269,52.58z"/>
	<path fill="#808184" d="M32.245,53.441c1.776-0.218,3.038-1.834,2.82-3.609L34.2,42.795c-0.218-1.774-1.834-3.037-3.61-2.819
		c0,0-1.804,1.763-3.309,1.948c-1.504,0.185-3.728-1.084-3.728-1.084c-1.775,0.218-3.038,1.834-2.819,3.608l0.864,7.037
		c0.218,1.775,1.833,3.038,3.609,2.82L32.245,53.441z"/>
	<path fill="#A6A8AB" d="M21.563,46.383c1.37,1.149,3.413,0.971,4.562-0.399l4.558-5.431c1.149-1.37,0.971-3.413-0.399-4.563
		c0,0-2.52-0.117-3.681-1.092s-1.75-3.465-1.75-3.465c-1.37-1.15-3.413-0.971-4.562,0.399l-4.558,5.432
		c-1.149,1.369-0.971,3.412,0.399,4.562L21.563,46.383z"/>
	<path fill="#E6E7E8" d="M18.737,37.163c0.523,1.711,2.333,2.674,4.044,2.15l6.78-2.072c1.71-0.523,2.672-2.333,2.149-4.044
		c0,0-2.05-1.471-2.493-2.921c-0.442-1.449,0.42-3.859,0.42-3.859c-0.522-1.71-2.333-2.673-4.043-2.15l-6.78,2.073
		c-1.71,0.523-2.673,2.333-2.15,4.043L18.737,37.163z"/>
	<path fill="#DBDCDD" d="M22.034,28.073c-0.433,1.735,0.624,3.493,2.359,3.926l6.879,1.715c1.736,0.433,3.493-0.624,3.926-2.359
		c0,0-1-2.316-0.633-3.787c0.367-1.471,2.348-3.092,2.348-3.092c0.433-1.735-0.623-3.493-2.358-3.926l-6.88-1.715
		c-1.735-0.433-3.493,0.623-3.926,2.358L22.034,28.073z"/>
	<path fill="#6EB9C4" d="M30.5,21.084c-1.391,1.125-1.604,3.165-0.479,4.555l4.461,5.51c1.126,1.39,3.165,1.604,4.555,0.479
		c0,0,0.597-2.451,1.774-3.405c1.178-0.954,3.735-1.056,3.735-1.056c1.391-1.125,1.604-3.165,0.479-4.555l-4.462-5.51
		c-1.126-1.39-3.165-1.604-4.555-0.479L30.5,21.084z"/>
</g>
</svg>
