<?xml version="1.0" encoding="utf-8"?>
<!-- Generator: Adobe Illustrator 16.0.0, SVG Export Plug-In . SVG Version: 6.00 Build 0)  -->
<!DOCTYPE svg PUBLIC "-//W3C//DTD SVG 1.1//EN" "http://www.w3.org/Graphics/SVG/1.1/DTD/svg11.dtd">
<svg version="1.1" id="Layer_1" xmlns="http://www.w3.org/2000/svg" xmlns:xlink="http://www.w3.org/1999/xlink" x="0px" y="0px"
	 width="107.69px" height="40.318px" viewBox="0 0 107.69 40.318" enable-background="new 0 0 107.69 40.318" xml:space="preserve">
<path fill="#6EB9C4" d="M107.252,34.818L107.252,34.818l0.004-0.741l-0.084-0.002h-0.099l-0.223-0.007l0.004-0.621l-0.604-0.004
	v-0.237l0.04-0.012l0.003-0.001l0.003-0.002l0.003-0.003l0.002-0.003l0.001-0.003l0.001-0.004l-0.001-0.004l-0.001-0.004
	l-0.002-0.002l-0.002-0.004l-0.002-0.002l-0.004-0.002h-0.003l-0.038-0.006v-0.008l0.004-0.002l0.002-0.003l0.002-0.003l0.002-0.004
	v-0.002v-0.004l-0.002-0.004l-0.002-0.002l-0.001-0.002l-0.003-0.004h-0.002l0.002-0.15h0.401l0.035-0.049l-0.433-0.293h0.036
	l0.037-0.056l-0.422-0.294l0,0v-0.012v-0.012v-0.01v-0.014v-0.012v-0.012l-0.002-0.013V32.18v-0.014v-0.013v-0.013v-0.014v-0.002
	v-0.004v-0.004l-0.002-0.005v-0.005v-0.005v-0.004v-0.007v-0.004v-0.006l-0.002-0.006V32.07l-0.013-0.396l-0.002-0.077h-0.017
	l-0.107,0.028l-1.047,0.002h-1.043l-0.107-0.029h-0.018l-0.005,0.078l-0.052,0.395v0.006v0.006l-0.002,0.006v0.006l-0.002,0.005
	v0.005l-0.002,0.004v0.005l-0.002,0.005l-0.002,0.004v0.004l-0.002,0.004v0.012v0.013v0.013v0.014v0.013l-0.002,0.013l-0.001,0.012
	l-0.001,0.012l-0.001,0.014l-0.002,0.01v0.012l-0.002,0.011h0.009l-0.484,0.294l0.043,0.055h0.041l-0.491,0.293l0.04,0.049h0.458
	l0.001,0.187l-0.03,0.004l-0.003,0.001l-0.006,0.004h-0.003l-0.003,0.004l-0.002,0.002l-0.002,0.004v0.004v0.004l0.002,0.004
	l0.002,0.003l0.003,0.002l0.003,0.002l0.004,0.001l0.035,0.012l0.002,0.188l-0.686-0.006l0.004-2.115l0.002-0.323v-0.062v-0.262
	v-0.06v-0.274l-0.23,0.002v-0.326l-1.146,0.004l-0.078,0.137v0.316l-0.303,0.002l-0.08,0.17v0.304v0.293v0.292l-0.002,1.844h-0.142
	l-0.203-0.002h-0.215l-0.21,0.002l-0.189,0.002h-0.108l0.002-3.521v-0.321l-0.373,0.002l-0.002-0.089v-0.187l-0.015-0.17
	l-1.137,0.01v0.281h-0.15v0.273v0.061v0.26v0.06v0.321l0.002,3.013l-0.961,0.011v-0.154l-0.159-0.028l-0.626-0.013v-0.209
	l-1.379-0.043v-0.479l-0.629-0.034l-0.058,0.004c-0.032,0.002-0.075-0.74-0.097-1.658l-0.243-10.824v-0.018l0.021-0.005l0.021-0.012
	l0.021-0.089l0.014-0.065l0.025-0.073l0.063-0.086l0.049-0.072l0.054-0.061l0.03-0.017l0.075-0.031l0.07-0.03l0.043-0.028v-0.027
	V19.15l0.057-0.095l0.012-0.008v-0.13l0.062-0.109l0.013-0.008l-0.001-0.158l0.06-0.121l0.014-0.009l-0.002-0.168l0.083-0.117
	l0.015-0.011l-0.001-0.171l-0.017-0.046l-0.072-0.032v-0.029l0.005-0.001l0.062-0.046l-0.018-0.046l-0.094-0.043l-0.053-0.012
	v-0.093l-0.016-0.04l-0.007-0.003V17.65v-0.013l-0.004-0.012l-0.005-0.011l-0.008-0.009l-0.01-0.006l-0.011-0.002h-0.011
	L94.188,17.6l-0.011,0.004l-0.009,0.006l-0.002,0.004l-0.123-0.027l-0.027-0.003v-0.001l-0.002-0.002l-0.004-0.002l-0.001-0.002
	l-0.004-0.001h-0.004h-0.005l-0.002,0.002l-0.004,0.003l-0.088-0.01l-0.006-0.009l-0.011-0.006l-0.01-0.002h-0.011l-0.028,0.003
	l-0.011,0.004v0.001l-0.166-0.01l0.014-0.005l0.011-0.009l0.009-0.013L93.7,17.51l0.002-0.017L93.7,17.476l-0.006-0.017
	l-0.009-0.014l-0.012-0.012l-0.013-0.008l-0.016-0.005l-0.015,0.001h-0.002v-0.138l0.008-0.002l0.045-0.017l0.019-0.017v-0.095
	l-0.006-0.018l-0.035-0.016l-0.023-0.006l-0.001-0.003l-0.001-0.003l-0.003-0.002l-0.002-0.001l-0.003-0.002l-0.004-0.002h-0.004
	L93.614,17.1l-0.004,0.002l-0.002,0.002v0.001l-0.008-0.001L93.571,17.1l0.008-0.006l0.008-0.01l0.004-0.011l0.003-0.012
	l-0.001-0.013l-0.004-0.012l-0.006-0.011l-0.006-0.006l0.047-0.011l0.044-0.016l0.019-0.017v-0.029l-0.007-0.017l-0.021-0.009
	v-0.002l-0.002-0.003l-0.002-0.001l-0.004-0.002l-0.002-0.001l-0.005-0.001l-0.004,0.002h-0.002h-0.001l0.004-0.005l0.004-0.011
	l0.004-0.013l-0.002-0.013l-0.004-0.012l-0.006-0.01l-0.008-0.009l-0.01-0.006l-0.01-0.003H93.6l-0.028,0.004l-0.01,0.004
	l-0.01,0.006l-0.007,0.01l-0.004,0.01l-0.003,0.013l0.002,0.012l0.001,0.004l-0.028-0.004l-0.085-0.005l-0.001-0.05l0.049-0.004
	l0.082-0.011l0.064-0.014l0.046-0.018l0.018-0.018v-0.023l-0.007-0.019l-0.027-0.013v-0.002v-0.003l-0.002-0.004v-0.003
	l-0.004-0.003l-0.003-0.001l-0.002-0.001h-0.004l-0.005,0.001l-0.003,0.001l-0.002,0.002l-0.002,0.003l-0.001,0.002l-0.035-0.009
	l-0.077-0.01h-0.007l0.001-0.003l0.001-0.003v-0.003v-0.004l-0.001-0.003l-0.002-0.004l-0.002-0.002l-0.003-0.001l-0.004-0.001
	h-0.002l-0.006,0.001h-0.002v-0.001l0.004-0.001l0.002-0.001l0.002-0.003v-0.003v-0.004v-0.003v-0.004l-0.002-0.003l-0.002-0.002
	l-0.004-0.002v-0.044l-0.002-0.008l-0.002-0.16l-0.07-0.01l-0.004-1.229l0.021-0.006v-0.03l-0.062-0.009l-0.006-1.263l0.018-0.006
	v-0.023l-0.035-0.006l-0.003-0.719l0.03-0.011l-0.002-0.56l-0.03-0.006l-0.001-0.079l-0.034-0.006l-0.002-0.496l-0.013-0.002
	l-0.024,0.009l0.001,0.497l-0.033,0.013v0.077L93.2,12.572l0.002,0.559l0.031,0.005l0.004,0.719L93.2,13.867v0.023l0.02,0.003
	l0.004,1.258l-0.061,0.018V15.2l0.021,0.003l0.005,1.225l-0.07,0.018v0.146l-0.004,0.005v0.028l-0.004,0.006l-0.004,0.012
	l-0.002,0.012l0.002,0.013l0.004,0.012l0.006,0.004v0.008l-0.074,0.01l-0.012,0.003v-0.004l-0.004-0.012l-0.006-0.011l-0.008-0.008
	l-0.01-0.006l-0.012-0.003h-0.01l-0.027,0.004l-0.01,0.003l-0.009,0.007l-0.007,0.009l-0.005,0.011l-0.002,0.013l0.001,0.012
	l0.003,0.012l0.004,0.007l-0.013,0.014v0.023l0.009,0.017l0.034,0.017l0.057,0.013l0.076,0.011l0.083,0.005v0.05l-0.051,0.004
	l-0.083,0.012l-0.014,0.003v-0.001l-0.002-0.013l-0.004-0.012l-0.006-0.011l-0.008-0.008L93,16.857l-0.011-0.003h-0.01l-0.029,0.004
	l-0.01,0.003l-0.009,0.007l-0.007,0.009l-0.004,0.011L92.919,16.9l0.001,0.013l0.003,0.012l0.006,0.011l0.003,0.003l-0.014,0.014
	v0.028l0.008,0.018l0.034,0.015l0.058,0.013l0.077,0.01l0.082,0.005v0.05l-0.057,0.005l-0.086,0.012l-0.067,0.014l-0.044,0.018
	l-0.018,0.018v0.095l0.008,0.017l0.037,0.016l0.027,0.006l0.002,0.269l-0.13,0.009l-0.129,0.017v-0.001l-0.001-0.012l-0.005-0.011
	l-0.008-0.009l-0.011-0.007l-0.016-0.01l-0.012-0.003l-0.012-0.001l-0.014,0.003l-0.011,0.005l-0.011,0.009l-0.008,0.01
	l-0.006,0.012l-0.002,0.012l0.002,0.013l0.002,0.006l-0.137,0.029l-0.105,0.039l-0.043,0.041v0.108l-0.113,0.042l-0.049,0.046
	l0.031,0.045l0.035,0.013v0.036l-0.039,0.013l-0.048,0.047v0.17l0.009,0.012l0.015,0.021l0.009,0.011v0.001l0.066,0.085v0.164
	l0.008,0.009l0.066,0.12v0.157l0.006,0.009l0.069,0.107v0.13l0.007,0.008l0.063,0.094l0.001,0.127v0.027l0.021,0.028l0.072,0.028
	l0.078,0.031l0.061,0.031l0.051,0.057l0.041,0.06l0.063,0.085l0.026,0.072l0.015,0.065l0.021,0.089l0.009,0.012l0.032,0.009v0.006
	c0,0.004-0.012,0.751-0.024,1.668l-0.133,9.278l-0.658-0.078c-0.362-0.045-0.661-0.823-0.664-1.741l-0.021-4.856l-0.176-0.462
	l-1.423-0.257l-2.584,0.096l-0.549,0.193c-0.304,0.107-0.56,0.938-0.571,1.855l-0.101,8.097l-1.198-0.001l0.26-0.436
	c0.143-0.24,0.258-1.178,0.26-2.096l0.004-6.529l-0.348-0.578v-0.965l0.352-0.635l-2.205-0.238l-0.143-0.17l-1.082-0.119
	l-0.146,0.043v0.066l-0.146-0.016l-0.531,0.158l-0.274,0.082V22.5l-0.11,0.033l0.006,3.85h-0.35l-0.006-3.836l-0.152-0.811
	l-0.185-0.008v-0.025l0.159-0.18l0.171-1.172l-2.901-0.157l-0.345,0.765l0.004,0.908l0.116,0.006l-0.059,0.111
	c-0.031,0.061-0.055,0.855-0.051,1.771l0.024,7.377l-0.188-0.006l-0.123,0.01l-0.141-0.004l-0.119,0.01
	c-0.066,0.005-0.121-0.734-0.125-1.652l-0.019-5.188l-0.046-0.024v-0.214h0.043l-0.002-0.947l-0.045-0.029v-0.157l-0.26-0.173H76.09
	v-0.146l-0.14-0.095l-0.271-0.184h-0.062l-0.002-0.059l-0.073-0.051l-1.3,0.009l-0.125,0.276l-1.668,0.011l0.375,1.198l0.02,0.008
	l0.001,0.227H72.78l-0.158,0.459c-0.086,0.254-0.151,1.203-0.146,2.121l0.026,4.661l-1.446-0.036l-0.002-0.078l-0.009-0.576
	l-0.052-0.002l-0.026-0.17l-0.047-0.002l-0.004-0.015l-0.468-0.017l-0.473-0.018l-0.072,0.012l-0.129-0.006l-0.227,0.037
	l-0.032,0.004l-0.219,0.035l-0.021,0.184l-0.045,0.006l0.004,0.556v0.007l-0.278-0.007l-0.911-0.021l-0.172-0.004
	c-0.096-0.002-0.16-0.748-0.146-1.664l0.084-5.461h-1.058h-0.128l0.011-1.209l-1.262,0.002l-0.003,1.207h-0.379
	c-0.211,0-0.379,0.744-0.377,1.662l0.013,5.428l-0.731,0.002l-0.689,0.005l0.152-0.376l0.219-0.635l0.183-0.648l0.146-0.658
	l0.108-0.669l0.072-0.674l0.032-0.679l-0.006-0.682l-0.043-0.68l-0.084-0.68l-0.119-0.674l-0.158-0.666v-0.107l-0.053-0.048
	l-0.137-0.046l-0.137-0.025l-0.004-1.25l-0.061-0.035l-0.05-0.003l-0.005-1.845l-0.089-0.014l-0.089,0.011l-0.001,0.022l0.006,1.822
	l-0.112,0.02l0.004,1.224l-0.276-0.019l-0.343-0.008l-0.168,0.002l-0.006-1.361l-0.134-0.018l-0.012-2.476l-0.104-0.019
	l-0.109,0.013l-0.002,0.03l0.013,2.448l-0.126,0.01L61.7,21.713l0.007,1.349l-0.238,0.026l-0.183,0.039l-0.102,0.045l-0.014,0.047
	l0.001,0.109l-0.153,0.666l-0.115,0.674l-0.078,0.68l-0.037,0.682v0.684l0.037,0.68l0.078,0.676l0.114,0.67l0.151,0.659l0.188,0.649
	l0.226,0.636l0.083,0.198l-0.053,0.002H61.61v0.082h-0.068l-0.008,0.516l-0.008,0.607l-0.06,0.164l-0.103,0.324l-0.024,0.09
	l-0.001-0.231l-1.084-0.08c-0.598-0.045-1.086-0.824-1.089-1.742l-0.052-13.754l0.115-0.015l-0.002-0.449l-0.229-0.026l-0.014-3.543
	l0.113-0.022l-0.001-0.446l-0.287-0.046l-0.002-0.062l-0.014-0.017l-0.037-0.015h-0.001l-0.092-2.167l0.057-0.014l-0.003-0.443
	l-0.239-0.046V9.485l-0.013-0.016l-0.032-0.015l-0.031-0.008L58.308,8.23l0.04-0.01l-0.001-0.443l-0.191-0.04l-0.002-0.055
	l-0.009-0.015l-0.026-0.013l-0.039-0.011l-0.032-0.006l-0.004-0.001l-0.101-0.948l-0.136-0.03l-0.001-0.014l0.191,0.043
	l-0.002-0.441l-0.147-0.033V6.168l-0.007-0.012l-0.02-0.01l-0.029-0.01L57.754,6.13L57.71,6.125h-0.027l-0.058-0.616l-0.142-0.183
	L57.46,4.979l-0.172-0.136l-0.014-0.301l-0.051-0.027l-0.001-0.001L57.22,4.509l-0.006-0.003l-0.057-0.029V4.474l-0.01-0.006V4.22
	l-0.033-0.008V4.201l-0.002-0.003l-0.004-0.002h-0.002V4.192V4.188h-0.024V4.17V4.165l-0.03,0.001l-0.001-0.22V3.942h-0.028V3.891
	l0.025-0.007l0.023-0.011l0.012-0.013l0.01-0.012V3.846l0.01-0.01l0.01-0.012V3.818l0.006-0.007L57.125,3.8V3.792l0.004-0.005
	l0.005-0.013l0.001-0.009l0.004-0.003l0.001-0.013l0.001-0.011l0.001-0.001l0.002-0.012V3.713l0.001-0.001l0.001-0.006l0.002-0.018
	V3.682l-0.004-0.003V3.67l-0.001-0.013L57.14,3.655l0.002-0.01L57.14,3.632l-0.005-0.005l0.001-0.007L57.13,3.607l-0.005-0.006
	V3.595L57.12,3.583l-0.008-0.008V3.571l-0.01-0.012l-0.01-0.012V3.546l-0.009-0.011l-0.011-0.014l-0.006-0.002l-0.007-0.008
	l-0.015-0.01l-0.018-0.01l-0.021-0.006L56.923,0.83l0.007-0.002l0.007-0.002l0.006-0.003l0.014-0.009l0.003-0.004l0.011-0.013
	l0.006-0.016l0.002-0.018V0.758L56.975,0.74l-0.008-0.016l-0.003-0.005l-0.012-0.012l-0.014-0.008l-0.004-0.003l-0.007-0.001
	l-0.01-0.003l-0.005-0.001h-0.004h-0.004h-0.004l-0.004,0.001l-0.01,0.003l-0.007,0.002l-0.004,0.002l-0.013,0.008L56.853,0.72
	l-0.005,0.005L56.84,0.741l-0.002,0.017v0.006l0.001,0.017l0.007,0.016l0.005,0.005l0.01,0.012l0.014,0.009l0.004,0.003l0.007,0.002
	l0.007,0.002l-0.074,2.657l-0.016,0.005l-0.02,0.009l-0.016,0.01l-0.011,0.011l-0.001,0.001l-0.012,0.012l-0.01,0.012V3.55
	l-0.011,0.009l-0.009,0.013v0.006l-0.006,0.006l-0.006,0.012v0.007l-0.006,0.006l-0.004,0.012V3.63l-0.004,0.004l-0.002,0.013
	l-0.001,0.01l-0.001,0.002l-0.002,0.012l-0.001,0.011l-0.001,0.001L56.68,3.69l-0.001,0.018l0.001,0.006l0.003,0.002l-0.001,0.01
	l0.003,0.013l0.001,0.002v0.01l0.001,0.012l0.006,0.005v0.007l0.004,0.014l0.006,0.006v0.006l0.005,0.012l0.007,0.008v0.004
	l0.009,0.012l0.011,0.011v0.001l0.01,0.013l0.011,0.012l0.022,0.011l0.029,0.008l-0.001,0.054l-0.028,0.001v0.209L56.768,4.16v0.011
	l-0.022,0.001v0.01h-0.004v0.013l-0.02,0.001v0.005h-0.003l-0.006,0.003l-0.004,0.003l-0.001,0.002v0.012l-0.026,0.008v0.238
	l-0.032,0.016v0.01l-0.045,0.024l-0.007,0.005v0.004l-0.001,0.007l-0.04,0.023l-0.014,0.301l-0.171,0.142L56.35,5.348l-0.141,0.188
	l-0.05,0.547h-0.043v0.07l-0.032,0.002l-0.041,0.006l-0.036,0.008l-0.025,0.01L55.965,6.19l-0.004,0.012V6.25l-0.118,0.034v0.441
	l0.164-0.046l-0.001,0.014l-0.108,0.031l-0.002,0.013l-0.095,0.93l-0.04,0.006l-0.047,0.01l-0.035,0.012l-0.02,0.013l-0.006,0.015
	v0.06l-0.156,0.04v0.443l0.043,0.007l-0.092,1.205l-0.045,0.008L55.358,9.5l-0.024,0.016l-0.005,0.017V9.6l-0.195,0.047l0.001,0.442
	l0.058,0.011l-0.086,2.147l-0.018,0.003l-0.053,0.015l-0.03,0.015L55,12.296v0.068l-0.231,0.048v0.444l0.114,0.016v3.53
	l-0.228,0.031v0.448l0.057,0.006c0.031,0.003,0.057,0.454,0.057,1.006l-0.001,3.996l-1.848-0.006l-0.01,0.019h-0.229l-0.002,0.007
	v-0.025l-0.934-0.002c-0.517-0.002-0.934-0.45-0.932-1.002l0.014-4.009l0.114-0.009l0.003-0.449l-0.212-0.034v-0.054l-0.001-0.012
	l-0.015-0.007l0.012-3.467l0.114-0.015l0.001-0.445l-0.2-0.047V12.26l-0.002-0.017l-0.026-0.017l-0.048-0.015L50.505,12.2
	l-0.075-2.148l0.056-0.009l0.002-0.444l-0.17-0.047V9.48l-0.001-0.017l-0.022-0.016l-0.04-0.015L50.199,9.42l-0.026-0.003
	l-0.085-1.205l0.04-0.007l0.002-0.443L49.994,7.72V7.657l-0.002-0.015l-0.017-0.014l-0.032-0.013l-0.045-0.011l-0.055-0.008
	l-0.016-0.001l-0.008-0.071l0.001-0.016h-0.002l-0.083-0.86l0.001,0.012l0.053-0.01l0.002-0.442l-0.104-0.034V6.122L49.685,6.11
	l-0.012-0.012l-0.026-0.01l-0.034-0.009l-0.041-0.007l-0.019-0.001V6l-0.079-0.003l-0.047-0.551l-0.141-0.192l-0.022-0.35
	l-0.053-0.047L49.21,4.851l-0.007-0.006l-0.061-0.053L49.094,4.75l-0.013-0.297l-0.036-0.022v-0.01V4.417L49.04,4.413L49,4.39
	l-0.001-0.013l-0.044-0.022l0.001-0.234l-0.023-0.009V4.1V4.097L48.93,4.094l-0.006-0.002L48.917,4.09h-0.001V4.086l-0.012-0.001
	V4.072l-0.012-0.001v-0.01L48.877,4.06V4.049l-0.01-0.004l-0.005,0.001l-0.003,0.001V4.03l-0.01-0.004l-0.01,0.002L48.835,3.9
	l0.001-0.09l-0.003-0.001V3.778l0.012-0.002l0.028-0.01l0.018-0.011l0.01-0.011l0.004-0.009l0.005-0.003l0.01-0.012l0.008-0.014
	V3.705l0.007-0.012L48.94,3.68l-0.001-0.001l0.006-0.011l0.005-0.012V3.653l0.005-0.009l0.001-0.013l-0.001-0.005l0.003-0.008
	l0.002-0.013L48.958,3.6l0.004-0.007V3.587V3.581l-0.004-0.01l0.002-0.003l-0.002-0.013l-0.003-0.009l0.002-0.003L48.956,3.53
	l-0.005-0.012V3.517l-0.006-0.016L48.94,3.488l-0.001-0.001l-0.004-0.011L48.93,3.463l-0.003-0.001l-0.004-0.011l-0.009-0.013
	l-0.007-0.005l-0.003-0.006l-0.009-0.013l-0.012-0.008l-0.001-0.003L48.867,3.39l-0.014-0.01L48.83,3.371l-0.008-0.002l-0.065-2.671
	l0.002-0.001l0.008-0.002l0.007-0.002l0.012-0.009l0.006-0.003l0.009-0.013l0.003-0.005l0.007-0.016l0.001-0.017L48.81,0.612
	l-0.002-0.006L48.8,0.591l-0.011-0.014l-0.005-0.003l-0.013-0.009l-0.005-0.002L48.759,0.56L48.75,0.558h-0.004h-0.004h-0.004
	h-0.003l-0.01,0.002l-0.007,0.001l-0.005,0.002L48.7,0.571l-0.005,0.003l-0.011,0.013l-0.008,0.015l-0.002,0.006L48.67,0.625
	l0.002,0.017l0.002,0.006l0.007,0.016l0.01,0.014l0.005,0.004l0.012,0.009l0.006,0.002l0.008,0.003l0.003,0.001l-0.094,2.667
	l-0.004,0.001l-0.023,0.008l-0.015,0.01l-0.016,0.011L48.57,3.398l-0.01,0.006l-0.01,0.012l-0.004,0.008l-0.005,0.004l-0.01,0.012
	l-0.006,0.012l-0.008,0.015L48.511,3.48h0.001l-0.005,0.012l-0.006,0.012l0.001,0.003l-0.006,0.01l-0.001,0.012l0.001,0.006
	l-0.003,0.007l-0.001,0.012l0.001,0.005l-0.004,0.008v0.006v0.006l0.004,0.009l-0.002,0.004l0.002,0.012l0.003,0.009l-0.002,0.005
	l0.002,0.013L48.5,3.642v0.001l0.007,0.017l0.004,0.012l0.001,0.001l0.005,0.011l0.005,0.013l0.002,0.002l0.004,0.01l0.009,0.013
	l0.007,0.004l0.003,0.007l0.01,0.012l0.016,0.013l0.027,0.01l0.016,0.006l-0.002,0.049l-0.027-0.001l-0.001,0.004l-0.002,0.22
	l-0.029-0.001l-0.002,0.004v0.02l-0.022-0.002l-0.002,0.005v0.004l-0.002,0.001L48.524,4.08v0.01l-0.035,0.008l-0.001,0.255
	l-0.061,0.031L48.42,4.387L48.417,4.39l-0.056,0.028l-0.017,0.303l-0.173,0.132l-0.024,0.348l-0.144,0.181L47.942,6h-0.004
	l-0.044,0.003l-0.041,0.006l-0.031,0.008l-0.021,0.01l-0.01,0.012L47.79,6.082l-0.163,0.031l-0.003,0.445l0.062-0.012v0.013
	L47.679,6.56l-0.002,0.015l-0.102,0.942l-0.01,0.001l-0.042,0.011l-0.028,0.012l-0.013,0.014v0.053l-0.215,0.038l-0.003,0.447
	l0.017-0.004v0.308l-0.078,0.938l-0.034,0.013l-0.016,0.017v0.06l-0.268,0.043l-0.003,0.448l0.057,0.014l-0.103,2.196l-0.004,0.001
	l-0.018,0.016v0.061l-0.322,0.043l-0.003,0.451l0.115,0.023l-0.025,3.573l-0.233,0.022l-0.004,0.453l0.058,0.009
	c0.033,0.004,0.053,0.752,0.046,1.669l-0.101,13.847l-0.942,0.08c-0.52,0.043-0.942-0.369-0.943-0.92l-0.008-4.834l-0.193-0.021
	l-0.003-1.247l0.121-0.004v-0.015l0.006-0.002h0.033c0.018,0.002,0.032-0.742,0.03-1.66l-0.01-6.026v-0.526l0.12-0.018v-0.145
	l-0.612-0.054l-0.69-0.037l-0.744-0.018l-0.756,0.001l-0.364,0.011v0.682l-0.363,0.01l-0.108,0.005l-0.001,0.911l0.001,0.096
	l-0.001,0.245l-0.4,0.017l-0.002,1.247l-0.149,0.004l-0.374,0.018l-0.002,0.777l-0.177,0.006l-0.144,0.008l-0.002,0.707
	l-0.275,0.011l-0.011,3.646l-1.47-0.095l-0.142,0.011l0.001,0.412l-0.051-0.003l-1.05,0.068l-0.008-0.188l-0.586-0.047l-0.006-2.803
	l-0.038,0.004l-1.738-0.146l-0.112-0.015l-5.169,0.595l-0.01,3.854h-1.447v-2.872h-0.003v-2.06h-0.004V20.51h-0.005v-0.783H27.41
	v-0.012h-0.226v-0.521H26.92l-0.009,0.007v0.514h-0.088v-0.221h-0.146v-0.54h-0.153v-0.363h-0.208v-0.005h-0.438l-0.002,0.002v0.011
	h-0.003v-0.008h-0.2l-0.008,0.006v0.357h-0.134l-0.02,0.016v0.523H25.42l-0.036,0.029v0.193h-0.113v-0.521h-0.303l-0.01,0.006v0.514
	h-0.255l-0.014,0.011h-0.152l-0.017,0.014v0.787l-0.006,0.006v1.454l-0.003,0.003v2.063l-0.003,0.002v3.191l-0.001,0.002
	c-0.001,0-0.001,0.448-0.001,1.002v3.408h0.148v0.004h0.004v0.697h-0.026l-0.017,0.001h-0.001v0.033l-0.024,0.001h-0.017
	l-0.001,0.001v1.062h-0.333v-0.082l0.034-0.049h-0.007h-0.014l-0.021-0.002h-0.009l0.001-0.32L24.235,33l0.019-0.016v-0.016
	l-0.028-0.002h-0.003v-0.023l-0.025-0.04v-0.022l-0.01-0.022h-0.007l-0.003-0.015h-0.001l-0.01-0.164h-0.008h-0.003l-0.011,0.164
	h-0.001h-0.002h-0.001l-0.003,0.015h-0.006l-0.01,0.022v0.022l-0.026,0.04v0.023h-0.004l-0.027,0.002v0.016L24.084,33h0.012
	l-0.002,0.322h-0.005h-0.022l-0.016,0.002h-0.01H24.04l0.034,0.049v0.082H23.34v-0.029l0.001-0.049l0.034-0.051h-0.006h-0.014
	l-0.021-0.002h-0.002l0.001-0.207h0.002h0.006h0.002v-0.016h-0.005l-0.01-0.001h-0.013l0.002-0.319h0.019l0.018-0.017v-0.017h-0.012
	h-0.025v-0.024l-0.022-0.041v-0.024h-0.06l0.007-0.021h0.001h0.004h0.004h0.006h0.005h0.006l-0.001-0.014h-0.005h-0.005h-0.004
	h-0.002l0.008-0.166h-0.001l-0.01,0.166h-0.003h-0.001h-0.001l-0.004,0.014h-0.002l-0.009,0.023v0.022l-0.022,0.04v0.025h-0.038
	v0.017l0.019,0.017h0.01h0.009l-0.001,0.319h-0.012h-0.012l-0.007,0.001h-0.001v0.016h0.004h0.005v0.207l-0.014,0.002h-0.014h-0.129
	l-0.057-0.064L22.9,33.209l-0.075-0.043l-0.08-0.031l-0.083-0.02h-0.001l-0.086-0.006l-0.086,0.006l-0.083,0.02l-0.081,0.031
	l-0.074,0.043l-0.066,0.053l-0.06,0.064H22.01h-0.002h-0.02h-0.003v-0.209h0.008h0.002v-0.016h-0.004h-0.01l-0.014-0.001h-0.001
	v-0.319h0.02l0.019-0.017v-0.017h-0.011h-0.028l0.001-0.024l-0.021-0.041v-0.024h-0.061l0.007-0.021h0.002h0.003h0.005h0.005h0.006
	h0.005l-0.001-0.014h-0.005h-0.003h-0.005h-0.002l0.008-0.166h-0.001L21.9,32.624h-0.001h-0.003h-0.001h-0.002l-0.002,0.014h-0.002
	l-0.01,0.023v0.022l-0.021,0.041v0.024H21.82v0.017l0.018,0.017h0.009h0.011v0.319h-0.011l-0.013,0.001h-0.008h-0.002v0.016h0.004
	h0.007l-0.001,0.209h-0.012h-0.018h-0.009h-0.003l0.034,0.051v0.049v0.029h-0.829v-0.082l0.033-0.049h-0.005h-0.011h-0.02h-0.017
	v-0.322h0.014l0.019-0.018v-0.016h-0.025h-0.008v-0.025l-0.025-0.04v-0.022l-0.001-0.004l0.012-2.649l-0.42-1.267l-0.963-0.004
	l-0.495,0.989v-0.653l-1.116-0.506l-0.003-1.156l-0.781-0.004c-0.431-0.002-0.777,0.444-0.773,0.996l0.023,3.076l-0.119-0.002
	l-1.336-0.017l-1.864-0.021l-0.369-1.047l-0.523-0.011l-1.279-0.026l-3.731-0.078l-0.898,0.695l-0.135,0.104l-0.459,0.355v0.038
	l-0.315-0.003l-0.847-0.01l-1.066,0.785l-0.159,0.119l-0.548,0.402l0.438,0.008l0.007,0.467h-1.15v-0.002L2.07,32.945h0.019h0.003
	l-0.001-0.002h0.017l-0.019-0.026l0.013-0.024l0.04-0.03l0.061-0.02l0.001-0.006l0.001-0.004l0.002-0.002l0.004-0.004h0.001h0.004
	l0.002,0.004h0.004l0.017-0.002h0.003l0.045-0.002l0.005-0.01l0.005-0.009l0.007-0.009l0.007-0.006l0.008-0.008l0.008-0.006
	l0.009-0.005l0.009-0.004l0.009-0.004l0.01-0.002l0.01-0.003h0.01l-0.001-0.021h0.002v-0.015L2.063,32.68L2.059,32.5l-0.001-0.035
	H2.041l-0.008-0.35H2.032H2.031l0.008-0.015H2.037L2.033,32.1H2.028H2.026l-0.001-0.021l0.015-0.018l-0.016-0.012v-0.016H2.022
	v-0.002l0.005-0.004l0.003-0.004l0.002-0.005l0.001-0.007l-0.001-0.004l-0.003-0.006l-0.003-0.004l-0.005-0.002v-0.004l-0.009-0.052
	H2.011H2.01H2.009H2.008H2.007l-0.006,0.04l-0.008-0.044H1.992H1.991H1.99H1.989H1.988l-0.007,0.052v0.004l-0.004,0.002
	l-0.004,0.004l-0.002,0.006v0.006v0.005l0.003,0.005l0.004,0.005l0.004,0.003v0.003H1.98v0.017l-0.014,0.011l0.015,0.017
	l0.001,0.023H1.978H1.973H1.969H1.967l0.01,0.014h0.001l0.008,0.354H1.969V32.5H1.955l-0.002-0.119H1.949l-0.023-0.002H1.89
	l0.021-0.043l0.014-0.047l0.005-0.047l-0.003-0.05l-0.011-0.047L1.897,32.1l-0.026-0.042l-0.03-0.034l0.002-0.004l0.001-0.006
	l-0.001-0.006L1.84,32.004L1.837,32l-0.004-0.004v-0.002l-0.01-0.052H1.822H1.821H1.82H1.819H1.818l-0.007,0.052v0.002l-0.012-0.01
	L1.78,31.976l-0.007-0.041l-0.001-0.001H1.771H1.77H1.769H1.768H1.767l-0.004,0.031l-0.009-0.004l-0.01-0.004l-0.002-0.092H1.738
	H1.73l0.002-0.008l0.001-0.012L1.73,31.834l-0.006-0.012l-0.009-0.009l-0.01-0.007l-0.022-0.01h0.002l0.003-0.002h0.001h0.006
	l0.004-0.004l0.004-0.004l0.003-0.006l0.001-0.005l-0.001-0.006l-0.003-0.005L1.699,31.76l-0.006-0.002l-0.005-0.002H1.686H1.682
	H1.676l0.007-0.043H1.681H1.678H1.672H1.666l0.006-0.016l-0.02-0.226H1.651H1.65H1.649H1.646H1.645H1.643H1.641H1.64H1.638
	L1.63,31.698l0.007,0.014H1.634H1.627l-0.005,0.002H1.62H1.619l0.009,0.043H1.625H1.62H1.617H1.616L1.61,31.758L1.605,31.76
	l-0.004,0.005l-0.002,0.006l-0.001,0.005l0.001,0.006l0.003,0.006l0.004,0.004l0.005,0.004h0.006h0.001h0.001h0.003l-0.007,0.004
	L1.61,31.803l-0.009,0.004l-0.01,0.006l-0.008,0.009l-0.005,0.011l-0.003,0.012l0.002,0.014l0.003,0.008H1.577H1.569H1.567
	l0.003,0.09l-0.01,0.004l-0.018,0.012l-0.006-0.029H1.535H1.534H1.533H1.532H1.531L1.526,31.98l-0.009,0.006l-0.006,0.005
	l-0.004-0.003v-0.003l-0.01-0.052H1.496H1.495H1.494H1.493H1.492l-0.008,0.052v0.003h0.001H1.484l-0.003,0.003l-0.004,0.006
	L1.475,32v0.006v0.006l0.003,0.004l0.001,0.003l-0.032,0.037l-0.024,0.043l-0.017,0.045l-0.008,0.049l-0.001,0.048l0.008,0.049
	l0.016,0.047l0.023,0.043H1.43H1.397H1.382l0.003,0.119H1.376v-0.033H1.359L1.35,32.113H1.349H1.348l0.009-0.014H1.356H1.354H1.351
	H1.345H1.343l-0.001-0.022l0.015-0.018l-0.015-0.012l-0.001-0.016H1.34H1.339v-0.003l0.004-0.003l0.004-0.005l0.002-0.005
	L1.35,32.01l-0.001-0.004L1.347,32l-0.004-0.004l-0.005-0.004v-0.002l-0.009-0.052H1.328H1.326H1.325H1.324H1.323l-0.006,0.046
	l-0.009-0.05H1.307H1.306H1.305H1.304H1.303l-0.007,0.052v0.004l-0.005,0.002l-0.003,0.004l-0.002,0.006l-0.001,0.004l0.001,0.006
	l0.002,0.006l0.004,0.004l0.005,0.004v0.003H1.296H1.295v0.017L1.28,32.056l0.016,0.017v0.023H1.291H1.287H1.284H1.282l0.009,0.014
	l0.011,0.355H1.284v0.033H1.278l0.005,0.182L1.28,32.681L1.269,32.68l-0.005-0.189H1.246l-0.001-0.037H1.242H1.233l-0.009-0.371
	h0.001l0.008-0.015H1.23H1.226H1.22H1.219v-0.022l0.014-0.019l-0.015-0.013v-0.016H1.217H1.215v-0.004l0.005-0.002l0.003-0.006
	l0.003-0.005v-0.006v-0.005l-0.003-0.006l-0.004-0.004l-0.005-0.004v-0.002L1.204,31.9H1.203H1.202H1.201H1.2H1.199H1.198
	l-0.007,0.056v0.002l-0.004,0.004l-0.004,0.004l-0.002,0.004L1.18,31.976l0.001,0.006l0.002,0.005l0.004,0.004l0.005,0.004v0.002
	H1.191L1.19,31.999l0.001,0.016l-0.016,0.013l0.016,0.019l0.001,0.022H1.186H1.182H1.178H1.177l0.009,0.015H1.185l0.009,0.371H1.182
	l0.001,0.037H1.158H1.156l-0.001-0.039H1.151H1.143l-0.009-0.371h0.001l0.008-0.016H1.142H1.14H1.136H1.131H1.129v-0.023l0.015-0.02
	L1.128,32.01v-0.016H1.127H1.124v-0.004l0.006-0.003l0.003-0.005l0.003-0.005v-0.005l-0.001-0.006l-0.002-0.006l-0.004-0.004
	l-0.006-0.004v-0.002l-0.01-0.056H1.112H1.111H1.11H1.109H1.108l-0.007,0.056v0.002l-0.005,0.004l-0.004,0.004L1.09,31.965
	l-0.002-0.002l-0.004-0.004v-0.002l-0.01-0.055H1.073H1.072H1.071H1.07H1.069H1.068l-0.007,0.055v0.002l-0.005,0.004l-0.003,0.004
	l-0.002,0.006L1.05,31.979l0.001,0.006l0.003,0.006l0.003,0.002l0.004,0.004V32H1.06v0.017l-0.015,0.012l0.016,0.019v0.01
	L1.04,32.024l-0.035-0.041L0.964,31.95l-0.047-0.027l-0.01-0.006l-0.003-0.095l-0.005-0.001H0.891l0.002-0.008l0.001-0.012
	L0.891,31.79l-0.006-0.013l-0.009-0.01L0.865,31.76L0.85,31.752l-0.008-0.004h0.002h0.003h0.001l0.006-0.002l0.005-0.002
	l0.004-0.004l0.003-0.007l0.001-0.006l-0.001-0.006l-0.003-0.007l-0.005-0.004l-0.005-0.002l-0.006-0.002H0.846H0.844H0.84H0.834
	l0.007-0.047H0.839H0.836H0.83H0.823l0.007-0.016l-0.021-0.238H0.808H0.806H0.805H0.803H0.801H0.799H0.797H0.795H0.794H0.793
	l-0.008,0.237l0.007,0.017H0.788H0.782H0.777H0.774l0.01,0.045H0.78H0.774l-0.003,0.002H0.765l-0.006,0.004l-0.003,0.004
	l-0.004,0.006v0.006l0.001,0.006l0.003,0.006l0.004,0.006l0.006,0.002l0.006,0.002h0.002h0.004l-0.022,0.01l-0.011,0.009
	l-0.009,0.009L0.73,31.788l-0.002,0.012l0.001,0.013l0.004,0.009H0.728H0.721H0.719l0.003,0.096L0.711,31.92l-0.045,0.027
	l-0.039,0.034l-0.03,0.035l-0.012-0.009l-0.001-0.016l-0.002-0.002v-0.002l0.005-0.004L0.59,31.98l0.002-0.005l0.001-0.006
	l-0.001-0.006L0.59,31.959l-0.004-0.006l-0.005-0.002L0.58,31.948l-0.01-0.055H0.569H0.568H0.567H0.566H0.565l-0.008,0.055
	l0.001,0.004l-0.005,0.002L0.55,31.959l-0.003,0.004l-0.001,0.006l0.002,0.006L0.55,31.98l0.004,0.005l0.004,0.004v0.002H0.557
	v0.018L0.542,32.02l0.003,0.004l-0.013-0.01v-0.018H0.531H0.529v-0.002l0.005-0.004l0.004-0.004l0.002-0.006l0.001-0.005
	L0.54,31.969l-0.003-0.004l-0.004-0.004l-0.005-0.004v-0.004L0.518,31.9H0.517H0.516H0.515H0.514H0.513l-0.008,0.054v0.004
	l-0.004,0.004l-0.004,0.004l-0.002,0.004l-0.001,0.007l0.001,0.005l0.003,0.006l0.004,0.004l0.004,0.004l0.001,0.002H0.505H0.504
	l0.001,0.018L0.49,32.026l0.015,0.02l0.001,0.022H0.501H0.495H0.493H0.491l0.01,0.015H0.499l0.01,0.371H0.497l0.001,0.035h-0.03
	l-0.001-0.037H0.463H0.455l-0.01-0.371l0.01-0.016H0.454H0.451H0.447H0.441H0.44l-0.001-0.023l0.016-0.02L0.438,32.01v-0.018H0.437
	H0.436v-0.002l0.004-0.004l0.005-0.004l0.002-0.005v-0.006v-0.005l-0.003-0.006l-0.005-0.004l-0.004-0.004V31.95l-0.01-0.054H0.424
	H0.422H0.421H0.42H0.419L0.411,31.95v0.004l-0.004,0.004l-0.004,0.004l-0.002,0.004v0.007v0.006l0.003,0.005l0.004,0.004
	l0.005,0.004v0.002H0.412H0.411v0.018l-0.015,0.012l0.016,0.02v0.023H0.407H0.402H0.399H0.398l0.009,0.016H0.405l0.01,0.371H0.403
	l0.001,0.037H0.391l0.005,0.189l-0.365,0.049v0.016h0.002v0.024h0.012l0.012,0.002l0.012,0.003l0.011,0.003l0.01,0.005l0.01,0.006
	l0.01,0.006l0.01,0.006l0.008,0.01l0.008,0.008l0.006,0.01l0.007,0.008l0.052,0.004l0.004-0.002l0.005-0.002l0.004-0.002
	l0.005-0.002h0.005l0.004,0.002l0.004,0.002l0.005,0.002l0.004,0.004l0.003,0.004l0.002,0.004l0.001,0.005l0.071,0.021l0.048,0.031
	l0.016,0.028l-0.021,0.028h0.001h0.042l0.014,0.543l0.036,1.315L0,37.648l0.073,1.335c0.041,0.736,0.818,1.335,1.735,1.335h104.932
	c0.553,0,1-0.448,1-1v-4.5H107.252z"/>
</svg>
