<?xml version="1.0" encoding="utf-8"?>
<!-- Generator: Adobe Illustrator 16.0.0, SVG Export Plug-In . SVG Version: 6.00 Build 0)  -->
<!DOCTYPE svg PUBLIC "-//W3C//DTD SVG 1.1//EN" "http://www.w3.org/Graphics/SVG/1.1/DTD/svg11.dtd">
<svg version="1.1" id="Layer_1" xmlns="http://www.w3.org/2000/svg" xmlns:xlink="http://www.w3.org/1999/xlink" x="0px" y="0px"
	 width="107.854px" height="76.915px" viewBox="0 0 107.854 76.915" enable-background="new 0 0 107.854 76.915"
	 xml:space="preserve">
<path fill="#00758D" d="M106.483,76.914c0.918,0,1.662-0.422,1.662-0.945V24.26c0-0.522-0.744-0.946-1.662-0.946H2.043
	c-0.917,0-1.661,0.424-1.661,0.946v51.709c0,0.523,0.744,0.945,1.661,0.945H106.483L106.483,76.914z"/>
<g>
	<path fill="#FFFFFF" d="M34.184,30.96c1.071,0,1.915,0.404,2.533,1.212c0.618,0.809,0.927,1.913,0.927,3.314
		c0,1.404-0.311,2.524-0.933,3.36s-1.428,1.254-2.418,1.254c-1.028,0-1.824-0.434-2.387-1.302c-0.563-0.867-0.844-1.948-0.844-3.243
		c0-0.897,0.138-1.702,0.413-2.415s0.66-1.255,1.155-1.625S33.642,30.96,34.184,30.96z M34.406,32.826
		c-0.415,0-0.732,0.239-0.952,0.717c-0.22,0.479-0.33,1.133-0.33,1.962c0,0.842,0.107,1.503,0.32,1.983
		c0.214,0.48,0.509,0.721,0.886,0.721c0.373,0,0.671-0.248,0.895-0.742c0.224-0.496,0.336-1.156,0.336-1.98
		c0-0.855-0.113-1.513-0.34-1.972C34.995,33.056,34.723,32.826,34.406,32.826z"/>
	<path fill="#FFFFFF" d="M38.475,31.105h2.057v5.865c0,0.466,0.064,0.816,0.193,1.051c0.129,0.235,0.323,0.353,0.581,0.353
		c0.271,0,0.473-0.106,0.606-0.32c0.133-0.214,0.2-0.534,0.2-0.962v-5.986h2.069v6.101c0,0.923-0.253,1.636-0.758,2.14
		c-0.506,0.503-1.218,0.755-2.136,0.755c-0.889,0-1.58-0.243-2.073-0.729c-0.493-0.487-0.739-1.209-0.739-2.165V31.105z"/>
	<path fill="#FFFFFF" d="M45.032,31.105h5.592v1.797h-1.796v7.059h-2.063v-7.059h-1.733V31.105z"/>
</g>
<g>
	<path fill="#FFFFFF" d="M55.665,39.738c-0.512,0.242-0.999,0.362-1.459,0.362c-0.995,0-1.786-0.434-2.374-1.302
		c-0.588-0.867-0.882-1.946-0.882-3.236c0-0.796,0.126-1.549,0.377-2.26c0.252-0.711,0.643-1.279,1.171-1.705
		c0.529-0.425,1.134-0.638,1.815-0.638c0.419,0,0.87,0.108,1.352,0.323v2.025c-0.334-0.33-0.694-0.495-1.079-0.495
		c-0.478,0-0.856,0.241-1.133,0.724c-0.277,0.482-0.416,1.181-0.416,2.095c0,0.783,0.139,1.41,0.416,1.882
		c0.277,0.472,0.644,0.708,1.101,0.708c0.334,0,0.705-0.159,1.11-0.476V39.738z"/>
	<path fill="#FFFFFF" d="M59.552,30.96c1.07,0,1.914,0.404,2.531,1.212c0.619,0.809,0.928,1.913,0.928,3.314
		c0,1.404-0.311,2.524-0.934,3.36c-0.621,0.836-1.428,1.254-2.418,1.254c-1.029,0-1.824-0.434-2.387-1.302
		c-0.563-0.867-0.844-1.948-0.844-3.243c0-0.897,0.137-1.702,0.412-2.415s0.66-1.255,1.154-1.625
		C58.491,31.146,59.009,30.96,59.552,30.96z M59.772,32.826c-0.414,0-0.732,0.239-0.951,0.717c-0.221,0.479-0.33,1.133-0.33,1.962
		c0,0.842,0.105,1.503,0.32,1.983c0.213,0.48,0.508,0.721,0.885,0.721c0.373,0,0.672-0.248,0.896-0.742
		c0.223-0.496,0.336-1.156,0.336-1.98c0-0.855-0.113-1.513-0.34-1.972S60.091,32.826,59.772,32.826z"/>
	<path fill="#FFFFFF" d="M63.937,31.105h2.26l1.238,3.391l1.236-3.391h2.268v8.855h-2.02v-3.313c0-0.838,0.035-1.688,0.102-2.552
		h-0.152c-0.088,0.428-0.264,1.016-0.527,1.765l-0.906,2.583l-0.902-2.583c-0.262-0.753-0.438-1.342-0.527-1.765h-0.158
		c0.072,0.8,0.107,1.65,0.107,2.552v3.313h-2.018V31.105z"/>
	<path fill="#FFFFFF" d="M72.208,31.105h5.047v1.784h-2.984v1.632h2.781v1.727h-2.781v1.904h2.984v1.809h-5.047V31.105z"/>
</g>
<g>
	<path fill="#FFFFFF" d="M12.528,67.346c0-0.069-0.001-0.126-0.006-0.182h0.108l0.007,0.111h0.003
		c0.033-0.064,0.111-0.127,0.222-0.127c0.093,0,0.237,0.056,0.237,0.286v0.401h-0.122v-0.388c0-0.108-0.041-0.198-0.156-0.198
		c-0.08,0-0.143,0.057-0.164,0.125c-0.005,0.016-0.008,0.036-0.008,0.057v0.404h-0.122V67.346z"/>
	<path fill="#FFFFFF" d="M25.843,67.346c0-0.069-0.001-0.126-0.006-0.182h0.107l0.006,0.108h0.004
		c0.038-0.064,0.1-0.124,0.211-0.124c0.092,0,0.161,0.056,0.19,0.135h0.003c0.021-0.037,0.047-0.066,0.075-0.087
		c0.041-0.031,0.085-0.048,0.148-0.048c0.089,0,0.221,0.059,0.221,0.292v0.396h-0.12v-0.381c0-0.129-0.047-0.206-0.146-0.206
		c-0.069,0-0.124,0.051-0.144,0.11c-0.006,0.017-0.01,0.039-0.01,0.062v0.415h-0.12v-0.402c0-0.107-0.047-0.185-0.14-0.185
		c-0.076,0-0.132,0.061-0.151,0.122c-0.007,0.018-0.01,0.038-0.01,0.06v0.405h-0.119V67.346z"/>
</g>
<g>
	<path fill="#FFFFFF" d="M27.345,67.836l-0.01-0.085h-0.004c-0.038,0.053-0.109,0.101-0.206,0.101c-0.136,0-0.205-0.096-0.205-0.193
		c0-0.162,0.144-0.251,0.404-0.25v-0.014c0-0.056-0.015-0.155-0.153-0.155c-0.063,0-0.127,0.019-0.175,0.05l-0.028-0.081
		c0.056-0.036,0.136-0.06,0.221-0.06c0.206,0,0.255,0.141,0.255,0.275v0.251c0,0.059,0.003,0.115,0.011,0.161H27.345z
		 M27.327,67.493c-0.133-0.003-0.285,0.021-0.285,0.151c0,0.079,0.053,0.116,0.115,0.116c0.087,0,0.143-0.056,0.163-0.112
		c0.004-0.013,0.007-0.026,0.007-0.039V67.493z"/>
	<path fill="#FFFFFF" d="M27.698,67.164l0.096,0.145c0.025,0.037,0.046,0.072,0.068,0.109h0.004c0.022-0.04,0.044-0.075,0.067-0.111
		l0.094-0.143h0.132l-0.229,0.325l0.236,0.347h-0.139l-0.099-0.151c-0.026-0.039-0.048-0.076-0.072-0.116h-0.002
		c-0.022,0.04-0.046,0.076-0.071,0.116l-0.097,0.151h-0.135l0.239-0.343l-0.228-0.329H27.698z"/>
</g>
<g>
	<defs>
		<polygon id="SVGID_1_" points="7.232,48.352 7.232,66.213 20.298,66.213 20.298,48.352 7.232,48.352 		"/>
	</defs>
	<clipPath id="SVGID_2_">
		<use xlink:href="#SVGID_1_"  overflow="visible"/>
	</clipPath>
	
		<path clip-path="url(#SVGID_2_)" fill="none" stroke="#FFFFFF" stroke-width="0.8067" stroke-linecap="round" stroke-linejoin="round" stroke-dasharray="0,1.6576" d="
		M21.26,70.537c4.776-0.752,8.488-4.705,8.868-9.596 M30.031,58.463c-0.75-4.775-4.705-8.488-9.594-8.867 M17.958,49.691
		c-4.776,0.75-8.489,4.705-8.868,9.594 M9.186,61.766c0.751,4.775,4.705,8.488,9.595,8.867"/>
	
		<path clip-path="url(#SVGID_2_)" fill="none" stroke="#FFFFFF" stroke-width="0.8067" stroke-linecap="round" stroke-linejoin="round" d="
		M30.16,60.113L30.16,60.113 M19.609,49.563L19.609,49.563 M9.058,60.113L9.058,60.113 M19.609,70.664L19.609,70.664"/>
</g>
<g>
	<defs>
		<polygon id="SVGID_3_" points="31.927,48.352 31.927,66.213 19.972,66.213 19.972,48.352 31.927,48.352 		"/>
	</defs>
	<clipPath id="SVGID_4_">
		<use xlink:href="#SVGID_3_"  overflow="visible"/>
	</clipPath>
	
		<path clip-path="url(#SVGID_4_)" fill="none" stroke="#53AEBB" stroke-width="0.8067" stroke-linecap="round" stroke-linejoin="round" stroke-dasharray="0,1.6576" d="
		M9.128,58.463c0.751-4.775,4.705-8.488,9.595-8.867 M21.202,49.691c4.776,0.75,8.488,4.705,8.868,9.594 M29.973,61.766
		c-0.75,4.775-4.705,8.488-9.594,8.867"/>
	
		<path clip-path="url(#SVGID_4_)" fill="none" stroke="#53AEBB" stroke-width="0.8067" stroke-linecap="round" stroke-linejoin="round" d="
		M9,60.113L9,60.113 M19.551,49.563L19.551,49.563 M30.102,60.113L30.102,60.113 M19.551,70.664L19.551,70.664"/>
</g>
<g>
	<defs>
		<path id="SVGID_5_" d="M19.869,52.082c-4.557,0-8.25,3.52-8.25,7.857c0,4.34,3.693,7.857,8.25,7.857
			c4.556,0,8.25-3.518,8.25-7.857C28.119,55.602,24.425,52.082,19.869,52.082L19.869,52.082z"/>
	</defs>
	<clipPath id="SVGID_6_">
		<use xlink:href="#SVGID_5_"  overflow="visible"/>
	</clipPath>
	<g clip-path="url(#SVGID_6_)">
		<defs>
			<rect id="SVGID_7_" x="11.619" y="52.082" width="16.5" height="15.715"/>
		</defs>
		<clipPath id="SVGID_8_">
			<use xlink:href="#SVGID_7_"  overflow="visible"/>
		</clipPath>
		<g clip-path="url(#SVGID_8_)">
			
				<image overflow="visible" width="40" height="37" xlink:href="BD656A5D.jpg"  transform="matrix(0.48 0 0 -0.48 10.6401 68.916)">
			</image>
		</g>
	</g>
</g>
<path fill="none" stroke="#FFFFFF" stroke-width="0.1152" d="M19.869,52.082c-4.557,0-8.25,3.52-8.25,7.857
	c0,4.34,3.693,7.857,8.25,7.857c4.556,0,8.25-3.518,8.25-7.857C28.119,55.602,24.425,52.082,19.869,52.082L19.869,52.082z"/>
<path fill="#00758D" d="M20.089,54.176c0.281,0,0.509-0.219,0.509-0.486c0-0.266-0.228-0.484-0.509-0.484
	c-0.281,0-0.509,0.219-0.509,0.484C19.58,53.957,19.808,54.176,20.089,54.176L20.089,54.176z"/>
<g>
	<path fill="#FFFFFF" d="M17.59,70.313l0.132,0.378c0.022,0.061,0.041,0.116,0.054,0.172h0.004c0.015-0.056,0.035-0.111,0.057-0.172
		l0.131-0.378h0.127l-0.264,0.672h-0.117l-0.255-0.672H17.59z"/>
	<path fill="#FFFFFF" d="M18.818,70.643c0,0.249-0.172,0.357-0.334,0.357c-0.182,0-0.322-0.134-0.322-0.346
		c0-0.226,0.147-0.357,0.333-0.357C18.688,70.297,18.818,70.438,18.818,70.643z M18.285,70.649c0,0.147,0.085,0.259,0.204,0.259
		c0.117,0,0.204-0.11,0.204-0.262c0-0.113-0.057-0.258-0.201-0.258S18.285,70.522,18.285,70.649z"/>
	<path fill="#FFFFFF" d="M18.971,69.998h0.122v0.986h-0.122V69.998z"/>
	<path fill="#FFFFFF" d="M19.86,70.801c0,0.069,0.001,0.131,0.006,0.184h-0.108l-0.007-0.109h-0.003
		C19.716,70.929,19.646,71,19.526,71c-0.105,0-0.232-0.059-0.232-0.295v-0.393h0.122v0.372c0,0.128,0.039,0.214,0.15,0.214
		c0.082,0,0.139-0.057,0.161-0.111c0.007-0.018,0.011-0.04,0.011-0.063v-0.412h0.122V70.801z"/>
	<path fill="#FFFFFF" d="M20.062,70.494c0-0.069-0.001-0.126-0.006-0.182h0.107l0.006,0.108h0.004
		c0.038-0.064,0.1-0.124,0.211-0.124c0.092,0,0.161,0.056,0.19,0.135h0.003c0.021-0.037,0.047-0.066,0.075-0.087
		c0.041-0.031,0.085-0.048,0.148-0.048c0.089,0,0.221,0.059,0.221,0.292v0.396h-0.12v-0.381c0-0.129-0.047-0.206-0.146-0.206
		c-0.069,0-0.124,0.051-0.144,0.11c-0.006,0.017-0.01,0.039-0.01,0.062v0.415h-0.12v-0.402c0-0.107-0.047-0.185-0.14-0.185
		c-0.076,0-0.132,0.061-0.151,0.122c-0.007,0.018-0.01,0.038-0.01,0.06v0.405h-0.119V70.494z"/>
	<path fill="#FFFFFF" d="M21.284,70.671c0.003,0.165,0.108,0.233,0.23,0.233c0.087,0,0.14-0.016,0.186-0.035l0.021,0.088
		c-0.043,0.019-0.117,0.041-0.224,0.041c-0.207,0-0.331-0.136-0.331-0.339c0-0.202,0.12-0.362,0.315-0.362
		c0.219,0,0.277,0.193,0.277,0.316c0,0.025-0.002,0.045-0.004,0.058H21.284z M21.643,70.583c0.001-0.078-0.032-0.198-0.169-0.198
		c-0.124,0-0.178,0.113-0.188,0.198H21.643z"/>
</g>
<line fill="none" stroke="#FFFFFF" stroke-width="0.472" x1="54.926" y1="0.944" x2="54.926" y2="19.232"/>
<path fill="#FFFFFF" d="M54.926,1.889c-0.521,0-0.944-0.423-0.944-0.944C53.982,0.424,54.405,0,54.926,0
	c0.522,0,0.944,0.424,0.944,0.944C55.87,1.466,55.448,1.889,54.926,1.889L54.926,1.889z"/>
<path fill="#FFFFFF" d="M98.983,72.105c0.225,0.281,0.088,0.588-0.158,0.221c-0.146-0.221-0.236-0.055-0.357-0.18
	c-0.15-0.152-0.285-0.389-0.395-0.576c-0.223-0.381-0.387-0.756-0.627-1.211c-0.928-1.756-1.854-3.51-2.781-5.266l-0.197,0.119
	c-0.195-0.574-0.262,0.109-0.516-0.021c-0.148-0.072,0.008-0.787,0.119-0.871c-0.475-0.92-0.949-1.838-1.424-2.756
	c-0.15-0.295-0.283-0.715-0.498-0.967c-0.154-0.18-0.441-0.158-0.297-0.377l-2.021-0.258c0.029,0.055,0.055,0.1,0.061,0.158
	c0,0.01-0.156-0.045-0.178-0.059v-0.059c0.008-0.008-0.121,0.168-0.121,0.059c0.01-0.064,0.051-0.088,0.08-0.139l-1.029-0.039
	c-0.012,0.42-0.293,1.893,0.316,1.939v-0.02h0.061v-0.355c0.332,0.008,0.289,0.729-0.021,0.771v-0.217
	c-0.043,0.014-0.063-0.008-0.059-0.061c-0.117,0.037-0.258,0.107-0.258,0.229c0,0.277-0.318,0.121-0.377,0.227
	c-0.184,0.344-0.012,1.27-0.016,1.652c-0.008,0.756-0.014,1.512-0.021,2.27c-0.002,0.24-0.092,0.934-0.359,0.934
	c-0.682,0-0.322-4.176-0.318-4.654c0.004-0.35-0.334-0.104-0.334-0.479c-0.047-0.098-0.041-0.328-0.041-0.434
	c0-0.57,0.08-1.221,0.08-1.824c-0.277,0-0.803-0.146-0.871,0.158c0-0.039-0.105,0.08-0.08,0.08c-0.037,0-0.023-0.17-0.02-0.197
	l-2.377,0.217c0.238,0.113-0.266,0.264-0.324,0.369c-0.197,0.357-0.395,0.715-0.594,1.074c-0.492,0.893-0.984,1.785-1.479,2.678
	l0.039,0.02c-0.359,0.697-0.586,0.68-0.967,1.354c-0.596,1.066-1.193,2.133-1.791,3.199c-0.383,0.682-0.764,1.363-1.145,2.045
	c-0.049,0.086-0.096,0.164-0.139,0.238c-0.102,0.168-0.191,0.322-0.309,0.482c-0.215,0.299-0.254,0.129-0.465,0.289
	c-0.051,0.039-0.557,0.623-0.361,0.174c0.117-0.262-0.1-0.291-0.055-0.398c0.105-0.246,0.211-0.494,0.316-0.74
	c0.189-0.441,0.533-0.914,0.775-1.344c0.613-1.096,1.227-2.191,1.842-3.285c0.182-0.326,1.193-1.617,0.771-1.875
	c-0.426,0.055,0.031-0.891,0.375-0.793l-0.018,0.158l0.059-0.098l0.059,0.039c1.086-1.99,2.176-3.984,3.293-5.959
	c0.563-0.992,1.098-2.002,1.66-2.994c0.227-0.41,0.533-1.285,0.91-1.625c0.223-0.197,1.236-0.244,0.676-0.754
	c-0.131-0.119-0.746,0.004-0.754-0.02c-0.059-0.08,0.1-0.506,0.139-0.516c0.09,0-0.02,0.422,0.516,0.336v-0.059
	c0.168-0.033,0.246-0.051,0.436-0.098c-0.018-0.127-0.088-0.482,0.01-0.605c0.232-0.207-0.572-0.137-0.504-0.078
	c-0.273-0.227-0.51-0.547-0.158-0.863c0.238-0.27,0.572-0.492,0.842-0.736c0.258-0.24-0.014-0.357,0.25-0.598
	c0.117-0.107,0.186-0.219,0.393-0.309c0.236-0.105,0.1-0.213,0.385-0.09c0.111,0.047,0.283-0.104,0.348-0.207
	c-0.455-0.314-0.404-0.24-0.754,0.158c-0.869,0.633-2.025,1.518-2.535,2.416c0.461,0.289,0.008,0.572-0.455,0.1
	c-0.754-0.621,0.313-0.383,0.316-0.387c0.883-0.766,1.768-1.787,2.695-2.506c-0.074-0.035-0.113-0.092-0.197-0.119
	c0.178-0.205,0.201-0.121,0.236,0.061c0.096-0.008,0.146-0.025,0.238-0.1c-0.234-0.23-0.451-0.482-0.674-0.729
	c-0.16-0.178-0.354,0.496-0.594-0.064c-1.42,1.191-2.816,2.43-4.174,3.689c-0.391,0.363-0.807,0.842-1.16,1.166
	c-0.459,0.416-0.594,0.385-1.084-0.061c-0.207-0.205-1.611-1.459-1.367-1.822c0.063-0.248,0.975-0.805,1.119-0.932
	c0.91-0.803,1.805-1.623,2.701-2.436c2.502-2.273,4.867-4.379,7.432-6.678l-0.279-0.078c-0.086,0.146-0.166,0.171-0.217,0
	c-0.197-0.086-1.178,0.798-1.307,1.011c-0.094-0.08-0.406-0.298-0.416-0.416c-0.01-0.087,0.291-0.119,0.217-0.229
	c-0.063-0.095,0.801-0.815,0.879-0.889c0.078-0.076-0.074-0.107-0.105-0.171c-0.133-0.202,0.27-0.107,0.283-0.121
	c0.166-0.151,0.438-0.65,0.51-0.562c0.182,0.226,0.549-0.345,0.674-0.466c0.371-0.369,0.594-0.877,1-0.456
	c0.406,0.425-0.135,0.656-0.525,1.012c-0.275,0.247-0.496,0.635-0.773,0.833c0.355,0.096,0.701-0.029,0.967-0.272
	c0.254-0.229,0.414-0.691,0.617-0.561c0.217-0.159,0.277-0.337,0.453-0.489c0.475-0.41,0.617-0.005,0.994,0.44
	c0.279,0.323,2.037,1.842,0.871,1.97c-1.029,0.921-2.057,1.843-3.086,2.763c-0.641,0.574-1.281,1.15-1.922,1.723
	c-0.277,0.248-0.992,0.598-0.439,0.922l-0.219,0.178c0.082,0.086,0.027,0.131-0.078,0.16c0.207,0.25,0.482,0.529,0.633,0.752
	c0.15-0.105,0.258-0.238,0.299-0.396c0.059,0.035,0.152,0.139,0.197,0.197c-1.354,0.414,1.676,2.037,0.893,2.576
	c0.514,0.576,1.025,1.15,1.541,1.723c0.381,0.43,0.619-0.859,1.072,0c0.17-0.162,0.064-0.344-0.139-0.473
	c0.238-0.154,0.416,0.084,0.584,0.275c0.496,0.568-0.234,0.152-0.385,0.299c0.436,0.225,0.189,0.889-0.238,0.889
	c0.275,0.313,0.705,1.027,1.07,1.131c-0.023,0.16-0.113,0.234-0.258,0.256c0.016-0.211-0.246-0.396-0.406-0.574
	c-0.408-0.457-0.42-0.756-0.92-0.375c-0.381,0.281-0.414,0.07-0.713-0.266c-0.391-0.438-0.178-0.488,0.275-0.865
	c-0.555-0.627-1.109-1.254-1.664-1.881c-0.406,0.51-0.684-0.547-1.01-0.553c-0.436-0.01-0.143,0.486-0.258,0.582
	c0.039-0.031-0.119,0.797-0.119,0.803c0,0.279,0.352,0.449,0.1,0.762c-0.174,0.219-0.461,0.268-0.715,0.168
	c-0.07,0.268,0.084,0.465,0.221,0.537c0.188,0.039,0.313,0.059,0.533,0.078c0.029-0.064-0.064-0.199,0.1-0.199
	c0.109,0,0.07,0.773-0.02,0.773c-0.143,0,0.098-0.455-0.334-0.455c-0.301,0-0.381,0.346-0.221,0.586
	c0.076,0.115,0.416,0.027,0.545,0.158c0.363,0.367,0.572,0.92,0.813,1.389c1.084,2.129,2.158,4.268,3.277,6.377
	c0.531,1.002,1.023,2.025,1.566,3.021c0.096,0.17,0.633,0.717,0.277,0.85C95.835,65.637,99.554,71.783,98.983,72.105 M87.296,58.973
	c-0.004-0.984-0.008-1.965-0.012-2.951c-0.004-0.686-0.135-1.531,0.012-2.18c-1.117,2.006-2.232,4.014-3.348,6.021l0.059,0.021
	l-0.039,0.078c0.672-0.059,1.342-0.117,2.014-0.176c-0.072,0.008,0.055-0.432,0.289-0.504C86.612,59.18,86.954,59.076,87.296,58.973
	 M88.306,58.479l0.061-4.596c-0.217,0.064-0.461,0.045-0.674,0.018c-0.008,1.527-0.014,3.051-0.02,4.578
	C87.827,58.316,88.132,58.342,88.306,58.479 M88.583,50.672c-0.186-0.215-0.383,0.049-0.414,0.061l-0.16,0.098
	c0.141,0.064,0.293,0.127,0.436,0.18C88.448,50.863,88.495,50.758,88.583,50.672 M91.772,59.982l0.08-0.02
	c-1.039-2.006-2.111-3.996-3.111-6.021c0,0.131,0,0.232,0,0.355c-0.236,0.252-0.039,1.865-0.039,2.24
	c0,0.447-0.012,0.898-0.023,1.348c-0.02,0.609-0.244,0.957,0.35,1.162c0.33,0.113,0.66,0.229,0.99,0.344
	c0.207,0.072,0.031,0.463,0.143,0.475C90.452,59.902,91.771,60.133,91.772,59.982"/>
<path fill="#FFFFFF" d="M68.024,68.154c0,2.66-1.916,4.453-4.539,4.334c-2.146-0.107-4.383-2.557-3.633-4.787
	c-0.068,0.096-0.328,0.432-0.484,0.328c0-1.313,0.982-2.357,1.773-3.254c-0.199-0.049-0.17-0.424-0.168-0.561
	c-0.604,0.068-0.982,0.354-1.363,0.801c-0.49,0.58-0.459-0.172-0.879-0.006c-0.379,0.152,0.086,0.379-0.133,0.598
	c-0.084,0.086,0.418,0.545,0.498,0.693c0.238,0.443,0.141,0.941-0.09,1.361c-0.121,0.223-0.129,0.471-0.268,0.686
	c-0.191,0.295-0.182,0.191-0.096,0.529c0.09,0.314-0.277,0.533-0.504,0.305c0.295,0.869-1.008,0.762-1.51,0.762
	c0,0.082-1.86,0.025-1.977-0.031v0.049c-0.222-0.008-1.034-0.09-0.452-0.391c-0.599,0-1.197-0.23-1.79-0.141
	c-0.121,0.123-0.4,0.148-0.514,0.016c0.017-0.035-0.452,0.326-0.451,0.326c-0.162,0.049-0.348,0-0.529,0
	c-0.499,0-1.009-0.1-1.51-0.061c-0.77,0.059-0.887,0.949-1.429,1.457c-0.83,0.783-1.824,1.115-2.961,1.072
	c-2.227-0.092-4.296-2.387-3.643-4.631c0.029-0.092-0.03-0.109,0.031-0.232c-0.102,0.051-0.662,0.512-0.404,0
	c0.11-0.23-0.019-0.688,0.077-0.936c0.053-0.098,0.131-0.16,0.234-0.188c0.12-0.193,0.21-0.426,0.374-0.592
	c-0.037-0.273,0.403-0.479,0.568-0.637c0.164-0.158,0.467-0.477,0.708-0.232c0.145,0.145-0.313,0.51-0.389,0.605
	c0.523-0.262,0.876-0.68,1.478-0.84c-0.226-0.152-0.441-0.295-0.294-0.592c0.036-0.072,0.067-0.172,0.092-0.25
	c0.075-0.229-0.16-0.211-0.116-0.49c0.055-0.43,0.263-0.088,0.463-0.23c0.182-0.131,0.607-0.484,0.696-0.273
	c0.358,0.252,0.718,0.506,1.078,0.762c0.204,0.145,0.923,0.881,1.07,0.498c-0.686-0.469-1.371-0.936-2.057-1.404
	c-0.284-0.195-0.569-0.389-0.854-0.582c-0.208-0.143-0.487-0.102-0.7-0.209c-0.194-0.047-0.879,0.203-1.075,0.373
	c-0.272,0.289-0.462,1.059-0.964,1.059c-0.045,0.09-0.264,0.125-0.342,0.047c-0.06,0,0.272-0.654,0.279-0.668
	c0.141-0.244,0.329-0.537,0.53-0.686c-0.237,0-0.722,0.025-0.467-0.404c0.057-0.17-0.101-0.197-0.234-0.141
	c-0.016-0.09-0.346-0.855-0.186-0.855c0.134-0.156,0.818,0.139,0.996,0.186c0.117-0.221,0.427-0.717,0.109-0.998
	c-0.116-0.1-0.613-0.199-0.787-0.234c-0.359-0.07-0.434-0.387-0.025-0.387c1.628,0,3.086,0.725,4.734,0.854
	c0.688,0.053,1.523-0.127,1.931,0.555c0.168,0.289,0.221,0.377,0.541,0.545c0.446,0.236,0.934,0.4,1.424,0.516
	c0.775,0.178,1.675,0.141,2.299-0.414c0.192-0.17,0.319-0.014,0.422-0.191c0.165-0.289,0.412-0.531,0.648-0.762
	c0.591-0.568,1.278-1.051,2.051-1.336c0.479-0.174,1.027,0.018,1.502,0.119c0.246,0.053,0.531,0.045,0.764,0.1
	c0.205,0.105,1.047,0.48,0.777,0.84l0.125,0.033c0.041-0.285,0.057-0.598,0.133-0.873c-0.059,0.262-0.619-0.039-0.693-0.188
	c-0.188-0.125-0.623,0.129-0.623-0.107c0-0.35-0.352-0.094-0.496-0.094c-0.377-0.031-0.342-0.287-0.342-0.584
	c0-0.299,0.482-0.145,0.637-0.133c0.031-0.203,0.328-0.295,0.545-0.279c0.078-0.475,0.014-0.877,0.014-1.354
	c-0.693,0.357-0.189-1.215-0.279-1.215c0.105,0-0.01-0.281,0.086-0.342c0.207-0.137,0.605,0.584,0.643,0.748
	c0.064,0.277-0.107,0.338-0.168,0.559c-0.154,0.314,0,0.764,0,1.129c0,0.232-0.033,0.664,0.186,0.832
	c0.002-0.088-0.023-0.545,0.125-0.545c0.211,0,0.99-0.008,0.641,0.342h0.045c0.043,0.297-0.199,0.273-0.219,0.451
	c-0.004,0.055,0.371,0.219,0.125,0.297c0.217,0.172,0.576,0.172,0.92,0.344c0.154,0.047,0.229-0.162,0.318,0.035
	c0.082,0.178,0.133,0.141,0.209,0.229c0.258,0.293,0.512,0.576,0.67-0.047l-0.031,0.047l-0.045-0.047
	c-0.07,0.004-0.35-0.225-0.268-0.334c0.348-0.463,0.748-0.754,0.484-1.355c-0.254-0.549-0.914-0.965-1.385-1.33
	c-0.158-0.318,0.74-0.771,0.949-0.98c0.695,1.371,2.477,2.365,2.785,3.891c0.098,0.16,0.133,0.416,0.135,0.596
	c0.004,0.186-0.195,0.672-0.182,0.76c0.045,0.25,0.605,0.518,0.873,0.676c0.566,0.336,1.273,0.734,1.525,1.379
	c0.117,0.295-0.059,0.189-0.279,0.123c-0.467-0.135-0.932-0.273-1.4-0.404c-0.254,0-0.871-0.369-1.168-0.436
	c0,0.195-0.645,0.094-0.764-0.031c-0.287-0.135-0.311-0.109-0.631-0.109c-0.17,0-0.453,0.4-0.387,0.533
	c0.17,0.344,0.338,0.686,0.508,1.025c0.111,0.227,0.26,0.775,0.463,0.934c0.273,0.211,0.75-0.006,1.098-0.023
	c0.41-0.023,0.832-0.002,1.238,0.059c0.104,0.016,1.066,0.281,1.049,0.299c-0.096,0.1-0.367,0.129-0.49,0.162
	C66.69,65.066,67.812,66.455,68.024,68.154 M43.087,60.541c-0.219,0,0.167-0.49,0.171-0.498c-0.485-0.143-0.568,0.023-0.732,0.482
	c0.141,0.143,0.528,0.127,0.685,0.063C43.182,60.549,43.141,60.531,43.087,60.541 M42.899,67.844
	c-0.064,0.172-0.051,0.377-0.046,0.559l0.593-0.186C43.26,68.105,43.054,67.992,42.899,67.844 M42.884,68.449
	c-0.096,0.543,0.638,0.264,0.638,0.334C43.522,67.971,43.442,68.449,42.884,68.449 M42.916,68.807
	c0.025,0.129,0.099,0.246,0.124,0.375c0.135-0.115,0.27-0.23,0.406-0.344C43.31,68.822,43.044,68.871,42.916,68.807 M42.946,67.826
	c0.061,0.043,0.568,0.416,0.576,0.342C43.547,67.955,43.134,67.873,42.946,67.826 M42.992,67.266l0.454,0.186
	c-0.125-0.102-0.251-0.205-0.375-0.309C43.045,67.184,43.02,67.225,42.992,67.266 M43.087,69.289c0.218,0,0.436-0.029,0.654-0.029
	c-0.095-0.09-0.127-0.508-0.283-0.379C43.3,69.012,43.09,69.111,43.087,69.289 M43.102,69.32c0.077,0.174,0.191,0.363,0.327,0.498
	c0.108-0.176,0.218-0.352,0.326-0.529C43.537,69.301,43.32,69.311,43.102,69.32 M43.429,66.66l0.28,0.17
	C43.682,66.623,43.583,66.494,43.429,66.66 M43.46,69.85c0.107,0.316,0.479-0.041,0.654-0.139c-0.122-0.109-0.27-0.242-0.343-0.391
	C43.657,69.49,43.561,69.674,43.46,69.85 M43.6,68.449c0.083-0.029,0.083-0.066,0-0.109C43.537,68.381,43.537,68.418,43.6,68.449
	 M44.021,66.223c-0.255,0.133-0.551,0.244-0.211,0.42C44.353,66.924,44.021,66.607,44.021,66.223 M43.616,68.855
	c0,0.088,0.09,0.055,0.109,0C43.688,68.855,43.651,68.855,43.616,68.855 M43.632,70.035c0.052,0.043,0.201,0.236,0.28,0.236
	c0.062-0.168,0.124-0.332,0.187-0.5C43.943,69.861,43.787,69.949,43.632,70.035 M43.755,66.861c0.077,0.074,0.196,0.129,0.282,0.141
	c-0.125-0.225-0.029-0.234-0.358-0.389C43.703,66.693,43.718,66.787,43.755,66.861 M43.741,68.652
	c0.048,0.051,0.127-0.029,0.077-0.078C43.793,68.6,43.767,68.625,43.741,68.652 M43.833,68.994c-0.083,0.041-0.083,0.078,0,0.109
	C43.896,69.072,43.896,69.035,43.833,68.994 M43.833,69.32c0,0.07,0.106,0.012,0.11-0.047C43.891,69.268,43.844,69.277,43.833,69.32
	 M44.037,68.807c-0.029-0.107-0.062-0.176-0.125-0.232C43.912,68.721,43.952,68.83,44.037,68.807 M44.005,68.449
	c-0.018,0.045-0.053,0.006-0.062,0.078c0.021,0.01,0.041,0.021,0.062,0.031C44.005,68.521,44.005,68.486,44.005,68.449
	 M44.145,70.41l0.452-0.42c-0.115-0.049-0.358-0.152-0.452-0.25C44.035,69.961,43.818,70.316,44.145,70.41 M44.084,69.369
	c-0.063,0.039-0.063,0.076,0,0.107C44.166,69.445,44.166,69.41,44.084,69.369 M44.425,66.035c-0.422,0.219-0.368,0.193-0.233,0.67
	l0.545-0.17C44.626,66.381,44.508,66.207,44.425,66.035 M44.067,69.088c0.019,0.037,0.187,0.148,0.187,0.109
	c-0.039-0.078-0.105-0.18-0.14-0.219C44.099,69.016,44.084,69.051,44.067,69.088 M44.16,69.648c0,0.072,0.082-0.016,0.094-0.031
	C44.226,69.594,44.16,69.584,44.16,69.648 M44.176,70.428c0.154,0.086,0.374,0.201,0.561,0.201
	c-0.027-0.213-0.052-0.426-0.078-0.639C44.49,70.102,44.329,70.277,44.176,70.428 M44.566,69.477
	c-0.034-0.094-0.109-0.17-0.203-0.217C44.242,69.385,44.515,69.484,44.566,69.477 M44.535,69.633c-0.032-0.082-0.064-0.082-0.094,0
	C44.471,69.693,44.503,69.693,44.535,69.633 M44.908,65.943c-0.156,0-0.301,0.068-0.452,0.092c0.104,0.162,0.208,0.322,0.311,0.484
	C44.815,66.33,44.847,66.129,44.908,65.943 M44.627,69.805c-0.074,0-0.052,0.125,0.015,0.125
	C44.638,69.887,44.633,69.846,44.627,69.805 M44.612,69.539c0.099,0.049,0.203,0.084,0.311,0.109
	C44.768,69.648,44.78,69.393,44.612,69.539 M44.689,69.865c0-0.025-0.01-0.035-0.03-0.031l0.016,0.078
	C44.674,69.895,44.689,69.883,44.689,69.865 M44.814,70.66l0.312-0.592c-0.118,0-0.346-0.006-0.451-0.078
	C44.706,70.213,44.715,70.492,44.814,70.66 M44.938,65.959l-0.124,0.545c0.173-0.227,0.326-0.018,0.157,0.156
	c0.13-0.033,0.113-0.174,0.264-0.125C45.136,66.344,45.037,66.15,44.938,65.959 M44.847,69.771c0.012,0.049,0.044,0.064,0.091,0.047
	c0-0.025,0-0.051,0-0.078C44.876,69.707,44.9,69.771,44.847,69.771 M44.86,68.34c-0.031,0.266,0.174,0.4,0.406,0.359
	C45.206,68.471,45.107,68.324,44.86,68.34 M44.877,70.676c0.13,0.021,0.272,0.029,0.404,0.029c-0.047-0.18-0.092-0.361-0.139-0.545
	C45.053,70.332,44.965,70.504,44.877,70.676 M45.001,69.633l-0.03,0.016C45.02,69.678,45.03,69.672,45.001,69.633 M45.546,65.943
	c-0.156-0.053-0.406-0.02-0.561,0c0.099,0.197,0.198,0.395,0.296,0.592C45.369,66.338,45.458,66.141,45.546,65.943 M45.048,69.664
	c0.108,0.014,0.153-0.02,0.14-0.094c-0.047,0-0.093,0-0.14,0C45.048,69.602,45.048,69.633,45.048,69.664 M45.063,69.912
	c-0.052,0,0.004,0.09,0.047,0.094C45.095,69.975,45.078,69.943,45.063,69.912 M45.142,69.975c0.042,0-0.008-0.059-0.032-0.063
	C45.11,69.947,45.109,69.994,45.142,69.975 M45.452,70.691c0.348,0,0.24-0.441,0.266-0.73c-0.117,0.045-0.584,0.072-0.55,0.197
	C45.224,70.359,45.209,70.705,45.452,70.691 M46.947,63.406c-0.343-0.225-1.361-1.125-1.697-1.012
	C45.582,62.617,46.607,63.563,46.947,63.406 M45.375,69.865c-0.032-0.063-0.068-0.063-0.109,0
	C45.308,69.949,45.344,69.949,45.375,69.865 M45.872,66.035c-0.491-0.23-0.587,0.688-0.45,0.688
	C45.935,66.723,45.858,66.594,45.872,66.035 M45.36,69.586c0,0.096,0.059-0.035,0.062-0.047
	C45.383,69.537,45.358,69.549,45.36,69.586 M45.422,69.617c0.064,0.096,0.231-0.035,0.154-0.109
	C45.489,69.521,45.486,69.586,45.422,69.617 M45.609,66.877l0.062-0.063c-0.074,0.006-0.146,0.01-0.219,0.016
	C45.505,66.846,45.557,66.861,45.609,66.877 M45.576,69.85c-0.047,0.002-0.067,0.027-0.061,0.08
	C45.607,70.115,45.584,69.801,45.576,69.85 M45.593,67.002c0.03,0.082,0.066,0.082,0.108,0
	C45.661,66.939,45.624,66.939,45.593,67.002 M45.857,66.971c-0.072-0.1-0.037-0.225-0.201-0.078
	C45.723,66.918,45.79,66.945,45.857,66.971 M45.686,70.66c0.197,0,0.376-0.055,0.545-0.156c-0.156-0.154-0.312-0.311-0.467-0.469
	C45.738,70.244,45.711,70.451,45.686,70.66 M45.748,69.711C45.696,69.764,45.71,69.775,45.748,69.711 M45.748,69.961
	c0.161,0.164,0.318,0.334,0.483,0.496c-0.01-0.1,0.008-0.59-0.062-0.639C45.998,69.701,45.941,69.961,45.748,69.961 M45.764,69.787
	C45.797,69.715,45.812,69.682,45.764,69.787 M45.889,69.338c-0.056,0.023-0.092,0.066-0.095,0.123
	C45.815,69.473,46.1,69.373,45.889,69.338 M45.889,66.986c0.172,0.016,0.279-0.102,0.435-0.219
	C46.112,66.895,45.87,66.676,45.889,66.986 M45.982,69.648c-0.085,0,0.002,0.137,0.046,0.092
	C46.097,69.676,46.007,69.703,45.982,69.648 M46.028,69.43c0.033,0.063,0.069,0.063,0.11,0C46.096,69.348,46.06,69.348,46.028,69.43
	 M47.01,69.99c-0.068-0.105-0.249-0.527-0.359-0.561c-0.244-0.07-0.247,0.154-0.436,0.25c-0.071,0.143,0.227,0.313,0.302,0.383
	C46.741,70.264,46.79,70.24,47.01,69.99 M46.278,70.488c0.126,0,0.301-0.182,0.403-0.232c-0.154-0.131-0.31-0.26-0.466-0.391
	C46.235,70.074,46.257,70.281,46.278,70.488 M46.418,67.174l-0.14,0.092l0.108,0.125C46.48,67.316,46.52,67.238,46.418,67.174
	 M46.294,69.352c-0.005-0.002,0.108,0.158,0.108,0.018C46.366,69.361,46.33,69.357,46.294,69.352 M47.103,63.156
	c0.201-0.289-0.292-0.283-0.513-0.342C46.761,62.93,46.932,63.041,47.103,63.156 M46.668,67.451
	c-0.048,0.047,0.644-0.061,0.652-0.061L47.273,67.5C47.706,67.166,46.861,67.236,46.668,67.451 M47.04,69.975
	c0.086-0.131,0.184-0.277,0.296-0.389c-0.16-0.131-0.43-0.15-0.638-0.156C46.812,69.611,46.926,69.793,47.04,69.975 M46.76,67.313
	l0.56-0.139C47.206,66.824,46.878,67.104,46.76,67.313 M47.119,69.414c-0.211,0.105,0.041,0.014,0.139,0.063
	C47.211,69.363,47.18,69.426,47.119,69.414 M47.057,63.547c0.035,0.039,0.013,0.082,0.062,0.123
	C47.13,63.582,47.143,63.459,47.057,63.547 M47.368,69.492c0.078-0.158,0.16-0.273,0.202-0.451
	C47.397,69.045,47.094,69.391,47.368,69.492 M47.289,63.639v0.031C47.353,63.678,47.33,63.66,47.289,63.639 M47.383,63.779
	c-0.064,0.064,0.196,0.049,0.202,0.047C47.51,63.754,47.465,63.779,47.383,63.779 M47.383,63.281
	c0.153,0.346,0.816,0.602,1.136,0.811C48.339,63.9,47.597,62.771,47.383,63.281 M48.675,65.367c0.318,0-0.263-0.455-0.268-0.459
	c-0.268-0.184-0.536-0.369-0.806-0.553C47.33,64.643,48.42,65.188,48.675,65.367 M47.601,68.947l-0.094,0.031
	C47.555,69.004,47.591,69.006,47.601,68.947 M47.725,63.936C47.725,63.746,47.646,64.02,47.725,63.936 M47.896,64.029l-0.155,0.063
	l0.949,0.652C48.812,64.424,48.128,64.178,47.896,64.029 M48.815,64.807c0.108,0.035,0.145,0.117,0.218-0.047
	c-0.048-0.045-0.14-0.102-0.203-0.123C48.825,64.693,48.819,64.75,48.815,64.807 M48.83,66.705c0.168,0,0.229,0.072,0.328-0.092
	C49.02,66.605,48.869,66.645,48.83,66.705 M48.862,64.309l0.326,0.217c0.021-0.035,0.041-0.072,0.062-0.107
	C49.114,64.352,48.958,64.322,48.862,64.309 M49.002,65.633c0.046,0.039,0.055,0.105,0.14,0.094
	C49.096,65.693,49.049,65.662,49.002,65.633 M49.017,69.477c0.136,0,0.429-0.021,0.529-0.125
	C49.408,69.211,49.029,69.236,49.017,69.477 M49.079,65.523c0.082,0.115,0.176,0.119,0.28,0.014
	C49.248,65.42,49.144,65.385,49.079,65.523 M49.422,65.896c-0.217-0.16-0.254,0.002-0.343,0.186
	C49.196,66.047,49.322,65.979,49.422,65.896 M49.516,69.025c0.185-0.096,0.61-0.043,0.825-0.063
	c-0.061-0.029-0.187-0.143-0.187-0.219c-0.021,0.021-0.227,0.105-0.171,0.141c0,0.084-0.174-0.33-0.171-0.326l-0.484-0.047
	c0.011,0.09,0,0.189,0,0.279c0,0.082-0.138-0.164-0.14-0.172C49.127,68.982,49.097,69.025,49.516,69.025 M49.282,64.932
	c-0.178,0.16,0.025,0.225,0.234,0.342C49.56,65.096,49.456,64.979,49.282,64.932 M49.22,66.736c0.096,0.232,0.185,0.092,0.171-0.141
	C49.268,66.574,49.2,66.609,49.22,66.736 M49.453,65.787V65.74C49.376,65.754,49.414,65.771,49.453,65.787 M49.47,64.572
	c0.039,0.127-0.039,0.236,0.186,0.125C49.539,64.697,49.54,64.617,49.47,64.572 M49.656,66.736c0.032,0.037,0.17,0.107,0.17,0
	C49.77,66.736,49.713,66.736,49.656,66.736 M49.718,64.215l0.265,0.109c0.022-0.074,0.014-0.203,0.014-0.281
	C49.84,64.018,49.791,64.09,49.718,64.215 M50.231,69.273c-0.115-0.021-0.222-0.012-0.248,0.078
	C50.084,69.373,50.181,69.354,50.231,69.273 M50.091,66.52c0.059,0.033,0.122,0.055,0.188,0.061
	C50.233,66.482,50.185,66.539,50.091,66.52 M50.575,69.414c0.088,0,0.193-0.004,0.279-0.029c-0.12-0.063-0.243-0.072-0.374-0.033
	c-0.068-0.037-0.078-0.162-0.226-0.023c-0.047,0.055,0.036-0.027,0.055,0.01C50.31,69.455,50.44,69.449,50.575,69.414
	 M50.372,66.488c0.115,0.205,0.213,0.063,0.435,0.063C50.677,66.479,50.525,66.457,50.372,66.488 M50.575,65.213
	c0.101,0,0.142,0.115,0.154,0.17c0.021-0.031,0.043-0.063,0.063-0.094C50.713,65.213,50.627,65.162,50.575,65.213 M50.636,64.979
	C50.737,64.93,50.688,64.951,50.636,64.979 M51.274,68.201c0.344-0.355-0.445-0.174-0.403,0.076c-0.022,0.023-0.141-0.031-0.188,0
	c0.131,0-0.007,0.271,0.218,0.078C50.982,68.277,51.166,68.24,51.274,68.201 M51.135,69.338c-0.091-0.016-0.088-0.1-0.171-0.049
	C51.031,69.41,51.072,69.326,51.135,69.338 M51.539,66.629l-0.015-0.125C51.484,66.541,51.499,66.592,51.539,66.629 M52.052,66.564
	c0.055-0.074,0.069-0.168,0.047-0.264c-0.048,0.031-0.342,0.18-0.342,0.031c0.067,0.332,0.1,0.094,0.187,0.094
	C51.993,66.479,52.013,66.523,52.052,66.564 M52.177,68.107v-0.031l-0.078,0.063C52.126,68.146,52.177,68.148,52.177,68.107
	 M52.8,68.186c-0.007-0.07-0.056-0.084-0.123-0.064c0.01-0.027,0.005-0.049-0.017-0.061c-0.062,0.047-0.111,0.115-0.124,0.186
	C52.638,68.287,52.723,68.27,52.8,68.186 M53.36,68.311l-0.062-0.047C53.273,68.309,53.316,68.313,53.36,68.311 M53.843,68.293
	c-0.195-0.063-0.297-0.135-0.42,0.018C53.563,68.305,53.703,68.301,53.843,68.293 M58.528,58.971c0.258,0,0.109,0.346,0.109,0.498
	c0.199-0.063,0.148-0.125,0.139-0.266h0.018c-0.096-0.404-0.449-0.482-0.811-0.482C58.37,58.918,57.911,58.971,58.528,58.971
	 M58.919,60.014v-0.141c-0.186,0.127-0.297,0.045-0.313-0.174l-0.047,0.268C58.683,59.977,58.813,59.992,58.919,60.014
	 M59.634,58.986c0.133,0-0.238-0.15-0.266-0.158C59.399,59.002,59.481,58.953,59.634,58.986 M60.974,63.594
	c0.051-0.029,0.102-0.023,0.154,0.016c-0.082-0.174-0.18-0.342-0.266-0.514C60.899,63.262,60.937,63.428,60.974,63.594
	 M61.05,68.527c-0.01,0.141,0.008,0.283,0.047,0.42c0.115-0.045,0.627-0.164,0.67-0.266c0.102-0.24-0.609-0.381-0.717-0.404
	C61.05,68.357,61.032,68.451,61.05,68.527 M61.222,67.516c-0.104,0.227-0.117,0.477-0.156,0.717
	c0.188-0.039,0.557-0.031,0.701-0.172C61.985,67.803,61.394,67.689,61.222,67.516 M61.159,69.227l0.965-0.063
	c-0.063-0.217-0.24-0.271-0.342-0.449C61.53,68.811,60.94,68.865,61.159,69.227 M61.642,68.168l-0.482,0.096
	c0.166,0.061,0.33,0.125,0.498,0.186C61.651,68.361,61.667,68.254,61.642,68.168 M61.159,69.273
	c0.219,1.004,0.537,0.396,0.965-0.076C61.804,69.223,61.479,69.248,61.159,69.273 M61.237,67.484l0.637,0.406
	c0-0.166-0.08-0.303,0.078-0.453C61.704,67.389,61.327,67.184,61.237,67.484 M61.329,67.266c0.129,0.031,0.717,0.262,0.717,0.063
	c0.082-0.17-0.264-0.51-0.357-0.605C61.544,66.861,61.435,67.1,61.329,67.266 M61.485,69.961c0.088,0.139,0.26,0.418,0.42,0.496
	c0.168-0.25,0.385-0.508,0.5-0.777C62.122,69.748,61.698,69.771,61.485,69.961 M62.372,69.633c-0.104-0.055-0.189-0.313-0.217-0.406
	c-0.191,0.209-0.385,0.416-0.576,0.623C61.833,69.787,62.142,69.75,62.372,69.633 M61.782,66.785l0.248,0.311
	C62.085,66.953,61.94,66.848,61.782,66.785 M61.798,66.596c0.023,0.047,0.061,0.078,0.107,0.094
	c0.008-0.121,0.064-0.143,0.156-0.061c0.006-0.074,0.037-0.135-0.078-0.219C61.927,66.469,61.839,66.527,61.798,66.596
	 M61.952,70.504c0.234,0.361,0.646-0.213,0.857-0.389c-0.141-0.119-0.297-0.229-0.389-0.389
	C62.251,69.979,62.116,70.248,61.952,70.504 M62.108,66.301c0.113,0.227,0.174,0.627,0.498,0.607
	c-0.088-0.26-0.176-0.518-0.264-0.777C62.269,66.184,62.165,66.232,62.108,66.301 M62.187,70.691
	c0.186,0.125,0.371,0.232,0.576,0.326c0.041-0.285,0.082-0.572,0.125-0.857C62.649,70.227,62.394,70.52,62.187,70.691
	 M62.343,69.041C62.343,69.156,62.39,69.119,62.343,69.041 M62.372,68.947C62.485,68.891,62.276,68.844,62.372,68.947
	 M62.513,69.445C62.388,69.445,62.466,69.475,62.513,69.445 M62.466,66.316l0.094,0.313C62.599,66.535,62.556,66.414,62.466,66.316
	 M62.56,69.74c0.004,0.004-0.012,0.152,0.063,0.078C62.69,69.818,62.556,69.736,62.56,69.74 M62.669,68.465h-0.094
	C62.628,68.516,62.673,68.557,62.669,68.465 M62.638,66.861c0.01-0.055-0.006-0.096-0.047-0.125
	C62.606,66.777,62.62,66.82,62.638,66.861 M62.638,69.57c0.063-0.031,0.063-0.063,0-0.094C62.575,69.508,62.575,69.539,62.638,69.57
	 M62.7,68.994c-0.125,0.084,0.025,0.154,0.141,0.016C62.792,69.012,62.747,68.994,62.7,68.994 M62.685,69.164l0.031,0.033
	C62.759,69.146,62.739,69.143,62.685,69.164 M62.979,69.135c-0.33,0-0.203,0.174,0,0.311C63.036,69.326,63.017,69.238,62.979,69.135
	 M62.81,70.955c0.17-0.189,0.305-0.408,0.482-0.592c-0.139-0.033-0.262-0.088-0.373-0.17C62.882,70.445,62.845,70.701,62.81,70.955
	 M62.81,71.018c0.227,0.115,0.461,0.18,0.715,0.203c-0.016-0.15-0.004-0.766-0.139-0.811C63.253,70.365,62.903,70.904,62.81,71.018
	 M62.95,69.119c-0.023-0.035-0.049-0.066-0.078-0.094l-0.047,0.078C62.849,69.127,62.919,69.123,62.95,69.119 M62.825,69.805
	C62.825,69.859,62.825,69.744,62.825,69.805 M62.888,69.961l0.014,0.029C62.911,69.965,62.907,69.953,62.888,69.961 M62.966,70.131
	c0.039,0.063,0.076,0.063,0.107,0C63.042,70.068,63.005,70.068,62.966,70.131 M62.979,65.818l0.141,0.342
	c0.018-0.115-0.012-0.256-0.016-0.373C63.063,65.799,63.022,65.809,62.979,65.818 M63.243,69.414
	c-0.08-0.047-0.148-0.107-0.199-0.188c-0.012,0.082-0.039,0.17-0.033,0.25C63.089,69.471,63.192,69.443,63.243,69.414
	 M63.089,69.508c0.074,0.072,0.162,0.113,0.266,0.125C63.362,69.451,63.261,69.424,63.089,69.508 M63.151,65.787
	c-0.021,0.416,0.002,0.801,0.498,0.701C63.532,66.254,63.409,65.727,63.151,65.787 M63.198,70.1
	c-0.033,0.051-0.012,0.082,0.063,0.094C63.392,70.193,63.187,70.09,63.198,70.1 M63.198,69.865
	C63.216,69.979,63.222,69.889,63.198,69.865 M64.085,65.693c-0.244-0.029-0.508-0.02-0.746,0.047
	c0.109,0.24,0.219,0.477,0.326,0.715C63.778,66.703,64.056,65.754,64.085,65.693 M63.386,69.617c0.025-0.01,0.047-0.023,0.061-0.047
	c-0.014-0.018-0.051-0.063-0.078-0.063C63.374,69.545,63.382,69.58,63.386,69.617 M63.386,70.16l0.029,0.018
	C63.427,70.141,63.415,70.135,63.386,70.16 M63.415,69.648l0.096,0.031C63.511,69.602,63.464,69.596,63.415,69.648 M63.415,69.85
	c0.023-0.039,0.074-0.049,0.096-0.092c-0.031,0-0.063-0.016-0.096-0.018C63.415,69.777,63.415,69.814,63.415,69.85 M63.772,71.236
	c0.068-0.227,0.084-0.525,0.188-0.732c-0.16,0-0.311-0.023-0.467-0.063C63.519,70.691,63.421,71.313,63.772,71.236 M63.558,70.285
	c-0.064,0.041-0.064,0.078,0,0.109C63.618,70.363,63.618,70.326,63.558,70.285 M63.663,66.535c-0.047,0.014-0.063,0.043-0.045,0.094
	c0.033,0.021,0.064,0.021,0.094,0C63.696,66.596,63.681,66.564,63.663,66.535 M63.696,70.193c0,0.074,0.125,0.076,0.125,0
	C63.778,70.193,63.737,70.193,63.696,70.193 M63.788,67.08c0.033,0.063,0.064,0.063,0.096,0
	C63.853,67.018,63.821,67.018,63.788,67.08 M63.806,71.236c0.219,0.018,0.438,0.006,0.652-0.047
	c-0.047-0.094-0.275-0.693-0.355-0.701C63.909,70.471,63.847,71.086,63.806,71.236 M64.132,65.693l-0.295,0.795
	c0.146,0,0.291,0.039,0.436,0.063C64.226,66.266,64.179,65.98,64.132,65.693 M63.931,70.238c-0.064,0.041-0.064,0.078,0,0.111
	C63.991,70.316,63.991,70.279,63.931,70.238 M64.069,66.705c0.006,0.002-0.109-0.131-0.109,0
	C63.995,66.705,64.032,66.705,64.069,66.705 M64.038,69.883c-0.021,0.092,0.084,0.066,0.094-0.033
	C64.095,69.842,64.063,69.854,64.038,69.883 M64.163,70.363c-0.021-0.025-0.047-0.037-0.078-0.031l0.047,0.109
	C64.147,70.418,64.155,70.393,64.163,70.363 M64.163,67.064c0.025-0.002,0.047-0.012,0.063-0.031c-0.051-0.01-0.098-0.01-0.123,0
	C64.116,67.053,64.138,67.063,64.163,67.064 M64.194,69.648v-0.031C64.132,69.627,64.132,69.637,64.194,69.648 M64.817,65.85
	c-0.199-0.088-0.439-0.135-0.654-0.156c0.043,0.279,0.09,0.559,0.135,0.834C64.325,66.703,64.761,65.904,64.817,65.85 M64.21,66.689
	c0.063-0.029,0.063-0.061,0-0.094C64.147,66.629,64.147,66.66,64.21,66.689 M64.552,70.41c-0.125,0.033-0.256,0.078-0.389,0.078
	c0.113,0.227,0.211,0.461,0.326,0.686C64.589,70.994,64.548,70.65,64.552,70.41 M64.226,69.648c0.096-0.016,0.186-0.053,0.264-0.109
	C64.392,69.543,64.306,69.602,64.226,69.648 M64.288,70.207c-0.084,0.031-0.084,0.068,0,0.109
	C64.351,70.277,64.351,70.24,64.288,70.207 M64.257,69.883c-0.014,0.023-0.02,0.049-0.016,0.078l0.094-0.018
	C64.329,69.902,64.302,69.883,64.257,69.883 M64.335,66.736C64.384,66.787,64.444,66.777,64.335,66.736 M64.444,70.084
	c-0.084,0.031-0.084,0.066,0,0.109C64.507,70.152,64.507,70.115,64.444,70.084 M64.864,65.865l-0.453,0.73
	c0.178,0.057,0.303,0.119,0.453,0.219C64.925,66.557,65.245,65.912,64.864,65.865 M64.567,69.492
	c0.012-0.014,0.02-0.029,0.016-0.047C64.556,69.461,64.401,69.578,64.567,69.492 M64.536,69.787c0,0.076,0.053,0.037,0.047-0.029
	C64.565,69.762,64.55,69.771,64.536,69.787 M64.583,71.158c0.266-0.066,0.469-0.158,0.701-0.297
	C64.64,70.254,64.583,70.268,64.583,71.158 M64.661,69.787c-0.072-0.074-0.076-0.018-0.063,0.063
	C64.628,69.848,64.661,69.822,64.661,69.787 M64.63,70.225c-0.039,0-0.002,0.078,0.031,0.078
	C64.729,70.291,64.649,70.264,64.63,70.225 M64.63,69.414v0.047c0.051-0.055,0.098-0.074,0.094-0.141
	C64.692,69.352,64.661,69.385,64.63,69.414 M64.646,69.633C64.712,69.686,64.737,69.705,64.646,69.633 M64.739,69.648
	c0.047,0-0.023-0.066-0.063-0.063C64.661,69.631,64.706,69.613,64.739,69.648 M64.724,70.256
	C64.659,70.201,64.651,70.195,64.724,70.256 M64.771,66.877c-0.018-0.016,0.012-0.158-0.078-0.063
	C64.638,66.871,64.745,66.855,64.771,66.877 M64.692,70.021c0.033,0.063,0.068,0.063,0.109,0
	C64.761,69.939,64.724,69.939,64.692,70.021 M64.739,67.064l-0.016-0.016v0.061C64.761,67.105,64.767,67.09,64.739,67.064
	 M65.407,70.785c-0.063-0.236-0.16-0.459-0.248-0.686c-0.098,0.098-0.258,0.164-0.373,0.232
	C64.935,70.479,65.218,70.908,65.407,70.785 M65.72,66.348c-0.152-0.186-0.4-0.285-0.607-0.389c-0.033,0.125-0.279,0.83-0.195,0.887
	C65.013,66.908,65.608,66.436,65.72,66.348 M64.956,69.943c-0.063,0.031-0.063,0.063,0,0.092
	C65.021,70.006,65.021,69.975,64.956,69.943 M64.94,69.385C64.964,69.439,64.993,69.512,64.94,69.385 M64.94,68.045
	C65.208,68.41,65.177,67.646,64.94,68.045 M65.673,66.441l-0.699,0.451c0.121,0.08,0.223,0.225,0.326,0.328
	C65.425,66.961,65.55,66.699,65.673,66.441 M65.019,68.186h-0.029l0.029,0.047C65.05,68.209,65.103,68.176,65.019,68.186
	 M65.019,69.787v-0.029C64.978,69.768,64.978,69.777,65.019,69.787 M65.052,68.932C64.981,68.867,65.011,68.891,65.052,68.932
	 M65.034,68.979l-0.029-0.016C65.011,69.02,65.021,69.025,65.034,68.979 M65.019,68.277c0.035,0.035,0.037,0.123,0.033,0.172
	C65.259,68.375,65.202,68.092,65.019,68.277 M65.097,69.104h0.047c-0.021-0.027-0.047-0.037-0.078-0.031
	C65.067,69.098,65.077,69.107,65.097,69.104 M65.112,69.943C65.126,70.012,65.128,70.016,65.112,69.943 M65.159,67.576l-0.031,0.047
	C65.196,67.66,65.179,67.617,65.159,67.576 M65.19,69.961c-0.014-0.029-0.033-0.041-0.063-0.031l0.047,0.076
	C65.192,69.996,65.198,69.98,65.19,69.961 M65.175,69.771c0.031,0.063,0.066,0.063,0.109,0
	C65.241,69.709,65.206,69.709,65.175,69.771 M65.456,70.77c0.174-0.086,0.346-0.254,0.482-0.391
	c-0.211-0.117-0.422-0.234-0.631-0.354C65.093,69.906,65.409,70.701,65.456,70.77 M65.315,68.699c-0.043-0.084-0.078-0.084-0.109,0
	C65.237,68.762,65.274,68.762,65.315,68.699 M65.222,69.586c0.041,0.084,0.08,0.084,0.109,0
	C65.298,69.523,65.263,69.523,65.222,69.586 M65.347,68.916c0.027,0.045-0.094-0.254-0.094-0.047
	C65.253,68.936,65.327,68.885,65.347,68.916 M65.331,68.217C65.286,68.186,65.257,68.166,65.331,68.217 M65.3,68.293
	c0.01-0.01,0.02-0.021,0.031-0.029l-0.061-0.018C65.267,68.268,65.274,68.283,65.3,68.293 M65.315,69.01
	C65.214,69.078,65.315,69.105,65.315,69.01 M65.72,66.41l-0.404,0.84c0.299-0.074,0.633-0.219,0.918-0.357
	C66.151,66.693,65.876,66.443,65.72,66.41 M65.952,70.35c0.244,0-0.324-0.654-0.357-0.717c-0.072,0.131-0.166,0.246-0.279,0.342
	C65.466,70.066,65.792,70.35,65.952,70.35 M65.331,68.559C65.331,68.602,65.433,68.582,65.331,68.559 M66.327,67.033
	c-0.135-0.197-0.758,0.166-0.98,0.248c0.098,0.15,0.211,0.289,0.311,0.438C65.854,67.559,66.421,67.258,66.327,67.033
	 M65.438,68.014C65.362,68.014,65.438,68.174,65.438,68.014 M65.407,69.307c0.02,0.018,0.096,0.111,0.096,0
	C65.503,69.176,65.413,69.307,65.407,69.307 M65.485,69.523c-0.01,0.051,0.016,0.07,0.064,0.063
	C65.524,69.551,65.497,69.52,65.485,69.523 M65.563,69.555C65.534,69.484,65.524,69.465,65.563,69.555 M65.55,69.182
	c0.029,0.063,0.068,0.063,0.107,0C65.614,69.098,65.579,69.098,65.55,69.182 M66.077,70.225c0.168-0.184,0.303-0.406,0.389-0.639
	c-0.248-0.035-0.496-0.07-0.744-0.105C65.437,69.441,66.024,70.172,66.077,70.225 M65.628,68.822c0.029,0.084,0.061,0.084,0.092,0
	C65.688,68.762,65.657,68.762,65.628,68.822 M66.638,67.797c-0.043-0.225-0.162-0.41-0.232-0.623
	c-0.24,0.195-0.477,0.395-0.717,0.592C65.987,67.82,66.327,67.797,66.638,67.797 M65.735,68.963c-0.063,0.033-0.063,0.068,0,0.109
	C65.819,69.029,65.819,68.992,65.735,68.963 M66.497,69.508c-0.207-0.15-0.473-0.275-0.652-0.451
	c-0.049,0.102-0.123,0.26-0.141,0.373C65.938,69.463,66.319,69.561,66.497,69.508 M65.782,68.527c0.063-0.041,0.063-0.076,0-0.109
	C65.698,68.449,65.698,68.486,65.782,68.527 M65.735,67.844c0.061,0.121,0.096,0.238,0.125,0.373
	c0.229-0.119,0.455-0.24,0.684-0.359C66.274,67.859,66.005,67.844,65.735,67.844 M66.716,68.559c0-0.236-0.035-0.467-0.063-0.701
	c-0.229,0.086-0.455,0.225-0.674,0.342C65.587,68.406,66.577,68.559,66.716,68.559 M66.513,69.477
	c0.08-0.195,0.135-0.402,0.188-0.607c-0.273,0.016-0.549,0.031-0.824,0.047C65.884,69.182,66.331,69.293,66.513,69.477 M66.7,68.699
	c-0.098-0.197-0.582-0.232-0.824-0.297c0.055,0.113,0.016,0.357,0,0.467C66.128,68.869,66.661,68.947,66.7,68.699"/>
<path fill="#00758D" d="M0.292,23.313l3.652-0.721c0.542-0.107,0.981-0.642,0.981-1.193v-3.351l0,0h2.996l0,0l0.03,2.067l0,0h0.687
	l0,0l1.079-0.762l0,0l0.785,0.041l0,0l1.091,0.721l0,0l0.005,1.635l0,0l1.062-0.002l0,0l0.005-0.544l0,0h0.387l0,0v0.437l0,0h1.766
	l0,0v-1.853l0,0h2.551l0,0v0.654l0,0h0.588l0,0l0.013,0.891l0,0l1.956-0.013l0,0l0.023-1.873l0,0l2.49,0.002l0,0l0.031,1.211l0,0
	l1.619,0.027l0,0l0.021,1.745l0,0l0.812-0.003l0,0l2.135-2.097l0,0l-0.001-1.747l0,0l2.24,0.716l0,0l0.728,0.004l0,0v-0.17l0,0
	h0.329l0,0v-0.675l0,0h0.554l0,0l-0.014-2.375l0,0h0.406l0,0l0.589-0.435l0,0v0.545l0,0h0.355l0,0l0.029,1.829l0,0h1.255l0,0
	l0.005,1.247l0,0h0.343l0,0l-0.025-2.75l0,0h0.392l0,0c0,0,0,0,0-2.939l0,0c0.062,0.002,0.16-0.003,0.307-0.014l0,0
	c0-0.581-0.013-1.542-0.013-2.123l0,0c0.552-0.638,0.481-1.249,0.573-2.331l0,0c0.096,1.111-0.054,1.61,0.519,2.317l0,0
	c-0.012,2.259-0.012,2.259-0.012,2.259l0,0h0.589l0,0v3.158l0,0h0.392l0,0v2.423l0,0h0.931l0,0V16.81l0,0l1.671,0.793l0,0
	l1.194-0.948l0,0v-1.217l0,0h3.068l0,0v1.652l0,0h0.919l0,0v-2.463l0,0l2.213-0.016l0,0l0.001,2.073l0,0l1.097-0.033l0,0
	l0.001-2.679l0,0l2.129-0.03l0,0l0.032,2.144l0,0h1.207l0,0l-0.006-2.207l0,0l2.023,0.016l0,0l-0.004,0.795l0,0h0.469l0,0
	l-0.009,1.092l0,0l1.199-0.001l0,0l-0.004-3.741l0,0l1.759-0.02c0.553-0.006,0.996,0.437,0.992,0.989l-0.025,3.519l0,0l0.539,0.001
	l0,0l0.045-2.993l0,0h2.037c0.553,0,1,0.448,0.998,1l-0.002,4.581l0,0h0.51l0,0v-2.915l0,0l1.84,0.046l0,0V14.19l0,0l2.355-0.032
	l0,0l0.035,2.37l0,0l2.576-0.062l0,0l0.01,1.933l0,0l1.002-0.032l0,0v-1.371l0,0l2.121-0.013l0,0v-1.549l0,0h0.295l0,0l0.012,1.547
	l0,0l0.871-0.005l0,0V16.74l0,0l0.637-0.348l0,0l0.047-2.793l0,0l0.104,2.785l0,0l0.66,0.288l0,0l0.006,0.295l0,0l0.354-0.003l0,0
	l-0.004,2.167l0,0l0.285-0.008c0.16-0.004,0.287-0.75,0.285-1.667l-0.008-4.854l0,0h1.074c0.594,0,1.074,0.743,1.074,1.659v4.867
	l0,0l0.393,0.001l0,0v-0.104l0,0h1.176l0,0v0.109l0,0l2.164,0.011l0,0l0.045,0.381c0.025,0.21,0.494,0.377,1.045,0.374l3.32-0.02
	l0,0l0.006-0.312l0,0l1.133-0.011l0,0l0.008,0.344l0,0l1.053,0.02l0,0l0.031-3.198l0,0l1.311,0.002l0,0l-0.01,2.408l0,0h0.588l0,0
	v0.824l0,0l1.498,0.028l0,0l-0.01-1.411l0,0l3.59,0.015l0,0l0.023,1.96l0,0l1.178,1.523l0,0l0.049-1.756l0,0l0.932,0.014l0,0
	l-0.012,2.708l0,0l0.797,0.015l0,0v-1.089l0,0l0.588-0.109l0,0v-2.191l0,0h0.723l0,0l0.063,2.627l0,0l0.295,0.326l0,0v0.944l0,0
	l2.703,0.011c0.551,0.002,1.002-0.443,1.004-0.996l0.021-3.551l0,0h0.932c0.514,0,0.932,0.447,0.932,1v4.011l0,0l3.232,0.607l0,0
	v0.402c0,0.223-0.742,0.401-1.658,0.4L0.292,25.342l0,0V23.313L0.292,23.313z"/>
</svg>
