<?xml version="1.0" encoding="utf-8"?>
<!-- Generator: Adobe Illustrator 16.0.0, SVG Export Plug-In . SVG Version: 6.00 Build 0)  -->
<!DOCTYPE svg PUBLIC "-//W3C//DTD SVG 1.1//EN" "http://www.w3.org/Graphics/SVG/1.1/DTD/svg11.dtd">
<svg version="1.1" id="Layer_1" xmlns="http://www.w3.org/2000/svg" xmlns:xlink="http://www.w3.org/1999/xlink" x="0px" y="0px"
	 width="107.76px" height="16.36px" viewBox="0 0 107.76 16.36" enable-background="new 0 0 107.76 16.36" xml:space="preserve">
<path fill="#00758D" d="M0.041,14.197l3.652-0.721c0.542-0.107,0.981-0.643,0.981-1.195v-3.35H7.67l0.029,2.067h0.687l1.079-0.76
	l0.785,0.041l1.092,0.719l0.005,1.637l1.061-0.002l0.005-0.545H12.8v0.436h1.766v-1.852h2.551v0.654h0.589l0.012,0.891l1.956-0.014
	l0.023-1.871l2.49,0.002l0.032,1.209l1.618,0.027l0.022,1.746l0.812-0.004l2.135-2.096l-0.002-1.746l2.24,0.717l0.729,0.002v-0.17
	h0.328V9.348h0.555l-0.014-2.376h0.405l0.589-0.436V7.08h0.356l0.028,1.83h1.255l0.005,1.247h0.344l-0.025-2.75h0.392V4.467
	c0.061,0.004,0.159-0.002,0.306-0.014c0-0.58-0.012-1.542-0.012-2.122c0.551-0.638,0.48-1.25,0.573-2.331
	c0.096,1.11-0.054,1.609,0.518,2.317l-0.012,2.259h0.589v3.157h0.392v2.423h0.931V7.693l1.671,0.792l1.195-0.947V6.321l3.067,0.001
	v1.652h0.92V5.512l2.212-0.016l0.001,2.073l1.097-0.034l0.001-2.678l2.13-0.031l0.031,2.146h1.208l-0.007-2.208l2.023,0.016
	l-0.004,0.795h0.469l-0.009,1.091l1.2-0.001l-0.004-3.74l1.759-0.02c0.552-0.006,0.997,0.436,0.993,0.988l-0.025,3.52l0.538,0.001
	l0.046-2.994l2.035,0.001c0.554,0,1,0.448,1,1l-0.004,4.582L61.329,10V7.086l1.841,0.045V5.074l2.354-0.031l0.036,2.37l2.576-0.063
	l0.01,1.933l1.002-0.031V7.88l2.121-0.012v-1.55h0.295l0.013,1.547l0.87-0.005V7.624l0.637-0.348l0.047-2.792l0.104,2.785
	l0.659,0.288L73.9,7.852l0.354-0.002l-0.006,2.166l0.287-0.008c0.159-0.004,0.286-0.75,0.285-1.667l-0.007-4.854h1.073
	c0.593,0,1.074,0.743,1.074,1.66v4.866l0.392,0.002V9.912h1.177v0.109l2.163,0.01l0.046,0.381c0.025,0.211,0.493,0.377,1.046,0.375
	l3.318-0.02l0.007-0.313l1.132-0.01l0.009,0.344l1.053,0.02l0.031-3.199l1.311,0.002l-0.01,2.408h0.588v0.824l1.498,0.027
	l-0.01-1.408l3.59,0.014l0.023,1.959l1.178,1.523l0.049-1.756l0.932,0.014l-0.012,2.709l0.797,0.014v-1.088l0.589-0.109v-2.191
	h0.723l0.062,2.627l0.295,0.326v0.943l2.701,0.01c0.553,0.002,1.002-0.441,1.007-0.996l0.02-3.549h0.933
	c0.514,0,0.931,0.447,0.931,0.998v4.012l3.233,0.607v0.402c0,0.223-0.742,0.4-1.66,0.4L0.041,16.227V14.197z"/>
<rect y="15.08" fill="#00758D" width="107.76" height="1.28"/>
</svg>
