<svg width="311" height="314" viewBox="0 0 311 314" fill="none" xmlns="http://www.w3.org/2000/svg">
<ellipse cx="155.5" cy="157" rx="155.5" ry="157" fill="white"/>
<path d="M110.679 69.3697C110.679 78.0634 117.728 85.1077 126.417 85.1077C135.111 85.1077 142.156 78.0634 142.156 69.3697C142.156 60.6759 135.111 53.6314 126.417 53.6314C117.728 53.6314 110.679 60.6759 110.679 69.3697ZM94.6852 69.3697C94.6852 51.844 108.892 37.6333 126.417 37.6333C140.835 37.6333 152.986 47.2534 156.85 60.42H172.669V50.6009H184.337V60.42H189.46V50.6009H201.127V60.42H205.539C207.976 60.42 209.951 64.5596 209.951 69.6702C209.951 74.7768 207.976 78.9165 205.539 78.9165H156.683C152.629 91.7703 140.616 101.098 126.417 101.098C108.892 101.102 94.6852 86.8913 94.6852 69.3697Z" fill="#6E6E70"/>
<path d="M241.854 144.444C241.854 144.444 231.937 120.524 209.155 114.179H152.32H95.4895C72.7029 120.528 62.7864 144.444 62.7864 144.444L74.8114 179.577H79.7148C79.7148 172.915 84.9189 167.512 91.3417 167.512C93.7995 167.512 96.0787 168.308 97.9556 169.661C99.5725 165.013 103.846 161.69 108.88 161.69C113.897 161.69 118.162 164.993 119.787 169.62C121.709 168.166 124.065 167.3 126.625 167.3C128.847 167.3 130.915 167.958 132.678 169.08C134.441 164.745 138.577 161.694 143.399 161.694C146.982 161.694 150.187 163.384 152.32 166.029C154.453 163.384 157.658 161.694 161.245 161.694C166.068 161.694 170.203 164.745 171.962 169.08C173.729 167.962 175.797 167.3 178.019 167.3C180.575 167.3 182.931 168.166 184.853 169.62C186.482 164.993 190.743 161.69 195.76 161.69C200.794 161.69 205.068 165.013 206.685 169.661C208.565 168.308 210.84 167.512 213.302 167.512C219.721 167.512 224.925 172.915 224.925 179.577H229.829L241.854 144.444Z" fill="#00788C"/>
<path d="M164.703 214.819C164.703 209.623 160.486 205.402 155.286 205.402C150.082 205.402 145.865 209.623 145.865 214.819C145.865 218.748 148.27 222.107 151.686 223.525V232.28H158.881V223.525C162.298 222.107 164.703 218.748 164.703 214.819Z" fill="#6E6E70"/>
<path d="M177.508 241.701C177.508 243.817 175.391 243.817 175.391 243.817H135.172C133.055 243.817 133.055 241.701 133.055 241.701V201.486C133.055 199.369 135.172 199.37 135.172 199.37H175.391C177.507 199.37 177.508 201.486 177.508 201.486V241.701ZM241.22 185.931H155.708H154.863H69.3513L75.4898 243.289C75.4898 243.289 77.395 257.256 93.2672 257.256H154.863H155.708H217.304C233.176 257.256 235.081 243.289 235.081 243.289L241.22 185.931Z" fill="#23899D"/>
<path d="M128.852 126.364C128.792 125.86 128.55 125.469 128.126 125.19C127.702 124.912 127.181 124.773 126.565 124.773C126.114 124.773 125.72 124.846 125.382 124.991C125.047 125.137 124.785 125.338 124.596 125.593C124.411 125.848 124.318 126.138 124.318 126.463C124.318 126.735 124.382 126.969 124.512 127.164C124.644 127.356 124.813 127.517 125.019 127.646C125.224 127.772 125.44 127.877 125.665 127.96C125.891 128.039 126.098 128.104 126.287 128.153L127.321 128.432C127.586 128.501 127.881 128.598 128.206 128.72C128.534 128.843 128.847 129.01 129.145 129.222C129.447 129.431 129.695 129.7 129.891 130.028C130.087 130.356 130.184 130.759 130.184 131.236C130.184 131.786 130.04 132.283 129.752 132.727C129.467 133.171 129.049 133.524 128.499 133.786C127.952 134.048 127.288 134.179 126.505 134.179C125.776 134.179 125.145 134.061 124.611 133.826C124.081 133.591 123.663 133.263 123.358 132.842C123.057 132.421 122.886 131.932 122.846 131.375H124.119C124.152 131.759 124.281 132.078 124.507 132.33C124.735 132.578 125.024 132.764 125.372 132.886C125.723 133.006 126.101 133.065 126.505 133.065C126.976 133.065 127.399 132.989 127.773 132.837C128.148 132.681 128.444 132.465 128.663 132.19C128.882 131.912 128.991 131.587 128.991 131.216C128.991 130.878 128.897 130.603 128.708 130.391C128.519 130.179 128.27 130.006 127.962 129.874C127.654 129.741 127.321 129.625 126.963 129.526L125.71 129.168C124.914 128.939 124.285 128.612 123.821 128.188C123.357 127.764 123.125 127.209 123.125 126.523C123.125 125.953 123.279 125.455 123.587 125.031C123.899 124.604 124.316 124.272 124.84 124.037C125.367 123.798 125.955 123.679 126.605 123.679C127.261 123.679 127.844 123.797 128.355 124.032C128.865 124.264 129.27 124.582 129.568 124.987C129.869 125.391 130.029 125.85 130.045 126.364H128.852ZM138.893 123.818H140.126V130.56C140.126 131.256 139.962 131.877 139.634 132.424C139.309 132.968 138.85 133.397 138.257 133.712C137.664 134.023 136.968 134.179 136.169 134.179C135.37 134.179 134.674 134.023 134.081 133.712C133.488 133.397 133.027 132.968 132.699 132.424C132.374 131.877 132.211 131.256 132.211 130.56V123.818H133.444V130.46C133.444 130.957 133.554 131.4 133.773 131.788C133.991 132.172 134.303 132.475 134.707 132.697C135.115 132.916 135.602 133.026 136.169 133.026C136.736 133.026 137.223 132.916 137.631 132.697C138.038 132.475 138.35 132.172 138.565 131.788C138.784 131.4 138.893 130.957 138.893 130.46V123.818ZM150.782 127H149.549C149.476 126.645 149.348 126.334 149.166 126.065C148.987 125.797 148.768 125.571 148.51 125.389C148.254 125.204 147.971 125.064 147.659 124.972C147.348 124.879 147.023 124.832 146.685 124.832C146.069 124.832 145.51 124.988 145.01 125.3C144.512 125.611 144.116 126.07 143.821 126.677C143.53 127.283 143.384 128.027 143.384 128.909C143.384 129.791 143.53 130.535 143.821 131.141C144.116 131.748 144.512 132.207 145.01 132.518C145.51 132.83 146.069 132.986 146.685 132.986C147.023 132.986 147.348 132.939 147.659 132.847C147.971 132.754 148.254 132.616 148.51 132.434C148.768 132.248 148.987 132.021 149.166 131.753C149.348 131.481 149.476 131.17 149.549 130.818H150.782C150.689 131.339 150.52 131.804 150.275 132.215C150.029 132.626 149.724 132.976 149.36 133.264C148.995 133.549 148.586 133.766 148.132 133.915C147.681 134.065 147.199 134.139 146.685 134.139C145.817 134.139 145.044 133.927 144.368 133.503C143.692 133.079 143.16 132.475 142.772 131.693C142.385 130.911 142.191 129.983 142.191 128.909C142.191 127.835 142.385 126.907 142.772 126.125C143.16 125.343 143.692 124.74 144.368 124.315C145.044 123.891 145.817 123.679 146.685 123.679C147.199 123.679 147.681 123.754 148.132 123.903C148.586 124.052 148.995 124.271 149.36 124.559C149.724 124.844 150.029 125.192 150.275 125.603C150.52 126.011 150.689 126.476 150.782 127ZM160.967 127H159.734C159.661 126.645 159.534 126.334 159.351 126.065C159.172 125.797 158.954 125.571 158.695 125.389C158.44 125.204 158.157 125.064 157.845 124.972C157.533 124.879 157.209 124.832 156.871 124.832C156.254 124.832 155.696 124.988 155.195 125.3C154.698 125.611 154.302 126.07 154.007 126.677C153.715 127.283 153.569 128.027 153.569 128.909C153.569 129.791 153.715 130.535 154.007 131.141C154.302 131.748 154.698 132.207 155.195 132.518C155.696 132.83 156.254 132.986 156.871 132.986C157.209 132.986 157.533 132.939 157.845 132.847C158.157 132.754 158.44 132.616 158.695 132.434C158.954 132.248 159.172 132.021 159.351 131.753C159.534 131.481 159.661 131.17 159.734 130.818H160.967C160.874 131.339 160.705 131.804 160.46 132.215C160.215 132.626 159.91 132.976 159.545 133.264C159.181 133.549 158.771 133.766 158.317 133.915C157.867 134.065 157.384 134.139 156.871 134.139C156.002 134.139 155.23 133.927 154.554 133.503C153.878 133.079 153.346 132.475 152.958 131.693C152.57 130.911 152.376 129.983 152.376 128.909C152.376 127.835 152.57 126.907 152.958 126.125C153.346 125.343 153.878 124.74 154.554 124.315C155.23 123.891 156.002 123.679 156.871 123.679C157.384 123.679 157.867 123.754 158.317 123.903C158.771 124.052 159.181 124.271 159.545 124.559C159.91 124.844 160.215 125.192 160.46 125.603C160.705 126.011 160.874 126.476 160.967 127ZM162.96 134V123.818H169.104V124.912H164.192V128.352H168.786V129.446H164.192V132.906H169.184V134H162.96ZM176.895 126.364C176.835 125.86 176.593 125.469 176.169 125.19C175.745 124.912 175.224 124.773 174.608 124.773C174.157 124.773 173.763 124.846 173.425 124.991C173.09 125.137 172.828 125.338 172.639 125.593C172.454 125.848 172.361 126.138 172.361 126.463C172.361 126.735 172.425 126.969 172.555 127.164C172.687 127.356 172.856 127.517 173.062 127.646C173.267 127.772 173.483 127.877 173.708 127.96C173.933 128.039 174.141 128.104 174.33 128.153L175.364 128.432C175.629 128.501 175.924 128.598 176.249 128.72C176.577 128.843 176.89 129.01 177.188 129.222C177.49 129.431 177.738 129.7 177.934 130.028C178.129 130.356 178.227 130.759 178.227 131.236C178.227 131.786 178.083 132.283 177.795 132.727C177.51 133.171 177.092 133.524 176.542 133.786C175.995 134.048 175.33 134.179 174.548 134.179C173.819 134.179 173.188 134.061 172.654 133.826C172.124 133.591 171.706 133.263 171.401 132.842C171.1 132.421 170.929 131.932 170.889 131.375H172.162C172.195 131.759 172.324 132.078 172.55 132.33C172.778 132.578 173.067 132.764 173.415 132.886C173.766 133.006 174.144 133.065 174.548 133.065C175.019 133.065 175.442 132.989 175.816 132.837C176.191 132.681 176.487 132.465 176.706 132.19C176.925 131.912 177.034 131.587 177.034 131.216C177.034 130.878 176.94 130.603 176.751 130.391C176.562 130.179 176.313 130.006 176.005 129.874C175.697 129.741 175.364 129.625 175.006 129.526L173.753 129.168C172.957 128.939 172.328 128.612 171.864 128.188C171.4 127.764 171.168 127.209 171.168 126.523C171.168 125.953 171.322 125.455 171.63 125.031C171.942 124.604 172.359 124.272 172.883 124.037C173.41 123.798 173.998 123.679 174.648 123.679C175.304 123.679 175.887 123.797 176.398 124.032C176.908 124.264 177.313 124.582 177.611 124.987C177.912 125.391 178.071 125.85 178.088 126.364H176.895ZM185.823 126.364C185.763 125.86 185.521 125.469 185.097 125.19C184.673 124.912 184.152 124.773 183.536 124.773C183.085 124.773 182.691 124.846 182.352 124.991C182.018 125.137 181.756 125.338 181.567 125.593C181.381 125.848 181.289 126.138 181.289 126.463C181.289 126.735 181.353 126.969 181.482 127.164C181.615 127.356 181.784 127.517 181.99 127.646C182.195 127.772 182.41 127.877 182.636 127.96C182.861 128.039 183.068 128.104 183.257 128.153L184.291 128.432C184.557 128.501 184.852 128.598 185.176 128.72C185.504 128.843 185.818 129.01 186.116 129.222C186.418 129.431 186.666 129.7 186.862 130.028C187.057 130.356 187.155 130.759 187.155 131.236C187.155 131.786 187.011 132.283 186.722 132.727C186.437 133.171 186.02 133.524 185.47 133.786C184.923 134.048 184.258 134.179 183.476 134.179C182.747 134.179 182.115 134.061 181.582 133.826C181.052 133.591 180.634 133.263 180.329 132.842C180.027 132.421 179.857 131.932 179.817 131.375H181.09C181.123 131.759 181.252 132.078 181.477 132.33C181.706 132.578 181.994 132.764 182.343 132.886C182.694 133.006 183.072 133.065 183.476 133.065C183.947 133.065 184.369 132.989 184.744 132.837C185.118 132.681 185.415 132.465 185.634 132.19C185.852 131.912 185.962 131.587 185.962 131.216C185.962 130.878 185.867 130.603 185.678 130.391C185.49 130.179 185.241 130.006 184.933 129.874C184.624 129.741 184.291 129.625 183.933 129.526L182.681 129.168C181.885 128.939 181.255 128.612 180.791 128.188C180.327 127.764 180.095 127.209 180.095 126.523C180.095 125.953 180.249 125.455 180.558 125.031C180.869 124.604 181.287 124.272 181.811 124.037C182.338 123.798 182.926 123.679 183.575 123.679C184.232 123.679 184.815 123.797 185.325 124.032C185.836 124.264 186.24 124.582 186.539 124.987C186.84 125.391 186.999 125.85 187.016 126.364H185.823Z" fill="white"/>
<path d="M165.705 72V66.1818H167.67C168.125 66.1818 168.498 66.2595 168.79 66.4148C169.081 66.5682 169.297 66.7794 169.438 67.0483C169.578 67.3172 169.648 67.6231 169.648 67.9659C169.648 68.3087 169.578 68.6127 169.438 68.8778C169.297 69.143 169.082 69.3513 168.793 69.5028C168.503 69.6525 168.133 69.7273 167.682 69.7273H166.091V69.0909H167.659C167.97 69.0909 168.22 69.0455 168.409 68.9545C168.6 68.8636 168.739 68.7348 168.824 68.5682C168.911 68.3996 168.955 68.1989 168.955 67.9659C168.955 67.733 168.911 67.5294 168.824 67.3551C168.737 67.1809 168.598 67.0464 168.406 66.9517C168.215 66.8551 167.962 66.8068 167.648 66.8068H166.409V72H165.705ZM168.443 69.3864L169.875 72H169.057L167.648 69.3864H168.443ZM170.822 72V66.1818H174.333V66.8068H171.526V68.7727H174.151V69.3977H171.526V71.375H174.379V72H170.822ZM178.785 67.6364C178.751 67.3485 178.612 67.125 178.37 66.9659C178.128 66.8068 177.83 66.7273 177.478 66.7273C177.22 66.7273 176.995 66.7689 176.802 66.8523C176.611 66.9356 176.461 67.0502 176.353 67.196C176.247 67.3419 176.194 67.5076 176.194 67.6932C176.194 67.8485 176.231 67.982 176.305 68.0938C176.38 68.2036 176.477 68.2955 176.594 68.3693C176.712 68.4413 176.835 68.5009 176.964 68.5483C177.093 68.5937 177.211 68.6307 177.319 68.6591L177.91 68.8182C178.061 68.858 178.23 68.9129 178.415 68.983C178.603 69.053 178.782 69.1487 178.952 69.2699C179.125 69.3892 179.267 69.5426 179.379 69.7301C179.49 69.9176 179.546 70.1477 179.546 70.4205C179.546 70.7348 179.464 71.0189 179.299 71.2727C179.136 71.5265 178.897 71.7282 178.583 71.8778C178.271 72.0275 177.891 72.1023 177.444 72.1023C177.027 72.1023 176.666 72.035 176.362 71.9006C176.058 71.7661 175.82 71.5786 175.646 71.3381C175.473 71.0975 175.376 70.8182 175.353 70.5H176.08C176.099 70.7197 176.173 70.9015 176.302 71.0455C176.433 71.1875 176.597 71.2936 176.796 71.3636C176.997 71.4318 177.213 71.4659 177.444 71.4659C177.713 71.4659 177.954 71.4223 178.168 71.3352C178.382 71.2462 178.552 71.1231 178.677 70.9659C178.802 70.8068 178.864 70.6212 178.864 70.4091C178.864 70.2159 178.81 70.0587 178.702 69.9375C178.594 69.8163 178.452 69.7178 178.276 69.642C178.1 69.5663 177.91 69.5 177.705 69.4432L176.989 69.2386C176.535 69.108 176.175 68.9214 175.91 68.679C175.645 68.4366 175.512 68.1193 175.512 67.7273C175.512 67.4015 175.6 67.1174 175.776 66.875C175.954 66.6307 176.193 66.4413 176.492 66.3068C176.793 66.1705 177.129 66.1023 177.501 66.1023C177.876 66.1023 178.209 66.1695 178.501 66.304C178.792 66.4366 179.023 66.6184 179.194 66.8494C179.366 67.0805 179.457 67.3428 179.467 67.6364H178.785ZM184.523 66.1818H185.227V70.0341C185.227 70.4318 185.134 70.7869 184.946 71.0994C184.76 71.41 184.498 71.6553 184.159 71.8352C183.82 72.0133 183.422 72.1023 182.966 72.1023C182.509 72.1023 182.112 72.0133 181.773 71.8352C181.434 71.6553 181.17 71.41 180.983 71.0994C180.797 70.7869 180.705 70.4318 180.705 70.0341V66.1818H181.409V69.9773C181.409 70.2614 181.472 70.5142 181.597 70.7358C181.722 70.9555 181.9 71.1288 182.131 71.2557C182.364 71.3807 182.642 71.4432 182.966 71.4432C183.29 71.4432 183.568 71.3807 183.801 71.2557C184.034 71.1288 184.212 70.9555 184.335 70.7358C184.46 70.5142 184.523 70.2614 184.523 69.9773V66.1818ZM186.634 72V66.1818H187.339V71.375H190.043V72H186.634ZM190.043 66.8068V66.1818H194.406V66.8068H192.577V72H191.872V66.8068H190.043ZM195.053 72H194.314L196.45 66.1818H197.178L199.314 72H198.575L196.837 67.1023H196.791L195.053 72ZM195.325 69.7273H198.303V70.3523H195.325V69.7273ZM199.222 66.8068V66.1818H203.586V66.8068H201.756V72H201.052V66.8068H199.222Z" fill="white"/>
<path d="M61.592 144.997H242" stroke="white" stroke-width="0.472"/>
</svg>
