<?xml version="1.0" encoding="utf-8"?>
<!-- Generator: Adobe Illustrator 16.0.0, SVG Export Plug-In . SVG Version: 6.00 Build 0)  -->
<!DOCTYPE svg PUBLIC "-//W3C//DTD SVG 1.1//EN" "http://www.w3.org/Graphics/SVG/1.1/DTD/svg11.dtd">
<svg version="1.1" id="Layer_1" xmlns="http://www.w3.org/2000/svg" xmlns:xlink="http://www.w3.org/1999/xlink" x="0px" y="0px"
	 width="107.76px" height="16.36px" viewBox="0 0 107.76 16.36" enable-background="new 0 0 107.76 16.36" xml:space="preserve">
<path fill="#7F715F" d="M0,9.863L0.529,9.58v0.195h0.312v0.299h0.197v0.203h0.208v0.994h0.202v0.492H1.65V8.191h0.515V7H2.57V6.703
	L4.519,5.81l1.938,0.893V7h0.306v1.191l0.306,0.096v2.383h0.307l0.306,0.893v-2.18h0.509V8.686h0.203v-0.27
	c0-0.148,0.447-0.271,1-0.277l3.101-0.023v0.463h0.294v0.805h0.313v1.99h0.15c0.083,0,0.15-0.744,0.15-1.662V0.943l3.028-0.769
	l1.196,0.289c0.66,0.159,1.196,1.032,1.197,1.95l0.005,6.577l0.11,0.195l0.392-1.191l0.411,1.191l0.104-0.303l0.099,0.596v1.488
	l0.097,0.102v2.084h0.209v-2.578h0.104c0.058,0,0.105-0.449,0.105-1V4.636l3.267-0.695l1.283,0.34
	c0.534,0.141,0.967,0.703,0.967,1.256V8.59l0.404,0.395V9.68h0.208v0.5h0.099v2.479h0.202v-0.791h1.539V9.58h0.711V8.49h0.111V8.096
	h0.103V7.793l3.158-0.102v3.424l1.427-0.002v0.402l1.129-0.549h0.3V9.281l3.281,0.014l-0.007,0.982h0.098v0.498h0.313v0.293h0.202
	l0.016-2.789l3.969,0.008v3.674l0.604-0.006L43.836,8.98l1.346,0.004v1.09h0.202V9.58h0.105V8.656h0.104l0.509-1.359l0.202-1.398
	l0.233,1.398l0.54,1.388h0.147v0.5h0.103v0.793h0.085l0.109-0.127h0.316V9.68h0.104V8.883h0.104l0.343-3.806l0.368,3.728
	l0.209,0.078v0.303h0.515V9.58h1.225v0.297l1.73,0.494v1.293h0.515v0.311h0.554v-0.344h1.172V9.346h2.623v1.316l0.113-0.008v-0.43
	h0.178l0.06-2.123l1.181-0.976l1.122,1.033v3.473l1.417,0.793V8.445h0.401c0.222,0,0.401-0.744,0.401-1.662V0.909h1.959
	c0.918,0,1.662,0.744,1.662,1.661V13.48h0.594c0.33,0,0.596-0.744,0.596-1.662V0.909h1.682c0.917,0,1.661,0.744,1.661,1.661v10.024
	h0.452v-2.109h1.997v0.084h0.259l0.01,1.855h0.904v0.617h0.902v0.283h1.72v-0.461h0.005c0.003,0,0.005-0.447,0.004-1l-0.002-3.711
	h1.008c0.553,0,1,0.447,1,1l-0.007,3.924l1.345,0.002v-2.762h2.075v2.145l0.662,0.002V12.09h0.077c0.043,0,0.078-0.447,0.078-1
	V7.938l0.994,0.332V8.061l0.459-0.002V6.081l0.119-0.112V5.402l0.406-0.021l0.995-1.876L85.868,0l0.078,3.494l0.921,1.967h0.441
	v0.563l0.111,0.056v1.972l0.35,0.006v2.957h0.559V9.877h1.989v3.771h0.373V12.49l1.077,0.014v-0.789h0.725
	c0.4,0,0.727-0.445,0.727-1V7.502l0.537-0.35V5.92l0.816-0.438l0.046-1.959l0.088,1.957l0.858,0.405l0.007,1.267l0.269,0.131
	c0.149,0.072,0.27,0.579,0.27,1.131v4.449h1.268v-2.725h0.903V8.99h0.817V6.62h1.988V10.4h0.998V8.207h2.258l2.258-0.793v3.688
	l1.164,1.01v2.588c0,0.916-0.744,1.66-1.662,1.66H1.661C0.744,16.359,0,15.615,0,14.699V9.863z"/>
<rect y="14.541" fill="#7F715F" width="107.76" height="1.819"/>
</svg>
