<svg width="60" height="60" viewBox="0 0 60 60" fill="none" xmlns="http://www.w3.org/2000/svg">
<circle cx="30" cy="30" r="29" fill="white" stroke="#00758D" stroke-width="2"/>
<path d="M30.5997 21.6001H19.7999C19.6408 21.6001 19.4882 21.6633 19.3757 21.7758C19.2632 21.8884 19.2 22.041 19.2 22.2001V25.8001C19.2 25.9592 19.2632 26.1118 19.3757 26.2244C19.4882 26.3369 19.6408 26.4001 19.7999 26.4001H20.9999C21.159 26.4001 21.3116 26.3369 21.4242 26.2244C21.5367 26.1118 21.5999 25.9592 21.5999 25.8001V24.6001H23.6998V36.0001H22.1999C22.0407 36.0001 21.8881 36.0633 21.7756 36.1758C21.6631 36.2884 21.5999 36.441 21.5999 36.6001V37.8001C21.5999 37.9592 21.6631 38.1118 21.7756 38.2244C21.8881 38.3369 22.0407 38.4001 22.1999 38.4001H28.1997C28.3588 38.4001 28.5115 38.3369 28.624 38.2244C28.7365 38.1118 28.7997 37.9592 28.7997 37.8001V36.6001C28.7997 36.441 28.7365 36.2884 28.624 36.1758C28.5115 36.0633 28.3588 36.0001 28.1997 36.0001H26.6998V24.6001H28.7997V25.8001C28.7997 25.9592 28.8629 26.1118 28.9754 26.2244C29.088 26.3369 29.2406 26.4001 29.3997 26.4001H30.5997C30.7588 26.4001 30.9114 26.3369 31.0239 26.2244C31.1364 26.1118 31.1996 25.9592 31.1996 25.8001V22.2001C31.1996 22.041 31.1364 21.8884 31.0239 21.7758C30.9114 21.6633 30.7588 21.6001 30.5997 21.6001ZM40.1994 34.2001H38.3995V25.8001H40.1994C40.736 25.8001 40.9993 25.151 40.6235 24.776L37.6236 21.776C37.5111 21.6635 37.3585 21.6004 37.1995 21.6004C37.0404 21.6004 36.8879 21.6635 36.7754 21.776L33.7755 24.776C33.4256 25.1251 33.6131 25.8001 34.1996 25.8001H35.9995V34.2001H34.1996C33.663 34.2001 33.4001 34.8492 33.7755 35.2242L36.7754 38.2242C36.8879 38.3367 37.0404 38.3998 37.1995 38.3998C37.3585 38.3998 37.5111 38.3367 37.6236 38.2242L40.6235 35.2242C40.9734 34.8751 40.7859 34.2001 40.1994 34.2001Z" fill="#00758D"/>
</svg>
