<?xml version="1.0" encoding="utf-8"?>
<!-- Generator: Adobe Illustrator 16.0.0, SVG Export Plug-In . SVG Version: 6.00 Build 0)  -->
<!DOCTYPE svg PUBLIC "-//W3C//DTD SVG 1.1//EN" "http://www.w3.org/Graphics/SVG/1.1/DTD/svg11.dtd">
<svg version="1.1" id="Layer_1" xmlns="http://www.w3.org/2000/svg" xmlns:xlink="http://www.w3.org/1999/xlink" x="0px" y="0px"
	 width="107.76px" height="36.235px" viewBox="0 0 107.76 36.235" enable-background="new 0 0 107.76 36.235" xml:space="preserve">
<path fill="#9D9182" d="M0,22.673h2.326v-3.706c0-0.552,0.448-1,1-1h4.203v2.899H8.52c0.547,0,0.991,0.746,0.991,1.664v5.213h1.326
	c0.552,0,1-0.447,1-1v-3.07c0-0.551,0.448-1,1-1h3.496v1.633h1.163c0.643,0,1.163-0.744,1.163-1.662V1.603c0-0.552,0.448-1,1-1
	h4.521c0.919,0,1.664,0.745,1.664,1.663v24.211h0.447c0.248,0,0.448-0.746,0.448-1.664V1.603c0-0.552,0.448-1,1-1h3.97
	c0.919,0,1.664,0.745,1.664,1.663v22.387h0.448c0.247,0,0.448-0.447,0.448-1v-3.342h3.962v3.994h2.326v1.268h1.792v3.613h2.153
	v-2.709h1.258v-1.27h3.773v1.27h1.43v2.518h0.725c0.399,0,0.724-0.746,0.724-1.664v-7.367h2.454c0.918,0,1.662,0.744,1.662,1.664
	v7.367h0.811c0.447,0,0.811-0.746,0.811-1.664V16.068c0-0.552,0.423-0.854,0.945-0.673l3.754,1.299
	c0.867,0.301,1.571,1.289,1.571,2.208v7.921h0.99c0.548,0,0.991-0.447,0.991-1v-4.418h2.688v-2.343h2.28
	c0.919,0,1.664,0.745,1.664,1.664v6.098h2.878v-3.977h1.438c0.795,0,1.438-0.744,1.438-1.662v-7.011l1.067-0.721v-2.536l1.621-0.901
	l0.067-3.032c0.013-0.552,0.041-0.552,0.065,0l0.132,3.028l1.7,0.837l0.016,2.604l0.534,0.27c0.295,0.148,0.534,1.015,0.534,1.934
	v9.552h1.515c0.554,0,1-0.447,1-1v-4.607h1.792v-2.363h0.811c0.446,0,0.81-0.448,0.81-1V12.36h2.282
	c0.918,0,1.662,0.744,1.662,1.663v6.117h1.982v-3.516c0-0.552,0.448-1,1-1h3.479v-1.632h2.816c0.92,0,1.663,0.745,1.663,1.664v5.923
	h1.259c0.694,0,1.258,0.746,1.258,1.664v11.328c0,0.92-0.744,1.664-1.664,1.664H1.664C0.745,36.235,0,35.491,0,34.571V22.673z"/>
<rect y="33.625" fill="#9D9182" width="107.875" height="2.61"/>
</svg>
