<?xml version="1.0" encoding="utf-8"?>
<!-- Generator: Adobe Illustrator 16.0.0, SVG Export Plug-In . SVG Version: 6.00 Build 0)  -->
<!DOCTYPE svg PUBLIC "-//W3C//DTD SVG 1.1//EN" "http://www.w3.org/Graphics/SVG/1.1/DTD/svg11.dtd">
<svg version="1.1" id="Layer_1" xmlns="http://www.w3.org/2000/svg" xmlns:xlink="http://www.w3.org/1999/xlink" x="0px" y="0px"
	 width="107.98px" height="126.503px" viewBox="0 0 107.98 126.503" enable-background="new 0 0 107.98 126.503"
	 xml:space="preserve">
<path fill="#9D9182" d="M107.545,126.503c0.928,0,1.682-0.586,1.682-1.308V31.79c0-0.721-0.754-1.307-1.682-1.307H1.681
	C0.753,30.483,0,31.068,0,31.79v93.406c0,0.722,0.753,1.308,1.681,1.308H107.545L107.545,126.503z"/>
<g>
	<path fill="#FFFFFF" d="M41.79,43.336h5.593v1.797h-1.797v7.059h-2.063v-7.059H41.79V43.336z"/>
	<path fill="#FFFFFF" d="M47.851,43.336h2.33l0.755,2.807l0.743-2.807h2.361l-2.089,4.799v4.057h-2.069v-4.057L47.851,43.336z"/>
	<path fill="#FFFFFF" d="M54.763,43.336h3.155c0.816,0,1.449,0.22,1.898,0.657c0.449,0.438,0.674,1.06,0.674,1.863
		c0,0.419-0.074,0.839-0.223,1.26s-0.459,0.787-0.936,1.099c-0.475,0.311-1.07,0.467-1.789,0.467h-0.697v3.51h-2.083V43.336z
		 M56.846,45.044v1.897h0.455c0.338,0,0.605-0.087,0.807-0.263c0.199-0.176,0.301-0.423,0.301-0.739
		c0-0.301-0.078-0.525-0.232-0.674c-0.152-0.147-0.385-0.222-0.691-0.222H56.846z"/>
	<path fill="#FFFFFF" d="M61.34,43.336h5.047v1.784h-2.984v1.632h2.781v1.727h-2.781v1.904h2.984v1.809H61.34V43.336z"/>
</g>
<g>
	<path fill="#FFFFFF" d="M11.66,58.436c0-0.069-0.002-0.126-0.006-0.182h0.107l0.005,0.108h0.005c0.037-0.064,0.1-0.124,0.211-0.124
		c0.092,0,0.161,0.056,0.189,0.135h0.003c0.021-0.037,0.048-0.066,0.075-0.087c0.04-0.031,0.085-0.048,0.148-0.048
		c0.089,0,0.221,0.059,0.221,0.292v0.396H12.5v-0.381c0-0.129-0.047-0.206-0.146-0.206c-0.069,0-0.124,0.051-0.145,0.11
		c-0.006,0.017-0.01,0.039-0.01,0.062v0.415h-0.119v-0.402c0-0.107-0.048-0.185-0.141-0.185c-0.076,0-0.132,0.061-0.151,0.122
		c-0.007,0.018-0.01,0.038-0.01,0.06v0.405H11.66V58.436z"/>
	<path fill="#FFFFFF" d="M12.95,58.065c0.002,0.042-0.029,0.075-0.077,0.075c-0.044,0-0.074-0.033-0.074-0.075
		c0-0.043,0.032-0.076,0.076-0.076C12.92,57.989,12.95,58.022,12.95,58.065z M12.814,58.926v-0.672h0.122v0.672H12.814z"/>
</g>
<g>
	<path fill="#FFFFFF" d="M13.066,58.436c0-0.069-0.002-0.126-0.006-0.182h0.108l0.007,0.111h0.003
		c0.033-0.064,0.111-0.127,0.222-0.127c0.094,0,0.238,0.056,0.238,0.286v0.401h-0.123v-0.388c0-0.108-0.04-0.198-0.155-0.198
		c-0.08,0-0.143,0.057-0.164,0.125c-0.005,0.016-0.008,0.036-0.008,0.057v0.404h-0.122V58.436z"/>
	<path fill="#FFFFFF" d="M26.381,58.436c0-0.069-0.002-0.126-0.006-0.182h0.107l0.005,0.108h0.005
		c0.037-0.064,0.1-0.124,0.211-0.124c0.092,0,0.161,0.056,0.189,0.135h0.003c0.021-0.037,0.048-0.066,0.075-0.087
		c0.04-0.031,0.085-0.048,0.148-0.048c0.089,0,0.221,0.059,0.221,0.292v0.396h-0.119v-0.381c0-0.129-0.047-0.206-0.146-0.206
		c-0.069,0-0.124,0.051-0.145,0.11c-0.006,0.017-0.01,0.039-0.01,0.062v0.415h-0.119v-0.402c0-0.107-0.048-0.185-0.141-0.185
		c-0.076,0-0.132,0.061-0.151,0.122c-0.007,0.018-0.01,0.038-0.01,0.06v0.405h-0.119V58.436z"/>
</g>
<g>
	<path fill="#FFFFFF" d="M27.883,58.926l-0.01-0.085H27.87c-0.038,0.053-0.11,0.101-0.206,0.101c-0.136,0-0.205-0.096-0.205-0.193
		c0-0.162,0.145-0.251,0.404-0.25v-0.014c0-0.056-0.016-0.155-0.153-0.155c-0.063,0-0.128,0.019-0.175,0.05l-0.027-0.081
		c0.055-0.036,0.136-0.06,0.221-0.06c0.205,0,0.255,0.141,0.255,0.275v0.251c0,0.059,0.003,0.115,0.012,0.161H27.883z
		 M27.865,58.583c-0.133-0.003-0.284,0.021-0.284,0.151c0,0.079,0.053,0.116,0.115,0.116c0.087,0,0.143-0.056,0.162-0.112
		c0.005-0.013,0.007-0.026,0.007-0.039V58.583z"/>
	<path fill="#FFFFFF" d="M28.236,58.254l0.096,0.145c0.025,0.037,0.046,0.072,0.068,0.109h0.004c0.022-0.04,0.045-0.075,0.066-0.111
		l0.095-0.143h0.132l-0.229,0.325l0.235,0.347h-0.139l-0.099-0.151c-0.026-0.039-0.049-0.076-0.072-0.116h-0.003
		c-0.021,0.04-0.046,0.076-0.07,0.116l-0.098,0.151h-0.135l0.239-0.343L28.1,58.254H28.236z"/>
</g>
<g>
	<defs>
		<polygon id="SVGID_1_" points="7.77,39.442 7.77,57.304 20.836,57.304 20.836,39.442 7.77,39.442 		"/>
	</defs>
	<clipPath id="SVGID_2_">
		<use xlink:href="#SVGID_1_"  overflow="visible"/>
	</clipPath>
	
		<path clip-path="url(#SVGID_2_)" fill="none" stroke="#FFFFFF" stroke-width="0.8067" stroke-linecap="round" stroke-linejoin="round" stroke-dasharray="0,1.6576" d="
		M21.797,61.628c4.775-0.752,8.488-4.705,8.867-9.596 M30.568,49.554c-0.752-4.776-4.705-8.488-9.596-8.869 M18.494,40.782
		c-4.775,0.751-8.488,4.706-8.867,9.594 M9.723,52.856c0.75,4.775,4.705,8.486,9.594,8.867"/>
	
		<path clip-path="url(#SVGID_2_)" fill="none" stroke="#FFFFFF" stroke-width="0.8067" stroke-linecap="round" stroke-linejoin="round" d="
		M30.695,51.204L30.695,51.204 M20.145,40.654L20.145,40.654 M9.594,51.204L9.594,51.204 M20.145,61.755L20.145,61.755"/>
</g>
<g>
	<defs>
		<polygon id="SVGID_3_" points="32.465,39.442 32.465,57.304 20.508,57.304 20.508,39.442 32.465,39.442 		"/>
	</defs>
	<clipPath id="SVGID_4_">
		<use xlink:href="#SVGID_3_"  overflow="visible"/>
	</clipPath>
	
		<path clip-path="url(#SVGID_4_)" fill="none" stroke="#53AEBB" stroke-width="0.8067" stroke-linecap="round" stroke-linejoin="round" stroke-dasharray="0,1.6576" d="
		M9.666,49.554c0.75-4.776,4.705-8.488,9.594-8.869 M21.738,40.782c4.775,0.751,8.488,4.706,8.867,9.594 M30.51,52.856
		c-0.75,4.775-4.705,8.486-9.594,8.867"/>
	
		<path clip-path="url(#SVGID_4_)" fill="none" stroke="#53AEBB" stroke-width="0.8067" stroke-linecap="round" stroke-linejoin="round" d="
		M9.537,51.204L9.537,51.204 M20.088,40.654L20.088,40.654 M30.639,51.204L30.639,51.204 M20.088,61.755L20.088,61.755"/>
</g>
<g>
	<defs>
		<path id="SVGID_5_" d="M20.404,43.173c-4.555,0-8.25,3.517-8.25,7.857c0,4.338,3.695,7.855,8.25,7.855
			c4.557,0,8.25-3.518,8.25-7.855C28.654,46.69,24.961,43.173,20.404,43.173L20.404,43.173z"/>
	</defs>
	<clipPath id="SVGID_6_">
		<use xlink:href="#SVGID_5_"  overflow="visible"/>
	</clipPath>
	<g clip-path="url(#SVGID_6_)">
		<defs>
			<rect id="SVGID_7_" x="12.154" y="43.173" width="16.5" height="15.712"/>
		</defs>
		<clipPath id="SVGID_8_">
			<use xlink:href="#SVGID_7_"  overflow="visible"/>
		</clipPath>
		<g clip-path="url(#SVGID_8_)">
			<image overflow="visible" width="40" height="37" xlink:href="4727550C.jpg"  transform="matrix(0.48 0 0 -0.48 10.9746 60.29)">
			</image>
		</g>
	</g>
</g>
<path fill="none" stroke="#FFFFFF" stroke-width="0.1152" d="M20.404,43.173c-4.555,0-8.25,3.517-8.25,7.857
	c0,4.338,3.695,7.855,8.25,7.855c4.557,0,8.25-3.518,8.25-7.855C28.654,46.69,24.961,43.173,20.404,43.173L20.404,43.173z"/>
<path fill="#00758D" d="M20.625,45.265c0.281,0,0.51-0.217,0.51-0.484c0-0.269-0.229-0.485-0.51-0.485s-0.508,0.217-0.508,0.485
	C20.117,45.048,20.344,45.265,20.625,45.265L20.625,45.265z"/>
<g>
	<path fill="#FFFFFF" d="M18.128,61.395l0.132,0.378c0.022,0.061,0.04,0.116,0.055,0.172h0.004c0.016-0.056,0.034-0.111,0.057-0.172
		l0.131-0.378h0.128l-0.264,0.672h-0.117l-0.256-0.672H18.128z"/>
	<path fill="#FFFFFF" d="M19.356,61.725c0,0.249-0.173,0.357-0.335,0.357c-0.182,0-0.322-0.134-0.322-0.346
		c0-0.226,0.147-0.357,0.333-0.357C19.225,61.379,19.356,61.52,19.356,61.725z M18.823,61.732c0,0.147,0.084,0.259,0.204,0.259
		c0.116,0,0.204-0.11,0.204-0.262c0-0.113-0.058-0.258-0.202-0.258C18.885,61.471,18.823,61.605,18.823,61.732z"/>
	<path fill="#FFFFFF" d="M19.508,61.081h0.122v0.986h-0.122V61.081z"/>
	<path fill="#FFFFFF" d="M20.399,61.883c0,0.069,0.001,0.131,0.005,0.184h-0.108l-0.007-0.109h-0.003
		c-0.031,0.054-0.103,0.125-0.222,0.125c-0.105,0-0.231-0.059-0.231-0.295v-0.393h0.122v0.372c0,0.128,0.038,0.214,0.149,0.214
		c0.082,0,0.139-0.057,0.161-0.111c0.007-0.018,0.012-0.04,0.012-0.063v-0.412h0.122V61.883z"/>
	<path fill="#FFFFFF" d="M20.6,61.577c0-0.069-0.002-0.126-0.006-0.182h0.107l0.005,0.108h0.005c0.037-0.064,0.1-0.124,0.211-0.124
		c0.092,0,0.161,0.056,0.189,0.135h0.003c0.021-0.037,0.048-0.066,0.075-0.087c0.04-0.031,0.085-0.048,0.148-0.048
		c0.089,0,0.221,0.059,0.221,0.292v0.396H21.44v-0.381c0-0.129-0.047-0.206-0.146-0.206c-0.069,0-0.124,0.051-0.145,0.11
		c-0.006,0.017-0.01,0.039-0.01,0.062v0.415h-0.119v-0.402c0-0.107-0.048-0.185-0.141-0.185c-0.076,0-0.132,0.061-0.151,0.122
		c-0.007,0.018-0.01,0.038-0.01,0.06v0.405H20.6V61.577z"/>
	<path fill="#FFFFFF" d="M21.822,61.753c0.003,0.165,0.108,0.233,0.23,0.233c0.088,0,0.141-0.016,0.187-0.035l0.021,0.088
		c-0.043,0.019-0.116,0.041-0.224,0.041c-0.206,0-0.33-0.136-0.33-0.339c0-0.202,0.119-0.362,0.315-0.362
		c0.219,0,0.277,0.193,0.277,0.316c0,0.025-0.003,0.045-0.004,0.058H21.822z M22.18,61.666c0.002-0.078-0.031-0.198-0.169-0.198
		c-0.124,0-0.178,0.113-0.188,0.198H22.18z"/>
</g>
<line fill="none" stroke="#FFFFFF" stroke-width="0.472" x1="53.84" y1="8.768" x2="53.84" y2="27.056"/>
<path fill="#FFFFFF" d="M53.84,9.712c-0.521,0-0.943-0.422-0.943-0.944c0-0.521,0.422-0.943,0.943-0.943s0.945,0.423,0.945,0.943
	C54.785,9.291,54.361,9.712,53.84,9.712L53.84,9.712z"/>
<path fill="#FFFFFF" d="M70.932,87.575c0.684,4.818,0.127,9.869,0.041,14.73c-0.02,1.17,0.242,2.775-0.102,3.893
	c-0.189,0.744-1.387,1.373-1.926,1.834c-0.516,0.428-1.031,0.857-1.545,1.289c-0.426-0.389-0.848-0.783-1.262-1.184
	c-0.588-0.566-1.727-1.279-2.043-2.061c-0.377-0.93,0.207-2.639,0.334-3.615c0.164-1.26,0.328-2.52,0.49-3.779
	c0.348-2.586,0.73-5.186,0.967-7.785c0.105-1.137,0.262-2.281,0.633-3.369c0.117-0.342,0.717-0.146,1.033-0.131
	C68.678,87.456,69.805,87.515,70.932,87.575 M66.986,86.454c-0.016-1.033-0.236-2.07-0.512-3.064
	c2.17,0.115,4.342,0.229,6.514,0.342c-0.699,0.773-1.285,1.814-1.723,2.777c-0.373,0.822-0.203,0.777-1.055,0.732
	c-1.139-0.059-2.277-0.119-3.418-0.178C66.879,86.913,67.035,86.64,66.986,86.454 M71.717,83.37l-4.744-0.248
	c-0.137-0.752,0.457-0.842,1.033-0.971c1.275-0.285,2.549-0.574,3.82-0.873C71.791,81.976,71.754,82.673,71.717,83.37
	 M77.941,81.007c0.617,1.051-2.402,1.719-3.129,2c-1.08,0.422-1.688,0.438-2.828,0.377c0.031-0.574,0.061-1.146,0.09-1.719
	c0.012-0.191,0.988-0.529,1.148-0.605c1.283-0.625,2.564-1.246,3.848-1.871C77.359,79.796,77.65,80.401,77.941,81.007"/>
<path fill="#FFFFFF" d="M99.67,108.308c0,1.375-0.48,2.855-1.215,4.014c-0.385,0.607-0.479,0.66-1.131,0.428
	c-0.465-0.164-0.887,0.754-1.199,1.115c-0.256,0.295-0.936,0.145-1.09,0.369c-0.104,0.146-0.207,0.297-0.311,0.443
	c-0.469,0.674-0.936,1.346-1.404,2.018c-0.428,0.613-0.854,1.229-1.281,1.842c-0.295,0.424-0.414,1.176-0.922,0.742
	c-0.672,0.785-2.273,0.625-3.199,0.697c-1.688,0.139-3.377,0.256-5.07,0.328c-1.277,0.057-2.662,0.188-3.926-0.064
	c-1.365-0.273-0.408-1.516,0.693-1.104c1.285,0.479,2.65,0.213,3.768-0.514c0.986-0.643,2.061-2.537,3.379-1.912
	c0.6,0.285,0.883,0.879,0.516,1.482c-0.252,0.412-1.096,0.443-1.512,0.543c-1.514,0.367-3.061,0.764-4.619,0.895
	c-0.559,0.047-1.004-0.082-1.549-0.148c-0.51-0.064-0.799,0.275-0.178,0.506c1.094,0.406,2.551,0.189,3.684,0.094
	c1.436-0.123,2.875-0.266,4.299-0.473c0.641-0.094,1.271-0.199,1.916-0.234c0.469-0.025,0.188-0.145,0.52-0.283
	c0.254-0.107,0.566-0.035,0.852-0.178c-0.449-0.451-0.691-0.938-0.92-1.523c-0.162-0.42,0.092-0.197,0.25-0.398
	c0.469-0.6,0.936-1.197,1.404-1.793c0.287-0.371,0.66-0.67,0.68-1.143c0.016-0.381,0.029-0.762,0.045-1.143
	c0.018-0.422,0.896-0.605,0.502-1.182c-0.621-0.902-2.271-0.994-3.227-1.238c-1.658-0.428-3.205-0.611-4.91-0.377
	c-0.889,0.123-1.182,0.387-1.756,1.004c-0.408,0.436-0.926,0.879-1.527,0.996c-1.561,0.305-1.961-1.604-2.012-2.742
	c-0.129-3.018,0.951-6.35,2.656-8.83c0.619-0.904,1.91-2.484,3.176-1.785c1.33,0.732,0.656,2.555,1.545,3.504
	c2,2.143,5.344,2.961,8.01,3.895c0.762,0.266,1.527,0.523,2.293,0.775c0.691,0.229,0.283-0.486,0.971-0.502
	c0.604-0.014,1.779,0.477,1.457,1.217c-0.016,0.029-0.027,0.061-0.041,0.092C99.648,107.886,99.67,107.868,99.67,108.308
	 M84.717,106.032c0.387-1.178,0.654-2.4,0.73-3.639c0.053-0.803,0.184-2.746-0.832-3.086c-0.885-0.295-1.848,1.1-2.246,1.695
	c-0.699,1.039-1.223,2.199-1.623,3.385c-0.436,1.291-0.76,2.619-0.846,3.982c-0.049,0.795-0.172,2.756,0.836,3.086
	c0.941,0.332,2.031-1.342,2.418-1.961C83.83,108.419,84.334,107.241,84.717,106.032 M83.094,103.735
	c0.834,0.305-0.154,2.799-0.799,2.99C81.467,106.972,82.113,103.384,83.094,103.735 M82.787,105.28
	c0.355-1.002-0.279-1.193-0.631-0.203C81.859,106.083,82.488,106.294,82.787,105.28 M86.119,117.39
	c-0.166,0.332-0.721,0.68-0.996,0.914c0.396,0.045,0.82,0.035,1.164-0.193C86.705,117.833,86.088,117.485,86.119,117.39
	 M100.605,108.146c1.5,0.477,1.822,2.344,1.254,3.631c-0.689,1.561-2.1,1.791-3.551,1.305c1.037-1.027,2.018-3.656,1.666-5.119
	C100.143,108.003,100.457,108.071,100.605,108.146"/>
<path fill="#FFFFFF" d="M102.389,84.335c-0.205,0.84-0.533,1.455-0.742,2.244c-0.27,1.018-0.621,1.965-0.916,2.967
	c-0.355,1.211-0.635,2.605-1.271,3.707c-0.822,1.332-3.061,0.246-4.207-0.076c-1.506-0.422-3.055-0.809-4.504-1.408
	c-0.656-0.271-1.037-0.541-1.043-1.295c-0.008-0.756,0.271-1.527,0.463-2.252c0.471-1.785,1.006-3.537,1.496-5.311
	c-0.734,0.256-0.813,0.594-1.252,1.211c-0.27,0.377-0.527,0.703-0.844,1.037c-0.598,0.633-1.195,1.264-1.795,1.895
	c1.178,0.982,1.414,3.105-0.203,3.811c-0.771,0.336-1.682,0.207-2.367-0.26c-0.35-0.236-1.355-1.24-1.006-1.744
	c-1.934,1.07-4.432-1.377-2.197-2.83c-0.629-0.572-0.113-0.93,0.414-1.186c0.9-0.434,1.807-0.859,2.709-1.293
	c0.744-0.355,1.488-0.707,2.23-1.066c0.307-0.15,2.119-1.086,2.396-0.77c0.125,0.154,1.49-0.037,1.793-0.02
	c0.559,0.01,0.473,0.039,0.629-0.449c0.348-1.088,0.697-2.176,1.045-3.264c0.232-0.732,0.41-1.898,1.365-1.996
	c0.918-0.094,1.975,0.352,2.848,0.576c0.85,0.219,1.668,0.436,2.508,0.68c1.473,0.428,4.131,0.775,3.535,2.854
	C103.082,81.462,102.699,82.927,102.389,84.335 M91.939,82.003c-0.438-0.029-1.758-0.303-2.004,0.137
	c-0.246,0.436-1.125,0.824-1.584,1.068c-1.559,0.82-3.266,1.426-4.783,2.318c0.76-0.047,2.07,0.238,2.047,1.217
	c0.348-0.193,0.789-0.215,1.176-0.148c0.303-0.336,0.607-0.67,0.916-1c0.551-0.596,1.07-1.26,1.688-1.789
	c0.313-0.271,0.635-0.533,0.963-0.787c0.16-0.127,0.258,0.084,0.439-0.018c0.314-0.174,0.646-0.318,0.975-0.463
	C91.867,82.425,91.895,82.147,91.939,82.003 M102.123,80.183c0.199-0.701-1.648-0.941-2.045-1.057
	c-1.244-0.355-2.486-0.711-3.729-1.068c-0.514-0.146-1.557-0.693-1.777,0.074c-0.316,1.104-0.633,2.203-0.947,3.305
	c-0.156,0.541-0.787,1.746,0.029,1.98c0.988,0.283,1.975,0.566,2.963,0.85c1.088,0.313,2.176,0.623,3.264,0.936
	c0.889,0.256,0.941-0.49,1.143-1.191C101.391,82.735,101.756,81.458,102.123,80.183"/>
<path fill="#FFFFFF" d="M58.627,98.614c1.033,0,0.777,1.494,0.777,2.148c0,1.445,0,2.891,0,4.336c0,3.645,0,7.287,0,10.934
	c0,1.074,0,2.146,0,3.223c0,0.92-0.607,1.092-1.408,1.092c-3.285,0-6.57,0-9.855,0c-0.668,0-2.518,0.311-2.518-0.771
	c0-0.736,0-1.471,0-2.207c0-3.508,0-7.016,0-10.523c0-2.473,0-4.945,0-7.42c0-1.076,1.502-0.811,2.197-0.811c1.717,0,3.434,0,5.15,0
	C54.855,98.614,56.74,98.614,58.627,98.614 M58.691,99.522c0-0.41-7.549-0.195-8.213-0.195c-1.27,0-2.539,0-3.809,0
	c-0.506,0-0.314,0.9-0.314,1.25c0,6.15,0,12.301,0,18.453c0,0.695,0.287,0.604,0.936,0.604c1.588,0,3.174,0,4.762,0
	c1.713,0,3.428,0,5.141,0c0.41,0,1.498,0.244,1.498-0.363c0-6.07,0-12.141,0-18.209C58.691,100.548,58.691,100.034,58.691,99.522
	 M58.324,99.694v19.572H46.723c0-5.766,0-11.529,0-17.295c0-0.754,0-1.51,0-2.264c0-0.029,2.387-0.014,2.545-0.014
	c3.002,0,6.002,0,9.004,0C58.289,99.694,58.307,99.694,58.324,99.694 M47.328,99.845c-0.617,0-0.605,0.93,0,0.93
	C47.912,100.774,47.924,99.845,47.328,99.845 M47.328,118.187c-0.617,0-0.605,0.928,0,0.928
	C47.912,119.114,47.924,118.187,47.328,118.187 M47.328,100.579c-0.369,0-0.373-0.539,0-0.539
	C47.678,100.04,47.674,100.579,47.328,100.579 M47.328,118.921c-0.369,0-0.373-0.541,0-0.541
	C47.678,118.38,47.674,118.921,47.328,118.921 M52.514,118.835c2.846,0,5.227-2.383,5.227-5.229s-2.381-5.229-5.227-5.229
	s-5.229,2.383-5.229,5.229S49.668,118.835,52.514,118.835 M47.826,113.476c0.266,0.15,0.043,0.506-0.217,0.391
	C47.357,113.741,47.561,113.329,47.826,113.476 M50.201,102.956c-3.104,0-3.092,4.797,0,4.797
	C53.283,107.753,53.295,102.956,50.201,102.956 M52.514,109.222c2.396,0,4.406,1.982,4.406,4.385c0,2.408-1.996,4.406-4.406,4.406
	c-2.402,0-4.387-2.012-4.387-4.406C48.127,111.218,50.125,109.222,52.514,109.222 M50.201,107.212c-2.434,0-2.422-3.738,0-3.738
	C52.602,103.474,52.611,107.212,50.201,107.212 M55.367,116.458c3.68-3.686-2.025-9.395-5.705-5.703
	C45.977,114.444,51.678,120.136,55.367,116.458 M50.201,103.669c-2.174,0-2.174,3.371,0,3.371
	C52.377,107.04,52.377,103.669,50.201,103.669 M48.711,106.651c0.23,0,0.23,0.344,0,0.344
	C48.479,106.995,48.479,106.651,48.711,106.651 M48.732,104.036c-0.23,0-0.23-0.344,0-0.344S48.963,104.036,48.732,104.036
	 M50.094,104.878c-0.365,0.078-0.225,0.367-0.58,0.367c-0.203,0-0.406,0-0.609,0c0.059-0.627,0.563-1.129,1.189-1.188
	C50.094,104.331,50.094,104.606,50.094,104.878 M50.094,106.651c-0.627-0.059-1.131-0.563-1.189-1.189
	C49.893,105.462,50.094,105.663,50.094,106.651 M52.514,110.452c3.857,0,4.164,5.914,0.32,6.293
	C48.58,117.165,48.271,110.452,52.514,110.452 M50.07,109.696c-0.285,0-0.285-0.434,0-0.434
	C50.359,109.263,50.359,109.696,50.07,109.696 M50.051,117.603c0.258-0.145,0.475,0.244,0.217,0.389
	C50.008,118.136,49.791,117.747,50.051,117.603 M50.678,105.245c-0.082-0.35-0.369-0.229-0.369-0.58c0-0.201,0-0.404,0-0.607
	c0.631,0.059,1.109,0.566,1.168,1.188C51.211,105.245,50.943,105.245,50.678,105.245 M51.477,105.462
	c-0.059,0.623-0.537,1.131-1.168,1.189C50.309,105.675,50.5,105.462,51.477,105.462 M52.514,115.335c2.232,0,2.232-3.457,0-3.457
	S50.281,115.335,52.514,115.335 M51.67,106.671c0.23,0,0.23,0.346,0,0.346S51.439,106.671,51.67,106.671 M51.691,104.058
	c-0.229,0-0.229-0.346,0-0.346C51.922,103.712,51.922,104.058,51.691,104.058 M54.48,100.493c-2.33,0-2.318,3.607,0,3.607
	C56.818,104.101,56.832,100.493,54.48,100.493 M54.48,103.692c-1.621,0-1.871-2.449-0.273-2.764
	C56.146,100.55,56.467,103.692,54.48,103.692 M54.48,101.011c-1.648,0-1.646,2.572,0,2.572
	C56.15,103.583,56.152,101.011,54.48,101.011 M53.377,101.315c-0.043-0.043-0.086-0.088-0.129-0.131c0.086-0.174,0.174-0.174,0.26,0
	C53.463,101.228,53.422,101.272,53.377,101.315 M53.377,103.259c0.045,0.043,0.086,0.086,0.131,0.129
	c-0.086,0.174-0.174,0.174-0.26,0C53.291,103.345,53.334,103.302,53.377,103.259 M54.414,101.94
	c-0.252,0.047-0.164,0.281-0.375,0.281c-0.17,0-0.342,0-0.51,0c0.029-0.488,0.408-0.852,0.885-0.906
	C54.414,101.524,54.414,101.731,54.414,101.94 M54.414,103.259c-0.482-0.027-0.857-0.402-0.885-0.885
	C54.262,102.374,54.414,102.522,54.414,103.259 M57.566,106.542c0-2.074-3.217-2.064-3.217,0
	C54.35,108.63,57.566,108.64,57.566,106.542 M54.846,102.222c-0.043-0.23-0.279-0.178-0.279-0.346c0-0.188,0-0.375,0-0.561
	c0.475,0.055,0.855,0.42,0.885,0.906C55.25,102.222,55.049,102.222,54.846,102.222 M55.451,102.374
	c-0.027,0.48-0.404,0.857-0.885,0.885C54.566,102.522,54.719,102.374,55.451,102.374 M54.975,109.61
	c-0.266,0.148-0.471-0.242-0.215-0.367C55.027,109.095,55.232,109.483,54.975,109.61 M54.674,106.542c0-1.645,2.57-1.648,2.57,0
	C57.244,108.194,54.674,108.192,54.674,106.542 M54.955,117.517c0.316,0,0.313,0.453,0,0.453
	C54.666,117.97,54.662,117.517,54.955,117.517 M55.604,103.28c0.391,0-0.152,0.521-0.152,0.131
	C55.502,103.366,55.553,103.323,55.604,103.28 M55.604,101.315c-0.045-0.043-0.088-0.088-0.131-0.131
	C55.473,100.804,55.98,101.315,55.604,101.315 M57.418,113.368c0.266,0.148,0.041,0.504-0.217,0.389
	C56.957,113.603,57.154,113.204,57.418,113.368 M57.697,99.845c-0.594,0-0.584,0.93,0,0.93
	C58.305,100.774,58.314,99.845,57.697,99.845 M57.697,118.187c-0.594,0-0.584,0.928,0,0.928
	C58.305,119.114,58.314,118.187,57.697,118.187 M57.697,100.579c-0.344,0-0.348-0.539,0-0.539
	C58.072,100.04,58.068,100.579,57.697,100.579 M57.697,118.921c-0.344,0-0.348-0.541,0-0.541
	C58.072,118.38,58.068,118.921,57.697,118.921"/>
<path fill="#FFFFFF" d="M52.406,88.341c1.027,3.023-4.828,3.58-6.559,3.537c-1.588-0.041-7.441-0.961-5.945-3.803
	c0.301-0.582,0.865-1.023,1.441-1.313c0.361-0.18,0.959-0.211,0.908-0.605c-0.229-1.217-0.838-2.32-1.139-3.527
	c-0.301-1.221-0.441-2.621,0.203-3.762c0.723-1.273,2.42-1.516,3.477-0.49c-0.148-0.6,0.158-0.666,0.248-1.133
	c0.088-0.463,0.842-0.887,0.357-1.438c-0.736-0.842-1.332-2.152-0.082-2.879c1.109-0.648,2.713,0.104,2.498,1.512
	c-0.082,0.555-0.533,0.967-0.855,1.396c-0.365,0.477-0.076,1.328,0.521,1.219c0.361-0.063,0.775,0.209,0.65,0.617
	c-0.055,0.176-0.332,0.146-0.467,0.127c-0.123-0.018-0.223,0.701-0.24,0.779c-0.268,1.367-0.176,2.854-0.107,4.238
	c0.057,1.244,0.471,2.688,1.699,3.229C50.09,86.515,52.102,86.983,52.406,88.341 M44.977,82.378c0-0.721,0.24-1.865-0.129-2.514
	c-0.48-0.975-1.563-2.156-2.568-1.059c-0.848,0.932-0.566,2.287-0.258,3.379c0.205,0.713,0.479,1.424,0.879,2.051
	c0.32,0.496,0.783,0.711,1.141,1.15C44.717,84.565,44.953,83.415,44.977,82.378"/>
<path fill="#FFFFFF" d="M37.234,116.81c0.084,1-0.609,2.193-1.477,2.555c-0.738,0.305-1.246,0.328-2.014,0.328v-0.096h-0.078v-0.08
	h-0.42v0.08h-0.342v0.096h-0.604v-0.096h-0.854v-0.08h-0.512v-0.094c-0.305,0-0.609,0-0.914,0c-0.426,0-0.371,0.48-0.871,0.27
	c0.004-0.029-0.023,0.285-0.059,0.273c-0.234-0.082-0.135,0.199-0.217,0.242c-0.17,0.09,0.094,0.098-0.23,0.031
	c-0.23-0.047-0.09,0.148-0.262,0.148c-0.203,0-0.131-0.344-0.574-0.178c-0.295,0.113-0.297-0.17-0.613-0.17
	c0.066-0.137,0.014-0.232,0.078-0.348c-0.338,0.074-0.553-0.076-0.498-0.443c-0.082,0-0.186-0.023-0.262,0v0.094h-0.25v-0.094
	h-0.432v-0.08c-0.455-0.059-1.213,0.309-1.652,0.451c-0.561,0.182-0.898-0.053-1.439-0.217c-0.746-0.227-1.529-0.314-2.264-0.582
	c-0.049-0.1-0.115-0.182-0.199-0.25c-0.189-0.16-0.154-0.25-0.213-0.496c-0.076-0.32-0.201-0.617-0.246-0.945
	c-0.043-0.307-0.287-0.283-0.287-0.551c0-0.254,0.037-0.398,0.229-0.557c0.066-0.055,0.361-0.268,0.381-0.311
	c0.133-0.293,0.184-0.734,0.322-1.078c0.176-0.439,0.443-1.215,0.879-1.467c0.203-0.117,0.525-0.209,0.453-0.494
	c-0.047-0.184-0.035-0.377-0.045-0.564c-0.1,0.018-0.326,0.098-0.25-0.068c-0.059,0.119,0.02-0.514,0.031-0.549
	c0.051-0.129,0.229-0.484,0.049-0.523c0.016,0.326-0.447,0.604-0.684,0.604c-0.701,0,0.164-0.928,0.459-0.979
	c0.465-0.078,0.605-0.516,0.996-0.648c0.092-0.018,0.17-0.061,0.234-0.127c0.176-0.215,0.258-0.168,0.525-0.248
	c0.283-0.082,0.701-0.205,0.842-0.35c0.188-0.188,0.162-0.502,0.176-0.838c0.02-0.592,0.242-0.553,0.592-0.904
	c0.469-0.461,0.363-1.328,0.689-1.922c-0.291-0.49,0.4-0.977,0.537-1.346c0.078-0.197,0.244-0.404,0.33-0.639
	c0.107-0.293,0.238-0.225,0.402-0.367c0.299-0.262,0.359-1.102,0.764-1.305c0.018-0.166,0.076-0.186,0.094-0.35
	c0.117-0.121,0.449-0.264,0.42-0.348c0.371,0,0.58-0.025,0.813,0.213c0.393,0.402,0.627,1.355,0.811,1.891
	c0.168,0.494,0.559,0.479,0.717,0.971c0.012,0.039,0.285,0.408,0.258,0.408c0.016,0,0.191,0.377,0.211,0.443
	c0.627,0.16,0.156,0.799,0.248,1.078c0.129,0.385,0.154,0.791,0.201,1.193c0.023,0.213,0.004,0.455,0.141,0.629
	c-0.104-0.137,0.184,0.301,0.184,0.188c0-0.072,0.232,0.213,0.25,0.314c0.178,0.063,0.162,0.125,0.234,0.281
	c0.129,0.262,0.322,0.729,0.617,0.844v-0.08c0.342-0.047,0.99,0.232,1.326,0.348c0.211,0.072,0.4,0.189,0.449,0.432
	c0.045,0.209,0.219,0.33,0.428,0.445c0.363,0.201,0.537,0.623,0.654,1.037c0.127,0.453-0.184,0.566-0.561,0.619
	c0.094,0.287,0.391,0.611,0.598,0.824c0.324,0.332,0.486,0.643,0.623,1.102c0.088,0.293,0.283,0.486,0.486,0.688
	C36.822,115.659,37.203,116.175,37.234,116.81 M21.316,110.968c0.148-0.076,0.27-0.193,0.34-0.348
	c-0.203-0.016-0.857,0.537-0.838,0.777C21.01,111.444,21.287,111.163,21.316,110.968 M24.898,108.356
	c0.199-0.018,0.324-0.145,0.342-0.35c-0.424,0.182-0.313-0.133-0.604-0.094v0.094h-0.08v0.174h-0.09v0.256h0.262v0.094
	C24.848,108.534,24.85,108.458,24.898,108.356 M26,109.052h-0.248v-0.092c-0.342,0.08-0.475,0.156-0.512,0.615
	c0.213-0.031,0.139,0.063,0.25,0.174c0.098,0.029,0.238,0,0.342,0v-0.094h0.092v-0.174C26.072,109.454,26,109.208,26,109.052
	 M30.096,109.923c0-0.336-0.006-0.664,0.045-0.998c0.035-0.221,0.064-0.254-0.137-0.314c-0.031-0.23-0.066-0.461-0.109-0.689
	c-0.074-0.396-0.145-1.693-0.6-1.809c-0.545-0.137-0.449-2.461-0.51-2.98c-0.043-0.357-0.344-1.873-0.814-1.311
	c-0.494,0.588-0.482,1.922-0.594,2.754c-0.055,0.385,0.063,1.285-0.432,1.33c-0.398,0.404-0.439,1.186-0.523,1.734
	c-0.082,0.557-0.061,1.07-0.061,1.627c0.004,0.123-0.01,0.246-0.037,0.367c-0.094,0.396,0.082,0.072,0.018,0.289
	c0.262,0,0.504,0.256,0.707,0.256C28.053,110.179,29.113,110.149,30.096,109.923 M31.105,110.005
	c0.289-0.396-0.385-0.443-0.34-0.604c-0.049-0.014-0.209-0.025-0.25,0c-0.148,0.184,0,0.184,0,0.301c0,0.078,0.205,0.047,0.25,0.047
	c0.039,0.143,0.105,0.193,0.092,0.348c0.025,0,0.053,0,0.078,0C30.926,109.97,30.98,109.94,31.105,110.005"/>
<path fill="#9D9182" d="M0.127,22.071h2.326l0,0v-3.706c0-0.552,0.447-1,1-1h4.203l0,0v2.899l0,0h0.99
	c0.547,0,0.992,0.745,0.992,1.663v5.214l0,0h1.326c0.551,0,1-0.447,1-1v-3.07c0-0.553,0.447-1,1-1h3.496l0,0v1.633l0,0h1.164
	c0.641,0,1.162-0.745,1.162-1.664V1c0-0.552,0.447-1,1-1h4.52c0.92,0,1.664,0.745,1.664,1.664v24.21l0,0h0.449
	c0.246,0,0.447-0.745,0.447-1.664V1c0-0.552,0.447-1,0.998-1h3.971c0.92,0,1.664,0.745,1.664,1.664V24.05l0,0h0.447
	c0.248,0,0.449-0.448,0.449-1v-3.342l0,0h3.961l0,0v3.995l0,0h2.326l0,0v1.267l0,0h1.793l0,0v3.613l0,0h2.152l0,0v-2.71l0,0h1.26
	l0,0v-1.268l0,0h3.771l0,0v1.268l0,0h1.432l0,0v2.518l0,0h0.723c0.4,0,0.725-0.744,0.725-1.663v-7.366l0,0h2.453
	c0.92,0,1.662,0.744,1.662,1.663v7.366l0,0h0.811c0.449,0,0.811-0.744,0.811-1.663V15.464c0-0.552,0.422-0.853,0.945-0.673
	l3.754,1.299c0.867,0.301,1.572,1.289,1.572,2.208v7.922l0,0h0.99c0.547,0,0.99-0.448,0.99-1v-4.418l0,0h2.689l0,0v-2.343l0,0h2.281
	c0.918,0,1.662,0.744,1.662,1.663v6.098l0,0h2.879l0,0v-3.977l0,0h1.438c0.795,0,1.439-0.744,1.439-1.663v-7.01l0,0l1.066-0.722l0,0
	v-2.535l0,0l1.621-0.901l0,0l0.068-3.032c0.012-0.552,0.041-0.553,0.064-0.001l0.133,3.028l0,0l1.699,0.837l0,0l0.016,2.604l0,0
	l0.535,0.271c0.295,0.148,0.533,1.014,0.533,1.933v9.554l0,0h1.516c0.553,0,1-0.447,1-1v-4.608l0,0h1.791l0,0v-2.363l0,0h0.811
	c0.447,0,0.811-0.446,0.811-1v-3.878l0,0h2.281c0.918,0,1.662,0.745,1.662,1.663v6.116l0,0h1.982l0,0V16.02c0-0.552,0.449-1,1-1
	h3.479l0,0v-1.632l0,0h2.816c0.92,0,1.664,0.745,1.664,1.664v5.924l0,0h1.258c0.695,0,1.258,0.745,1.258,1.664v11.329
	c0,0.918-0.744,1.663-1.664,1.663H1.791c-0.918,0-1.664-0.745-1.664-1.663V22.071L0.127,22.071z"/>
</svg>
