<svg width="61" height="60" viewBox="0 0 61 60" fill="none" xmlns="http://www.w3.org/2000/svg">
<circle cx="30.25" cy="30" r="29" fill="white" stroke="#00758D" stroke-width="2"/>
<path d="M41.7485 24.2287C41.4725 23.194 40.6592 22.3792 39.6266 22.1026C37.755 21.6001 30.25 21.6001 30.25 21.6001C30.25 21.6001 22.745 21.6001 20.8734 22.1026C19.8408 22.3792 19.0275 23.194 18.7515 24.2287C18.25 26.1042 18.25 30.0171 18.25 30.0171C18.25 30.0171 18.25 33.93 18.7515 35.8054C19.0275 36.8401 19.8408 37.621 20.8734 37.8976C22.745 38.4001 30.25 38.4001 30.25 38.4001C30.25 38.4001 37.755 38.4001 39.6266 37.8976C40.6592 37.621 41.4725 36.8401 41.7485 35.8054C42.25 33.93 42.25 30.0171 42.25 30.0171C42.25 30.0171 42.25 26.1042 41.7485 24.2287ZM27.7954 33.5697V26.4644L34.0681 30.0172L27.7954 33.5697Z" fill="#00758D"/>
</svg>
