<?xml version="1.0" encoding="utf-8"?>
<!-- Generator: Adobe Illustrator 16.0.0, SVG Export Plug-In . SVG Version: 6.00 Build 0)  -->
<!DOCTYPE svg PUBLIC "-//W3C//DTD SVG 1.1//EN" "http://www.w3.org/Graphics/SVG/1.1/DTD/svg11.dtd">
<svg version="1.1" id="Layer_1" xmlns="http://www.w3.org/2000/svg" xmlns:xlink="http://www.w3.org/1999/xlink" x="0px" y="0px"
	 width="107.853px" height="125.75px" viewBox="0 0 107.853 125.75" enable-background="new 0 0 107.853 125.75"
	 xml:space="preserve">
<path fill="#00758D" d="M106.475,125.779c0.922,0,1.67-0.54,1.67-1.207V76.012c0-0.667-0.748-1.208-1.67-1.208H1.461
	c-0.922,0-1.669,0.541-1.669,1.208v48.561c0,0.667,0.747,1.207,1.669,1.207H106.475L106.475,125.779z"/>
<g>
	<path fill="#FFFFFF" d="M10.418,117.268c0-0.07-0.001-0.127-0.006-0.182h0.107l0.006,0.107h0.004
		c0.038-0.063,0.1-0.123,0.211-0.123c0.092,0,0.161,0.055,0.19,0.135h0.003c0.021-0.038,0.047-0.066,0.075-0.088
		c0.041-0.031,0.085-0.047,0.148-0.047c0.089,0,0.221,0.059,0.221,0.291v0.396h-0.12v-0.381c0-0.129-0.047-0.207-0.146-0.207
		c-0.069,0-0.124,0.051-0.144,0.111c-0.006,0.017-0.01,0.039-0.01,0.061v0.416h-0.12v-0.403c0-0.106-0.047-0.185-0.14-0.185
		c-0.076,0-0.132,0.061-0.151,0.122c-0.007,0.019-0.01,0.039-0.01,0.06v0.406h-0.119V117.268z"/>
	<path fill="#FFFFFF" d="M11.708,116.896c0.001,0.041-0.029,0.074-0.078,0.074c-0.043,0-0.074-0.033-0.074-0.074
		c0-0.043,0.032-0.076,0.077-0.076C11.68,116.82,11.708,116.854,11.708,116.896z M11.573,117.758v-0.672h0.122v0.672H11.573z"/>
</g>
<g>
	<path fill="#FFFFFF" d="M11.824,117.268c0-0.07-0.001-0.127-0.006-0.182h0.108l0.007,0.11h0.003
		c0.033-0.063,0.111-0.126,0.222-0.126c0.093,0,0.237,0.055,0.237,0.285v0.402h-0.122v-0.388c0-0.108-0.041-0.198-0.156-0.198
		c-0.08,0-0.143,0.057-0.164,0.125c-0.005,0.015-0.008,0.035-0.008,0.057v0.404h-0.122V117.268z"/>
	<path fill="#FFFFFF" d="M25.14,117.268c0-0.07-0.001-0.127-0.006-0.182h0.107l0.006,0.107h0.004c0.038-0.063,0.1-0.123,0.211-0.123
		c0.092,0,0.161,0.055,0.19,0.135h0.003c0.021-0.038,0.047-0.066,0.075-0.088c0.041-0.031,0.085-0.047,0.148-0.047
		c0.089,0,0.221,0.059,0.221,0.291v0.396h-0.12v-0.381c0-0.129-0.047-0.207-0.146-0.207c-0.069,0-0.124,0.051-0.144,0.111
		c-0.006,0.017-0.01,0.039-0.01,0.061v0.416h-0.12v-0.403c0-0.106-0.047-0.185-0.14-0.185c-0.076,0-0.132,0.061-0.151,0.122
		c-0.007,0.019-0.01,0.039-0.01,0.06v0.406H25.14V117.268z"/>
</g>
<g>
	<path fill="#FFFFFF" d="M26.642,117.758l-0.01-0.085h-0.004c-0.038,0.053-0.109,0.1-0.206,0.1c-0.136,0-0.205-0.096-0.205-0.192
		c0-0.163,0.144-0.252,0.404-0.25v-0.014c0-0.057-0.015-0.156-0.153-0.156c-0.063,0-0.127,0.02-0.175,0.051l-0.028-0.081
		c0.056-0.036,0.136-0.06,0.221-0.06c0.206,0,0.255,0.141,0.255,0.274v0.251c0,0.059,0.003,0.115,0.011,0.162H26.642z
		 M26.624,117.414c-0.133-0.002-0.285,0.021-0.285,0.152c0,0.078,0.053,0.115,0.115,0.115c0.087,0,0.143-0.055,0.163-0.111
		c0.004-0.014,0.007-0.027,0.007-0.039V117.414z"/>
	<path fill="#FFFFFF" d="M26.994,117.086l0.096,0.144c0.025,0.038,0.046,0.072,0.068,0.11h0.004
		c0.022-0.041,0.044-0.076,0.067-0.111l0.094-0.143h0.132l-0.229,0.324l0.236,0.348h-0.139l-0.099-0.152
		c-0.026-0.039-0.048-0.076-0.072-0.116H27.15c-0.022,0.04-0.046,0.077-0.071,0.116l-0.097,0.152h-0.135l0.239-0.344l-0.228-0.328
		H26.994z"/>
</g>
<g>
	<defs>
		<polygon id="SVGID_1_" points="6.531,98.277 6.531,116.141 19.597,116.141 19.597,98.277 6.531,98.277 		"/>
	</defs>
	<clipPath id="SVGID_2_">
		<use xlink:href="#SVGID_1_"  overflow="visible"/>
	</clipPath>
	
		<path clip-path="url(#SVGID_2_)" fill="none" stroke="#FFFFFF" stroke-width="0.8067" stroke-linecap="round" stroke-linejoin="round" stroke-dasharray="0,1.6576" d="
		M20.558,120.464c4.776-0.751,8.489-4.705,8.868-9.595 M29.33,108.391c-0.751-4.777-4.705-8.488-9.595-8.869 M17.255,99.619
		c-4.776,0.75-8.488,4.705-8.868,9.594 M8.484,111.691c0.75,4.776,4.705,8.49,9.594,8.869"/>
	
		<path clip-path="url(#SVGID_2_)" fill="none" stroke="#FFFFFF" stroke-width="0.8067" stroke-linecap="round" stroke-linejoin="round" d="
		M29.458,110.041L29.458,110.041 M18.907,99.49L18.907,99.49 M8.355,110.041L8.355,110.041 M18.907,120.592L18.907,120.592"/>
</g>
<g>
	<defs>
		<polygon id="SVGID_3_" points="31.226,98.277 31.226,116.141 19.27,116.141 19.27,98.277 31.226,98.277 		"/>
	</defs>
	<clipPath id="SVGID_4_">
		<use xlink:href="#SVGID_3_"  overflow="visible"/>
	</clipPath>
	
		<path clip-path="url(#SVGID_4_)" fill="none" stroke="#53AEBB" stroke-width="0.8067" stroke-linecap="round" stroke-linejoin="round" stroke-dasharray="0,1.6576" d="
		M8.427,108.391c0.75-4.777,4.705-8.488,9.594-8.869 M20.5,99.619c4.776,0.75,8.489,4.705,8.868,9.594 M29.271,111.691
		c-0.751,4.776-4.705,8.49-9.595,8.869"/>
	
		<path clip-path="url(#SVGID_4_)" fill="none" stroke="#53AEBB" stroke-width="0.8067" stroke-linecap="round" stroke-linejoin="round" d="
		M8.297,110.041L8.297,110.041 M18.849,99.49L18.849,99.49 M29.399,110.041L29.399,110.041 M18.849,120.592L18.849,120.592"/>
</g>
<g>
	<defs>
		<path id="SVGID_5_" d="M19.167,102.01c-4.556,0-8.25,3.518-8.25,7.857c0,4.339,3.694,7.855,8.25,7.855s8.25-3.517,8.25-7.855
			C27.417,105.527,23.723,102.01,19.167,102.01L19.167,102.01z"/>
	</defs>
	<clipPath id="SVGID_6_">
		<use xlink:href="#SVGID_5_"  overflow="visible"/>
	</clipPath>
	<g clip-path="url(#SVGID_6_)">
		<defs>
			<rect id="SVGID_7_" x="10.917" y="102.01" width="16.5" height="15.713"/>
		</defs>
		<clipPath id="SVGID_8_">
			<use xlink:href="#SVGID_7_"  overflow="visible"/>
		</clipPath>
		<g clip-path="url(#SVGID_8_)">
			
				<image overflow="visible" width="40" height="36" xlink:href="E5CD6E18.jpg"  transform="matrix(0.48 0 0 -0.48 9.6333 118.7578)">
			</image>
		</g>
	</g>
</g>
<path fill="none" stroke="#FFFFFF" stroke-width="0.1152" d="M19.167,102.01c-4.556,0-8.25,3.518-8.25,7.857
	c0,4.339,3.694,7.855,8.25,7.855s8.25-3.517,8.25-7.855C27.417,105.527,23.723,102.01,19.167,102.01L19.167,102.01z"/>
<path fill="#00758D" d="M19.387,104.102c0.281,0,0.509-0.217,0.509-0.484s-0.228-0.485-0.509-0.485
	c-0.281,0-0.509,0.218-0.509,0.485S19.105,104.102,19.387,104.102L19.387,104.102z"/>
<g>
	<path fill="#FFFFFF" d="M16.887,120.234l0.132,0.377c0.022,0.061,0.041,0.117,0.054,0.172h0.004
		c0.015-0.055,0.035-0.111,0.057-0.172l0.131-0.377h0.127l-0.264,0.672h-0.117l-0.255-0.672H16.887z"/>
	<path fill="#FFFFFF" d="M18.114,120.564c0,0.248-0.172,0.356-0.334,0.356c-0.182,0-0.322-0.134-0.322-0.346
		c0-0.226,0.147-0.356,0.333-0.356C17.984,120.219,18.114,120.359,18.114,120.564z M17.581,120.571c0,0.147,0.085,0.259,0.204,0.259
		c0.117,0,0.204-0.11,0.204-0.262c0-0.113-0.057-0.258-0.201-0.258S17.581,120.443,17.581,120.571z"/>
	<path fill="#FFFFFF" d="M18.267,119.92h0.122v0.986h-0.122V119.92z"/>
	<path fill="#FFFFFF" d="M19.157,120.723c0,0.069,0.001,0.131,0.006,0.184h-0.108l-0.007-0.11h-0.003
		c-0.032,0.054-0.103,0.125-0.222,0.125c-0.105,0-0.232-0.058-0.232-0.294v-0.393h0.122v0.371c0,0.128,0.039,0.215,0.15,0.215
		c0.082,0,0.139-0.058,0.161-0.111c0.007-0.019,0.011-0.041,0.011-0.063v-0.412h0.122V120.723z"/>
	<path fill="#FFFFFF" d="M19.358,120.416c0-0.07-0.001-0.127-0.006-0.182h0.107l0.006,0.107h0.004
		c0.038-0.063,0.1-0.123,0.211-0.123c0.092,0,0.161,0.055,0.19,0.135h0.003c0.021-0.038,0.047-0.066,0.075-0.088
		c0.041-0.031,0.085-0.047,0.148-0.047c0.089,0,0.221,0.059,0.221,0.291v0.396h-0.12v-0.381c0-0.129-0.047-0.207-0.146-0.207
		c-0.069,0-0.124,0.051-0.144,0.111c-0.006,0.017-0.01,0.039-0.01,0.061v0.416h-0.12v-0.403c0-0.106-0.047-0.185-0.14-0.185
		c-0.076,0-0.132,0.061-0.151,0.122c-0.007,0.019-0.01,0.039-0.01,0.06v0.406h-0.119V120.416z"/>
	<path fill="#FFFFFF" d="M20.581,120.592c0.003,0.166,0.108,0.233,0.23,0.233c0.087,0,0.14-0.015,0.186-0.034l0.021,0.087
		c-0.043,0.02-0.117,0.042-0.224,0.042c-0.207,0-0.331-0.137-0.331-0.339c0-0.203,0.12-0.362,0.315-0.362
		c0.219,0,0.277,0.193,0.277,0.316c0,0.025-0.002,0.045-0.004,0.057H20.581z M20.939,120.504c0.001-0.077-0.032-0.197-0.169-0.197
		c-0.124,0-0.178,0.113-0.188,0.197H20.939z"/>
</g>
<path fill="#6EB9C4" d="M101.071,119.352c0.701,0.559,0.921,1.793,0.322,2.541c-0.931,1.162-3.455,1.045-4.74,0.855
	c-1.256-0.184-3.926-0.818-3.133-2.661c0.67-1.556,4.103-1.29,5.427-1.039c0.022-0.662,0.259-1.496-0.065-2.015
	c-0.545-0.872-1.089-1.745-1.634-2.618c-1.013-1.623-2.044-3.233-3.067-4.849c-0.943-1.494-1.904-2.979-2.857-4.467
	c-0.368-0.576-0.727-1.162-1.119-1.717c-0.18-0.252-0.739-0.66-0.76-0.738c-0.354-0.135-0.967-1.274-0.967-1.631
	c-0.711,0.178-0.266,0.637-0.266,1.213c0.083,0.205-0.285,0.121-0.281,0.303c0.004,0.195,0.008,0.391,0.012,0.586
	c0.007,0.41,0.016,0.82,0.023,1.229c0.004,0.259-0.121,1.968-0.037,2.054c-0.129,0-0.142-3.543-0.152-3.944
	c-1.297,0.249-2.688,0.165-4.002,0.133c-0.108-0.007-1.498-0.039-1.498-0.209c0.039-0.688,0.146-1.36,0.371-2.013
	c0.195-0.564,0.463-1.149,0.918-1.553c0.183-0.181,1.099-0.057,1.33-0.057c0.504,0,1.35-0.182,1.801,0
	c0.199,0.081,0.531,0.719,0.695,0.656c0.273-0.105,0.545-0.209,0.817-0.314c0.44-0.168,1.312-0.727,1.802-0.641
	c0.059,0.011,0.688,0.386,0.705,0.413c-0.074,0.217,0.154,0.778,0.02,0.909c0.09,0.642-1.478,0.519-1.309,1.024
	c0.055,0.171,0.024,0.329,0.086,0.474c0.139,0.336,0.616,0.127,0.881,0.494c0.353,0.707,1.031,1.57,1.537,2.334
	c0.775,1.168,1.575,2.314,2.385,3.459c1.315,1.86,2.725,3.719,4.01,5.557c0.531,0.76,1.063,1.52,1.594,2.281
	c0.283,0.404,0.684,0.856,0.791,1.238c0.008-0.007,0.305-0.283,0.305-0.134c-0.043,0.533-0.281,1.056-0.465,1.554
	C100.29,118.768,100.493,118.889,101.071,119.352 M99.382,116.943c0.062,0.017,0.106,0.055,0.134,0.113
	c0.213-0.164,0.416-0.34,0.635-0.498s0.201-0.098,0.082-0.269c-0.319-0.458-0.639-0.917-0.957-1.376
	c-0.202-0.29-1.692-2.055-1.43-2.314c-0.195,0.079-2.812-3.964-3.188-4.486c-1.349-1.875-2.671-3.773-3.886-5.735
	c-0.494,0.196,0.08,0.886,0.279,1.203c0.52,0.825,1.038,1.653,1.559,2.479c0.728,1.158,1.445,2.323,2.166,3.486
	C96.305,112.016,97.844,114.479,99.382,116.943 M90.678,102.227c-0.05,0.006-0.088,0.031-0.115,0.075
	c0,0.097,0.156,0.029,0.209,0.019C90.79,102.257,90.758,102.225,90.678,102.227 M99.99,119.219c0.474,0.17,1.013,0.348,1.403,0.682
	c-0.365-0.418-0.769-0.748-1.158-1.137C100.171,118.893,100.092,119.109,99.99,119.219"/>
<path fill="#6EB9C4" d="M75.17,117.238c-0.426,1.32-1.201,2.582-2.398,3.33c0.187,0.269,1.922,2.627,1.426,2.771
	c-0.415,0.117-0.997-0.903-1.188-1.163c-0.205-0.279-0.412-0.561-0.617-0.841c-0.39-0.532-0.707-0.067-1.252,0.146
	c-1.556,0.601-3.297,0.653-4.883,0.135c-0.328-0.105-0.648-0.235-0.955-0.389c-0.475-0.236-0.447,0.024-0.74,0.416
	c-0.346,0.455-0.842,1.405-1.455,1.566c-0.414,0.109,0.17-0.928,0.234-1.029c0.176-0.287,0.365-0.564,0.555-0.841
	c0.27-0.396,0.627-0.563,0.211-0.89c-1.178-0.92-2.08-2.223-2.479-3.668c-0.429-1.549-0.324-3.28,0.33-4.754
	c0.337-0.758,0.813-1.461,1.387-2.059c0.242-0.252,0.504-0.486,0.78-0.699c0.187-0.146,0.381-0.281,0.58-0.406
	c-0.071-0.065-0.086-0.127-0.041-0.187c-0.481,0.286-2.296,1.595-2.628,0.981c-0.609-1.129,0.598-1.979,1.449-2.471
	c-0.077-0.045-0.131-0.508-0.227-0.724c-0.23-0.341-0.05-0.308,0.223-0.442c0.339-0.17,0.474,0.313,0.664,0.588
	c1.289-0.646,0.363-2.484,1.613-3.262c1.184-0.738,3.061-0.74,4.37-0.421c1.74,0.425,1.479,1.782,2.157,3.069
	c0.354,0.673,0.555,0.624,0.879,0.081c0.182-0.304,0.48,0.007,0.764,0.139c-0.22,0.464-0.271,0.698-0.291,1.033
	c1.176,0.608,2.075,1.198,1.447,2.627c-0.543-0.183-1.05-0.47-1.57-0.703c-0.32-0.151-0.637-0.312-0.951-0.476
	c-0.344,0.145,0.012,0.367,0.117,0.443C75.186,110.963,76.233,114.32,75.17,117.238 M68.512,120.113c2.854,0,5.23-2.381,5.23-5.232
	s-2.375-5.253-5.23-5.253c-2.857,0-5.252,2.394-5.252,5.253S65.657,120.113,68.512,120.113 M65.078,106.258
	c0.999-0.373,1.659-0.136,2.256,0.723c-0.358,0.219-2.261,1.053-2.315,1.406c0,0.443,0.693-0.061,0.836-0.119
	c0.592-0.24,1.215-0.394,1.85-0.459c0.873-0.094,1.13,0.227,1.159-0.662h-0.64v-0.642h1.383v0.642c-0.104,0-0.485-0.063-0.558,0
	c0,0.729,0.022,0.603,0.773,0.748c0.515,0.098,1.018,0.256,1.5,0.465c0.301,0.129,0.688,0.555,0.85,0.09
	c-0.802-0.418-1.688-0.779-2.44-1.282c-0.303-0.207,0.632-0.881,0.779-0.948c0.465-0.208,1.004-0.117,1.455,0.079
	c-0.554-0.364-0.516-1.437-0.752-1.978c-0.375-0.859-1.472-0.932-2.281-0.998c-0.947-0.074-2.051,0.006-2.885,0.506
	C65.186,104.344,65.637,105.492,65.078,106.258 M70.333,113.145c0.331-0.252,0.498,0.246,0.223,0.461
	c-0.289,0.222-0.578,0.446-0.867,0.672c-0.176,0.135-0.489,0.295-0.619,0.479c-0.204,0.293-0.154,0.902-0.793,0.643
	c-0.436-0.179-0.178-0.565-0.368-0.75c-0.192-0.184-0.384-0.367-0.575-0.551c-0.621-0.598-1.243-1.197-1.863-1.794
	c-0.363-0.35-0.313-1.012,0.187-0.532c0.579,0.561,1.161,1.119,1.741,1.676c0.224,0.216,0.957,1.205,1.386,0.879
	C69.298,113.932,69.815,113.537,70.333,113.145"/>
<path fill="#00758D" d="M107.977,78.855l-0.037-0.027v-0.715h-0.272l-0.001-0.007l0.273,0.007l-0.006-0.097l-0.674-0.379
	l-0.738-0.017l0.006,0.121l-0.023,0.009l-0.052,0.007l-0.073,0.005l-0.092,0.002l-0.096-0.001v-0.108l0.05-6.702l0.019-0.001
	l0.07-0.01l0.038-0.012l0.003-0.013l0.003-0.362l-0.032-0.016l-0.066-0.014l-0.096-0.015l-0.117-0.011l-0.084-0.004l0.01-1.136
	l-0.108-1.163l-0.112,1.156l-0.011,1.137h-0.095l-0.117,0.005l-0.096,0.008l-0.066,0.012l-0.035,0.014l-0.004,0.356l0.002,0.015
	l0.033,0.014l0.067,0.013l0.026,0.004l-0.074,6.392l-0.961-0.714l-5.244-0.091l-0.051-1.984l0.125-0.01l-0.002-0.054h-0.72
	l-0.017-0.793l0.138-0.007l-0.001-0.056l-0.216-0.006l0.022-0.032l0.039-0.097l0.01-0.104l-0.016-0.103l-0.042-0.095l-0.063-0.083
	l-0.086-0.062l-0.096-0.038l-0.006-0.001l-0.096-0.012l-0.096,0.012l-0.006,0.002l-0.095,0.039l-0.081,0.063l-0.06,0.082
	l-0.038,0.096l-0.001,0.004l-0.011,0.103l0.015,0.102l0.041,0.096l0.022,0.028h-0.002l-0.209,0.013l0.002,0.055l0.135,0.004
	l0.016,0.789h-0.38l-0.14,0.004l-1.239-0.001v-0.007l-0.113-0.003h-0.575l-0.002-0.327l0.098-0.007v-0.063l-2.047-0.002
	l-0.021-0.166l-0.05-0.196l-0.075-0.185L93.11,73.34l-0.119-0.16l-0.139-0.146l-0.155-0.125l-0.169-0.102l-0.024-0.011l-0.177-0.079
	l-0.162-0.047v-0.022l-0.014-0.007l-0.01-0.003l-0.19-0.029l-0.021-0.002l-0.031-0.003l-0.043-0.002l-0.019-0.001l0.015-1.05
	l-0.16-0.002l-0.014,1.051l-0.022,0.001l-0.041,0.002l-0.031,0.002L91.41,72.63l-0.039,0.006l-0.011,0.003l-0.01,0.006l-0.002,0.021
	l-0.166,0.047L91,72.79l-0.019,0.011l-0.174,0.102l-0.162,0.125l-0.143,0.143l-0.125,0.162l-0.104,0.175l-0.082,0.187l-0.057,0.196
	l-0.025,0.168l-2.191-0.001l-0.003,0.065l0.104,0.006l-0.01,0.336l-0.246,0.006v-6.397h-0.533v-0.401h-1.092v0.401h-0.574v2.127
	h-0.403v0.306h-0.218l-0.006-4.201l-0.002-2.425l0.513-0.004h0.001h0.128V63.74h0.056l0.004-0.072v-0.103h-0.061v-0.218h0.033
	v-0.015v-0.207h0.011l0.001-0.016l-0.002-1.302H85.6v-0.709l-0.053,0.001v0.008l0.001,0.286H85.54l-0.001,0.008l0.002,0.407H85.53
	v0.019v0.058l-1.051,0.006v-0.482v-0.008h-0.027v-0.286l-0.001-0.008l-0.052,0.001l0.002,0.708H84.38v0.076l-1.01,0.007v-0.482
	l-0.002-0.008l-0.05,0.001v0.414h-0.012v-0.7l-0.004-0.008h-0.051l0.001,0.708h-0.021v0.077l-0.969,0.006v-0.482l-0.002-0.007h-0.05
	v0.489h-0.028v-0.056l-0.006-0.02l-0.016,0.001v-0.699l-0.003-0.009l-0.052,0.001v0.707h-0.02v0.077l-0.929,0.006l0.001-0.482
	l-0.004-0.007h-0.049v0.489l-0.063,0.001v-0.057l-0.009-0.019h-0.012l0.002-1.857l-0.004-0.01l-0.049,0.001l-0.002,1.159h-0.004
	v0.707h-0.021l-0.001,0.527l-0.113,0.005l-0.005,0.001l-0.024,0.001l-0.138,0.006l-0.114,0.007l-0.004,0.001l-0.025,0.001
	l-0.129,0.008l-0.111,0.008H80.28l-0.022,0.002h-0.001l-0.125,0.01l-0.104,0.01h-0.002l-0.021,0.002l-0.116,0.011l-0.099,0.011
	H79.79l-0.012,0.006l-0.008,0.01l-0.006,0.013l-0.004,0.016l-0.003,0.018l0.003,0.019l0.004,0.017l0.006,0.016l0.008,0.013
	l0.012,0.008l0.01,0.004l-0.01-0.004l-0.012-0.008l-0.008-0.013l-0.006-0.016l-0.004-0.017l-0.003-0.019l0.003-0.018l0.004-0.016
	l0.006-0.013l0.008-0.01l0.012-0.006l-0.02,0.002l-0.108,0.013l-0.089,0.012l-0.012,0.006l-0.01,0.009l-0.009,0.014l-0.004,0.016
	l-0.001,0.018l0.001,0.018l-0.001-0.018l0.001-0.018l0.004-0.016l0.009-0.014l0.01-0.009l0.011-0.006l-0.017,0.003l-0.101,0.013
	l-0.08,0.014l-0.017,0.002l-0.088,0.015l-0.08,0.016h-0.006l-0.078,0.016l-0.139,0.034l-0.115,0.036l-0.041,0.017l-0.004,0.001
	l-0.002,0.002l-0.002,0.001l-0.041,0.017l-0.016,0.006l-0.027,0.016l-0.007,0.004l-0.03,0.017l-0.014,0.01l-0.018,0.017v0.001
	l-0.01,0.013l-0.006,0.017l-0.003,0.017l0.003,0.018l0.006,0.016l0.01,0.016l0.014,0.01l0.016,0.007l0.016,0.004l0.098,0.023
	l-0.098-0.023L78.68,62.85l-0.016-0.007l-0.014-0.01l-0.01-0.016l-0.006-0.016l-0.003-0.018l0.003-0.017l0.006-0.017l0.01-0.013
	l-0.004,0.003l0,0l-0.018,0.018l-0.01,0.014l-0.007,0.016l-0.005,0.012l-0.002,0.005l-0.002,0.018l0.002,0.018l0.007,0.016
	l0.01,0.014l0.015,0.011l0.014,0.007l0.017,0.003l0.229,0.053l-0.229-0.053l-0.017-0.003l-0.014-0.007l-0.015-0.011l-0.01-0.014
	l-0.007-0.016l-0.002-0.018l0.002-0.018l-0.002,0.003v0.001L78.6,62.826l-0.004,0.017l0.004,0.018l0.004,0.015v0.002v0.003
	l0.002,0.004l0.004,0.014l0.007,0.016l0.01,0.014l0.015,0.016v0.001l0.004,0.003l0.002,0.002l0.016,0.016l0.014,0.01l0.024,0.015
	l0.002,0.002l0.005,0.002l0.001,0.002l0.026,0.016l0.016,0.006l0.021,0.01l0.015,0.006l0.007,0.003l0.001,0.001l0.039,0.016
	l0.045,0.014l0.001,0.001l0.01,0.003h0.002l0.047,0.015l0.055,0.015h0.002l0.011,0.003h0.002l0.058,0.015l0.063,0.014l0.001,0.001
	l0.014,0.002l0.002,0.001l0.067,0.014l0.071,0.012l0.002,0.001l0.014,0.002l0.004,0.001l0.074,0.013l0.018,0.003l0.789,0.142
	l-0.002,0.487l-0.301,0.034l-0.271,0.049l-0.17,0.053l-0.062,0.057l-0.001,0.271l0.047,0.054l0.01,0.003v0.372l-0.058,0.046v0.027
	l0.047,0.049l0.011,0.003v0.244l-0.059,0.043v0.136l0.047,0.045l0.01,0.003l-0.024,10.768l-0.289-0.002L79.1,65.267h-0.789v-0.385
	h-2.875l-0.185,0.385h-0.442L74.49,66.03l0.006,9.597h-0.097l0.002-0.035l-0.066-0.032H74.21l0.005-0.236h-0.031l-0.008-0.003v0.003
	h-0.025l-0.004,0.237h-0.15L74,75.398l-0.049-0.024h-0.11l0.002-0.205h-0.027l-0.004-0.003v0.003h-0.022l-0.003,0.205l-0.252,0.001
	l0.02-1.527l-0.195-0.028l-0.318-0.014l-0.107-0.045V73.75h-0.023l-0.049-0.021v-0.062l-0.166-0.028l-0.066-0.004l-0.115-0.221
	l-0.174-0.21l-0.211-0.169l-0.238-0.121l-0.258-0.068l-0.001-0.334l0.033-0.005l0.002-0.036v-0.012l-0.035-0.022l-0.024-0.048
	l-0.032-0.04l-0.041-0.032l-0.046-0.023l-0.051-0.013v-0.187h-0.049v-0.01v0.01l-0.05-0.001l0.001,0.188l0,0l-0.051,0.011
	l-0.047,0.024L71.2,72.347l-0.034,0.041l-0.022,0.046l-0.035,0.023v0.012l0.008,0.036l0.027,0.004l0.002,0.335l-0.26,0.066
	l-0.244,0.121l-0.213,0.167l-0.176,0.211l-0.117,0.221l-0.076,0.005l-0.154,0.027l0.001,0.063l-0.05,0.021H69.76v0.04l-0.033,0.015
	l-0.354,0.015l-0.177,0.028l0.033,1.546L69,75.391l-0.005-0.209h-0.021v-0.001l-0.006,0.001H68.94l0.006,0.21h-0.113l-0.055,0.024
	l0.005,0.166h-0.002h-0.195l-0.007-0.24h-0.023v-0.003l-0.008,0.003h-0.033l0.006,0.241l-0.125,0.001l-0.074,0.032v0.011H68.27
	l0.006-9.597l-0.363-0.763h-0.414l-0.206-0.385h-2.874v0.386h-0.797l-0.018,10.533l-0.086-0.086l-0.002-0.166l-0.053-1.146
	l-0.001-0.091h-0.062l-0.008,0.002l0.002,0.092l-0.006,0.152h-0.31v-0.027l-0.081-0.142l-0.005-0.67l-0.091-0.229l-0.004-0.678
	l-0.178-0.773h0.034l-0.001-0.167h-0.066v-0.006l-0.002,0.006h-0.069v0.091h-0.044l0.001,0.162h0.034l-0.12,0.545l-0.175-1.641
	l0.067-0.007l0.007-0.023V70.98v-0.115l-0.086-0.009l-0.103-1.22h0.063l-0.002-0.337l-0.002-0.489H61.99l0.002,0.489l0.002,0.337
	h0.063v0.004l-0.092,1.216l-0.083,0.01l-0.004,0.024v0.113v0.019l0.075,0.008l-0.158,1.625l-0.123-0.539v-0.077h0.018v-0.167h-0.068
	v-0.006l-0.001,0.006l-0.071,0.001l0.002,0.09h-0.015l0.001,0.163h0.029l-0.154,0.686v0.022l-0.01,0.043l0.002,0.64l-0.074,0.202
	v0.003l-0.001,0.003v0.017l-0.006,0.017v0.003l-0.002,0.003l0.001,0.638l-0.076,0.128v0.009l-0.005,0.009v0.009h-0.124v-0.111
	h-0.092v-0.491v-0.018h-0.079l-0.163-1.749v-0.003h0.089v-0.439h-0.237l-0.002,0.439h0.09l-0.168,1.749h-0.015v0.003h-0.067v0.509
	h-0.094v0.111h-0.191V74.55l-0.08-0.136l0.002-0.75h-0.004v-0.007h-0.024V73.62h-0.004v-0.007l-0.031-0.001l0.002-0.862
	l-0.005-0.002v-0.01l-0.011-0.004l-0.015-0.001v-0.054l-0.004-0.002v-0.011l-0.013-0.003l-0.01-0.001l-0.116-0.533h0.02l0.002-0.162
	h-0.035v-0.094h-0.07l-0.001-0.006v0.006h-0.067v0.167h0.021l-0.119,0.529l-0.153-1.597l0.075-0.009v-0.018v-0.114l-0.008-0.024
	l-0.08-0.009l-0.09-1.218l-0.002-0.003h0.065l0.002-0.338l0.002-0.49l-0.269,0.001l-0.003,0.489l-0.002,0.338h0.063l-0.104,1.219
	l-0.089,0.011l-0.001,0.114v0.019l0.012,0.024l0.064,0.006l-0.174,1.604l-0.096-0.448h0.02l0.002-0.162h-0.064l0.001-0.091h-0.069
	l-0.004-0.006v0.006h-0.065l-0.001,0.167h0.02l-0.14,0.62H58.52l-0.025,0.003l-0.007,0.004l-0.007,0.944l-0.065,0.002l-0.002,0.212
	l-0.004,0.564l-0.08,0.142v0.027h-0.213l-0.005-0.152l0.001-0.091l-0.011-0.003h-0.061v0.092l-0.066,1.144l-0.002,0.167
	l-0.025,0.025l0.07-6.211l0.01-0.762l-0.565-0.08l-0.247,0.024v-0.04l-0.361-0.052l0.002-0.23l-0.308-0.046l0.001-0.235l-0.306-0.05
	l0.002-0.231l-0.304-0.051l0.002-0.227l-0.396-0.07l-0.63-0.003l-0.476,0.067l-0.039,0.093v0.151l-0.246,0.033l-0.046,0.121
	l-0.001,0.127l-0.239,0.03l-0.05,0.145v0.107l-0.239,0.029l-0.049,0.164v0.083l-0.291,0.032l-0.01,0.047l-0.261-0.032l-0.69,0.077
	l0.001,0.766v0.002l0.008,3.62h-0.974L51.3,69.603l-0.004-0.742l-0.697-0.078l-0.243,0.029l-0.026-0.043l-0.229-0.025V68.65
	l-0.097-0.155l-0.189-0.022l-0.001-0.116l-0.089-0.137l-0.199-0.025l-0.001-0.134l-0.077-0.114l-0.213-0.028l-0.001-0.156
	l-0.062-0.088l-0.48-0.066l-0.617-0.003l-0.372,0.063l0.003,0.221l-0.303,0.049l0.003,0.225l-0.304,0.047l0.003,0.229l-0.307,0.045
	l0.004,0.223l-0.361,0.049l0.001,0.037l-0.028-0.003V66.11h-0.765v-0.697h-0.755V64.9h-0.785v1.21h-0.302l0.001-0.909l0.04-0.031
	v-0.026l-0.04-0.002v-0.441l0.04-0.036V64.64l-0.04-0.003v-0.436l0.04-0.04v-0.025l-0.04-0.003v-0.758l-0.805-0.073l-0.928-0.055
	l-0.182-0.006v-0.677v-0.243v-0.05V62.04v-0.051v-0.064l-1.483,0.003v-0.153v-0.09l0.001-0.217v-0.051l-1.461,0.002v-1.756
	l-0.012-0.597h-0.103v0.143H38.73v-1.025l0,0l-0.001-0.154H38.69v1.179l-0.103,0.001v-1.026l0,0l-0.001-0.153h-0.039v1.179h-0.103
	v-1.026h0.001l-0.001-0.153h-0.039l-0.001,1.179l-0.103,0.001v-1.026h0.001l-0.002-0.153h-0.039v1.179h-0.103v-1.026h0.001
	l-0.001-0.153H38.12l-0.001,1.179h-0.088l-0.016-0.143l-0.104,0.001l-0.001,2.205v0.052v0.221v0.091v0.294l-0.359,0.001v0.064v0.05
	v0.23v0.051v0.243v0.636h-0.028v0.098l-0.482,0.001v4.17h-1.523v-2.85h-0.88v-1.65h-0.33v1.65h-1.416v-1.65h-0.673v1.65h-0.55v8.7
	l-0.49,0.023l-0.233,0.016l-0.314,0.034L30.628,73.4l-0.134-0.177l-0.124-0.085l-0.509,0.24l-0.007,0.1l-0.001,0.023h-0.001
	l0.001-0.023l0.001-0.1l-0.509-0.238l-0.117,0.084l-0.13,0.178L29.083,73.4l-0.315-0.033l-0.234-0.016l-1.397-0.063l-0.252,0.006
	l-1.53,0.156l-1.516,0.375l-1.047,0.42h-0.483v-2.85h-1.651v-0.719h-0.524v-0.717H18.72v0.717h-0.891v0.719h-0.546v2.471
	l-0.141-0.021l-0.546,0.084l-0.507,0.244l-0.436,0.388l-0.332,0.503l-0.154,0.432l-2.428-0.002l-0.173,0.055l0.003,0.299
	l-0.71-0.049l-0.075-10.408l-0.005-0.004l-0.025-0.004l-0.042-0.004l-0.058-0.002l-0.022-0.001l-0.001-0.109l-0.032-0.015
	l-0.093-0.013l-0.149-0.012l-0.194-0.007l-0.115-0.002v-0.065l0.1-0.003l0.256-0.011l0.21-0.016l0.149-0.018l0.079-0.02v-0.021
	v-0.052l-0.079-0.02l-0.154-0.017l-0.219-0.013l-0.269-0.008l-0.074-0.001V64.92l0.036-0.004l0.053-0.008l0.023-0.008v-0.033
	l-0.001-0.124l-0.001-0.129l-0.001-0.128l-0.001-0.107v-0.106l-0.001-0.025l-0.009-0.009l-0.04-0.01l-0.07-0.008H11.03v-0.004
	l0.01-0.001l0.071-0.003l0,0l0.113-0.007l0.062-0.005h0.001h0.002l0.085-0.01l0.048-0.005h0.001l0.002-0.001l0.055-0.011
	l0.031-0.006h0.001h0.001l0.005-0.003l0.125-0.06l0.037-0.011l0.004-0.011l0.004-0.011v-0.048l0.001-0.001l-0.002-0.019v-0.003
	L11.53,63.92l-0.059-0.018l-0.111-0.015l-0.158-0.013l-0.037-0.001L11.12,63.85l-0.049-0.033l-0.046-0.038l-0.04-0.044l-0.036-0.047
	l-0.03-0.051l-0.024-0.054l-0.018-0.056l-0.014-0.004l-0.024-0.004h-0.006l-0.01-1.641l-0.003-0.005l-0.011-0.003l-0.019-0.004
	h-0.008l-0.007-1.24l-0.002-0.004l-0.008-0.003l-0.014-0.003l-0.016-0.002l-0.006-1.038l-0.003-0.002l-0.007-0.002l-0.01-0.002
	l-0.01-0.001l-0.004-0.803l-0.002-0.001l-0.003-0.001l-0.004-0.001l-0.005-0.001h-0.006h-0.006l-0.006,0.001h-0.005l-0.004,0.001
	l-0.004,0.001l-0.002,0.001v0.002l0.005,0.802l-0.009,0.001l-0.009,0.002l-0.008,0.002l-0.003,0.003l-0.001,0.002l0.007,1.036
	l-0.01,0.001l-0.016,0.003l-0.01,0.003l-0.004,0.004l0.007,1.241l-0.018,0.003l-0.015,0.004l-0.007,0.005l0.01,1.641l-0.012,0.002
	l-0.022,0.004l-0.011,0.004l-0.018,0.057l-0.024,0.055l-0.029,0.051l-0.035,0.048l-0.041,0.045l-0.045,0.039l-0.049,0.033
	l-0.041,0.023l-0.067,0.004l-0.151,0.015L9.919,63.92l-0.048,0.02l-0.155,0.083l0.007,0.015l0.001,0.049v0.011l0.002,0.011
	l0.033,0.01l0.132,0.061l0.001,0.001h0.001l0.053,0.01l0.03,0.006h0.001h0.001l0.084,0.008l0.046,0.005h0.003l0.109,0.006
	l0.059,0.004h0.002h0.002l0.061,0.002v0.005l-0.053,0.006l-0.051,0.01l-0.021,0.01l0.001,0.024v0.107v0.106l0.001,0.128l0.001,0.129
	v0.124v0.032l0.012,0.009l0.042,0.007l0.07,0.007h0.004v0.032l-0.133,0.003l-0.261,0.013l-0.208,0.017L9.607,65.01l-0.066,0.021
	v0.053l0.013,0.02l0.089,0.018l0.159,0.016l0.217,0.012l0.261,0.007l0.071,0.001v0.065l-0.121,0.004l-0.187,0.011l-0.141,0.013
	l-0.083,0.016l-0.023,0.015l0.001,0.107H9.77l-0.061,0.003l-0.046,0.004L9.631,65.4l-0.011,0.005L9.669,75.77l-0.627,0.022
	l0.001,0.232l-0.801,0.063l0.001,0.172h-0.1v-0.021l-0.001-0.065v-0.065L7.61,76.053l-0.021-0.008l-0.033-0.007l-0.044-0.005
	L7.461,76.03l-0.025-0.001v-0.024l-0.001-0.002l-0.003-0.001l-0.005-0.001H7.422v-0.057l-0.001-0.002H7.419l-0.003-0.001
	L7.414,75.94v-0.06l0,0l-0.001-0.001H7.411l-0.003-0.001v-0.082v-0.001H7.407H7.406H7.405H7.404H7.401H7.4H7.398H7.397H7.396H7.396
	v0.001v0.082l-0.002,0.001H7.392L7.391,75.88H7.39l0.001,0.06l-0.003,0.001H7.385l-0.002,0.001l-0.001,0.001L7.382,76l-0.004,0.001
	l-0.006,0.001L7.37,76.003l-0.002,0.001v0.024H7.351l-0.052,0.003l-0.045,0.005l-0.035,0.006l-0.022,0.007l-0.009,0.009v0.018
	l0.006,0.009l0.021,0.008l0.032,0.006l0.012,0.002l-0.132,0.044v0.064v0.048l-5.696-0.009l-0.173,0.023H0.292v3.848h0.468h3.16
	h104.02v-1.168l0.045,0.002L107.977,78.855L107.977,78.855z M79.583,62.619l-0.012-0.005l-0.013-0.009l-0.008-0.012l0.01,0.012
	l0.011,0.009L79.583,62.619l0.082,0.035L79.583,62.619L79.583,62.619z M11.313,64.1l0.046,0.005L11.313,64.1L11.313,64.1
	L11.313,64.1z M11.139,64.09l0.061,0.003l-0.063-0.003H11.139L11.139,64.09z M10.352,65.129l-0.035-0.002l-0.034-0.001l-0.033-0.001
	l-0.032-0.001l-0.031-0.002l0.031,0.002l0.032,0.001l0.033,0.001l0.034,0.001L10.352,65.129L10.352,65.129z M11.254,73.932
	l-0.019-0.002l-0.182-0.01l-0.007-1.142l0.147-0.002l0.053-0.003L11.254,73.932L11.254,73.932z M11.245,72.462l-0.099-0.006
	l-0.101-0.005l-0.009-1.448l0.147-0.001l0.052-0.001L11.245,72.462L11.245,72.462z M11.233,70.74l-0.099-0.003l-0.101-0.002
	l-0.01-1.566h0.147h0.053L11.233,70.74L11.233,70.74z M11.222,68.96h-0.098l-0.101-0.001l-0.01-1.593l0.101-0.001l0.098-0.002
	L11.222,68.96L11.222,68.96z M11.116,66.021l0.087-0.005l0.008,1.118h-0.053l-0.147-0.001l-0.006-1.107L11.116,66.021L11.116,66.021
	z M10.5,73.914l-0.177,0.005l-0.089,0.006l-0.007-1.168l0.071,0.006l0.139,0.006l0.057,0.002L10.5,73.914L10.5,73.914z
	 M10.493,72.453l-0.04,0.002l-0.12,0.005l-0.106,0.007l-0.008-1.476l0.07,0.003l0.139,0.004l0.057,0.001L10.493,72.453
	L10.493,72.453z M10.482,70.735l-0.04,0.001l-0.119,0.003l-0.106,0.004l-0.009-1.577l0.07,0.001l0.139,0.001h0.057L10.482,70.735
	L10.482,70.735z M10.474,68.959h-0.041l-0.119,0.001l-0.106,0.001l-0.008-1.6l0.105,0.003l0.119,0.001l0.041,0.001L10.474,68.959
	L10.474,68.959z M10.251,66.022l0.12,0.005l0.085,0.002l0.006,1.106h-0.056l-0.138,0.003l-0.07,0.002l-0.006-1.121L10.251,66.022
	L10.251,66.022z"/>
<polygon fill="#B8B8B8" points="83.606,48.787 83.606,0.424 2.473,0.424 2.473,48.787 47.152,48.787 55.041,56.675 62.928,48.787 
	83.606,48.787 "/>
<path fill="#FFFFFF" d="M5.755,12.454V9.607C5.744,9.198,5.803,8.813,5.933,8.453c0.13-0.359,0.313-0.676,0.549-0.949
	C6.718,7.232,7,7.005,7.329,6.825c0.328-0.179,0.685-0.294,1.07-0.344v1.228c-0.472,0.161-0.794,0.4-0.968,0.716
	C7.256,8.742,7.17,9.13,7.17,9.588h1.228v2.866H5.755L5.755,12.454z M9.72,12.454V9.607C9.707,9.198,9.766,8.813,9.896,8.453
	c0.13-0.359,0.313-0.676,0.549-0.949c0.235-0.272,0.517-0.499,0.846-0.679c0.329-0.179,0.685-0.294,1.07-0.344v1.228
	c-0.471,0.161-0.794,0.4-0.967,0.716c-0.174,0.317-0.261,0.705-0.261,1.163h1.228v2.866H9.72L9.72,12.454z"/>
<g>
	<path fill="#FFFFFF" d="M26.581,85.527l0.375,4.475c0.068,0.834,0.102,1.507,0.102,2.02h0.14c0.008-0.5,0.068-1.332,0.178-2.495
		l0.368-3.999h2.101l-1.65,8.855h-2.069l-0.33-4.184c-0.089-1.117-0.146-1.991-0.171-2.621h-0.127
		c-0.03,0.744-0.087,1.618-0.171,2.621l-0.33,4.184h-2.069l-1.65-8.855h2.101l0.368,3.999c0.11,1.181,0.169,2.013,0.178,2.495h0.14
		c0-0.513,0.034-1.186,0.102-2.02l0.375-4.475H26.581z"/>
	<path fill="#FFFFFF" d="M33.204,85.381c1.071,0,1.915,0.404,2.533,1.212c0.618,0.809,0.927,1.912,0.927,3.313
		c0,1.405-0.311,2.525-0.933,3.36c-0.622,0.836-1.428,1.254-2.418,1.254c-1.028,0-1.824-0.434-2.387-1.301s-0.844-1.949-0.844-3.244
		c0-0.896,0.138-1.701,0.413-2.414c0.275-0.714,0.66-1.255,1.155-1.625C32.144,85.566,32.662,85.381,33.204,85.381z M33.426,87.248
		c-0.415,0-0.732,0.238-0.952,0.717s-0.33,1.132-0.33,1.961c0,0.843,0.107,1.504,0.32,1.984c0.214,0.48,0.509,0.721,0.886,0.721
		c0.373,0,0.671-0.248,0.895-0.743s0.336-1.155,0.336-1.98c0-0.854-0.113-1.512-0.34-1.972
		C34.015,87.477,33.743,87.248,33.426,87.248z"/>
</g>
<g>
	<path fill="#FFFFFF" d="M37.514,85.527h3.18c0.719,0,1.302,0.186,1.749,0.559c0.446,0.373,0.669,0.901,0.669,1.587
		c0,0.563-0.16,1.042-0.479,1.438c-0.32,0.395-0.799,0.707-1.438,0.936c0.8,0.127,1.295,0.635,1.485,1.523l0.603,2.813h-2.26
		l-0.331-2.451c-0.059-0.414-0.158-0.717-0.295-0.907c-0.138-0.19-0.348-0.286-0.631-0.286h-0.19v3.645h-2.063V85.527z
		 M39.577,87.248v1.897h0.451c0.322,0,0.567-0.095,0.736-0.286c0.169-0.189,0.254-0.432,0.254-0.723c0-0.297-0.074-0.52-0.222-0.667
		s-0.373-0.222-0.673-0.222H39.577z"/>
	<path fill="#FFFFFF" d="M44.021,85.527h2.063v3.193l1.562-3.193h2.044l-1.724,3.017l1.994,5.839h-2.314l-1.005-3.525l-0.556,0.973
		v2.553h-2.063V85.527z"/>
	<path fill="#FFFFFF" d="M53.637,85.527h5.047v1.783H55.7v1.632h2.781v1.727H55.7v1.904h2.984v1.81h-5.047V85.527z"/>
	<path fill="#FFFFFF" d="M59.407,85.527H65v1.797h-1.796v7.059H61.14v-7.059h-1.733V85.527z"/>
	<path fill="#FFFFFF" d="M65.958,85.527h2.051v3.422h1.638v-3.422h2.069v8.855h-2.069v-3.707h-1.638v3.707h-2.051V85.527z"/>
	<path fill="#FFFFFF" d="M73.01,85.527h2.082v8.855H73.01V85.527z"/>
	<path fill="#FFFFFF" d="M80.831,94.16c-0.512,0.241-0.998,0.361-1.46,0.361c-0.995,0-1.786-0.434-2.374-1.301
		s-0.883-1.947-0.883-3.237c0-0.796,0.127-1.549,0.378-2.26c0.252-0.711,0.643-1.278,1.171-1.705
		c0.529-0.425,1.135-0.638,1.816-0.638c0.418,0,0.869,0.108,1.352,0.324v2.025c-0.334-0.33-0.693-0.496-1.079-0.496
		c-0.478,0-0.856,0.242-1.133,0.725c-0.277,0.482-0.416,1.18-0.416,2.094c0,0.783,0.139,1.41,0.416,1.883
		c0.276,0.472,0.644,0.707,1.101,0.707c0.335,0,0.705-0.158,1.111-0.476V94.16z"/>
	<path fill="#FFFFFF" d="M81.713,91.735c0.681,0.635,1.324,0.952,1.93,0.952c0.309,0,0.572-0.1,0.793-0.299
		c0.221-0.198,0.33-0.439,0.33-0.723c0-0.229-0.078-0.432-0.234-0.609c-0.161-0.178-0.461-0.378-0.9-0.6
		c-0.621-0.307-1.096-0.648-1.422-1.024c-0.331-0.376-0.496-0.854-0.496-1.433c0-0.735,0.258-1.355,0.773-1.861
		c0.517-0.505,1.2-0.758,2.051-0.758c0.584,0,1.191,0.157,1.822,0.47v2.114c-0.559-0.537-1.094-0.807-1.606-0.807
		c-0.254,0-0.474,0.076-0.66,0.229s-0.279,0.337-0.279,0.553c0,0.211,0.076,0.394,0.229,0.546c0.147,0.152,0.423,0.317,0.825,0.495
		c0.664,0.297,1.168,0.635,1.511,1.016c0.343,0.386,0.515,0.904,0.515,1.556c0,0.821-0.295,1.521-0.887,2.101
		c-0.59,0.58-1.311,0.869-2.16,0.869c-0.66,0-1.371-0.198-2.133-0.596V91.735z"/>
</g>
<g>
	<path fill="#FFFFFF" d="M16.573,12.105l-1.025-4.042H16.1l0.48,2.045c0.12,0.504,0.228,1.008,0.3,1.397h0.012
		c0.066-0.402,0.192-0.881,0.33-1.403l0.54-2.039h0.546l0.492,2.051c0.114,0.479,0.222,0.959,0.282,1.385h0.012
		c0.084-0.444,0.198-0.894,0.324-1.397l0.534-2.039h0.534l-1.146,4.042h-0.546L18.282,10c-0.125-0.516-0.209-0.911-0.264-1.319
		h-0.012C17.935,9.083,17.845,9.479,17.695,10l-0.576,2.105H16.573z"/>
	<path fill="#FFFFFF" d="M21.068,10.75c0.012,0.714,0.468,1.008,0.996,1.008c0.378,0,0.605-0.066,0.804-0.15l0.09,0.377
		c-0.186,0.084-0.504,0.18-0.965,0.18c-0.894,0-1.427-0.588-1.427-1.463s0.516-1.565,1.361-1.565c0.947,0,1.199,0.833,1.199,1.367
		c0,0.108-0.012,0.192-0.018,0.246H21.068z M22.615,10.373c0.006-0.336-0.138-0.857-0.731-0.857c-0.534,0-0.768,0.492-0.81,0.857
		H22.615z"/>
	<path fill="#FFFFFF" d="M25.028,12.105c0.012-0.198,0.024-0.492,0.024-0.75V7.848h0.521v1.823h0.012
		c0.186-0.324,0.521-0.534,0.989-0.534c0.72,0,1.229,0.6,1.223,1.481c0,1.038-0.653,1.553-1.301,1.553
		c-0.419,0-0.755-0.162-0.971-0.546h-0.018l-0.024,0.48H25.028z M25.574,10.942c0,0.066,0.012,0.132,0.024,0.192
		c0.102,0.366,0.408,0.618,0.792,0.618c0.552,0,0.882-0.45,0.882-1.115c0-0.582-0.3-1.08-0.864-1.08
		c-0.36,0-0.696,0.246-0.804,0.648c-0.012,0.06-0.03,0.132-0.03,0.216V10.942z"/>
	<path fill="#FFFFFF" d="M28.76,10.75c0.012,0.714,0.468,1.008,0.996,1.008c0.378,0,0.605-0.066,0.804-0.15l0.09,0.377
		c-0.186,0.084-0.504,0.18-0.965,0.18c-0.894,0-1.427-0.588-1.427-1.463s0.516-1.565,1.361-1.565c0.947,0,1.199,0.833,1.199,1.367
		c0,0.108-0.012,0.192-0.018,0.246H28.76z M30.307,10.373c0.006-0.336-0.138-0.857-0.731-0.857c-0.534,0-0.768,0.492-0.81,0.857
		H30.307z"/>
	<path fill="#FFFFFF" d="M31.472,7.848H32v4.258h-0.527V7.848z"/>
	<path fill="#FFFFFF" d="M33.476,8.388c0.006,0.18-0.126,0.324-0.336,0.324c-0.186,0-0.318-0.144-0.318-0.324
		c0-0.186,0.138-0.33,0.33-0.33C33.35,8.058,33.476,8.202,33.476,8.388z M32.888,12.105V9.203h0.527v2.902H32.888z"/>
	<path fill="#FFFFFF" d="M34.585,10.75c0.012,0.714,0.468,1.008,0.996,1.008c0.378,0,0.605-0.066,0.804-0.15l0.09,0.377
		c-0.186,0.084-0.504,0.18-0.965,0.18c-0.894,0-1.427-0.588-1.427-1.463s0.516-1.565,1.361-1.565c0.947,0,1.199,0.833,1.199,1.367
		c0,0.108-0.012,0.192-0.018,0.246H34.585z M36.133,10.373c0.006-0.336-0.138-0.857-0.731-0.857c-0.534,0-0.768,0.492-0.81,0.857
		H36.133z"/>
	<path fill="#FFFFFF" d="M37.501,9.203l0.57,1.631c0.096,0.264,0.174,0.504,0.234,0.744h0.018c0.066-0.24,0.15-0.479,0.246-0.744
		l0.564-1.631h0.551l-1.139,2.902h-0.504l-1.103-2.902H37.501z"/>
	<path fill="#FFFFFF" d="M40.417,10.75c0.012,0.714,0.468,1.008,0.996,1.008c0.378,0,0.605-0.066,0.804-0.15l0.09,0.377
		c-0.186,0.084-0.504,0.18-0.965,0.18c-0.894,0-1.427-0.588-1.427-1.463s0.516-1.565,1.361-1.565c0.947,0,1.199,0.833,1.199,1.367
		c0,0.108-0.012,0.192-0.018,0.246H40.417z M41.964,10.373c0.006-0.336-0.138-0.857-0.731-0.857c-0.534,0-0.768,0.492-0.81,0.857
		H41.964z"/>
	<path fill="#FFFFFF" d="M44.989,8.388c0.006,0.18-0.126,0.324-0.336,0.324c-0.186,0-0.318-0.144-0.318-0.324
		c0-0.186,0.138-0.33,0.33-0.33C44.863,8.058,44.989,8.202,44.989,8.388z M44.401,12.105V9.203h0.527v2.902H44.401z"/>
	<path fill="#FFFFFF" d="M45.805,9.989c0-0.3-0.006-0.546-0.024-0.786h0.468l0.03,0.479h0.012c0.144-0.276,0.48-0.545,0.959-0.545
		c0.402,0,1.025,0.24,1.025,1.235v1.733h-0.527v-1.673c0-0.468-0.174-0.858-0.672-0.858c-0.348,0-0.618,0.246-0.708,0.54
		c-0.024,0.066-0.036,0.156-0.036,0.246v1.745h-0.527V9.989z"/>
	<path fill="#FFFFFF" d="M50.335,11.566c0.156,0.102,0.432,0.21,0.696,0.21c0.384,0,0.563-0.192,0.563-0.432
		c0-0.252-0.15-0.39-0.54-0.534c-0.522-0.186-0.768-0.474-0.768-0.821c0-0.468,0.378-0.852,1.001-0.852
		c0.294,0,0.552,0.084,0.713,0.18L51.87,9.701c-0.114-0.072-0.324-0.168-0.594-0.168c-0.312,0-0.485,0.18-0.485,0.396
		c0,0.24,0.174,0.348,0.551,0.492c0.504,0.192,0.762,0.444,0.762,0.875c0,0.51-0.396,0.87-1.085,0.87
		c-0.318,0-0.611-0.078-0.815-0.198L50.335,11.566z"/>
	<path fill="#FFFFFF" d="M53.077,10.75c0.012,0.714,0.468,1.008,0.996,1.008c0.378,0,0.605-0.066,0.804-0.15l0.09,0.377
		c-0.186,0.084-0.504,0.18-0.965,0.18c-0.894,0-1.427-0.588-1.427-1.463s0.516-1.565,1.361-1.565c0.947,0,1.199,0.833,1.199,1.367
		c0,0.108-0.012,0.192-0.018,0.246H53.077z M54.624,10.373c0.006-0.336-0.138-0.857-0.731-0.857c-0.534,0-0.768,0.492-0.81,0.857
		H54.624z"/>
	<path fill="#FFFFFF" d="M55.79,7.848h0.527v4.258H55.79V7.848z"/>
	<path fill="#FFFFFF" d="M57.258,12.105v-2.5h-0.407V9.203h0.407V9.065c0-0.408,0.09-0.779,0.336-1.013
		c0.198-0.192,0.462-0.27,0.708-0.27c0.187,0,0.348,0.042,0.45,0.084L58.68,8.273c-0.078-0.036-0.186-0.066-0.336-0.066
		c-0.449,0-0.563,0.396-0.563,0.84v0.156h0.701v0.402h-0.701v2.5H57.258z"/>
	<path fill="#FFFFFF" d="M60.18,10.289v0.39h-1.481v-0.39H60.18z"/>
	<path fill="#FFFFFF" d="M15.896,17.189c0-0.3-0.006-0.546-0.024-0.786h0.462l0.024,0.468h0.018
		c0.162-0.276,0.432-0.534,0.912-0.534c0.396,0,0.695,0.24,0.821,0.582h0.012c0.09-0.162,0.204-0.288,0.324-0.378
		c0.174-0.132,0.366-0.204,0.642-0.204c0.384,0,0.954,0.252,0.954,1.259v1.709h-0.516v-1.643c0-0.558-0.204-0.894-0.63-0.894
		c-0.3,0-0.534,0.222-0.624,0.48c-0.024,0.072-0.042,0.167-0.042,0.264v1.793h-0.516v-1.739c0-0.461-0.204-0.797-0.606-0.797
		c-0.33,0-0.569,0.264-0.653,0.528c-0.03,0.078-0.042,0.168-0.042,0.258v1.751h-0.516V17.189z"/>
	<path fill="#FFFFFF" d="M22.507,19.306l-0.042-0.366h-0.018c-0.162,0.228-0.474,0.432-0.888,0.432
		c-0.587,0-0.887-0.414-0.887-0.833c0-0.702,0.624-1.085,1.745-1.08v-0.06c0-0.24-0.066-0.672-0.66-0.672
		c-0.27,0-0.552,0.084-0.756,0.216l-0.12-0.348c0.24-0.156,0.587-0.258,0.953-0.258c0.888,0,1.104,0.605,1.104,1.187v1.085
		c0,0.252,0.012,0.498,0.048,0.696H22.507z M22.429,17.825c-0.576-0.012-1.229,0.09-1.229,0.653c0,0.342,0.228,0.504,0.498,0.504
		c0.378,0,0.618-0.24,0.702-0.486c0.018-0.054,0.03-0.114,0.03-0.168V17.825z"/>
	<path fill="#FFFFFF" d="M23.792,17.189c0-0.3-0.006-0.546-0.024-0.786h0.468l0.03,0.479h0.012c0.144-0.276,0.48-0.545,0.959-0.545
		c0.402,0,1.025,0.24,1.025,1.235v1.733h-0.527v-1.673c0-0.468-0.174-0.858-0.672-0.858c-0.348,0-0.618,0.246-0.708,0.54
		c-0.024,0.066-0.036,0.156-0.036,0.246v1.745h-0.527V17.189z"/>
	<path fill="#FFFFFF" d="M28.729,19.306l-0.042-0.366h-0.018c-0.162,0.228-0.474,0.432-0.888,0.432
		c-0.587,0-0.887-0.414-0.887-0.833c0-0.702,0.624-1.085,1.745-1.08v-0.06c0-0.24-0.066-0.672-0.66-0.672
		c-0.27,0-0.552,0.084-0.756,0.216l-0.12-0.348c0.24-0.156,0.587-0.258,0.953-0.258c0.888,0,1.104,0.605,1.104,1.187v1.085
		c0,0.252,0.012,0.498,0.048,0.696H28.729z M28.651,17.825c-0.576-0.012-1.229,0.09-1.229,0.653c0,0.342,0.228,0.504,0.498,0.504
		c0.378,0,0.618-0.24,0.702-0.486c0.018-0.054,0.03-0.114,0.03-0.168V17.825z"/>
	<path fill="#FFFFFF" d="M32.515,16.403c-0.012,0.21-0.024,0.444-0.024,0.797v1.685c0,0.666-0.132,1.074-0.414,1.325
		c-0.282,0.264-0.689,0.348-1.055,0.348c-0.348,0-0.732-0.084-0.966-0.24l0.132-0.402c0.192,0.12,0.492,0.228,0.852,0.228
		c0.54,0,0.935-0.282,0.935-1.013v-0.324h-0.012c-0.162,0.27-0.474,0.485-0.923,0.485c-0.72,0-1.235-0.611-1.235-1.415
		c0-0.983,0.642-1.541,1.307-1.541c0.504,0,0.78,0.264,0.905,0.503h0.012l0.024-0.438H32.515z M31.969,17.549
		c0-0.09-0.006-0.168-0.03-0.24c-0.096-0.306-0.354-0.558-0.738-0.558c-0.503,0-0.863,0.426-0.863,1.098
		c0,0.569,0.288,1.043,0.857,1.043c0.324,0,0.618-0.204,0.731-0.54c0.03-0.09,0.042-0.192,0.042-0.282V17.549z"/>
	<path fill="#FFFFFF" d="M33.662,17.95c0.012,0.714,0.468,1.008,0.996,1.008c0.378,0,0.605-0.066,0.804-0.15l0.09,0.377
		c-0.186,0.084-0.504,0.18-0.965,0.18c-0.894,0-1.427-0.588-1.427-1.463s0.516-1.565,1.361-1.565c0.947,0,1.199,0.833,1.199,1.367
		c0,0.108-0.012,0.192-0.018,0.246H33.662z M35.209,17.573c0.006-0.336-0.138-0.857-0.731-0.857c-0.534,0-0.768,0.492-0.81,0.857
		H35.209z"/>
	<path fill="#FFFFFF" d="M36.374,17.189c0-0.3-0.006-0.546-0.024-0.786h0.462l0.024,0.468h0.018
		c0.162-0.276,0.432-0.534,0.912-0.534c0.396,0,0.695,0.24,0.821,0.582h0.012c0.09-0.162,0.204-0.288,0.324-0.378
		c0.174-0.132,0.366-0.204,0.642-0.204c0.384,0,0.954,0.252,0.954,1.259v1.709h-0.516v-1.643c0-0.558-0.204-0.894-0.63-0.894
		c-0.3,0-0.534,0.222-0.624,0.48c-0.024,0.072-0.042,0.167-0.042,0.264v1.793h-0.516v-1.739c0-0.461-0.204-0.797-0.606-0.797
		c-0.33,0-0.569,0.264-0.653,0.528c-0.03,0.078-0.042,0.168-0.042,0.258v1.751h-0.516V17.189z"/>
	<path fill="#FFFFFF" d="M41.671,17.95c0.012,0.714,0.468,1.008,0.996,1.008c0.378,0,0.605-0.066,0.804-0.15l0.09,0.377
		c-0.186,0.084-0.504,0.18-0.965,0.18c-0.894,0-1.427-0.588-1.427-1.463s0.516-1.565,1.361-1.565c0.947,0,1.199,0.833,1.199,1.367
		c0,0.108-0.012,0.192-0.018,0.246H41.671z M43.219,17.573c0.006-0.336-0.138-0.857-0.731-0.857c-0.534,0-0.768,0.492-0.81,0.857
		H43.219z"/>
	<path fill="#FFFFFF" d="M44.384,17.189c0-0.3-0.006-0.546-0.024-0.786h0.468l0.03,0.479h0.012c0.144-0.276,0.48-0.545,0.959-0.545
		c0.402,0,1.025,0.24,1.025,1.235v1.733h-0.527v-1.673c0-0.468-0.174-0.858-0.672-0.858c-0.348,0-0.618,0.246-0.708,0.54
		c-0.024,0.066-0.036,0.156-0.036,0.246v1.745h-0.527V17.189z"/>
	<path fill="#FFFFFF" d="M48.325,15.57v0.833h0.756v0.402h-0.756v1.565c0,0.36,0.102,0.564,0.396,0.564
		c0.138,0,0.24-0.018,0.306-0.036l0.024,0.396c-0.102,0.042-0.264,0.072-0.468,0.072c-0.246,0-0.443-0.078-0.569-0.222
		c-0.15-0.156-0.204-0.414-0.204-0.755v-1.583h-0.45v-0.402h0.45v-0.696L48.325,15.57z"/>
	<path fill="#FFFFFF" d="M52.555,19.306l-0.042-0.366h-0.018c-0.162,0.228-0.474,0.432-0.888,0.432
		c-0.587,0-0.887-0.414-0.887-0.833c0-0.702,0.624-1.085,1.745-1.08v-0.06c0-0.24-0.066-0.672-0.66-0.672
		c-0.27,0-0.552,0.084-0.756,0.216l-0.12-0.348c0.24-0.156,0.587-0.258,0.953-0.258c0.888,0,1.104,0.605,1.104,1.187v1.085
		c0,0.252,0.012,0.498,0.048,0.696H52.555z M52.477,17.825c-0.576-0.012-1.229,0.09-1.229,0.653c0,0.342,0.228,0.504,0.498,0.504
		c0.378,0,0.618-0.24,0.702-0.486c0.018-0.054,0.03-0.114,0.03-0.168V17.825z"/>
	<path fill="#FFFFFF" d="M53.768,18.766c0.156,0.102,0.432,0.21,0.696,0.21c0.384,0,0.563-0.192,0.563-0.432
		c0-0.252-0.15-0.39-0.54-0.534c-0.522-0.186-0.768-0.474-0.768-0.821c0-0.468,0.378-0.852,1.001-0.852
		c0.294,0,0.552,0.084,0.713,0.18l-0.131,0.384c-0.114-0.072-0.324-0.168-0.594-0.168c-0.312,0-0.485,0.18-0.485,0.396
		c0,0.24,0.174,0.348,0.551,0.492c0.504,0.192,0.762,0.444,0.762,0.875c0,0.51-0.396,0.87-1.085,0.87
		c-0.318,0-0.611-0.078-0.815-0.198L53.768,18.766z"/>
	<path fill="#FFFFFF" d="M58.028,15.264v4.042h-0.522v-4.042H58.028z"/>
	<path fill="#FFFFFF" d="M58.868,18.67c0.234,0.144,0.576,0.264,0.936,0.264c0.533,0,0.846-0.282,0.846-0.69
		c0-0.377-0.217-0.594-0.762-0.803c-0.66-0.234-1.067-0.576-1.067-1.146c0-0.63,0.521-1.098,1.308-1.098
		c0.413,0,0.713,0.096,0.893,0.198l-0.144,0.426c-0.132-0.072-0.401-0.192-0.768-0.192c-0.552,0-0.761,0.33-0.761,0.605
		c0,0.378,0.245,0.563,0.803,0.78c0.684,0.264,1.031,0.593,1.031,1.187c0,0.624-0.461,1.164-1.415,1.164
		c-0.39,0-0.815-0.114-1.031-0.258L58.868,18.67z"/>
	<path fill="#FFFFFF" d="M62.551,18.034l-0.42,1.271h-0.539l1.373-4.042h0.629l1.38,4.042h-0.558l-0.432-1.271H62.551z
		 M63.876,17.626l-0.396-1.163c-0.09-0.264-0.15-0.504-0.21-0.738h-0.013c-0.06,0.24-0.125,0.486-0.203,0.731l-0.396,1.169H63.876z"
		/>
	<path fill="#FFFFFF" d="M19.32,24.731c-0.03-0.564-0.066-1.241-0.06-1.745h-0.018c-0.138,0.474-0.306,0.978-0.509,1.535
		l-0.714,1.961h-0.396l-0.654-1.925c-0.192-0.57-0.354-1.092-0.468-1.571h-0.012c-0.012,0.504-0.042,1.181-0.078,1.787l-0.108,1.733
		h-0.498l0.282-4.042h0.666l0.689,1.955c0.168,0.498,0.306,0.941,0.408,1.361h0.018c0.102-0.408,0.246-0.852,0.426-1.361l0.72-1.955
		h0.666l0.252,4.042h-0.51L19.32,24.731z"/>
	<path fill="#FFFFFF" d="M21.049,25.15c0.012,0.714,0.468,1.008,0.996,1.008c0.378,0,0.605-0.066,0.804-0.15l0.09,0.377
		c-0.186,0.084-0.504,0.18-0.965,0.18c-0.894,0-1.427-0.588-1.427-1.463s0.516-1.565,1.361-1.565c0.947,0,1.199,0.833,1.199,1.367
		c0,0.108-0.012,0.192-0.018,0.246H21.049z M22.597,24.773c0.006-0.336-0.138-0.857-0.731-0.857c-0.534,0-0.768,0.492-0.81,0.857
		H22.597z"/>
	<path fill="#FFFFFF" d="M26.268,22.248v3.508c0,0.258,0.006,0.552,0.024,0.75h-0.474l-0.024-0.504h-0.012
		c-0.162,0.324-0.516,0.57-0.989,0.57c-0.702,0-1.241-0.594-1.241-1.475c-0.006-0.965,0.594-1.559,1.301-1.559
		c0.444,0,0.744,0.21,0.875,0.444h0.012v-1.733H26.268z M25.74,24.785c0-0.066-0.006-0.156-0.024-0.222
		c-0.078-0.336-0.366-0.612-0.761-0.612c-0.546,0-0.87,0.48-0.87,1.122c0,0.587,0.288,1.073,0.857,1.073
		c0.354,0,0.678-0.234,0.773-0.629c0.018-0.072,0.024-0.144,0.024-0.228V24.785z"/>
	<path fill="#FFFFFF" d="M27.733,22.788c0.006,0.18-0.126,0.324-0.336,0.324c-0.186,0-0.318-0.144-0.318-0.324
		c0-0.186,0.138-0.33,0.33-0.33C27.607,22.458,27.733,22.602,27.733,22.788z M27.146,26.506v-2.902h0.527v2.902H27.146z"/>
	<path fill="#FFFFFF" d="M30.156,26.506l-0.042-0.366h-0.018c-0.162,0.228-0.474,0.432-0.888,0.432
		c-0.587,0-0.887-0.414-0.887-0.833c0-0.702,0.624-1.085,1.745-1.08v-0.06c0-0.24-0.066-0.672-0.66-0.672
		c-0.27,0-0.552,0.084-0.756,0.216l-0.12-0.348c0.24-0.156,0.587-0.258,0.953-0.258c0.888,0,1.104,0.605,1.104,1.187v1.085
		c0,0.252,0.012,0.498,0.048,0.696H30.156z M30.078,25.025c-0.576-0.012-1.229,0.09-1.229,0.653c0,0.342,0.228,0.504,0.498,0.504
		c0.378,0,0.618-0.24,0.702-0.486c0.018-0.054,0.03-0.114,0.03-0.168V25.025z"/>
	<path fill="#FFFFFF" d="M31.315,26.194c0-0.222,0.15-0.377,0.359-0.377c0.21,0,0.354,0.156,0.354,0.377
		c0,0.216-0.138,0.378-0.36,0.378C31.459,26.572,31.315,26.41,31.315,26.194z"/>
	<path fill="#FFFFFF" d="M37.379,24.731c-0.03-0.564-0.066-1.241-0.06-1.745h-0.018c-0.138,0.474-0.306,0.978-0.509,1.535
		l-0.714,1.961h-0.396l-0.654-1.925c-0.192-0.57-0.354-1.092-0.468-1.571h-0.012c-0.012,0.504-0.042,1.181-0.078,1.787l-0.108,1.733
		h-0.498l0.282-4.042h0.666l0.689,1.955c0.168,0.498,0.306,0.941,0.408,1.361h0.018c0.102-0.408,0.246-0.852,0.426-1.361l0.72-1.955
		h0.666l0.252,4.042h-0.51L37.379,24.731z"/>
	<path fill="#FFFFFF" d="M39.013,23.604l0.635,1.715c0.066,0.192,0.138,0.42,0.186,0.594h0.012c0.054-0.174,0.114-0.396,0.186-0.605
		l0.576-1.703h0.558l-0.792,2.069c-0.377,0.996-0.635,1.505-0.995,1.817c-0.258,0.228-0.516,0.318-0.648,0.342l-0.132-0.444
		c0.132-0.042,0.306-0.126,0.462-0.258c0.144-0.114,0.324-0.318,0.444-0.587c0.024-0.054,0.042-0.096,0.042-0.126
		c0-0.03-0.012-0.072-0.036-0.138l-1.073-2.674H39.013z"/>
	<path fill="#FFFFFF" d="M43.128,23.604l0.384,1.475c0.084,0.324,0.162,0.624,0.216,0.923h0.018
		c0.066-0.293,0.162-0.605,0.258-0.917l0.474-1.481h0.443l0.45,1.451c0.108,0.348,0.192,0.654,0.258,0.947h0.018
		c0.048-0.293,0.125-0.6,0.222-0.941l0.414-1.457h0.522l-0.936,2.902h-0.48l-0.443-1.385c-0.102-0.324-0.186-0.612-0.258-0.954
		h-0.012c-0.072,0.348-0.162,0.648-0.264,0.959l-0.468,1.379h-0.48l-0.875-2.902H43.128z"/>
	<path fill="#FFFFFF" d="M49.901,25.031c0,1.073-0.744,1.541-1.445,1.541c-0.786,0-1.391-0.576-1.391-1.493
		c0-0.972,0.635-1.541,1.439-1.541C49.337,23.538,49.901,24.143,49.901,25.031z M47.599,25.061c0,0.636,0.366,1.116,0.881,1.116
		c0.504,0,0.881-0.474,0.881-1.127c0-0.492-0.246-1.116-0.869-1.116C47.868,23.933,47.599,24.509,47.599,25.061z"/>
	<path fill="#FFFFFF" d="M50.569,24.509c0-0.342-0.006-0.635-0.024-0.905h0.462l0.018,0.57h0.024c0.132-0.39,0.45-0.636,0.804-0.636
		c0.06,0,0.102,0.006,0.15,0.018v0.498c-0.054-0.012-0.108-0.018-0.18-0.018c-0.372,0-0.635,0.282-0.708,0.678
		c-0.012,0.072-0.024,0.156-0.024,0.246v1.547h-0.521V24.509z"/>
	<path fill="#FFFFFF" d="M53.076,24.935h0.012c0.072-0.102,0.174-0.228,0.258-0.33l0.852-1.001h0.635l-1.121,1.193l1.277,1.709
		h-0.642l-1.001-1.391l-0.27,0.3v1.091h-0.521v-4.258h0.521V24.935z"/>
	<path fill="#FFFFFF" d="M55.11,27.244c0.132-0.354,0.294-0.996,0.36-1.434l0.588-0.06c-0.138,0.509-0.401,1.175-0.569,1.457
		L55.11,27.244z"/>
	<path fill="#FFFFFF" d="M61.39,24.731c-0.03-0.564-0.065-1.241-0.06-1.745h-0.019c-0.138,0.474-0.306,0.978-0.509,1.535
		l-0.715,1.961h-0.395l-0.654-1.925c-0.191-0.57-0.354-1.092-0.468-1.571h-0.013c-0.012,0.504-0.041,1.181-0.077,1.787l-0.108,1.733
		h-0.498l0.283-4.042h0.665l0.689,1.955c0.168,0.498,0.306,0.941,0.407,1.361h0.019c0.103-0.408,0.246-0.852,0.426-1.361l0.72-1.955
		h0.666l0.252,4.042h-0.51L61.39,24.731z"/>
	<path fill="#FFFFFF" d="M63.024,23.604l0.635,1.715c0.066,0.192,0.139,0.42,0.187,0.594h0.013c0.053-0.174,0.113-0.396,0.186-0.605
		l0.575-1.703h0.558l-0.791,2.069c-0.378,0.996-0.636,1.505-0.996,1.817c-0.258,0.228-0.516,0.318-0.647,0.342l-0.132-0.444
		c0.132-0.042,0.306-0.126,0.462-0.258c0.144-0.114,0.323-0.318,0.444-0.587c0.023-0.054,0.041-0.096,0.041-0.126
		c0-0.03-0.012-0.072-0.035-0.138l-1.074-2.674H63.024z"/>
	<path fill="#FFFFFF" d="M15.896,31.708c0-0.342-0.006-0.635-0.024-0.905h0.462l0.018,0.57h0.024c0.132-0.39,0.45-0.636,0.804-0.636
		c0.06,0,0.102,0.006,0.15,0.018v0.498c-0.054-0.012-0.108-0.018-0.18-0.018c-0.372,0-0.635,0.282-0.708,0.678
		c-0.012,0.072-0.024,0.156-0.024,0.246v1.547h-0.521V31.708z"/>
	<path fill="#FFFFFF" d="M18.091,32.35c0.012,0.714,0.468,1.008,0.996,1.008c0.378,0,0.605-0.066,0.804-0.15l0.09,0.377
		c-0.186,0.084-0.504,0.18-0.965,0.18c-0.894,0-1.427-0.588-1.427-1.463s0.516-1.565,1.361-1.565c0.947,0,1.199,0.833,1.199,1.367
		c0,0.108-0.012,0.192-0.018,0.246H18.091z M19.639,31.973c0.006-0.336-0.138-0.858-0.731-0.858c-0.534,0-0.768,0.492-0.81,0.858
		H19.639z"/>
	<path fill="#FFFFFF" d="M20.731,33.166c0.156,0.102,0.432,0.21,0.696,0.21c0.384,0,0.563-0.192,0.563-0.432
		c0-0.252-0.15-0.39-0.54-0.534c-0.522-0.186-0.768-0.474-0.768-0.821c0-0.468,0.378-0.852,1.001-0.852
		c0.294,0,0.552,0.084,0.713,0.18l-0.132,0.384c-0.114-0.072-0.324-0.168-0.594-0.168c-0.312,0-0.485,0.18-0.485,0.396
		c0,0.24,0.174,0.348,0.551,0.492c0.504,0.192,0.762,0.444,0.762,0.875c0,0.51-0.396,0.87-1.085,0.87
		c-0.318,0-0.611-0.078-0.815-0.198L20.731,33.166z"/>
	<path fill="#FFFFFF" d="M23.18,31.75c0-0.372-0.012-0.671-0.024-0.947h0.474l0.024,0.498h0.012
		c0.216-0.354,0.558-0.563,1.032-0.563c0.702,0,1.229,0.594,1.229,1.475c0,1.043-0.635,1.559-1.319,1.559
		c-0.384,0-0.719-0.168-0.893-0.456h-0.012v1.577H23.18V31.75z M23.701,32.524c0,0.078,0.012,0.15,0.024,0.216
		c0.096,0.366,0.414,0.618,0.792,0.618c0.558,0,0.882-0.456,0.882-1.122c0-0.582-0.306-1.08-0.864-1.08
		c-0.36,0-0.696,0.258-0.797,0.654c-0.018,0.066-0.036,0.144-0.036,0.216V32.524z"/>
	<path fill="#FFFFFF" d="M29.22,32.23c0,1.073-0.744,1.541-1.445,1.541c-0.786,0-1.391-0.576-1.391-1.493
		c0-0.971,0.636-1.541,1.439-1.541C28.656,30.737,29.22,31.343,29.22,32.23z M26.917,32.26c0,0.636,0.366,1.116,0.881,1.116
		c0.504,0,0.881-0.474,0.881-1.127c0-0.492-0.246-1.116-0.869-1.116C27.187,31.133,26.917,31.708,26.917,32.26z"/>
	<path fill="#FFFFFF" d="M29.888,31.589c0-0.3-0.006-0.546-0.024-0.786h0.468l0.03,0.479h0.012c0.144-0.276,0.48-0.545,0.959-0.545
		c0.402,0,1.025,0.24,1.025,1.235v1.733h-0.527v-1.673c0-0.468-0.174-0.858-0.672-0.858c-0.348,0-0.618,0.246-0.708,0.54
		c-0.024,0.066-0.036,0.156-0.036,0.246v1.745h-0.527V31.589z"/>
	<path fill="#FFFFFF" d="M33.146,33.166c0.156,0.102,0.432,0.21,0.696,0.21c0.384,0,0.563-0.192,0.563-0.432
		c0-0.252-0.15-0.39-0.54-0.534c-0.522-0.186-0.768-0.474-0.768-0.821c0-0.468,0.378-0.852,1.001-0.852
		c0.294,0,0.552,0.084,0.713,0.18l-0.132,0.384c-0.114-0.072-0.324-0.168-0.594-0.168c-0.312,0-0.485,0.18-0.485,0.396
		c0,0.24,0.174,0.348,0.551,0.492c0.504,0.192,0.762,0.444,0.762,0.875c0,0.51-0.396,0.87-1.085,0.87
		c-0.318,0-0.611-0.078-0.815-0.198L33.146,33.166z"/>
	<path fill="#FFFFFF" d="M36.181,29.988c0.006,0.18-0.126,0.324-0.336,0.324c-0.186,0-0.318-0.144-0.318-0.324
		c0-0.186,0.138-0.33,0.33-0.33C36.055,29.658,36.181,29.802,36.181,29.988z M35.594,33.706v-2.902h0.527v2.902H35.594z"/>
	<path fill="#FFFFFF" d="M36.973,33.706c0.012-0.198,0.024-0.492,0.024-0.75v-3.508h0.521v1.823h0.012
		c0.186-0.324,0.521-0.534,0.989-0.534c0.72,0,1.229,0.6,1.223,1.481c0,1.038-0.653,1.553-1.301,1.553
		c-0.419,0-0.755-0.162-0.971-0.545h-0.018l-0.024,0.479H36.973z M37.519,32.542c0,0.066,0.012,0.132,0.024,0.192
		c0.102,0.366,0.408,0.618,0.792,0.618c0.552,0,0.882-0.45,0.882-1.115c0-0.582-0.3-1.08-0.864-1.08
		c-0.36,0-0.696,0.246-0.804,0.648c-0.012,0.06-0.03,0.132-0.03,0.216V32.542z"/>
	<path fill="#FFFFFF" d="M40.999,29.988c0.006,0.18-0.126,0.324-0.336,0.324c-0.186,0-0.318-0.144-0.318-0.324
		c0-0.186,0.138-0.33,0.33-0.33C40.873,29.658,40.999,29.802,40.999,29.988z M40.412,33.706v-2.902h0.527v2.902H40.412z"/>
	<path fill="#FFFFFF" d="M41.815,29.448h0.527v4.258h-0.527V29.448z"/>
	<path fill="#FFFFFF" d="M43.819,29.988c0.006,0.18-0.126,0.324-0.336,0.324c-0.186,0-0.318-0.144-0.318-0.324
		c0-0.186,0.138-0.33,0.33-0.33C43.693,29.658,43.819,29.802,43.819,29.988z M43.231,33.706v-2.902h0.527v2.902H43.231z"/>
	<path fill="#FFFFFF" d="M45.271,29.97v0.833h0.756v0.402h-0.756v1.565c0,0.36,0.102,0.564,0.396,0.564
		c0.138,0,0.24-0.018,0.306-0.036l0.024,0.396c-0.102,0.042-0.264,0.072-0.468,0.072c-0.246,0-0.443-0.078-0.569-0.222
		c-0.15-0.156-0.204-0.414-0.204-0.755v-1.583h-0.45v-0.402h0.45v-0.696L45.271,29.97z"/>
	<path fill="#FFFFFF" d="M46.867,30.803l0.635,1.715c0.066,0.192,0.138,0.42,0.186,0.594h0.012c0.054-0.174,0.114-0.396,0.186-0.605
		l0.576-1.703h0.558l-0.792,2.069c-0.377,0.996-0.635,1.505-0.995,1.817c-0.258,0.228-0.516,0.318-0.648,0.342l-0.132-0.444
		c0.132-0.042,0.306-0.126,0.462-0.258c0.144-0.114,0.324-0.318,0.444-0.587c0.024-0.054,0.042-0.096,0.042-0.126
		c0-0.03-0.012-0.072-0.036-0.138l-1.073-2.674H46.867z"/>
	<path fill="#FFFFFF" d="M17.119,39.089v0.39h-1.481v-0.39H17.119z"/>
	<path fill="#FFFFFF" d="M22.434,39.131c-0.03-0.564-0.066-1.241-0.06-1.745h-0.018c-0.138,0.474-0.306,0.978-0.509,1.535
		l-0.714,1.961h-0.396l-0.654-1.925c-0.192-0.57-0.354-1.092-0.468-1.571h-0.012c-0.012,0.504-0.042,1.181-0.078,1.787l-0.108,1.733
		h-0.498l0.282-4.042h0.666l0.689,1.955c0.168,0.498,0.306,0.941,0.408,1.361h0.018c0.102-0.408,0.246-0.852,0.426-1.361l0.72-1.955
		h0.666l0.252,4.042h-0.51L22.434,39.131z"/>
	<path fill="#FFFFFF" d="M25.477,40.906l-0.042-0.366h-0.018c-0.162,0.228-0.474,0.432-0.888,0.432
		c-0.587,0-0.887-0.414-0.887-0.833c0-0.702,0.624-1.085,1.745-1.08v-0.06c0-0.24-0.066-0.672-0.66-0.672
		c-0.27,0-0.552,0.084-0.756,0.216l-0.12-0.348c0.24-0.156,0.587-0.258,0.953-0.258c0.888,0,1.104,0.605,1.104,1.187v1.085
		c0,0.252,0.012,0.498,0.048,0.696H25.477z M25.398,39.425c-0.576-0.012-1.229,0.09-1.229,0.653c0,0.342,0.228,0.504,0.498,0.504
		c0.378,0,0.618-0.24,0.702-0.486c0.018-0.054,0.03-0.114,0.03-0.168V39.425z"/>
	<path fill="#FFFFFF" d="M26.762,38.789c0-0.3-0.006-0.546-0.024-0.786h0.462l0.024,0.468h0.018
		c0.162-0.276,0.432-0.534,0.912-0.534c0.396,0,0.695,0.24,0.821,0.582h0.012c0.09-0.162,0.204-0.288,0.324-0.378
		c0.174-0.132,0.366-0.204,0.642-0.204c0.384,0,0.954,0.252,0.954,1.259v1.709H30.39v-1.643c0-0.558-0.204-0.894-0.63-0.894
		c-0.3,0-0.534,0.222-0.624,0.48c-0.024,0.072-0.042,0.167-0.042,0.264v1.793h-0.516v-1.739c0-0.461-0.204-0.797-0.606-0.797
		c-0.33,0-0.569,0.264-0.653,0.528c-0.03,0.078-0.042,0.168-0.042,0.258v1.751h-0.516V38.789z"/>
	<path fill="#FFFFFF" d="M33.373,40.906l-0.042-0.366h-0.018c-0.162,0.228-0.474,0.432-0.888,0.432
		c-0.587,0-0.887-0.414-0.887-0.833c0-0.702,0.624-1.085,1.745-1.08v-0.06c0-0.24-0.066-0.672-0.66-0.672
		c-0.27,0-0.552,0.084-0.756,0.216l-0.12-0.348c0.24-0.156,0.587-0.258,0.953-0.258c0.888,0,1.104,0.605,1.104,1.187v1.085
		c0,0.252,0.012,0.498,0.048,0.696H33.373z M33.294,39.425c-0.576-0.012-1.229,0.09-1.229,0.653c0,0.342,0.228,0.504,0.498,0.504
		c0.378,0,0.618-0.24,0.702-0.486c0.018-0.054,0.03-0.114,0.03-0.168V39.425z"/>
	<path fill="#FFFFFF" d="M38.772,40.774c-0.192,0.096-0.576,0.192-1.067,0.192c-1.14,0-1.997-0.72-1.997-2.045
		c0-1.265,0.857-2.123,2.111-2.123c0.504,0,0.822,0.108,0.959,0.18l-0.126,0.426c-0.198-0.096-0.479-0.168-0.815-0.168
		c-0.947,0-1.577,0.605-1.577,1.667c0,0.989,0.57,1.625,1.553,1.625c0.318,0,0.642-0.066,0.852-0.168L38.772,40.774z"/>
	<path fill="#FFFFFF" d="M41.97,39.431c0,1.073-0.744,1.541-1.445,1.541c-0.786,0-1.391-0.576-1.391-1.493
		c0-0.971,0.636-1.541,1.439-1.541C41.406,37.938,41.97,38.543,41.97,39.431z M39.667,39.46c0,0.636,0.366,1.116,0.881,1.116
		c0.504,0,0.881-0.474,0.881-1.127c0-0.492-0.246-1.116-0.869-1.116C39.937,38.333,39.667,38.909,39.667,39.46z"/>
	<path fill="#FFFFFF" d="M42.638,38.789c0-0.3-0.006-0.546-0.024-0.786h0.468l0.03,0.479h0.012c0.144-0.276,0.48-0.545,0.959-0.545
		c0.402,0,1.025,0.24,1.025,1.235v1.733h-0.527v-1.673c0-0.468-0.174-0.858-0.672-0.858c-0.348,0-0.618,0.246-0.708,0.54
		c-0.024,0.066-0.036,0.156-0.036,0.246v1.745h-0.527V38.789z"/>
	<path fill="#FFFFFF" d="M48.037,40.798c-0.138,0.072-0.444,0.168-0.834,0.168c-0.875,0-1.445-0.594-1.445-1.481
		c0-0.894,0.611-1.541,1.559-1.541c0.312,0,0.587,0.078,0.731,0.15l-0.12,0.408c-0.126-0.072-0.324-0.138-0.612-0.138
		c-0.666,0-1.025,0.492-1.025,1.097c0,0.672,0.432,1.085,1.007,1.085c0.3,0,0.498-0.078,0.647-0.144L48.037,40.798z"/>
	<path fill="#FFFFFF" d="M48.913,39.55c0.012,0.714,0.468,1.008,0.996,1.008c0.378,0,0.605-0.066,0.804-0.15l0.09,0.377
		c-0.186,0.084-0.504,0.18-0.965,0.18c-0.894,0-1.427-0.588-1.427-1.463s0.516-1.565,1.361-1.565c0.947,0,1.199,0.833,1.199,1.367
		c0,0.108-0.012,0.192-0.018,0.246H48.913z M50.46,39.173c0.006-0.336-0.138-0.858-0.731-0.858c-0.534,0-0.768,0.492-0.81,0.858
		H50.46z"/>
	<path fill="#FFFFFF" d="M51.625,38.951c0-0.372-0.012-0.671-0.024-0.947h0.474l0.024,0.498h0.012
		c0.216-0.354,0.558-0.563,1.032-0.563c0.702,0,1.229,0.594,1.229,1.475c0,1.043-0.635,1.559-1.319,1.559
		c-0.384,0-0.719-0.168-0.893-0.456h-0.012v1.577h-0.521V38.951z M52.147,39.725c0,0.078,0.012,0.15,0.024,0.216
		c0.096,0.366,0.414,0.618,0.792,0.618c0.558,0,0.882-0.456,0.882-1.122c0-0.582-0.306-1.08-0.864-1.08
		c-0.36,0-0.696,0.258-0.797,0.654c-0.018,0.066-0.036,0.144-0.036,0.216V39.725z"/>
	<path fill="#FFFFFF" d="M55.674,37.17v0.833h0.756v0.402h-0.756v1.565c0,0.36,0.103,0.564,0.396,0.564
		c0.138,0,0.24-0.018,0.306-0.036l0.024,0.396c-0.102,0.042-0.264,0.072-0.469,0.072c-0.245,0-0.443-0.078-0.568-0.222
		c-0.15-0.156-0.205-0.414-0.205-0.755v-1.583h-0.45v-0.402h0.45v-0.696L55.674,37.17z"/>
</g>
</svg>
