<?xml version="1.0" encoding="utf-8"?>
<!-- Generator: Adobe Illustrator 16.0.0, SVG Export Plug-In . SVG Version: 6.00 Build 0)  -->
<!DOCTYPE svg PUBLIC "-//W3C//DTD SVG 1.1//EN" "http://www.w3.org/Graphics/SVG/1.1/DTD/svg11.dtd">
<svg version="1.1" id="Layer_1" xmlns="http://www.w3.org/2000/svg" xmlns:xlink="http://www.w3.org/1999/xlink" x="0px" y="0px"
	 width="107.69px" height="22.09px" viewBox="0 0 107.69 22.09" enable-background="new 0 0 107.69 22.09" xml:space="preserve">
<path fill="#00758D" d="M9.946,9.524l0.12,0.004l0.085,0.002l0.006,1.106L10.1,10.637l-0.138,0.002l-0.07,0.002L9.886,9.52
	L9.946,9.524z M10.167,12.461h-0.04h-0.119l-0.106,0.002l-0.009-1.601L10,10.865l0.119,0.001l0.04,0.001L10.167,12.461z
	 M10.177,14.236l-0.04,0.001l-0.119,0.003l-0.106,0.004l-0.009-1.576h0.07l0.139,0.002h0.056L10.177,14.236z M10.188,15.954
	l-0.041,0.003l-0.119,0.004l-0.106,0.008l-0.008-1.476l0.07,0.002l0.139,0.005h0.057L10.188,15.954z M10.195,17.416l-0.178,0.004
	l-0.088,0.006L9.922,16.26l0.071,0.004l0.139,0.006l0.057,0.003L10.195,17.416z M10.811,9.522l0.087-0.005l0.008,1.118h-0.053
	l-0.147-0.001l-0.007-1.107L10.811,9.522z M10.917,12.461h-0.098h-0.101l-0.01-1.594l0.101-0.001l0.097-0.002L10.917,12.461z
	 M10.928,14.241l-0.099-0.003l-0.101-0.002l-0.01-1.564l0.146-0.002h0.053L10.928,14.241z M10.939,15.963l-0.099-0.006l-0.101-0.005
	l-0.009-1.448h0.147l0.052-0.002L10.939,15.963z M10.948,17.434l-0.019-0.002l-0.181-0.01l-0.007-1.142l0.147-0.003l0.052-0.002
	L10.948,17.434z M10.045,8.63L10.01,8.628L9.978,8.627L9.943,8.626L9.911,8.625L9.88,8.624l0.032,0.002l0.031,0.001l0.034,0.001
	l0.034,0.001L10.045,8.63z M10.833,7.591l0.06,0.004l-0.062-0.004H10.833z M11.006,7.601l0.047,0.005L11.006,7.601z M79.278,6.12
	l-0.013-0.004l-0.012-0.009l-0.01-0.013l0.012,0.013l0.01,0.009L79.278,6.12l0.082,0.035L79.278,6.12z M107.683,20.826l-0.037-0.027
	v-0.715h-0.272l-0.001-0.007l0.273,0.007l-0.008-0.097l-0.673-0.379l-0.739-0.018l0.008,0.121l-0.024,0.01l-0.051,0.006
	l-0.073,0.006l-0.092,0.002l-0.096-0.002v-0.107l0.049-6.702l0.018-0.001l0.071-0.01l0.038-0.012l0.004-0.014l0.002-0.361
	l-0.031-0.016l-0.066-0.015l-0.096-0.015l-0.117-0.01l-0.084-0.006l0.008-1.136l-0.106-1.163l-0.112,1.157l-0.012,1.136
	l-0.094,0.001l-0.117,0.004l-0.096,0.009l-0.066,0.012l-0.035,0.014l-0.004,0.357l0.002,0.014l0.033,0.014l0.066,0.014l0.025,0.004
	l-0.072,6.393l-0.961-0.715l-5.244-0.092l-0.051-1.983l0.125-0.01l-0.002-0.054h-0.72l-0.019-0.793l0.139-0.006l-0.001-0.058
	l-0.215-0.006l0.022-0.032l0.038-0.097l0.011-0.103l-0.016-0.104l-0.042-0.095l-0.063-0.084l-0.086-0.061l-0.096-0.039l-0.006-0.001
	l-0.096-0.012l-0.096,0.012l-0.006,0.002l-0.096,0.039l-0.08,0.063l-0.061,0.082l-0.037,0.096l-0.001,0.005l-0.013,0.103
	l0.016,0.102l0.042,0.096l0.022,0.028h-0.002l-0.209,0.013l0.002,0.055l0.135,0.006l0.015,0.787h-0.379l-0.14,0.004h-1.239v-0.008
	l-0.113-0.002h-0.576l-0.002-0.328l0.099-0.006v-0.063l-2.047-0.002l-0.021-0.167l-0.049-0.195l-0.075-0.187l-0.099-0.174
	l-0.117-0.16l-0.139-0.145l-0.156-0.126l-0.17-0.103l-0.022-0.01l-0.177-0.08l-0.162-0.047V14.62l-0.014-0.008l-0.01-0.002
	l-0.19-0.029l-0.021-0.002l-0.031-0.003l-0.043-0.002l-0.019-0.001l0.015-1.051l-0.16-0.002l-0.014,1.051l-0.023,0.002l-0.041,0.002
	l-0.03,0.002l-0.175,0.023l-0.038,0.006l-0.011,0.004l-0.012,0.006v0.021l-0.168,0.047l-0.181,0.076l-0.019,0.012l-0.176,0.102
	l-0.16,0.125l-0.144,0.143l-0.125,0.162l-0.103,0.176l-0.082,0.188l-0.057,0.195l-0.025,0.168h-2.191l-0.003,0.064l0.104,0.006
	l-0.011,0.336l-0.245,0.006v-6.397h-0.533V9.644h-1.092v0.401h-0.574v2.127h-0.404v0.308h-0.217l-0.006-4.203L84.64,5.852
	l0.514-0.004h0.002h0.128V5.711h0.056l0.003-0.072V5.537h-0.06V5.318h0.033V5.303V5.096h0.011l0.001-0.016l-0.003-1.302h-0.019
	l-0.002-0.709L85.252,3.07v0.009l0.001,0.285h-0.008l-0.001,0.009l0.002,0.406h-0.011l-0.002,0.019v0.058l-1.049,0.007V3.38V3.373
	h-0.027V3.086l-0.001-0.007h-0.052v0.708h-0.019v0.077L83.075,3.87V3.389L83.074,3.38l-0.05,0.001v0.414h-0.014V3.096l-0.002-0.009
	l-0.051,0.001l0.001,0.707h-0.021v0.077L81.97,3.878V3.396l-0.004-0.007h-0.048v0.49H81.89V3.822l-0.008-0.02l-0.014,0.001V3.104
	l-0.003-0.008h-0.052v0.707h-0.02V3.88l-0.929,0.006V3.404l-0.003-0.007h-0.049v0.489l-0.064,0.001V3.83L80.74,3.811h-0.011
	l0.002-1.857l-0.004-0.009l-0.049,0.001l-0.002,1.159h-0.005l-0.001,0.706h-0.02v0.527l-0.114,0.005l-0.004,0.001l-0.025,0.001
	L80.37,4.351l-0.114,0.007l-0.003,0.001L80.228,4.36l-0.131,0.008l-0.111,0.008l0,0l-0.022,0.003h-0.001l-0.125,0.01l-0.105,0.01
	l0,0L79.71,4.4l-0.115,0.011l-0.099,0.011h-0.001l-0.012,0.006l-0.008,0.01l-0.008,0.013l-0.003,0.016l-0.002,0.018l0.002,0.019
	l0.003,0.018l0.008,0.015l0.008,0.013l0.012,0.008l0.009,0.004l-0.01-0.004L79.483,4.55l-0.008-0.013l-0.008-0.016l-0.003-0.017
	l-0.002-0.019l0.002-0.018l0.003-0.016l0.008-0.013l0.008-0.01l0.012-0.006l-0.02,0.003l-0.108,0.012l-0.089,0.012l-0.012,0.006
	l-0.012,0.009l-0.007,0.014l-0.005,0.016l-0.001,0.018l0.001,0.018l-0.001-0.018l0.001-0.018l0.005-0.016l0.007-0.014l0.012-0.009
	l0.01-0.006l-0.018,0.003L79.16,4.465l-0.081,0.014l-0.016,0.002l-0.088,0.015l-0.08,0.016L78.89,4.513l-0.078,0.015l-0.14,0.034
	l-0.114,0.036l-0.041,0.017l-0.004,0.002l-0.002,0.001l-0.004,0.001l-0.04,0.017l-0.015,0.006l-0.028,0.016l-0.006,0.004
	l-0.03,0.017L78.374,4.69l-0.018,0.016v0.001l-0.01,0.013l-0.008,0.017l-0.001,0.017l0.001,0.019l0.008,0.016l0.01,0.015
	l0.014,0.011l0.014,0.006l0.018,0.004l0.097,0.023l-0.097-0.023l-0.018-0.004l-0.015-0.006l-0.013-0.011l-0.01-0.015l-0.008-0.016
	l-0.001-0.019l0.001-0.017l0.008-0.017l0.01-0.013L78.353,4.71l-0.019,0.018l-0.01,0.014l-0.007,0.016L78.313,4.77l-0.002,0.005
	L78.31,4.793l0.002,0.018l0.006,0.016l0.011,0.014l0.014,0.011l0.015,0.007l0.017,0.003l0.229,0.053l-0.229-0.053l-0.017-0.003
	l-0.015-0.007l-0.014-0.011l-0.011-0.014l-0.006-0.016L78.31,4.793l0.002-0.018L78.31,4.779V4.78l-0.006,0.017l-0.002,0.017
	l0.002,0.018l0.004,0.015v0.002l0.002,0.003l0.002,0.004l0.004,0.014l0.007,0.016l0.01,0.014l0.015,0.016v0.001l0.004,0.003
	l0.002,0.002l0.016,0.016l0.013,0.01l0.024,0.015l0.003,0.002l0.005,0.002l0.001,0.002l0.026,0.016l0.016,0.006l0.021,0.01
	l0.015,0.006l0.007,0.003L78.5,5.011l0.039,0.016l0.044,0.014l0.002,0.001l0.01,0.003h0.002l0.047,0.016l0.055,0.014h0.001
	l0.012,0.003l0.002,0.001l0.058,0.015l0.063,0.013l0.001,0.001l0.014,0.002l0.002,0.001l0.067,0.014l0.071,0.013h0.002l0.014,0.002
	l0.003,0.001l0.075,0.013l0.018,0.003l0.789,0.142l-0.002,0.487L79.587,5.82l-0.271,0.049l-0.17,0.054l-0.063,0.056V6.25
	l0.047,0.054l0.01,0.004v0.371l-0.058,0.046v0.027l0.047,0.049l0.011,0.003l-0.002,0.244l-0.057,0.043v0.136l0.047,0.045l0.01,0.003
	l-0.024,10.768l-0.289-0.002L78.806,7.238h-0.789l-0.002-0.385H75.14l-0.183,0.385l-0.442,0.001l-0.32,0.762l0.006,9.598h-0.096
	l0.002-0.035l-0.066-0.031h-0.124l0.004-0.237h-0.03l-0.008-0.003v0.003h-0.025l-0.004,0.237l-0.15,0.001l0.003-0.164l-0.049-0.022
	h-0.111l0.003-0.207h-0.027l-0.006-0.002v0.002h-0.021l-0.003,0.207h-0.252l0.02-1.527l-0.195-0.028l-0.318-0.015l-0.107-0.045
	v-0.01h-0.023L72.565,15.7v-0.063l-0.166-0.027l-0.067-0.004l-0.116-0.221l-0.173-0.211l-0.21-0.168l-0.24-0.121l-0.256-0.068
	l-0.001-0.334l0.032-0.006l0.003-0.035v-0.012l-0.035-0.022l-0.024-0.048l-0.033-0.041l-0.04-0.031l-0.048-0.023l-0.049-0.012
	v-0.188h-0.05l-0.001-0.01v0.01h-0.048l0.001,0.187l-0.051,0.013l-0.047,0.022l-0.043,0.032l-0.032,0.039l-0.024,0.047l-0.035,0.023
	v0.012l0.01,0.035l0.025,0.004l0.004,0.336l-0.262,0.065l-0.242,0.121l-0.214,0.168l-0.175,0.21l-0.117,0.221l-0.078,0.006
	l-0.152,0.026v0.063l-0.049,0.021h-0.097v0.039l-0.032,0.016l-0.354,0.015l-0.179,0.028l0.035,1.547h-0.229l-0.005-0.209h-0.021
	v-0.002l-0.007,0.002h-0.028l0.004,0.209h-0.111l-0.055,0.025l0.005,0.166h-0.003h-0.194l-0.007-0.24h-0.023V17.31l-0.008,0.004
	H68.22l0.006,0.24l-0.125,0.002l-0.074,0.031v0.012h-0.051l0.006-9.598l-0.364-0.762h-0.413l-0.206-0.385h-2.874l-0.001,0.385
	h-0.797l-0.019,10.534l-0.086-0.086v-0.166l-0.054-1.146v-0.091h-0.062l-0.008,0.002l0.002,0.092l-0.006,0.151h-0.311v-0.025
	l-0.08-0.143l-0.005-0.67l-0.091-0.229l-0.004-0.678l-0.178-0.772h0.034l-0.001-0.168h-0.066v-0.006l-0.002,0.006h-0.069v0.092
	h-0.044v0.162h0.035l-0.121,0.545L62.019,13l0.067-0.007l0.007-0.023v-0.019l-0.001-0.114l-0.087-0.01l-0.102-1.221h0.063
	l-0.002-0.336l-0.002-0.49l-0.269,0.002l0.003,0.488l0.001,0.336h0.064l-0.002,0.006l-0.091,1.215l-0.082,0.01l-0.005,0.023
	l0.001,0.113v0.02l0.075,0.008l-0.158,1.626l-0.123-0.54v-0.076h0.018v-0.168h-0.069v-0.006l-0.001,0.006l-0.07,0.002l0.001,0.09
	h-0.014l0.001,0.162h0.029l-0.154,0.687v0.022l-0.01,0.043v0.641l-0.073,0.201v0.002l-0.001,0.004v0.017l-0.006,0.017v0.004
	l-0.002,0.004l0.002,0.637l-0.076,0.129v0.01l-0.005,0.008v0.008h-0.124v-0.11h-0.092v-0.491v-0.018h-0.08l-0.162-1.749v-0.002
	h0.089v-0.44h-0.239v0.44h0.09l-0.168,1.747h-0.015v0.004h-0.067v0.509h-0.094v0.11h-0.191v-0.008l-0.08-0.135l0.002-0.75h-0.004
	v-0.008h-0.024v-0.037h-0.004v-0.007l-0.031-0.001l0.002-0.861l-0.005-0.002v-0.011l-0.011-0.004h-0.015v-0.056l-0.004-0.002v-0.01
	l-0.013-0.004l-0.01-0.001l-0.116-0.532h0.02l0.002-0.162h-0.037l0.002-0.094h-0.07l-0.002-0.007v0.007h-0.066l-0.002,0.166h0.021
	L59.33,14.54l-0.155-1.598l0.076-0.008l0.001-0.019v-0.114l-0.008-0.023l-0.08-0.01l-0.09-1.217l-0.002-0.004h0.065l0.002-0.338
	l0.002-0.49l-0.269,0.002L58.87,11.21l-0.002,0.338h0.063l-0.104,1.219l-0.088,0.012l-0.001,0.113v0.02l0.012,0.023l0.063,0.006
	l-0.172,1.604l-0.096-0.448h0.02l0.002-0.162h-0.064l0.001-0.09h-0.069l-0.004-0.007v0.007h-0.066l-0.002,0.166h0.021l-0.14,0.62
	h-0.017L58.2,14.636l-0.008,0.002l-0.006,0.944l-0.066,0.003l-0.002,0.211l-0.004,0.564l-0.079,0.143v0.025h-0.213l-0.007-0.151
	l0.002-0.091l-0.01-0.003h-0.061l-0.001,0.092l-0.065,1.144l-0.002,0.168l-0.025,0.024l0.07-6.211l0.008-0.763l-0.563-0.079
	l-0.247,0.024v-0.041l-0.361-0.051l0.002-0.231l-0.309-0.046l0.002-0.235l-0.306-0.05l0.002-0.231l-0.304-0.051V9.52l-0.395-0.069
	l-0.631-0.004l-0.475,0.067l-0.039,0.093v0.151l-0.247,0.033l-0.047,0.121v0.127l-0.24,0.03l-0.049,0.146v0.106l-0.239,0.029
	l-0.049,0.165v0.082l-0.291,0.032l-0.01,0.048l-0.261-0.033l-0.691,0.078l0.002,0.766v0.002l0.008,3.619h-0.974l-0.016-3.534
	l-0.004-0.742l-0.697-0.078l-0.243,0.029l-0.026-0.044l-0.229-0.024l-0.001-0.094l-0.097-0.155l-0.188-0.022l-0.002-0.116
	l-0.088-0.137l-0.199-0.025l-0.001-0.133l-0.077-0.115L48.94,9.89l-0.002-0.155l-0.061-0.088l-0.48-0.067l-0.618-0.003L47.408,9.64
	l0.003,0.222L47.108,9.91l0.003,0.225l-0.305,0.047l0.004,0.229l-0.307,0.045l0.003,0.223l-0.36,0.049v0.037l-0.028-0.002V8.081
	h-0.765V7.385h-0.755V6.871h-0.784v1.21h-0.302V7.172l0.041-0.031V7.116l-0.041-0.003v-0.44l0.041-0.036V6.611l-0.041-0.003
	l0.001-0.436l0.04-0.04V6.107l-0.04-0.003V5.347l-0.805-0.074l-0.929-0.055l-0.181-0.006V4.535V4.292v-0.05V4.011V3.96V3.896
	l-1.483,0.003V3.746V3.657V3.439V3.388l-1.46,0.002l-0.001-1.756l-0.011-0.596h-0.104V1.18h-0.103V0.155l-0.001-0.153h-0.039V1.18
	l-0.104,0.001V0.155h0.001l-0.001-0.153h-0.039v1.179H38.15V0.155h0.001l-0.002-0.153H38.11l-0.001,1.179l-0.102,0.001V0.156h0.001
	l-0.002-0.153h-0.039v1.179h-0.103V0.156h0.001l-0.002-0.153h-0.039v1.179h-0.088L37.72,1.04l-0.105,0.001v2.204v0.052v0.221v0.091
	v0.295h-0.359v0.064v0.051v0.23V4.3v0.242v0.636h-0.028v0.098l-0.483,0.001l0.001,4.17h-1.524v-2.85h-0.879v-1.65h-0.33v1.65h-1.417
	v-1.65h-0.673v1.65h-0.549v8.7l-0.49,0.022l-0.233,0.017l-0.314,0.034l-0.003,0.001L30.2,15.194l-0.125-0.086l-0.509,0.24
	l-0.007,0.101v0.022h-0.002l0.002-0.022v-0.101l-0.508-0.238l-0.117,0.084l-0.13,0.179l-0.016-0.001l-0.316-0.034l-0.233-0.017
	l-1.397-0.061l-0.252,0.004l-1.53,0.156l-1.516,0.375l-1.047,0.422h-0.483v-2.852h-1.651v-0.719h-0.524v-0.717h-1.415v0.717h-0.89
	v0.719h-0.546v2.472l-0.141-0.022l-0.546,0.084l-0.507,0.244l-0.436,0.389l-0.332,0.503l-0.154,0.433l-2.428-0.003l-0.173,0.056
	l0.003,0.299l-0.711-0.049L11.488,7.362l-0.004-0.004l-0.025-0.004L11.416,7.35l-0.058-0.002l-0.021-0.001l-0.001-0.108
	l-0.032-0.015L11.211,7.21l-0.149-0.012l-0.195-0.007l-0.114-0.002l-0.001-0.065l0.101-0.002l0.256-0.012l0.21-0.016l0.149-0.018
	l0.079-0.02v-0.02V6.983l-0.079-0.02l-0.154-0.017l-0.219-0.012l-0.269-0.009l-0.075-0.001V6.891l0.037-0.004l0.053-0.008
	l0.023-0.008V6.839l-0.001-0.125l-0.001-0.128l-0.001-0.129L10.86,6.35l-0.001-0.106V6.219L10.85,6.21L10.809,6.2L10.74,6.193
	l-0.005-0.001V6.188h0.009l0.072-0.003l0.113-0.008l0.061-0.005h0.001h0.003l0.085-0.01l0.048-0.005h0.001l0.002-0.001l0.055-0.011
	l0.031-0.006h0.002l0.004-0.003l0.126-0.06l0.037-0.011l0.003-0.011l0.005-0.011V5.995l-0.001-0.02V5.972l-0.157-0.08l-0.059-0.019
	l-0.111-0.015l-0.159-0.013l-0.037-0.001l-0.044-0.023l-0.049-0.033L10.73,5.75l-0.04-0.044l-0.036-0.047l-0.03-0.05l-0.025-0.054
	l-0.018-0.057l-0.013-0.004L10.544,5.49h-0.006l-0.011-1.641l-0.002-0.005l-0.011-0.002l-0.019-0.004l-0.008-0.001l-0.007-1.24
	l-0.002-0.004L10.469,2.59l-0.013-0.003L10.44,2.585l-0.007-1.038L10.43,1.545l-0.006-0.002l-0.01-0.002l-0.01-0.001l-0.005-0.803
	l-0.001-0.001l-0.003-0.001l-0.004-0.001l-0.005-0.001H10.38h-0.006l-0.006,0.001l-0.005,0.001h-0.004l-0.004,0.001l-0.002,0.001
	v0.002l0.005,0.802l-0.009,0.001l-0.01,0.002l-0.007,0.002l-0.003,0.003l-0.001,0.002l0.006,1.036l-0.009,0.001l-0.016,0.003
	l-0.01,0.003l-0.005,0.004l0.008,1.241l-0.018,0.004l-0.016,0.004l-0.007,0.004l0.01,1.642l-0.012,0.001l-0.022,0.004l-0.01,0.005
	l-0.018,0.056l-0.024,0.055l-0.029,0.051L10.12,5.714l-0.04,0.044l-0.045,0.039L9.986,5.83L9.945,5.853L9.877,5.857l-0.15,0.016
	L9.625,5.891l-0.049,0.02L9.421,5.994l0.008,0.015v0.049L9.43,6.07l0.001,0.011l0.034,0.01l0.132,0.06l0.001,0.001h0.001l0.053,0.01
	l0.029,0.006h0.001h0.001l0.084,0.008l0.047,0.005h0.003l0.108,0.007l0.06,0.003h0.002h0.002l0.06,0.002v0.005L9.997,6.204
	l-0.052,0.01l-0.02,0.01v0.024l0.001,0.107v0.106l0.001,0.128v0.129l0.001,0.124v0.032L9.94,6.883L9.982,6.89l0.07,0.007h0.003
	v0.032L9.923,6.932L9.662,6.946L9.453,6.962L9.312,6.981L9.246,7.002v0.053l0.013,0.02l0.09,0.018l0.159,0.016l0.217,0.012
	l0.261,0.008h0.07l0.001,0.065L9.936,7.198L9.749,7.209L9.608,7.223L9.524,7.238L9.502,7.253L9.503,7.36H9.474l-0.06,0.003
	L9.367,7.367l-0.03,0.004L9.326,7.376l0.049,10.365l-0.627,0.021l0.001,0.232l-0.801,0.063v0.172H7.849v-0.021l-0.001-0.065V18.08
	l-0.532-0.056l-0.021-0.008l-0.033-0.006l-0.044-0.007l-0.051-0.003L7.142,18v-0.024l-0.001-0.002H7.137l-0.005-0.002H7.128v-0.057
	l-0.001-0.001l-0.002-0.001H7.122l-0.003-0.001v-0.062H7.117H7.116l-0.003-0.002v-0.082l0,0H7.112H7.111H7.11H7.108H7.107H7.105
	H7.104H7.103H7.102H7.101l0,0v0.082l-0.002,0.002H7.097H7.095v0.062l-0.002,0.001H7.09l-0.003,0.001v0.058H7.083l-0.005,0.002H7.074
	l-0.001,0.002V18H7.056l-0.052,0.002l-0.045,0.005l-0.035,0.006l-0.023,0.008l-0.008,0.008v0.019l0.006,0.009l0.021,0.01
	l0.032,0.006h0.012l-0.132,0.045v0.064v0.047L1.135,18.22l-0.172,0.022h-0.966v3.848h0.469h3.16h104.02v-1.168l0.045,0.002
	L107.683,20.826z"/>
</svg>
