<?xml version="1.0" encoding="utf-8"?>
<!-- Generator: Adobe Illustrator 16.0.0, SVG Export Plug-In . SVG Version: 6.00 Build 0)  -->
<!DOCTYPE svg PUBLIC "-//W3C//DTD SVG 1.1//EN" "http://www.w3.org/Graphics/SVG/1.1/DTD/svg11.dtd">
<svg version="1.1" id="Layer_1" xmlns="http://www.w3.org/2000/svg" xmlns:xlink="http://www.w3.org/1999/xlink" x="0px" y="0px"
	 width="81.133px" height="56.251px" viewBox="0 0 81.133 56.251" enable-background="new 0 0 81.133 56.251" xml:space="preserve">
<polygon fill="#B8B8B8" points="81.134,48.405 81.134,0.042 0,0.042 0,48.405 44.681,48.405 52.568,56.294 60.456,48.405 
	81.134,48.405 "/>
<path fill="#FFFFFF" d="M3.283,12.072V9.225C3.271,8.815,3.33,8.431,3.46,8.071c0.13-0.359,0.313-0.676,0.549-0.949
	C4.245,6.85,4.527,6.623,4.856,6.442c0.328-0.179,0.685-0.294,1.07-0.344v1.228c-0.472,0.161-0.794,0.4-0.968,0.716
	c-0.174,0.317-0.26,0.705-0.26,1.163h1.228v2.866H3.283L3.283,12.072z M7.247,12.072V9.225C7.234,8.815,7.293,8.431,7.424,8.071
	c0.13-0.359,0.313-0.676,0.549-0.949C8.208,6.85,8.49,6.623,8.819,6.442c0.329-0.179,0.685-0.294,1.07-0.344v1.228
	c-0.471,0.161-0.794,0.4-0.967,0.716C8.748,8.359,8.661,8.748,8.661,9.206h1.228v2.866H7.247L7.247,12.072z"/>
<text transform="matrix(1 0 0 1 13.5 10.4453)" fill="#FFFFFF" font-family="'Helvetica'" font-size="6">We</text>
<text transform="matrix(1 0 0 1 22.3984 10.4453)" fill="#FFFFFF" font-family="'Helvetica'" font-size="6"> believe in self</text>
<text transform="matrix(1 0 0 1 13.5 17.6484)" fill="#FFFFFF" font-family="'Helvetica'" font-size="6">management at IS</text>
<text transform="matrix(1 0 0 1 13.5 24.8516)" fill="#FFFFFF" font-family="'Helvetica'" font-size="6">Media. My work, My</text>
<text transform="matrix(1 0 0 1 13.5 32.0469)" fill="#FFFFFF" font-family="'Helvetica'" font-size="6">responsibility</text>
<text transform="matrix(1 0 0 1 13.5 41.0469)" fill="#FFFFFF" font-family="'Helvetica'" font-size="6">- Mama Concept</text>
</svg>
